<?xml version="1.0" standalone="no"?>
<!DOCTYPE svg PUBLIC "-//W3C//DTD SVG 1.1//EN" "http://www.w3.org/Graphics/SVG/1.1/DTD/svg11.dtd" >
<svg xmlns="http://www.w3.org/2000/svg" xmlns:xlink="http://www.w3.org/1999/xlink" version="1.1">
<metadata>
Created by FontForge 20170812 at Mon Jun 22 13:22:00 2020
 By www-data
Copyright 2020 The Poppins Project Authors (https://github.com/itfoundry/Poppins)
</metadata>
<defs>
<font id="Poppins-Black" horiz-adv-x="335" >
  <font-face 
    font-family="Poppins Black"
    font-weight="900"
    font-stretch="normal"
    units-per-em="1000"
    panose-1="0 0 10 0 0 0 0 0 0 0"
    ascent="800"
    descent="-200"
    x-height="564"
    cap-height="708"
    bbox="-626 -626.998 2420 1135"
    underline-thickness="50"
    underline-position="-100"
    unicode-range="U+000D-FB02"
  />
<missing-glyph horiz-adv-x="500" 
d="M0 700h500v-700h-500v700zM420 650h-340l170 -255zM50 95l170 255l-170 255v-510zM450 95v510l-170 -255zM420 50l-170 255l-170 -255h340z" />
    <glyph glyph-name=".notdef" horiz-adv-x="500" 
d="M0 700h500v-700h-500v700zM420 650h-340l170 -255zM50 95l170 255l-170 255v-510zM450 95v510l-170 -255zM420 50l-170 255l-170 -255h340z" />
    <glyph glyph-name="NULL" horiz-adv-x="0" 
 />
    <glyph glyph-name="NULL" horiz-adv-x="0" 
 />
    <glyph glyph-name="CR" unicode="&#xd;" horiz-adv-x="170" 
 />
    <glyph glyph-name="space" unicode=" " horiz-adv-x="170" 
 />
    <glyph glyph-name="exclam" unicode="!" horiz-adv-x="455" 
d="M349 755l-26 -474h-190l-26 474h242zM135 23c-23.333 20.667 -35 46.667 -35 78c0 32 11.667 58.5 35 79.5s54.333 31.5 93 31.5c38 0 68.667 -10.5 92 -31.5s35 -47.5 35 -79.5c0 -31.333 -11.667 -57.333 -35 -78s-54 -31 -92 -31c-38.667 0 -69.667 10.333 -93 31z
" />
    <glyph glyph-name="quotedbl" unicode="&#x22;" horiz-adv-x="490" 
d="M220 803l-13 -235h-148l-14 235h175zM445 803l-13 -235h-148l-14 235h175z" />
    <glyph glyph-name="numbersign" unicode="#" horiz-adv-x="933" 
d="M765 421l-20 -95h110v-202h-154l-26 -124h-206l26 124h-139l-26 -124h-205l26 124h-141v202h185l20 95h-137v202h180l25 117h205l-25 -117h139l25 117h206l-25 -117h115v-202h-158zM559 421h-139l-20 -95h139z" />
    <glyph glyph-name="dollar" unicode="$" horiz-adv-x="665" 
d="M604.5 101c-21.667 -32 -53.167 -57.668 -94.5 -77.001s-91 -29.666 -149 -30.999v-80h-62v82c-77.333 7.33301 -140 30.666 -188 69.999s-74.333 93.333 -79 162h236c2 -27.333 12.333 -46 31 -56v98c-58 16 -103.833 30.667 -137.5 44s-64 35.333 -91 66
s-40.5 72.334 -40.5 125.001c0 43.333 12 80.833 36 112.5s56.333 56.167 97 73.5s86 27 136 29v81h62v-81c79.333 -5.33301 142 -27.5 188 -66.5s71.333 -92.833 76 -161.5h-239c-2.66699 25.333 -11 42.333 -25 51v-97c23.333 -6.66699 34.333 -10 33 -10
c50 -15.333 91.167 -30.5 123.5 -45.5s60.333 -37.167 84 -66.5s35.5 -67.333 35.5 -114c0 -40 -10.833 -76 -32.5 -108zM299 469.999v80c-20.667 -4 -31 -16 -31 -36c0 -17.333 10.333 -32 31 -44zM400 203.999c0 17.333 -13 32 -39 44v-86c26 5.33301 39 19.333 39 42z
" />
    <glyph glyph-name="percent" unicode="%" horiz-adv-x="938" 
d="M71 674.5c33.333 31 77 46.5 131 46.5c53.333 0 96.5 -15.5 129.5 -46.5s49.5 -75.833 49.5 -134.5s-16.5 -103.334 -49.5 -134.001s-76.167 -46 -129.5 -46c-54 0 -97.667 15.333 -131 46s-50 75.334 -50 134.001s16.667 103.5 50 134.5zM762 711l-373 -711h-212
l373 711h212zM166 540c0 -34 11.333 -51.001 34 -51.001c12 0 21.167 4.33301 27.5 13s9.5 21.334 9.5 38.001c0 17.333 -3.16699 30.333 -9.5 39s-15.5 13 -27.5 13c-22.667 0 -34 -17.333 -34 -52zM608 305.499c33.333 31 76.666 46.5 129.999 46.5
c54 0 97.333 -15.5 130 -46.5s49 -75.833 49 -134.5s-16.333 -103.5 -49 -134.5s-76 -46.5 -130 -46.5c-53.333 0 -96.666 15.5 -129.999 46.5s-50 75.833 -50 134.5s16.667 103.5 50 134.5zM702 170.999c0 -34.667 11.667 -52 35 -52c11.333 0 20.166 4.33301 26.499 13
s9.5 21.667 9.5 39c0 16.667 -3.16699 29.5 -9.5 38.5s-15.166 13.5 -26.499 13.5c-23.333 0 -35 -17.333 -35 -52z" />
    <glyph glyph-name="ampersand" unicode="&#x26;" horiz-adv-x="831" 
d="M587 0l-49 45.998c-62.667 -37.333 -136.334 -56 -221.001 -56c-57.333 0 -107.166 9 -149.499 27s-74.833 43.5 -97.5 76.5s-34 70.833 -34 113.5c0 40.667 10.5 77.834 31.5 111.501s52.5 62.167 94.5 85.5c-30.667 38 -46 78 -46 120c0 36 9.5 69 28.5 99
s46.833 53.833 83.5 71.5s80.334 26.5 131.001 26.5c51.333 0 95 -9.16699 131 -27.5s63 -42.5 81 -72.5s27 -62.333 27 -97h-202c0 12.667 -3.66699 22.167 -11 28.5s-16 9.5 -26 9.5c-10.667 0 -19.834 -3.16699 -27.501 -9.5s-11.5 -15.166 -11.5 -26.499
c0 -21.333 14.667 -46 44 -74l161 -156c9.33301 18 17.666 38.333 24.999 61l3 9h215l-10 -26c-25.333 -66.667 -56.666 -126 -93.999 -178l167 -162h-244zM400 175.998l-118 110c-11.333 -8 -19.833 -17.167 -25.5 -27.5s-8.5 -20.833 -8.5 -31.5
c0 -17.333 7.5 -32 22.5 -44s35.833 -18 62.5 -18c24 0 46.333 3.66699 67 11z" />
    <glyph glyph-name="quotesingle" unicode="'" horiz-adv-x="265" 
d="M220 803l-13 -235h-148l-14 235h175z" />
    <glyph glyph-name="parenleft" unicode="(" horiz-adv-x="463" 
d="M109.5 11c-37 99.333 -55.5 206.668 -55.5 322.001s18.5 222.666 55.5 321.999s87.5 179.333 151.5 240h214v-21c-64.667 -68 -115.667 -149.833 -153 -245.5s-56 -194.167 -56 -295.5c0 -102 18.667 -200.833 56 -296.5s88.333 -177.5 153 -245.5v-20h-214
c-64 60.667 -114.5 140.667 -151.5 240z" />
    <glyph glyph-name="parenright" unicode=")" horiz-adv-x="463" 
d="M-12 -229v19.998c64.667 68 115.667 149.833 153 245.5s56 194.5 56 296.5c0 101.333 -18.667 199.833 -56 295.5s-88.333 177.5 -153 245.5v21h214c64 -60.667 114.5 -140.667 151.5 -240s55.5 -206.666 55.5 -321.999s-18.5 -222.666 -55.5 -321.999
s-87.5 -179.333 -151.5 -240h-214z" />
    <glyph glyph-name="asterisk" unicode="*" horiz-adv-x="561" 
d="M420 709l67 -121l-111 -36l111 -34l-73 -127l-87 86l28 -117h-139l28 117l-85 -87l-75 129l111 36l-109 32l67 121l92 -83l-31 119h142l-29 -119z" />
    <glyph glyph-name="plus" unicode="+" horiz-adv-x="551" 
d="M531 238h-149v-153h-213v153h-149v203h149v154h213v-154h149v-203z" />
    <glyph glyph-name="comma" unicode="," horiz-adv-x="342" 
d="M288 177l-103 -297h-140l47 297h196z" />
    <glyph glyph-name="hyphen" unicode="-" horiz-adv-x="576" 
d="M486 433v-183h-466v183h466z" />
    <glyph glyph-name="period" unicode="." horiz-adv-x="319" 
d="M67 23c-23.333 20.667 -35 46.667 -35 78c0 32 11.667 58.5 35 79.5s54.333 31.5 93 31.5c38 0 68.667 -10.5 92 -31.5s35 -47.5 35 -79.5c0 -31.333 -11.667 -57.333 -35 -78s-54 -31 -92 -31c-38.667 0 -69.667 10.333 -93 31z" />
    <glyph glyph-name="slash" unicode="/" horiz-adv-x="399" 
d="M442 955l-265 -1153h-213l266 1153h212z" />
    <glyph glyph-name="zero" unicode="0" horiz-adv-x="662" 
d="M105.5 648c49 66 124.5 99 226.5 99c101.333 0 176.666 -33.167 225.999 -99.5s74 -156.833 74 -271.5c0 -115.333 -24.667 -206.166 -74 -272.499s-124.666 -99.5 -225.999 -99.5c-102 0 -177.5 33.167 -226.5 99.5s-73.5 157.166 -73.5 272.499s24.5 206 73.5 272z
M397 496.5c-10.667 27 -32.334 40.5 -65.001 40.5c-33.333 0 -55.333 -13.5 -66 -40.5s-16 -67.167 -16 -120.5c0 -54 5.33301 -94.5 16 -121.5s32.667 -40.5 66 -40.5c32.667 0 54.334 13.5 65.001 40.5s16 67.5 16 121.5c0 53.333 -5.33301 93.5 -16 120.5z" />
    <glyph glyph-name="one" unicode="1" horiz-adv-x="399" 
d="M10 523v208h339v-731h-233v523h-106z" />
    <glyph glyph-name="two" unicode="2" horiz-adv-x="566" 
d="M240 358.5c52 54.333 78 105.167 78 152.5c0 16 -3.5 28.333 -10.5 37s-16.167 13 -27.5 13c-13.333 0 -23.833 -6.83301 -31.5 -20.5s-10.5 -34.5 -8.5 -62.5h-215c2 62 15.5 113 40.5 153s57.5 69.333 97.5 88s84 28 132 28c85.333 0 147.833 -20.5 187.5 -61.5
s59.5 -93.5 59.5 -157.5c0 -67.333 -21.5 -130.5 -64.5 -189.5s-96.833 -108.833 -161.5 -149.5h229v-179h-517v167c89.333 66.667 160 127.167 212 181.5z" />
    <glyph glyph-name="three" unicode="3" horiz-adv-x="615" 
d="M114.5 684c44.333 42 107.165 63 188.498 63c52.667 0 97.667 -9 135 -27s65.5 -42.333 84.5 -73s28.5 -65.334 28.5 -104.001c0 -46.667 -11 -83.167 -33 -109.5s-46.667 -44.166 -74 -53.499v-4c80 -30 120 -85.667 120 -167c0 -42.667 -10 -80.334 -30 -113.001
s-48.5 -58 -85.5 -76s-80.833 -27 -131.5 -27c-86.667 0 -154.667 20.667 -204 62s-74.666 106 -75.999 194h216c-1.33301 -24 2.16699 -42.167 10.5 -54.5s22.833 -18.5 43.5 -18.5c12 0 22 4.5 30 13.5s12 20.833 12 35.5c0 18.667 -6.16699 32.834 -18.5 42.501
s-33.166 14.5 -62.499 14.5h-37v179h36c45.333 -2.66699 68 15.333 68 54c0 16.667 -3.5 29 -10.5 37s-15.833 12 -26.5 12c-24.667 0 -37 -20.667 -37 -62h-216c2 79.333 25.167 140 69.5 182z" />
    <glyph glyph-name="four" unicode="4" horiz-adv-x="704" 
d="M52 110v185l298 425h239v-418h72v-192h-72v-110h-224v110h-313zM383 467l-108 -165h108v165z" />
    <glyph glyph-name="five" unicode="5" horiz-adv-x="660" 
d="M584 536l-289.995 0.00195312v-84c12.667 11.333 29.167 20.333 49.5 27s43.166 10 68.499 10c45.333 0 83.666 -10.667 114.999 -32s54.666 -49.833 69.999 -85.5s23 -75.167 23 -118.5c0 -80 -22.5 -142.167 -67.5 -186.5s-106.833 -66.5 -185.5 -66.5
c-57.333 0 -106.833 10 -148.5 30s-73.334 47.667 -95.001 83s-31.834 75.666 -30.501 120.999h216c0 -10.667 3.66699 -20.667 11 -30s19.333 -14 36 -14s29 6 37 18s12 28.333 12 49c0 19.333 -4.5 34 -13.5 44s-21.833 15 -38.5 15c-14 0 -24.667 -3.33301 -32 -10
s-11 -14.334 -11 -23.001h-216v448h490v-195z" />
    <glyph glyph-name="six" unicode="6" horiz-adv-x="633" 
d="M347.5 553c-7.66699 9.33301 -19.499 13.999 -35.499 13.999c-25.333 0 -42.166 -12.833 -50.499 -38.5s-12.5 -65.5 -12.5 -119.5c12 18.667 29.333 33.334 52 44.001s48.334 16 77.001 16c64 0 115.167 -19.667 153.5 -59s57.5 -96.333 57.5 -171
c0 -50 -10.5 -93.5 -31.5 -130.5s-50.833 -65.5 -89.5 -85.5s-84.334 -30 -137.001 -30c-104.667 0 -177.334 32.167 -218.001 96.5s-61 154.5 -61 270.5c0 90.667 9.33301 164 28 220s48.167 97.333 88.5 124s92.833 40 157.5 40c79.333 0 139.166 -22.667 179.499 -68
s62.5 -101 66.5 -167h-207c-4 20 -9.83301 34.667 -17.5 44zM280.001 283.999c-10.667 -10 -16 -24 -16 -42c0 -20 5.16699 -34.833 15.5 -44.5s24.833 -14.5 43.5 -14.5s33.167 4.83301 43.5 14.5s15.5 24.5 15.5 44.5c0 18 -5.33301 32 -16 42s-25 15 -43 15
s-32.333 -5 -43 -15z" />
    <glyph glyph-name="seven" unicode="7" horiz-adv-x="512" 
d="M502 568l-228 -568h-228l230 541h-258v190h484v-163z" />
    <glyph glyph-name="eight" unicode="8" horiz-adv-x="657" 
d="M86.5 462.5c-15 25 -22.498 54.833 -22.498 89.5c0 36 9.66699 68.667 29 98s48.833 52.833 88.5 70.5s88.5 26.5 146.5 26.5s106.833 -8.83301 146.5 -26.5s69.167 -41.167 88.5 -70.5s29 -62 29 -98c0 -34.667 -7.5 -64.5 -22.5 -89.5s-35.833 -45.167 -62.5 -60.5
c67.333 -39.333 101 -98.333 101 -177c0 -50.667 -12.667 -93.667 -38 -129s-59.333 -62 -102 -80s-89.334 -27 -140.001 -27s-97.334 9 -140.001 27s-76.667 44.667 -102 80s-38 78.333 -38 129c0 78.667 33.667 137.667 101 177c-26.667 15.333 -47.5 35.5 -62.5 60.5z
M361.002 559.5c-8.66699 11 -19.667 16.5 -33 16.5s-24.333 -5.5 -33 -16.5s-13 -25.833 -13 -44.5c0 -19.333 4.33301 -34 13 -44s19.667 -15 33 -15s24.333 5 33 15s13 24.667 13 44c0 18.667 -4.33301 33.5 -13 44.5zM280.502 287.5c-11.667 -13 -17.5 -29.5 -17.5 -49.5
s5.66699 -36.333 17 -49s27.333 -19 48 -19s36.667 6.33301 48 19s17 29 17 49s-5.83301 36.5 -17.5 49.5s-27.5 19.5 -47.5 19.5s-35.833 -6.5 -47.5 -19.5z" />
    <glyph glyph-name="nine" unicode="9" horiz-adv-x="597" 
d="M272.5 184.5c9 -9.66699 21.499 -14.499 37.499 -14.499c24.667 0 40.834 12.5 48.501 37.5s11.5 65.167 11.5 120.5c-12 -18.667 -29.333 -33.334 -52 -44.001s-48.334 -16 -77.001 -16c-63.333 0 -114.333 20 -153 60s-58 97.667 -58 173c0 50 10.5 93.5 31.5 130.5
s51 65.5 90 85.5s84.5 30 136.5 30c105.333 0 178.5 -31 219.5 -93s61.5 -150.333 61.5 -265c0 -132 -20.167 -231 -60.5 -297s-108.166 -99 -203.499 -99c-52.667 0 -98 11 -136 33s-67.167 50.833 -87.5 86.5s-31.833 74.167 -34.5 115.5h207
c3.33301 -19.333 9.5 -33.833 18.5 -43.5zM338.999 453.001c10.667 10 16 24 16 42c0 20 -5.16699 34.833 -15.5 44.5s-24.833 14.5 -43.5 14.5s-33.167 -4.83301 -43.5 -14.5s-15.5 -24.5 -15.5 -44.5c0 -18 5.33301 -32 16 -42s25 -15 43 -15s32.333 5 43 15z" />
    <glyph glyph-name="colon" unicode=":" horiz-adv-x="319" 
d="M67 23c-23.333 20.667 -35 46.667 -35 78c0 32 11.667 58.5 35 79.5s54.333 31.5 93 31.5c38 0 68.667 -10.5 92 -31.5s35 -47.5 35 -79.5c0 -31.333 -11.667 -57.333 -35 -78s-54 -31 -92 -31c-38.667 0 -69.667 10.333 -93 31zM67 419
c-23.333 20.667 -35 46.667 -35 78c0 32 11.667 58.5 35 79.5s54.333 31.5 93 31.5c38 0 68.667 -10.5 92 -31.5s35 -47.5 35 -79.5c0 -31.333 -11.667 -57.333 -35 -78s-54 -31 -92 -31c-38.667 0 -69.667 10.333 -93 31z" />
    <glyph glyph-name="semicolon" unicode=";" horiz-adv-x="385" 
d="M103 404c-23.333 20.667 -35 46.667 -35 78c0 32 11.667 58.5 35 79.5s54.333 31.5 93 31.5c38 0 68.667 -10.5 92 -31.5s35 -47.5 35 -79.5c0 -31.333 -11.667 -57.333 -35 -78s-54 -31 -92 -31c-38.667 0 -69.667 10.333 -93 31zM310 177l-103 -297h-140l47 297h196z
" />
    <glyph glyph-name="less" unicode="&#x3c;" horiz-adv-x="497" 
d="M200 125l-180 215l180 216h277l-180 -216l180 -215h-277z" />
    <glyph glyph-name="equal" unicode="=" horiz-adv-x="626" 
d="M606 580v-201h-586v201h586zM606 300v-201h-586v201h586z" />
    <glyph glyph-name="greater" unicode="&#x3e;" horiz-adv-x="497" 
d="M20 556h277l180 -216l-180 -215h-277l180 215z" />
    <glyph glyph-name="question" unicode="?" horiz-adv-x="538" 
d="M450.5 717.5c45 -37 67.499 -91.168 67.499 -162.501c0 -58.667 -19.833 -106 -59.5 -142s-91.5 -54.667 -155.5 -56l-6 -71h-196l-6 212h84c39.333 0 69.5 4.33301 90.5 13s31.5 22.667 31.5 42c0 12.667 -3.16699 22.5 -9.5 29.5s-14.833 10.5 -25.5 10.5
c-13.333 0 -23.166 -4.16699 -29.499 -12.5s-9.5 -19.166 -9.5 -32.499h-209c-2 41.333 6.16699 79 24.5 113s46.833 61.167 85.5 81.5s86.667 30.5 144 30.5c74 0 133.5 -18.5 178.5 -55.5zM108.999 22.999c-23.333 20.667 -35 46.667 -35 78c0 32 11.667 58.5 35 79.5
s54.333 31.5 93 31.5c38 0 68.667 -10.5 92 -31.5s35 -47.5 35 -79.5c0 -31.333 -11.667 -57.333 -35 -78s-54 -31 -92 -31c-38.667 0 -69.667 10.333 -93 31z" />
    <glyph glyph-name="at" unicode="@" horiz-adv-x="1129" 
d="M859 640c62 -31.333 109.836 -75.167 143.503 -131.5s50.5 -120.833 50.5 -193.5c0 -60 -10.667 -114.167 -32 -162.5s-52.666 -86.5 -93.999 -114.5s-91 -42 -149 -42c-36.667 0 -67.834 6.66699 -93.501 20s-44.167 32.333 -55.5 57
c-16.667 -26 -38.834 -45.833 -66.501 -59.5s-59.167 -20.5 -94.5 -20.5c-48.667 0 -86.667 14 -114 42s-41 67.333 -41 118c0 47.333 9.33301 92 28 134s44.667 75.833 78 101.5s70.666 38.5 111.999 38.5c27.333 0 50.166 -5.66699 68.499 -17
s30.833 -26.666 37.5 -45.999l10 58h172l-39 -221c-2 -8.66699 -3 -17 -3 -25c0 -25.333 10.667 -38 32 -38c26.667 0 46.834 16.167 60.501 48.5s20.5 73.166 20.5 122.499c0 46 -10.833 86.5 -32.5 121.5s-52.334 62.167 -92.001 81.5s-86.167 29 -139.5 29
c-72 0 -137.833 -17.5 -197.5 -52.5s-106.667 -82.333 -141 -142s-51.5 -124.5 -51.5 -194.5c0 -76 22 -136.333 66 -181s104.333 -67 181 -67c68 0 130 12 186 36l38 -139c-69.333 -30.667 -147.333 -46 -234 -46c-79.333 0 -149 15.667 -209 47
s-106.333 75.833 -139 133.5s-49 124.5 -49 200.5c0 106 25 200.833 75 284.5s118.333 149 205 196s183 70.5 289 70.5c80.667 0 152 -15.667 214 -47zM586.503 168.999c13.667 14.667 20.498 33.001 20.498 55.001c0 15.333 -4 27.5 -12 36.5s-18.333 13.5 -31 13.5
c-17.333 0 -32.666 -7.5 -45.999 -22.5s-20 -33.833 -20 -56.5c0 -14.667 3.83301 -26.334 11.5 -35.001s18.167 -13 31.5 -13c16.667 0 31.834 7.33301 45.501 22z" />
    <glyph glyph-name="A" unicode="A" horiz-adv-x="773" 
d="M504 107h-236l-35 -107h-233l259 708h256l258 -708h-234zM450 274l-64 197l-64 -197h128z" />
    <glyph glyph-name="B" unicode="B" horiz-adv-x="684" 
d="M623.5 301.5c23.667 -31 35.499 -66.835 35.499 -107.502c0 -62 -20.5 -109.833 -61.5 -143.5s-99.833 -50.5 -176.5 -50.5h-371v708h361c72 0 128.667 -15.667 170 -47s62 -77 62 -137c0 -41.333 -10.833 -76.166 -32.5 -104.499s-50.5 -47.166 -86.5 -56.499
c42.667 -10 75.834 -30.5 99.501 -61.5zM271.999 431.998l86 0.000976562c20 0 34.833 4 44.5 12s14.5 20.333 14.5 37c0 17.333 -4.83301 30.166 -14.5 38.499s-24.5 12.5 -44.5 12.5h-86v-100zM417.499 189.499c9.66699 7.66699 14.5 20.167 14.5 37.5
c0 34 -19.667 51 -59 51h-101v-100h101c20 0 34.833 3.83301 44.5 11.5z" />
    <glyph glyph-name="C" unicode="C" horiz-adv-x="753" 
d="M72.5 542c28.333 54.667 68.833 97.167 121.5 127.5s114.667 45.5 186 45.5c61.333 0 116.166 -11.5 164.499 -34.5s87.666 -55.5 117.999 -97.5s50.5 -91 60.5 -147h-234c-10.667 23.333 -25.834 41.5 -45.501 54.5s-42.167 19.5 -67.5 19.5
c-37.333 0 -66.833 -14 -88.5 -42s-32.5 -65.667 -32.5 -113s10.833 -85 32.5 -113s51.167 -42 88.5 -42c25.333 0 47.833 6.5 67.5 19.5s34.834 31.167 45.501 54.5h234c-10 -56 -30.167 -105 -60.5 -147s-69.666 -74.5 -117.999 -97.5s-103.166 -34.5 -164.499 -34.5
c-71.333 0 -133.333 15.167 -186 45.5s-93.167 72.833 -121.5 127.5s-42.5 117 -42.5 187s14.167 132.333 42.5 187z" />
    <glyph glyph-name="D" unicode="D" horiz-adv-x="743" 
d="M539.5 663c55.667 -30 98.5 -71.667 128.5 -125s45 -114 45 -182c0 -67.333 -15 -128 -45 -182s-72.833 -96.5 -128.5 -127.5s-120.5 -46.5 -194.5 -46.5h-295v708h295c74 0 138.833 -15 194.5 -45zM444 239c29.333 27.333 44 66.333 44 117s-14.667 89.667 -44 117
s-69 41 -119 41h-53v-316h53c50 0 89.667 13.667 119 41z" />
    <glyph glyph-name="E" unicode="E" horiz-adv-x="556" 
d="M272 531v-87h220v-167h-220v-100h250v-177h-472v708h472v-177h-250z" />
    <glyph glyph-name="F" unicode="F" horiz-adv-x="575" 
d="M550 708v-176h-278v-98h200v-167h-200v-267h-222v708h500z" />
    <glyph glyph-name="G" unicode="G" horiz-adv-x="752" 
d="M484 466c-8.66699 14 -21 24.834 -37 32.501s-35.333 11.5 -58 11.5c-42.667 0 -75.667 -13.833 -99 -41.5s-35 -65.5 -35 -113.5c0 -55.333 13 -96.666 39 -123.999s66 -41 120 -41c51.333 0 92.666 20.667 123.999 62h-177v157h361v-222
c-30.667 -52.667 -73 -97.834 -127 -135.501s-122.333 -56.5 -205 -56.5c-73.333 0 -137.166 15.167 -191.499 45.5s-96 72.833 -125 127.5s-43.5 117 -43.5 187s14.5 132.333 43.5 187s70.5 97.167 124.5 127.5s117.333 45.5 190 45.5c92.667 0 168.167 -22.333 226.5 -67
s92.833 -105.334 103.5 -182.001h-234z" />
    <glyph glyph-name="H" unicode="H" horiz-adv-x="755" 
d="M705 708v-708h-222v276h-211v-276h-222v708h222v-255h211v255h222z" />
    <glyph glyph-name="I" unicode="I" horiz-adv-x="322" 
d="M272 708v-708h-222v708h222z" />
    <glyph glyph-name="J" unicode="J" horiz-adv-x="590" 
d="M544 708l0.000976562 -456.998c0 -84.667 -22.167 -148.834 -66.5 -192.501s-106.5 -65.5 -186.5 -65.5c-86 0 -154.333 23.667 -205 71s-76 116.333 -76 207h219c0 -28.667 4.66699 -48.834 14 -60.501s22 -17.5 38 -17.5c13.333 0 23.666 4.33301 30.999 13
s11 23.667 11 45v457h221z" />
    <glyph glyph-name="K" unicode="K" horiz-adv-x="755" 
d="M478 0l-206 307v-307h-222v708h222v-298l203 298h251l-244 -339l260 -369h-264z" />
    <glyph glyph-name="L" unicode="L" horiz-adv-x="506" 
d="M272 168h214v-168h-436v708h222v-540z" />
    <glyph glyph-name="M" unicode="M" horiz-adv-x="951" 
d="M901 708v-708h-221v353l-109 -353h-190l-109 353v-353h-222v708h272l156 -425l152 425h271z" />
    <glyph glyph-name="N" unicode="N" horiz-adv-x="779" 
d="M729 0h-222l-235 356v-356h-222v708h222l235 -362v362h222v-708z" />
    <glyph glyph-name="O" unicode="O" horiz-adv-x="788" 
d="M211.5 40c-55.667 31.333 -99.833 74.666 -132.5 129.999s-49 117.666 -49 186.999s16.333 131.666 49 186.999s76.834 98.5 132.501 129.5s116.834 46.5 183.501 46.5s127.667 -15.5 183 -46.5s99.166 -74.167 131.499 -129.5s48.5 -117.666 48.5 -186.999
s-16.167 -131.666 -48.5 -186.999s-76.333 -98.666 -132 -129.999s-116.5 -47 -182.5 -47c-66.667 0 -127.834 15.667 -183.501 47zM497.001 242.5c24 28.333 36 66.5 36 114.5c0 48.667 -12 87.167 -36 115.5s-58 42.5 -102 42.5c-44.667 0 -79 -14.167 -103 -42.5
s-36 -66.833 -36 -115.5c0 -48 12 -86.167 36 -114.5s58.333 -42.5 103 -42.5c44 0 78 14.167 102 42.5z" />
    <glyph glyph-name="P" unicode="P" horiz-adv-x="649" 
d="M598 343.5c-20.667 -36.333 -51.168 -65.167 -91.501 -86.5s-89.166 -32 -146.499 -32h-88v-225h-222v708h310c86.667 0 153.167 -22 199.5 -66s69.5 -103 69.5 -177c0 -44.667 -10.333 -85.167 -31 -121.5zM403.999 464.999c0 43.333 -23 65 -69 65h-63v-130h63
c46 0 69 21.667 69 65z" />
    <glyph glyph-name="Q" unicode="Q" horiz-adv-x="788" 
d="M516 -115l-67.999 112.003c-15.333 -2.66699 -33 -4 -53 -4c-66.667 0 -127.834 15.667 -183.501 47s-99.834 74.666 -132.501 129.999s-49 117.666 -49 186.999s16.333 131.666 49 186.999s76.834 98.5 132.501 129.5s116.834 46.5 183.501 46.5
s127.667 -15.5 183 -46.5s99.166 -74.167 131.499 -129.5s48.5 -117.666 48.5 -186.999c0 -56.667 -11 -108.834 -33 -156.501s-52.333 -88.167 -91 -121.5l144 -194h-262zM292.001 242.503c24 -28.333 58.333 -42.5 103 -42.5c44 0 78 14.167 102 42.5s36 66.5 36 114.5
c0 48.667 -12 87.167 -36 115.5s-58 42.5 -102 42.5c-44.667 0 -79 -14.167 -103 -42.5s-36 -66.833 -36 -115.5c0 -48 12 -86.167 36 -114.5z" />
    <glyph glyph-name="R" unicode="R" horiz-adv-x="670" 
d="M406 0l-133.001 254h-1v-254h-222v708h330c57.333 0 106.333 -10.167 147 -30.5s71.167 -48 91.5 -83s30.5 -74.5 30.5 -118.5c0 -47.333 -13.167 -89.333 -39.5 -126s-64.166 -63 -113.499 -79l154 -271h-244zM271.999 402l88 -0.00195312
c21.333 0 37.333 4.83301 48 14.5s16 24.834 16 45.501c0 18.667 -5.5 33.334 -16.5 44.001s-26.833 16 -47.5 16h-88v-120z" />
    <glyph glyph-name="S" unicode="S" horiz-adv-x="625" 
d="M117.5 52.5c-55 39.667 -84.8359 97.8301 -89.5029 174.497h236c3.33301 -40.667 21.333 -61 54 -61c12 0 22.167 2.83301 30.5 8.5s12.5 14.5 12.5 26.5c0 16.667 -9 30.167 -27 40.5s-46 22.166 -84 35.499c-45.333 16 -82.833 31.667 -112.5 47
s-55.167 37.666 -76.5 66.999s-31.666 67 -30.999 113c0 46 11.833 85.167 35.5 117.5s56 56.833 97 73.5s87.167 25 138.5 25c86.667 0 155.5 -20 206.5 -60s77.833 -96.333 80.5 -169h-239c-0.666992 20 -5.66699 34.333 -15 43s-20.666 13 -33.999 13
c-9.33301 0 -17 -3.16699 -23 -9.5s-9 -15.166 -9 -26.499c0 -16 8.83301 -29.167 26.5 -39.5s45.834 -22.833 84.501 -37.5c44.667 -16.667 81.5 -32.667 110.5 -48s54.167 -36.666 75.5 -63.999s32 -61.666 32 -102.999c0 -43.333 -10.667 -82.166 -32 -116.499
s-52.333 -61.166 -93 -80.499s-89 -29 -145 -29c-84.667 0 -154.5 19.833 -209.5 59.5z" />
    <glyph glyph-name="T" unicode="T" horiz-adv-x="616" 
d="M606 708v-176h-188v-532h-222v532h-186v176h596z" />
    <glyph glyph-name="U" unicode="U" horiz-adv-x="719" 
d="M267 708v-399c0 -32.667 7.16699 -58.5 21.5 -77.5s37.5 -28.5 69.5 -28.5s55.667 9.5 71 28.5s23 44.833 23 77.5v399h221v-399c0 -67.333 -14 -124.833 -42 -172.5s-66.333 -83.5 -115 -107.5s-103 -36 -163 -36s-113.167 12 -159.5 36s-82.5 59.667 -108.5 107
s-39 105 -39 173v399h221z" />
    <glyph glyph-name="V" unicode="V" horiz-adv-x="763" 
d="M763 708l-238 -708h-287l-238 708h236l146 -487l145 487h236z" />
    <glyph glyph-name="W" unicode="W" horiz-adv-x="1100" 
d="M1070 708l-162 -708h-276l-82 402l-82 -402h-276l-162 708h239l64 -446l96 446h242l96 -446l64 446h239z" />
    <glyph glyph-name="X" unicode="X" horiz-adv-x="764" 
d="M501 0l-130 184l-108 -184h-253l233 365l-243 343h263l125 -177l104 177h253l-229 -358l248 -350h-263z" />
    <glyph glyph-name="Y" unicode="Y" horiz-adv-x="730" 
d="M730 708l-254 -493v-215h-222v215l-254 493h254l113 -251l113 251h250z" />
    <glyph glyph-name="Z" unicode="Z" horiz-adv-x="630" 
d="M296 177h284v-177h-530v167l280 365h-280v176h530v-167z" />
    <glyph glyph-name="bracketleft" unicode="[" horiz-adv-x="533" 
d="M477 895v-178h-174v-768h174v-178h-382v1124h382z" />
    <glyph glyph-name="backslash" unicode="\" horiz-adv-x="878" 
d="M440 -198l-240 1153h212l240 -1153h-212z" />
    <glyph glyph-name="bracketright" unicode="]" horiz-adv-x="533" 
d="M438 -229h-382v178h174v768h-174v178h382v-1124z" />
    <glyph glyph-name="asciicircum" unicode="^" horiz-adv-x="758" 
d="M245 162h-220l246 549h218l244 -549h-220l-133 298z" />
    <glyph glyph-name="underscore" unicode="_" horiz-adv-x="764" 
d="M724 -42v-216h-675v216h675z" />
    <glyph glyph-name="grave" unicode="`" horiz-adv-x="324" 
d="M269 750v-148l-259 94v164z" />
    <glyph glyph-name="a" unicode="a" horiz-adv-x="680" 
d="M50.5 436.5c20.333 43.667 48.166 77 83.499 100s75 34.5 119 34.5c36.667 0 68.334 -7.5 95.001 -22.5s47 -35.5 61 -61.5v77h221v-564h-221v77c-14 -26 -34.333 -46.5 -61 -61.5s-58.334 -22.5 -95.001 -22.5c-44 0 -83.667 11.5 -119 34.5s-63.166 56.333 -83.499 100
s-30.5 95.167 -30.5 154.5s10.167 110.833 30.5 154.5zM386 352c-15.333 16.667 -35 25 -59 25s-43.667 -8.33301 -59 -25s-23 -40 -23 -70s7.66699 -53.333 23 -70s35 -25 59 -25s43.667 8.33301 59 25s23 40 23 70s-7.66699 53.333 -23 70z" />
    <glyph glyph-name="b" unicode="b" horiz-adv-x="680" 
d="M332.5 548.5c26.333 15 57.833 22.5 94.5 22.5c44 0 83.667 -11.5 119 -34.5s63.166 -56.333 83.499 -100s30.5 -95.167 30.5 -154.5s-10.167 -110.833 -30.5 -154.5s-48.166 -77 -83.499 -100s-75 -34.5 -119 -34.5c-36.667 0 -68.167 7.5 -94.5 22.5
s-46.5 35.5 -60.5 61.5v-77h-222v740h222v-253c14 26 34.167 46.5 60.5 61.5zM412 352c-15.333 16.667 -35 25 -59 25s-43.667 -8.33301 -59 -25s-23 -40 -23 -70s7.66699 -53.333 23 -70s35 -25 59 -25s43.667 8.33301 59 25s23 40 23 70s-7.66699 53.333 -23 70z" />
    <glyph glyph-name="c" unicode="c" horiz-adv-x="609" 
d="M56.5 435.5c24.333 43.667 58.333 77.165 102 100.498s93.5 35 149.5 35c73.333 0 135.166 -20.667 185.499 -62s82.166 -98.666 95.499 -171.999h-235c-8.66699 29.333 -25.667 44 -51 44c-18 0 -32.167 -8.33301 -42.5 -25s-15.5 -41.334 -15.5 -74.001
s5.16699 -57.334 15.5 -74.001s24.5 -25 42.5 -25c25.333 0 42.333 14.667 51 44h235c-13.333 -73.333 -45.166 -130.666 -95.499 -171.999s-112.166 -62 -185.499 -62c-56 0 -105.833 11.667 -149.5 35s-77.667 56.833 -102 100.5s-36.5 94.834 -36.5 153.501
s12.167 109.834 36.5 153.501z" />
    <glyph glyph-name="d" unicode="d" horiz-adv-x="680" 
d="M50.5 436.5c20.333 43.667 48.166 77 83.499 100s75 34.5 119 34.5c36.667 0 68.167 -7.5 94.5 -22.5s46.5 -35.5 60.5 -61.5v253h222v-740h-222v77c-14 -26 -34.167 -46.5 -60.5 -61.5s-57.833 -22.5 -94.5 -22.5c-44 0 -83.667 11.5 -119 34.5
s-63.166 56.333 -83.499 100s-30.5 95.167 -30.5 154.5s10.167 110.833 30.5 154.5zM386 352c-15.333 16.667 -35 25 -59 25s-43.667 -8.33301 -59 -25s-23 -40 -23 -70s7.66699 -53.333 23 -70s35 -25 59 -25s43.667 8.33301 59 25s23 40 23 70s-7.66699 53.333 -23 70z
" />
    <glyph glyph-name="e" unicode="e" horiz-adv-x="616" 
d="M593 243l-356.999 -0.00195312c3.33301 -48.667 23.666 -73 60.999 -73c24 0 41.333 11 52 33h235c-8 -40 -24.833 -75.833 -50.5 -107.5s-58 -56.667 -97 -75s-81.833 -27.5 -128.5 -27.5c-56 0 -105.833 11.667 -149.5 35s-77.667 56.833 -102 100.5
s-36.5 94.834 -36.5 153.501s12.167 109.834 36.5 153.501s58.333 77.167 102 100.5s93.5 35 149.5 35s105.833 -11.5 149.5 -34.5s77.667 -55.833 102 -98.5s36.5 -93 36.5 -151c0 -15.333 -1 -30 -3 -44zM371.001 339.998c0 18.667 -6 32.833 -18 42.5s-27 14.5 -45 14.5
c-39.333 0 -62.333 -19 -69 -57h132z" />
    <glyph glyph-name="f" unicode="f" horiz-adv-x="385" 
d="M350 606c-16.667 0 -29.332 -3.16699 -37.999 -9.5s-14.667 -17.166 -18 -32.499h81v-185h-83v-379h-222v379h-60v185h60c1.33301 73.333 24.5 130.166 69.5 170.499s108.167 60.5 189.5 60.5c9.33301 0 24.666 -0.666992 45.999 -2v-189c-12 1.33301 -20.333 2 -25 2z
" />
    <glyph glyph-name="g" unicode="g" horiz-adv-x="680" 
d="M348 548.5c26.667 -15 47 -35.5 61 -61.5v77h221v-554c0 -52.667 -9.66699 -100.667 -29 -144s-50.5 -78 -93.5 -104s-98.167 -39 -165.5 -39c-90.667 0 -162.5 21.167 -215.5 63.5s-83.167 99.833 -90.5 172.5h218c6 -29.333 30 -44 72 -44c26 0 46.333 6.66699 61 20
s22 38.333 22 75v67c-14 -26 -34.333 -46.5 -61 -61.5s-58.334 -22.5 -95.001 -22.5c-44 0 -83.667 11.5 -119 34.5s-63.166 56.333 -83.499 100s-30.5 95.167 -30.5 154.5s10.167 110.833 30.5 154.5s48.166 77 83.499 100s75 34.5 119 34.5
c36.667 0 68.334 -7.5 95.001 -22.5zM386 352c-15.333 16.667 -35 25 -59 25s-43.667 -8.33301 -59 -25s-23 -40 -23 -70s7.66699 -53.333 23 -70s35 -25 59 -25s43.667 8.33301 59 25s23 40 23 70s-7.66699 53.333 -23 70z" />
    <glyph glyph-name="h" unicode="h" horiz-adv-x="697" 
d="M596.5 503c36.333 -43.333 54.5 -102.001 54.5 -176.001v-327h-221v299c0 26.667 -7.16699 47.834 -21.5 63.501s-33.5 23.5 -57.5 23.5c-24.667 0 -44 -7.83301 -58 -23.5s-21 -36.834 -21 -63.501v-299h-222v740h222v-262c17.333 26.667 40.5 48.334 69.5 65.001
s63.5 25 103.5 25c64.667 0 115.167 -21.667 151.5 -65z" />
    <glyph glyph-name="i" unicode="i" horiz-adv-x="322" 
d="M69 640c-23.333 20.667 -35 46.667 -35 78c0 32 11.667 58.5 35 79.5s54.333 31.5 93 31.5c38 0 68.667 -10.5 92 -31.5s35 -47.5 35 -79.5c0 -31.333 -11.667 -57.333 -35 -78s-54 -31 -92 -31c-38.667 0 -69.667 10.333 -93 31zM272 564v-564h-222v564h222z" />
    <glyph glyph-name="j" unicode="j" horiz-adv-x="320" 
d="M67 640c-23.333 20.667 -35 46.667 -35 78c0 32 11.667 58.5 35 79.5s54.333 31.5 93 31.5c38 0 68.667 -10.5 92 -31.5s35 -47.5 35 -79.5c0 -31.333 -11.667 -57.333 -35 -78s-54 -31 -92 -31c-38.667 0 -69.667 10.333 -93 31zM272 -39c0 -154 -77.333 -231 -232 -231
h-74v189h43c14.667 0 25.167 3 31.5 9s9.5 15.667 9.5 29v607h222v-603z" />
    <glyph glyph-name="k" unicode="k" horiz-adv-x="676" 
d="M411 0l-139 225v-225h-222v740h222v-387l141 211h258l-211 -284l216 -280h-265z" />
    <glyph glyph-name="l" unicode="l" horiz-adv-x="322" 
d="M272 740v-740h-222v740h222z" />
    <glyph glyph-name="m" unicode="m" horiz-adv-x="1076" 
d="M970.5 503c39.667 -43.333 59.5 -102 59.5 -176v-327h-221v299c0 24 -7.16699 42.833 -21.5 56.5s-33.5 20.5 -57.5 20.5c-24.667 0 -44 -6.83301 -58 -20.5s-21 -32.5 -21 -56.5v-299h-221v299c0 24 -7.16699 42.833 -21.5 56.5s-33.5 20.5 -57.5 20.5
c-24.667 0 -44 -6.83301 -58 -20.5s-21 -32.5 -21 -56.5v-299h-222v564h222v-76c16 24 37.833 43.333 65.5 58s60.167 22 97.5 22c40.667 0 76.667 -8.83301 108 -26.5s56.333 -42.5 75 -74.5c20.667 29.333 47 53.5 79 72.5s67.333 28.5 106 28.5
c72 0 127.833 -21.667 167.5 -65z" />
    <glyph glyph-name="n" unicode="n" horiz-adv-x="697" 
d="M596.5 503c36.333 -43.333 54.5 -102.001 54.5 -176.001v-327h-221v299c0 26.667 -7.16699 47.834 -21.5 63.501s-33.5 23.5 -57.5 23.5c-24.667 0 -44 -7.83301 -58 -23.5s-21 -36.834 -21 -63.501v-299h-222v564h222v-86c17.333 26.667 40.5 48.334 69.5 65.001
s63.5 25 103.5 25c64.667 0 115.167 -21.667 151.5 -65z" />
    <glyph glyph-name="o" unicode="o" horiz-adv-x="636" 
d="M165 28c-45.333 23.333 -80.833 56.833 -106.5 100.5s-38.5 94.834 -38.5 153.501s12.833 109.834 38.5 153.501s61.167 77.167 106.5 100.5s96.333 35 153 35s107.667 -11.667 153 -35s80.833 -56.833 106.5 -100.5s38.5 -94.834 38.5 -153.501
s-12.833 -109.834 -38.5 -153.501s-61.167 -77.167 -106.5 -100.5s-96.333 -35 -153 -35s-107.667 11.667 -153 35zM370 209.5c14 16.333 21 40.5 21 72.5s-7 56.167 -21 72.5s-31.333 24.5 -52 24.5s-38 -8.16699 -52 -24.5s-21 -40.5 -21 -72.5
s6.83301 -56.167 20.5 -72.5s31.167 -24.5 52.5 -24.5c20.667 0 38 8.16699 52 24.5z" />
    <glyph glyph-name="p" unicode="p" horiz-adv-x="680" 
d="M332.5 548.5c26.333 15 57.833 22.5 94.5 22.5c44 0 83.667 -11.5 119 -34.5s63.166 -56.333 83.499 -100s30.5 -95.167 30.5 -154.5s-10.167 -110.833 -30.5 -154.5s-48.166 -77 -83.499 -100s-75 -34.5 -119 -34.5c-36.667 0 -68.167 7.5 -94.5 22.5
s-46.5 35.5 -60.5 61.5v-347h-222v834h222v-77c14 26 34.167 46.5 60.5 61.5zM412 352c-15.333 16.667 -35 25 -59 25s-43.667 -8.33301 -59 -25s-23 -40 -23 -70s7.66699 -53.333 23 -70s35 -25 59 -25s43.667 8.33301 59 25s23 40 23 70s-7.66699 53.333 -23 70z" />
    <glyph glyph-name="q" unicode="q" horiz-adv-x="680" 
d="M54 427c22.667 44 53.167 78.499 91.5 103.499s79.5 37.5 123.5 37.5c30 0 56.333 -4.16699 79 -12.5s43 -22.166 61 -41.499v50h221v-834h-221v332c-20 -23.333 -41.167 -40.5 -63.5 -51.5s-47.833 -16.5 -76.5 -16.5c-44.667 0 -86 12 -124 36s-68.333 57.5 -91 100.5
s-34 92.167 -34 147.5s11.333 105 34 149zM383.5 353.499c-17 15 -35.833 22.5 -56.5 22.5c-20 0 -38.667 -8.16699 -56 -24.5s-26 -40.833 -26 -73.5c0 -32 8.5 -55.167 25.5 -69.5s35.833 -21.5 56.5 -21.5s39.5 7.66699 56.5 23s25.5 39.333 25.5 72
s-8.5 56.5 -25.5 71.5z" />
    <glyph glyph-name="r" unicode="r" horiz-adv-x="467" 
d="M355 538.5c32.667 19.667 66.666 29.499 101.999 29.499v-237h-63c-42 0 -72.833 -7.33301 -92.5 -22s-29.5 -40.667 -29.5 -78v-231h-222v564h222v-104c22.667 32.667 50.334 58.834 83.001 78.501z" />
    <glyph glyph-name="s" unicode="s" horiz-adv-x="579" 
d="M159.5 19c-41 17.333 -73.502 41.334 -97.502 72.001s-37.667 65.334 -41 104.001h213c2.66699 -16.667 9.83398 -29 21.501 -37s26.5 -12 44.5 -12c11.333 0 20.333 2.5 27 7.5s10 11.167 10 18.5c0 12.667 -7 21.667 -21 27s-37.667 11.333 -71 18
c-40.667 8 -74.167 16.667 -100.5 26s-49.333 25.333 -69 48s-29.5 54 -29.5 94c0 34.667 9.16699 66.167 27.5 94.5s45.5 50.666 81.5 66.999s79.667 24.5 131 24.5c76 0 135.5 -18.667 178.5 -56s68.833 -86 77.5 -146h-197c-3.33301 15.333 -10.333 27.166 -21 35.499
s-25 12.5 -43 12.5c-11.333 0 -20 -2.16699 -26 -6.5s-9 -10.833 -9 -19.5c0 -11.333 7 -19.833 21 -25.5s36.333 -11.5 67 -17.5c40.667 -8 75 -17 103 -27s52.333 -27.167 73 -51.5s31 -57.833 31 -100.5c0 -33.333 -9.66699 -63.333 -29 -90s-47.166 -47.667 -83.499 -63
s-78.833 -23 -127.5 -23c-53.333 0 -100.5 8.66699 -141.5 26z" />
    <glyph glyph-name="t" unicode="t" horiz-adv-x="436" 
d="M401 189v-189h-84c-154.667 0 -232 77 -232 231v148h-70v185h70v136h222v-136h92v-185h-92v-152c0 -13.333 3.16699 -23 9.5 -29s16.833 -9 31.5 -9h53z" />
    <glyph glyph-name="u" unicode="u" horiz-adv-x="697" 
d="M647 564v-563.999h-222v86c-17.333 -26.667 -40.5 -48.334 -69.5 -65.001s-63.5 -25 -103.5 -25c-64.667 0 -115.167 21.667 -151.5 65s-54.5 102 -54.5 176v327h221v-299c0 -26.667 7.16699 -47.834 21.5 -63.501s33.5 -23.5 57.5 -23.5c24.667 0 44 7.83301 58 23.5
s21 36.834 21 63.501v299h222z" />
    <glyph glyph-name="v" unicode="v" horiz-adv-x="671" 
d="M336 211l90 353h236l-188 -564h-277l-188 564h236z" />
    <glyph glyph-name="w" unicode="w" horiz-adv-x="903" 
d="M906 564l-134 -564h-250l-68 318l-72 -318h-250l-133 564h220l47 -343l73 343h237l77 -347l48 347h205z" />
    <glyph glyph-name="x" unicode="x" horiz-adv-x="668" 
d="M420 0l-95 127l-71 -127h-244l189 297l-199 267h248l95 -128l72 128h244l-195 -290l204 -274h-248z" />
    <glyph glyph-name="y" unicode="y" horiz-adv-x="677" 
d="M687 564l-361 -834h-243l142 298l-235 536h247l106 -286l99 286h245z" />
    <glyph glyph-name="z" unicode="z" horiz-adv-x="518" 
d="M263 184h235v-184h-478v174l215 206h-212v184h465v-174z" />
    <glyph glyph-name="braceleft" unicode="{" horiz-adv-x="484" 
d="M60 423c34 0 57.833 5 71.5 15s20.5 26 20.5 48c0 16.667 -3.66699 44.667 -11 84c-9.33301 50.667 -14 90 -14 118c0 66 20.333 117 61 153s96 54 166 54h76v-177h-34c-21.333 0 -36.5 -4.66699 -45.5 -14s-13.5 -22.666 -13.5 -39.999
c0 -10.667 2.66699 -37.334 8 -80.001c6.66699 -49.333 10 -85 10 -107c0 -39.333 -9 -71.5 -27 -96.5s-45 -40.833 -81 -47.5v-2c36 -6.66699 63 -22.5 81 -47.5s27 -57.167 27 -96.5c0 -22 -3.33301 -57.667 -10 -107c-5.33301 -42.667 -8 -69.334 -8 -80.001
c0 -17.333 4.5 -30.666 13.5 -39.999s24.167 -14 45.5 -14h34v-177h-76c-70 0 -125.333 18 -166 54s-61 87 -61 153c0 28 4.66699 67.333 14 118c7.33301 39.333 11 67.333 11 84c0 20.667 -7 36.5 -21 47.5s-37.667 16.5 -71 16.5v181z" />
    <glyph glyph-name="bar" unicode="|" horiz-adv-x="262" 
d="M242 -144h-222v972h222v-972z" />
    <glyph glyph-name="braceright" unicode="}" horiz-adv-x="484" 
d="M353 225.5c-14 -11 -21 -26.833 -21 -47.5c0 -16.667 3.66699 -44.667 11 -84c9.33301 -50.667 14 -90 14 -118c0 -66 -20.333 -117 -61 -153s-96 -54 -166 -54h-76v177h34c21.333 0 36.5 4.66699 45.5 14s13.5 22.666 13.5 39.999c0 10.667 -2.66699 37.334 -8 80.001
c-6.66699 49.333 -10 85 -10 107c0 39.333 9 71.5 27 96.5s45 40.833 81 47.5v2c-36 6.66699 -63 22.5 -81 47.5s-27 57.167 -27 96.5c0 22 3.33301 57.667 10 107c5.33301 42.667 8 69.334 8 80.001c0 17.333 -4.5 30.666 -13.5 39.999s-24.167 14 -45.5 14h-34v177h76
c70 0 125.333 -18 166 -54s61 -87 61 -153c0 -28 -4.66699 -67.333 -14 -118c-7.33301 -39.333 -11 -67.333 -11 -84c0 -22 6.83301 -38 20.5 -48s37.5 -15 71.5 -15v-181c-33.333 0 -57 -5.5 -71 -16.5z" />
    <glyph glyph-name="asciitilde" unicode="~" horiz-adv-x="711" 
d="M103 381c40.667 42.667 91.332 64 151.999 64c24 0 46 -3.5 66 -10.5s42 -16.833 66 -29.5c18 -9.33301 32.833 -16.166 44.5 -20.499s23.167 -6.5 34.5 -6.5c18 0 31.5 5.16699 40.5 15.5s15.167 28.166 18.5 53.499h166c-14 -90 -41.667 -156.5 -83 -199.5
s-92.333 -64.5 -153 -64.5c-24 0 -45.833 3.5 -65.5 10.5s-41.5 16.833 -65.5 29.5c-20 10 -35.5 17 -46.5 21s-22.167 6 -33.5 6c-18 0 -31.5 -5.33301 -40.5 -16s-15.5 -28.334 -19.5 -53.001h-164c14.667 90.667 42.334 157.334 83.001 200.001z" />
    <glyph glyph-name="uni00A0" unicode="&#xa0;" horiz-adv-x="170" 
 />
    <glyph glyph-name="exclamdown" unicode="&#xa1;" horiz-adv-x="455" 
d="M320 545c23.333 -20.667 35 -46.667 35 -78c0 -32 -11.667 -58.5 -35 -79.5s-54 -31.5 -92 -31.5c-38.667 0 -69.667 10.5 -93 31.5s-35 47.5 -35 79.5c0 31.333 11.667 57.333 35 78s54.333 31 93 31c38 0 68.667 -10.333 92 -31zM133 287h190l26 -474h-242z" />
    <glyph glyph-name="cent" unicode="&#xa2;" horiz-adv-x="579" 
d="M335.5 179c11 6 17.834 14.6699 20.501 26.0029h203c-2.66699 -42 -14.834 -78.5 -36.501 -109.5s-49.667 -55 -84 -72s-71.833 -27.167 -112.5 -30.5v-76h-62v76c-76 6.66699 -135.667 32.334 -179 77.001s-65 106 -65 184c0 77.333 21.667 138.166 65 182.499
s103 69.833 179 76.5v76h62v-76c63.333 -4.66699 117 -25.334 161 -62.001s68 -86.334 72 -149.001h-203c-4.66699 12.667 -12 21.667 -22 27s-21 8 -33 8c-22.667 0 -39.834 -7.33301 -51.501 -22s-17.5 -35.334 -17.5 -62.001s5.83301 -47.167 17.5 -61.5
s28.834 -21.5 51.501 -21.5c12 0 23.5 3 34.5 9z" />
    <glyph glyph-name="sterling" unicode="&#xa3;" horiz-adv-x="679" 
d="M615 165l-0.000976562 -171.003h-552l-27 104c30.667 24 53.834 49.667 69.501 77s25.167 60.333 28.5 99h-103v147h77c-11.333 48 -17 90.333 -17 127c0 46.667 10.833 86.667 32.5 120s51.667 58.833 90 76.5s82.5 26.5 132.5 26.5c82.667 0 146.667 -22 192 -66
s70.333 -102 75 -174h-204c-4.66699 40 -23 60 -55 60c-34.667 0 -52 -23 -52 -69c0 -11.333 2.33301 -26.166 7 -44.499s9.66699 -37.166 15 -56.499h168v-147h-150c-10 -47.333 -30.667 -83.666 -62 -108.999h335z" />
    <glyph glyph-name="currency" unicode="&#xa4;" horiz-adv-x="603" 
d="M494 268l49 -49l-80 -81l-68 68c-26 -8.66699 -56.333 -13 -91 -13c-34 0 -65.667 4.66699 -95 14l-69 -69l-80 81l52 52c-24 30 -36 66 -36 108c0 42.667 12.333 79 37 109l-53 53l80 81l73 -73c26.667 8 57 12 91 12c30.667 0 59.667 -3.66699 87 -11l72 72l80 -81
l-51 -50c26.667 -30 40 -67.333 40 -112c0 -42 -12.667 -79 -38 -111zM345.5 334c11 9.33301 16.5 23.666 16.5 42.999c0 20.667 -5.5 35.667 -16.5 45s-24.833 14 -41.5 14s-30.5 -4.66699 -41.5 -14s-16.5 -24.333 -16.5 -45c0 -19.333 5.5 -33.666 16.5 -42.999
s24.833 -14 41.5 -14s30.5 4.66699 41.5 14z" />
    <glyph glyph-name="yen" unicode="&#xa5;" horiz-adv-x="730" 
d="M598 452h77v-144h-151l-19 -36h170v-144h-199v-128h-222v128h-201v144h172l-19 36h-153v144h79l-132 256h254l113 -284l113 284h250z" />
    <glyph glyph-name="brokenbar" unicode="&#xa6;" horiz-adv-x="432" 
d="M105 828h222v-430h-222v430zM327 -144h-222v431h222v-431z" />
    <glyph glyph-name="section" unicode="&#xa7;" horiz-adv-x="595" 
d="M553 162c-14.667 -23.333 -39.668 -43.668 -75.001 -61.001c38.667 -42.667 58 -91 58 -145c0 -57.333 -21.5 -103.5 -64.5 -138.5s-103.167 -52.5 -180.5 -52.5c-72 0 -128.333 19.333 -169 58s-63.667 89.334 -69 152.001h219c1.33301 -36 9.33301 -54 24 -54
c10.667 0 16 8 16 24c0 12.667 -4.66699 24.167 -14 34.5s-23.833 21.333 -43.5 33s-50.167 28.167 -91.5 49.5c-45.333 23.333 -80.333 50.333 -105 81s-37 64.334 -37 101.001c0 69.333 31.667 117.333 95 144c-19.333 21.333 -33.666 44.333 -42.999 69
s-14 49.667 -14 75c0 57.333 21.5 103.5 64.5 138.5s103.167 52.5 180.5 52.5c72 0 128.333 -19.333 169 -58s63.667 -89.334 69 -152.001h-219c-1.33301 36 -9.33301 54 -24 54c-10.667 0 -16 -8 -16 -24c0 -12.667 4.5 -24.167 13.5 -34.5s23.5 -21.333 43.5 -33
s50.667 -27.834 92 -48.501c95.333 -52 143 -113 143 -183c0 -31.333 -7.33301 -58.666 -22 -81.999zM327.499 204.498c7.66699 10.333 11.501 23.5 11.501 39.5s-3.33301 29.167 -10 39.5s-16.334 15.5 -29.001 15.5s-22.834 -5.16699 -30.501 -15.5
s-11.5 -23.5 -11.5 -39.5s3.5 -29.167 10.5 -39.5s16.5 -15.5 28.5 -15.5c12.667 0 22.834 5.16699 30.501 15.5z" />
    <glyph glyph-name="dieresis" unicode="&#xa8;" horiz-adv-x="417" 
d="M34.5 644.5c-16.333 16.333 -24.498 36.498 -24.498 60.498c0 24.667 8.16699 45.334 24.5 62.001s36.5 25 60.5 25c25.333 0 46.166 -8.16699 62.499 -24.5s24.5 -37.166 24.5 -62.499c0 -24 -8.33301 -44.167 -25 -60.5s-37.334 -24.5 -62.001 -24.5
c-24 0 -44.167 8.16699 -60.5 24.5zM259.502 644.498c-16.333 16.333 -24.498 36.498 -24.498 60.498c0 24.667 8.16699 45.334 24.5 62.001s36.5 25 60.5 25c25.333 0 46.166 -8.16699 62.499 -24.5s24.5 -37.166 24.5 -62.499c0 -24 -8.33301 -44.167 -25 -60.5
s-37.334 -24.5 -62.001 -24.5c-24 0 -44.167 8.16699 -60.5 24.5z" />
    <glyph glyph-name="copyright" unicode="&#xa9;" horiz-adv-x="771" 
d="M571 674c54 -30.667 95.833 -73.5 125.5 -128.5s44.5 -117.5 44.5 -187.5c0 -70.667 -15 -133.5 -45 -188.5s-71.833 -98 -125.5 -129s-115.167 -46.5 -184.5 -46.5s-131 15.5 -185 46.5s-96 74.167 -126 129.5s-45 118 -45 188s15 132.5 45 187.5s72 97.833 126 128.5
s115.667 46 185 46s131 -15.333 185 -46zM233.5 618.5c-43 -24.333 -76 -58.832 -99 -103.499s-34.5 -97 -34.5 -157s11.5 -112.5 34.5 -157.5s56.167 -79.833 99.5 -104.5s94 -37 152 -37s108.5 12.333 151.5 37s76.167 59.667 99.5 105s35 97.666 35 156.999
c0 60 -11.667 112.333 -35 157s-56.5 79.167 -99.5 103.5s-93.5 36.5 -151.5 36.5c-58.667 0 -109.5 -12.167 -152.5 -36.5zM271.5 551.001c-34.333 -18 -60.833 -43.6689 -79.5 -77.002s-28 -72.333 -28 -117s9.33301 -83.667 28 -117s45.167 -59 79.5 -77
s73.833 -27 118.5 -27c54.667 0 101.667 16.333 141 49s63 76.334 71 131.001h-184c-6.66699 -23.333 -19.334 -35 -38.001 -35c-14.667 0 -25.834 6.33301 -33.501 19s-11.5 31.667 -11.5 57s3.83301 44.333 11.5 57s18.834 19 33.501 19
c18.667 0 31.334 -11.667 38.001 -35h184c-8 54.667 -31.667 98.334 -71 131.001s-86.333 49 -141 49c-44.667 0 -84.167 -9 -118.5 -27z" />
    <glyph glyph-name="ordfeminine" unicode="&#xaa;" horiz-adv-x="481" 
d="M66 664c30.667 32 69.999 48.001 117.999 48.001c27.333 0 49.833 -3.5 67.5 -10.5s32.834 -17.833 45.501 -32.5v39h164v-353h-164v39c-12.667 -15.333 -27.667 -26.5 -45 -33.5s-39.333 -10.5 -66 -10.5c-48.667 0 -88.5 15.667 -119.5 47s-46.5 75.666 -46.5 132.999
s15.333 102 46 134zM203.999 493.001c10 -8 22.999 -12 38.999 -12c15.333 0 28.166 4.5 38.499 13.5s15.5 21.5 15.5 37.5s-5.16699 28.333 -15.5 37s-23.166 13 -38.499 13s-28.166 -4.66699 -38.499 -14s-15.5 -22.333 -15.5 -39c0 -16 5 -28 15 -36z" />
    <glyph glyph-name="guillemotleft" unicode="&#xab;" horiz-adv-x="618" 
d="M122 120l-77 175l77 175h201l-79 -175l79 -175h-201zM377 120l-77 175l77 175h201l-79 -175l79 -175h-201z" />
    <glyph glyph-name="logicalnot" unicode="&#xac;" horiz-adv-x="778" 
d="M713 448v-293h-222v127h-436v166h658z" />
    <glyph glyph-name="uni00AD" unicode="&#xad;" horiz-adv-x="576" 
d="M486 433v-183h-466v183h466z" />
    <glyph glyph-name="registered" unicode="&#xae;" horiz-adv-x="511" 
d="M372.5 692.5c34.333 -19 61 -45.333 80 -79s28.5 -72.167 28.5 -115.5c0 -42.667 -9.5 -81 -28.5 -115s-45.667 -60.5 -80 -79.5s-73.166 -28.5 -116.499 -28.5s-82.166 9.5 -116.499 28.5s-61.166 45.5 -80.499 79.5s-29 72.333 -29 115
c0 43.333 9.66699 81.833 29 115.5s46.166 60 80.499 79s73.166 28.5 116.499 28.5s82.166 -9.5 116.499 -28.5zM369.5 384c28.333 29.333 42.5 67.333 42.5 114c0 47.333 -14.167 85.5 -42.5 114.5s-66.166 43.5 -113.499 43.5c-48 0 -86.167 -14.333 -114.5 -43
s-42.5 -67 -42.5 -115c0 -46.667 14.333 -84.667 43 -114s66.667 -44 114 -44s85.166 14.667 113.499 44zM347.5 502.5c-6.33301 -10.333 -15.167 -18.501 -26.5 -24.501l47 -82h-86l-37 73h-5v-73h-80v210h120c23.333 0 42 -6.16699 56 -18.5s21 -28.833 21 -49.5
c0 -13.333 -3.16699 -25.166 -9.5 -35.499zM236.999 516.999h24c8.66699 0 13 4.33301 13 13s-4.33301 13 -13 13h-24v-26z" />
    <glyph glyph-name="macron" unicode="&#xaf;" horiz-adv-x="451" 
d="M441 769v-147h-431v147h431z" />
    <glyph glyph-name="degree" unicode="&#xb0;" horiz-adv-x="496" 
d="M84.5 666.5c41 32.333 95.833 48.499 164.5 48.499c68 0 122.333 -16.167 163 -48.5s61 -76.833 61 -133.5c0 -57.333 -19.833 -102.666 -59.5 -135.999s-93.167 -50 -160.5 -50c-44.667 0 -84.5 7.66699 -119.5 23s-62.167 37 -81.5 65s-29 60.667 -29 98
c0 56.667 20.5 101.167 61.5 133.5zM287.5 582.999c-11 11.333 -23.5 17 -37.5 17c-15.333 0 -28.833 -5.66699 -40.5 -17s-17.5 -28.666 -17.5 -51.999c0 -22.667 6.33301 -39.5 19 -50.5s26.667 -16.5 42 -16.5c14 0 26 5.5 36 16.5s15 27.833 15 50.5
c0 23.333 -5.5 40.666 -16.5 51.999z" />
    <glyph glyph-name="plusminus" unicode="&#xb1;" horiz-adv-x="551" 
d="M382 344v-47h149v-201h-511v201h149v47h-149v201h149v85h213v-85h149v-201h-149z" />
    <glyph glyph-name="twosuperior" unicode="&#xb2;" horiz-adv-x="422" 
d="M223 477l170 0.00195312v-125h-345v122l135 70c31.333 16 47 33 47 51c0 5.33301 -3 8 -9 8c-11.333 0 -17.333 -11.333 -18 -34h-163c3.33301 44 23 79.667 59 107s84 41 144 41c54.667 0 95 -10.833 121 -32.5s39 -46.834 39 -75.501
c0 -24 -10.833 -44.833 -32.5 -62.5s-57.5 -35.834 -107.5 -54.501z" />
    <glyph glyph-name="threesuperior" unicode="&#xb3;" horiz-adv-x="403" 
d="M64.5 676.5c29.667 27 77.832 40.5 144.499 40.5c52.667 0 93.667 -9.66699 123 -29s44 -45 44 -77c0 -41.333 -25 -66 -75 -74v-4c30 -6.66699 51.5 -16.5 64.5 -29.5s19.5 -30.167 19.5 -51.5c0 -33.333 -15.333 -58.833 -46 -76.5s-72.667 -26.5 -126 -26.5
c-70 0 -119.833 11.333 -149.5 34s-46.5 55.667 -50.5 99h172c0 -7.33301 1.16699 -12.5 3.5 -15.5s5.83301 -4.5 10.5 -4.5c8.66699 0 13 7 13 21c0 9.33301 -2.16699 15.833 -6.5 19.5s-11.166 5.5 -20.499 5.5h-30v54h21c9.33301 0 16 2 20 6s6 10.667 6 20
c0 11.333 -4 17 -12 17c-4.66699 0 -8.16699 -2.16699 -10.5 -6.5s-3.5 -11.5 -3.5 -21.5h-156c0 39.333 14.833 72.5 44.5 99.5z" />
    <glyph glyph-name="acute" unicode="&#xb4;" horiz-adv-x="279" 
d="M269 696l-259 -94v148l259 110v-164z" />
    <glyph glyph-name="uni00B5" unicode="&#xb5;" horiz-adv-x="751" 
d="M676 564v-564h-222v77c-16 -23.333 -37.333 -42.5 -64 -57.5s-58 -22.833 -94 -23.5v-266h-221v834h221v-298c0 -24 7.16699 -43 21.5 -57s33.5 -21 57.5 -21c24.667 0 44 7 58 21s21 33 21 57v298h222z" />
    <glyph glyph-name="paragraph" unicode="&#xb6;" horiz-adv-x="778" 
d="M703 0l-177 -0.000976562v542h-58v-542h-176v265h-31c-54.667 0 -99.834 10.5 -135.501 31.5s-61.834 48.167 -78.501 81.5s-25 69.333 -25 108s8.33301 74.834 25 108.501s42.834 61 78.501 82s80.834 31.5 135.501 31.5h442v-708z" />
    <glyph glyph-name="periodcentered" unicode="&#xb7;" horiz-adv-x="349" 
d="M82 218c-23.333 20.667 -35 46.667 -35 78c0 32 11.667 58.5 35 79.5s54.333 31.5 93 31.5c38 0 68.667 -10.5 92 -31.5s35 -47.5 35 -79.5c0 -31.333 -11.667 -57.333 -35 -78s-54 -31 -92 -31c-38.667 0 -69.667 10.333 -93 31z" />
    <glyph glyph-name="cedilla" unicode="&#xb8;" horiz-adv-x="343" 
d="M261 -38.5c20 -7.66699 37 -20.668 51 -39.001s21 -42.166 21 -71.499c0 -43.333 -15 -74.5 -45 -93.5s-65 -28.5 -105 -28.5h-173v113h150c8 0 14.333 1.5 19 4.5s7 6.83301 7 11.5c0 10 -8.66699 15 -26 15h-85v134h128v-34c18.667 0 38 -3.83301 58 -11.5z" />
    <glyph glyph-name="onesuperior" unicode="&#xb9;" horiz-adv-x="285" 
d="M20 577v127h230v-352h-164v225h-66z" />
    <glyph glyph-name="ordmasculine" unicode="&#xba;" horiz-adv-x="470" 
d="M46 621.5c17.333 27 42.168 48.333 74.501 64s70.5 23.5 114.5 23.5s82.167 -7.83301 114.5 -23.5s57.166 -37 74.499 -64s26 -57.833 26 -92.5c0 -34 -8.66699 -64.833 -26 -92.5s-42.333 -49.5 -75 -65.5s-70.667 -24 -114 -24s-81.333 8 -114 24
s-57.667 37.833 -75 65.5s-26 58.5 -26 92.5c0 34.667 8.66699 65.5 26 92.5zM269.502 570c-9 9.33301 -20.5 14 -34.5 14s-25.5 -4.66699 -34.5 -14s-13.5 -23 -13.5 -41s4.5 -31.833 13.5 -41.5s20.5 -14.5 34.5 -14.5s25.5 4.83301 34.5 14.5s13.5 23.5 13.5 41.5
s-4.5 31.667 -13.5 41z" />
    <glyph glyph-name="guillemotright" unicode="&#xbb;" horiz-adv-x="618" 
d="M130 295l-80 175h202l76 -175l-76 -175h-202zM385 295l-80 175h202l76 -175l-76 -175h-202z" />
    <glyph glyph-name="onequarter" unicode="&#xbc;" horiz-adv-x="879" 
d="M714 708l-387 -708h-217l388 708h216zM45 577v127h230v-352h-164v225h-66zM857 58h-35v-58h-165v58h-203v84l141 209h227v-205h35v-88zM666 250l-59 -99h59v99z" />
    <glyph glyph-name="onehalf" unicode="&#xbd;" horiz-adv-x="928" 
d="M724 711l-397 -711h-217l398 711h216zM111 577h-66v127h230v-352h-164v225zM677 124l170 0.00195312v-125h-345v122l135 70c31.333 16 47 33 47 51c0 5.33301 -3 8 -9 8c-11.333 0 -17.333 -11.333 -18 -34h-163c3.33301 44 23 79.667 59 107s84 41 144 41
c54.667 0 95 -10.833 121 -32.5s39 -46.834 39 -75.501c0 -24 -10.833 -44.833 -32.5 -62.5s-57.5 -35.834 -107.5 -54.501z" />
    <glyph glyph-name="threequarters" unicode="&#xbe;" horiz-adv-x="1024" 
d="M117.5 676.5c29.667 27 77.832 40.5 144.499 40.5c52.667 0 93.667 -9.66699 123 -29s44 -45 44 -77c0 -41.333 -25 -66 -75 -74v-4c30 -6.66699 51.5 -16.5 64.5 -29.5s19.5 -30.167 19.5 -51.5c0 -33.333 -15.333 -58.833 -46 -76.5s-72.667 -26.5 -126 -26.5
c-70 0 -119.833 11.333 -149.5 34s-46.5 55.667 -50.5 99h172c0 -7.33301 1.16699 -12.5 3.5 -15.5s5.83301 -4.5 10.5 -4.5c8.66699 0 13 7 13 21c0 9.33301 -2.16699 15.833 -6.5 19.5s-11.166 5.5 -20.499 5.5h-30v54h21c9.33301 0 16 2 20 6s6 10.667 6 20
c0 11.333 -4 17 -12 17c-4.66699 0 -8.16699 -2.16699 -10.5 -6.5s-3.5 -11.5 -3.5 -21.5h-156c0 39.333 14.833 72.5 44.5 99.5zM846.998 711l-370 -711h-216l369 711h217zM1009 58h-35v-58h-164v58h-204v84l121 209h247v-205h35v-88zM818.998 270l-59 -124h59v124z" />
    <glyph glyph-name="questiondown" unicode="&#xbf;" horiz-adv-x="538" 
d="M427 550c23.333 -20.667 35 -46.667 35 -78c0 -32 -11.667 -58.5 -35 -79.5s-54.333 -31.5 -93 -31.5c-38 0 -68.667 10.5 -92 31.5s-35 47.5 -35 79.5c0 31.333 11.667 57.333 35 78s54 31 92 31c38.667 0 69.667 -10.333 93 -31zM85.5 -144.5
c-45 37 -67.499 91.168 -67.499 162.501c0 58.667 19.833 106 59.5 142s91.5 54.667 155.5 56l6 71h196l6 -212h-84c-39.333 0 -69.5 -4.33301 -90.5 -13s-31.5 -22.667 -31.5 -42c0 -12.667 3.16699 -22.5 9.5 -29.5s14.833 -10.5 25.5 -10.5
c13.333 0 23.166 4.16699 29.499 12.5s9.5 19.166 9.5 32.499h209c2 -41.333 -6.16699 -79 -24.5 -113s-46.833 -61.167 -85.5 -81.5s-86.667 -30.5 -144 -30.5c-74 0 -133.5 18.5 -178.5 55.5z" />
    <glyph glyph-name="Agrave" unicode="&#xc0;" horiz-adv-x="773" 
d="M504 107h-236l-35 -107h-233l259 708h256l258 -708h-234zM450 274l-64 197l-64 -197h128zM515 897v-148l-259 94v164z" />
    <glyph glyph-name="Aacute" unicode="&#xc1;" horiz-adv-x="773" 
d="M504 107h-236l-35 -107h-233l259 708h256l258 -708h-234zM450 274l-64 197l-64 -197h128zM515 843l-259 -94v148l259 110v-164z" />
    <glyph glyph-name="Acircumflex" unicode="&#xc2;" horiz-adv-x="773" 
d="M504 107h-236l-35 -107h-233l259 708h256l258 -708h-234zM450 274l-64 197l-64 -197h128zM387 827l-166 -78v144l166 75l165 -75v-144z" />
    <glyph glyph-name="Atilde" unicode="&#xc3;" horiz-adv-x="773" 
d="M504 107h-236l-35 -107h-233l259 708h256l258 -708h-234zM450 274l-64 197l-64 -197h128zM209.5 883.5c27 27.667 61.8301 41.499 104.497 41.499c16 0 31 -2.33301 45 -7s29 -11.334 45 -20.001c12.667 -6.66699 22.834 -11.5 30.501 -14.5s15.5 -4.5 23.5 -4.5
c24.667 0 39.334 15.667 44.001 47h109c-10.667 -62 -29.5 -106.667 -56.5 -134s-61.833 -41 -104.5 -41c-16 0 -31 2.33301 -45 7s-29 11.334 -45 20.001c-9.33301 4.66699 -18.666 8.83398 -27.999 12.501s-18 5.5 -26 5.5c-24 0 -39 -15.667 -45 -47h-108
c10.667 62 29.5 106.833 56.5 134.5z" />
    <glyph glyph-name="Adieresis" unicode="&#xc4;" horiz-adv-x="773" 
d="M504 107h-236l-35 -107h-233l259 708h256l258 -708h-234zM450 274l-64 197l-64 -197h128zM212.5 791.5c-16.333 16.333 -24.498 36.498 -24.498 60.498c0 24.667 8.16699 45.334 24.5 62.001s36.5 25 60.5 25c25.333 0 46.166 -8.16699 62.499 -24.5
s24.5 -37.166 24.5 -62.499c0 -24 -8.33301 -44.167 -25 -60.5s-37.334 -24.5 -62.001 -24.5c-24 0 -44.167 8.16699 -60.5 24.5zM437.502 791.498c-16.333 16.333 -24.498 36.498 -24.498 60.498c0 24.667 8.16699 45.334 24.5 62.001s36.5 25 60.5 25
c25.333 0 46.166 -8.16699 62.499 -24.5s24.5 -37.166 24.5 -62.499c0 -24 -8.33301 -44.167 -25 -60.5s-37.334 -24.5 -62.001 -24.5c-24 0 -44.167 8.16699 -60.5 24.5z" />
    <glyph glyph-name="Aring" unicode="&#xc5;" horiz-adv-x="773" 
d="M504 107h-236l-35 -107h-233l259 708h256l258 -708h-234zM450 274l-64 197l-64 -197h128zM481 776c-25.333 -24 -56.666 -36 -93.999 -36s-68.666 12 -93.999 36s-38 56 -38 96s12.667 72 38 96s56.666 36 93.999 36s68.666 -12 93.999 -36s38 -56 38 -96
s-12.667 -72 -38 -96zM420 906c-8.66699 8.66699 -19.667 13 -33 13s-24.333 -4.33301 -33 -13s-13 -20 -13 -34s4.33301 -25.333 13 -34s19.667 -13 33 -13s24.333 4.33301 33 13s13 20 13 34s-4.33301 25.333 -13 34z" />
    <glyph glyph-name="AE" unicode="&#xc6;" horiz-adv-x="986" 
d="M712 532v-85h210v-167h-210v-103h240v-177h-462v97h-204l-45 -97h-241l339 708h613v-176h-240zM490 264v273l-127 -273h127z" />
    <glyph glyph-name="Ccedilla" unicode="&#xc7;" horiz-adv-x="753" 
d="M443.5 219.5c19.667 13 34.8369 31.166 45.5039 54.499h234c-12.667 -74 -43.334 -135.333 -92.001 -184s-110.334 -78.667 -185.001 -90h5v-34c18.667 0 38 -3.83301 58 -11.5s37 -20.667 51 -39s21 -42.166 21 -71.499c0 -43.333 -15 -74.5 -45 -93.5
s-65 -28.5 -105 -28.5h-173v113h150c8 0 14.333 1.5 19 4.5s7 6.83301 7 11.5c0 10 -8.66699 15 -26 15h-85v133c-60 8 -112.167 28 -156.5 60s-78.166 73.333 -101.499 124s-35 108 -35 172c0 70 14.167 132.333 42.5 187s68.833 97.167 121.5 127.5s114.667 45.5 186 45.5
c61.333 0 116.166 -11.5 164.499 -34.5s87.666 -55.5 117.999 -97.5s50.5 -91 60.5 -147h-234c-10.667 23.333 -25.834 41.5 -45.501 54.5s-42.167 19.5 -67.5 19.5c-37.333 0 -66.833 -14 -88.5 -42s-32.5 -65.667 -32.5 -113s10.833 -85 32.5 -113s51.167 -42 88.5 -42
c25.333 0 47.833 6.5 67.5 19.5z" />
    <glyph glyph-name="Egrave" unicode="&#xc8;" horiz-adv-x="556" 
d="M272 531v-87h220v-167h-220v-100h250v-177h-472v708h472v-177h-250zM410 897v-148l-259 94v164z" />
    <glyph glyph-name="Eacute" unicode="&#xc9;" horiz-adv-x="556" 
d="M272 531v-87h220v-167h-220v-100h250v-177h-472v708h472v-177h-250zM410 843l-259 -94v148l259 110v-164z" />
    <glyph glyph-name="Ecircumflex" unicode="&#xca;" horiz-adv-x="556" 
d="M272 531v-87h220v-167h-220v-100h250v-177h-472v708h472v-177h-250zM282 827l-166 -78v144l166 75l165 -75v-144z" />
    <glyph glyph-name="Edieresis" unicode="&#xcb;" horiz-adv-x="556" 
d="M272 531v-87h220v-167h-220v-100h250v-177h-472v708h472v-177h-250zM107.5 791.5c-16.333 16.333 -24.498 36.498 -24.498 60.498c0 24.667 8.16699 45.334 24.5 62.001s36.5 25 60.5 25c25.333 0 46.166 -8.16699 62.499 -24.5s24.5 -37.166 24.5 -62.499
c0 -24 -8.33301 -44.167 -25 -60.5s-37.334 -24.5 -62.001 -24.5c-24 0 -44.167 8.16699 -60.5 24.5zM332.502 791.498c-16.333 16.333 -24.498 36.498 -24.498 60.498c0 24.667 8.16699 45.334 24.5 62.001s36.5 25 60.5 25c25.333 0 46.166 -8.16699 62.499 -24.5
s24.5 -37.166 24.5 -62.499c0 -24 -8.33301 -44.167 -25 -60.5s-37.334 -24.5 -62.001 -24.5c-24 0 -44.167 8.16699 -60.5 24.5z" />
    <glyph glyph-name="Igrave" unicode="&#xcc;" horiz-adv-x="322" 
d="M272 708v-708h-222v708h222zM290 897v-148l-259 94v164z" />
    <glyph glyph-name="Iacute" unicode="&#xcd;" horiz-adv-x="322" 
d="M272 708v-708h-222v708h222zM290 843l-259 -94v148l259 110v-164z" />
    <glyph glyph-name="Icircumflex" unicode="&#xce;" horiz-adv-x="322" 
d="M272 708v-708h-222v708h222zM162 827l-166 -78v144l166 75l165 -75v-144z" />
    <glyph glyph-name="Idieresis" unicode="&#xcf;" horiz-adv-x="322" 
d="M272 708v-708h-222v708h222zM-12.5 791.5c-16.333 16.333 -24.498 36.498 -24.498 60.498c0 24.667 8.16699 45.334 24.5 62.001s36.5 25 60.5 25c25.333 0 46.166 -8.16699 62.499 -24.5s24.5 -37.166 24.5 -62.499c0 -24 -8.33301 -44.167 -25 -60.5
s-37.334 -24.5 -62.001 -24.5c-24 0 -44.167 8.16699 -60.5 24.5zM212.502 791.498c-16.333 16.333 -24.498 36.498 -24.498 60.498c0 24.667 8.16699 45.334 24.5 62.001s36.5 25 60.5 25c25.333 0 46.166 -8.16699 62.499 -24.5s24.5 -37.166 24.5 -62.499
c0 -24 -8.33301 -44.167 -25 -60.5s-37.334 -24.5 -62.001 -24.5c-24 0 -44.167 8.16699 -60.5 24.5z" />
    <glyph glyph-name="Eth" unicode="&#xd0;" horiz-adv-x="743" 
d="M539.5 663c55.667 -30 98.5 -71.667 128.5 -125s45 -114 45 -182c0 -67.333 -15 -128 -45 -182s-72.833 -96.5 -128.5 -127.5s-120.5 -46.5 -194.5 -46.5h-295v268h-50v176h50v264h295c74 0 138.833 -15 194.5 -45zM444 239c29.333 27.333 44 66.333 44 117
s-14.667 89.667 -44 117s-69 41 -119 41h-53v-70h130v-176h-130v-70h53c50 0 89.667 13.667 119 41z" />
    <glyph glyph-name="Ntilde" unicode="&#xd1;" horiz-adv-x="779" 
d="M729 0h-222l-235 356v-356h-222v708h222l235 -362v362h222v-708zM211.5 883.5c27 27.667 61.8301 41.499 104.497 41.499c16 0 31 -2.33301 45 -7s29 -11.334 45 -20.001c12.667 -6.66699 22.834 -11.5 30.501 -14.5s15.5 -4.5 23.5 -4.5
c24.667 0 39.334 15.667 44.001 47h109c-10.667 -62 -29.5 -106.667 -56.5 -134s-61.833 -41 -104.5 -41c-16 0 -31 2.33301 -45 7s-29 11.334 -45 20.001c-9.33301 4.66699 -18.666 8.83398 -27.999 12.501s-18 5.5 -26 5.5c-24 0 -39 -15.667 -45 -47h-108
c10.667 62 29.5 106.833 56.5 134.5z" />
    <glyph glyph-name="Ograve" unicode="&#xd2;" horiz-adv-x="788" 
d="M211.5 40c-55.667 31.333 -99.833 74.666 -132.5 129.999s-49 117.666 -49 186.999s16.333 131.666 49 186.999s76.834 98.5 132.501 129.5s116.834 46.5 183.501 46.5s127.667 -15.5 183 -46.5s99.166 -74.167 131.499 -129.5s48.5 -117.666 48.5 -186.999
s-16.167 -131.666 -48.5 -186.999s-76.333 -98.666 -132 -129.999s-116.5 -47 -182.5 -47c-66.667 0 -127.834 15.667 -183.501 47zM497.001 242.5c24 28.333 36 66.5 36 114.5c0 48.667 -12 87.167 -36 115.5s-58 42.5 -102 42.5c-44.667 0 -79 -14.167 -103 -42.5
s-36 -66.833 -36 -115.5c0 -48 12 -86.167 36 -114.5s58.333 -42.5 103 -42.5c44 0 78 14.167 102 42.5zM523.001 897v-148l-259 94v164z" />
    <glyph glyph-name="Oacute" unicode="&#xd3;" horiz-adv-x="788" 
d="M211.5 40c-55.667 31.333 -99.833 74.666 -132.5 129.999s-49 117.666 -49 186.999s16.333 131.666 49 186.999s76.834 98.5 132.501 129.5s116.834 46.5 183.501 46.5s127.667 -15.5 183 -46.5s99.166 -74.167 131.499 -129.5s48.5 -117.666 48.5 -186.999
s-16.167 -131.666 -48.5 -186.999s-76.333 -98.666 -132 -129.999s-116.5 -47 -182.5 -47c-66.667 0 -127.834 15.667 -183.501 47zM497.001 242.5c24 28.333 36 66.5 36 114.5c0 48.667 -12 87.167 -36 115.5s-58 42.5 -102 42.5c-44.667 0 -79 -14.167 -103 -42.5
s-36 -66.833 -36 -115.5c0 -48 12 -86.167 36 -114.5s58.333 -42.5 103 -42.5c44 0 78 14.167 102 42.5zM523.001 843l-259 -94v148l259 110v-164z" />
    <glyph glyph-name="Ocircumflex" unicode="&#xd4;" horiz-adv-x="788" 
d="M211.5 40c-55.667 31.333 -99.833 74.666 -132.5 129.999s-49 117.666 -49 186.999s16.333 131.666 49 186.999s76.834 98.5 132.501 129.5s116.834 46.5 183.501 46.5s127.667 -15.5 183 -46.5s99.166 -74.167 131.499 -129.5s48.5 -117.666 48.5 -186.999
s-16.167 -131.666 -48.5 -186.999s-76.333 -98.666 -132 -129.999s-116.5 -47 -182.5 -47c-66.667 0 -127.834 15.667 -183.501 47zM497.001 242.5c24 28.333 36 66.5 36 114.5c0 48.667 -12 87.167 -36 115.5s-58 42.5 -102 42.5c-44.667 0 -79 -14.167 -103 -42.5
s-36 -66.833 -36 -115.5c0 -48 12 -86.167 36 -114.5s58.333 -42.5 103 -42.5c44 0 78 14.167 102 42.5zM395.001 827l-166 -78v144l166 75l165 -75v-144z" />
    <glyph glyph-name="Otilde" unicode="&#xd5;" horiz-adv-x="788" 
d="M211.5 40c-55.667 31.333 -99.833 74.666 -132.5 129.999s-49 117.666 -49 186.999s16.333 131.666 49 186.999s76.834 98.5 132.501 129.5s116.834 46.5 183.501 46.5s127.667 -15.5 183 -46.5s99.166 -74.167 131.499 -129.5s48.5 -117.666 48.5 -186.999
s-16.167 -131.666 -48.5 -186.999s-76.333 -98.666 -132 -129.999s-116.5 -47 -182.5 -47c-66.667 0 -127.834 15.667 -183.501 47zM497.001 242.5c24 28.333 36 66.5 36 114.5c0 48.667 -12 87.167 -36 115.5s-58 42.5 -102 42.5c-44.667 0 -79 -14.167 -103 -42.5
s-36 -66.833 -36 -115.5c0 -48 12 -86.167 36 -114.5s58.333 -42.5 103 -42.5c44 0 78 14.167 102 42.5zM217.501 883.5c27 27.667 61.8301 41.499 104.497 41.499c16 0 31 -2.33301 45 -7s29 -11.334 45 -20.001c12.667 -6.66699 22.834 -11.5 30.501 -14.5
s15.5 -4.5 23.5 -4.5c24.667 0 39.334 15.667 44.001 47h109c-10.667 -62 -29.5 -106.667 -56.5 -134s-61.833 -41 -104.5 -41c-16 0 -31 2.33301 -45 7s-29 11.334 -45 20.001c-9.33301 4.66699 -18.666 8.83398 -27.999 12.501s-18 5.5 -26 5.5c-24 0 -39 -15.667 -45 -47
h-108c10.667 62 29.5 106.833 56.5 134.5z" />
    <glyph glyph-name="Odieresis" unicode="&#xd6;" horiz-adv-x="788" 
d="M211.5 40c-55.667 31.333 -99.833 74.666 -132.5 129.999s-49 117.666 -49 186.999s16.333 131.666 49 186.999s76.834 98.5 132.501 129.5s116.834 46.5 183.501 46.5s127.667 -15.5 183 -46.5s99.166 -74.167 131.499 -129.5s48.5 -117.666 48.5 -186.999
s-16.167 -131.666 -48.5 -186.999s-76.333 -98.666 -132 -129.999s-116.5 -47 -182.5 -47c-66.667 0 -127.834 15.667 -183.501 47zM497.001 242.5c24 28.333 36 66.5 36 114.5c0 48.667 -12 87.167 -36 115.5s-58 42.5 -102 42.5c-44.667 0 -79 -14.167 -103 -42.5
s-36 -66.833 -36 -115.5c0 -48 12 -86.167 36 -114.5s58.333 -42.5 103 -42.5c44 0 78 14.167 102 42.5zM220.501 791.5c-16.333 16.333 -24.498 36.498 -24.498 60.498c0 24.667 8.16699 45.334 24.5 62.001s36.5 25 60.5 25c25.333 0 46.166 -8.16699 62.499 -24.5
s24.5 -37.166 24.5 -62.499c0 -24 -8.33301 -44.167 -25 -60.5s-37.334 -24.5 -62.001 -24.5c-24 0 -44.167 8.16699 -60.5 24.5zM445.503 791.498c-16.333 16.333 -24.498 36.498 -24.498 60.498c0 24.667 8.16699 45.334 24.5 62.001s36.5 25 60.5 25
c25.333 0 46.166 -8.16699 62.499 -24.5s24.5 -37.166 24.5 -62.499c0 -24 -8.33301 -44.167 -25 -60.5s-37.334 -24.5 -62.001 -24.5c-24 0 -44.167 8.16699 -60.5 24.5z" />
    <glyph glyph-name="multiply" unicode="&#xd7;" horiz-adv-x="581" 
d="M414 78l-127 126l-124 -125l-143 142l124 126l-120 120l147 145l118 -118l117 118l144 -142l-118 -119l129 -128z" />
    <glyph glyph-name="Oslash" unicode="&#xd8;" horiz-adv-x="788" 
d="M669 600c28 -32 49.668 -68.6689 65.001 -110.002s23 -85.666 23 -132.999c0 -69.333 -16.167 -131.666 -48.5 -186.999s-76.333 -98.666 -132 -129.999s-116.5 -47 -182.5 -47c-38.667 0 -75.834 5.5 -111.501 16.5s-68.5 26.5 -98.5 46.5l-50 -55h-116l101 112
c-28.667 32 -50.834 68.833 -66.501 110.5s-23.5 86.167 -23.5 133.5c0 69.333 16.333 131.666 49 186.999s76.834 98.5 132.501 129.5s116.834 46.5 183.501 46.5c77.333 0 147.666 -21 210.999 -63l49 55h115zM268.001 280.998l195 217.999c-20 10.667 -43 16 -69 16
c-44.667 0 -79 -14.167 -103 -42.5s-36 -66.833 -36 -115.5c0 -29.333 4.33301 -54.666 13 -75.999zM519.001 432.997l-194 -217.999c20 -10 43 -15 69 -15c44 0 78 14.167 102 42.5s36 66.5 36 114.5c0 29.333 -4.33301 54.666 -13 75.999z" />
    <glyph glyph-name="Ugrave" unicode="&#xd9;" horiz-adv-x="719" 
d="M267 708v-399c0 -32.667 7.16699 -58.5 21.5 -77.5s37.5 -28.5 69.5 -28.5s55.667 9.5 71 28.5s23 44.833 23 77.5v399h221v-399c0 -67.333 -14 -124.833 -42 -172.5s-66.333 -83.5 -115 -107.5s-103 -36 -163 -36s-113.167 12 -159.5 36s-82.5 59.667 -108.5 107
s-39 105 -39 173v399h221zM488 897v-148l-259 94v164z" />
    <glyph glyph-name="Uacute" unicode="&#xda;" horiz-adv-x="719" 
d="M267 708v-399c0 -32.667 7.16699 -58.5 21.5 -77.5s37.5 -28.5 69.5 -28.5s55.667 9.5 71 28.5s23 44.833 23 77.5v399h221v-399c0 -67.333 -14 -124.833 -42 -172.5s-66.333 -83.5 -115 -107.5s-103 -36 -163 -36s-113.167 12 -159.5 36s-82.5 59.667 -108.5 107
s-39 105 -39 173v399h221zM488 843l-259 -94v148l259 110v-164z" />
    <glyph glyph-name="Ucircumflex" unicode="&#xdb;" horiz-adv-x="719" 
d="M267 708v-399c0 -32.667 7.16699 -58.5 21.5 -77.5s37.5 -28.5 69.5 -28.5s55.667 9.5 71 28.5s23 44.833 23 77.5v399h221v-399c0 -67.333 -14 -124.833 -42 -172.5s-66.333 -83.5 -115 -107.5s-103 -36 -163 -36s-113.167 12 -159.5 36s-82.5 59.667 -108.5 107
s-39 105 -39 173v399h221zM360 827l-166 -78v144l166 75l165 -75v-144z" />
    <glyph glyph-name="Udieresis" unicode="&#xdc;" horiz-adv-x="719" 
d="M267 708v-399c0 -32.667 7.16699 -58.5 21.5 -77.5s37.5 -28.5 69.5 -28.5s55.667 9.5 71 28.5s23 44.833 23 77.5v399h221v-399c0 -67.333 -14 -124.833 -42 -172.5s-66.333 -83.5 -115 -107.5s-103 -36 -163 -36s-113.167 12 -159.5 36s-82.5 59.667 -108.5 107
s-39 105 -39 173v399h221zM185.5 791.5c-16.333 16.333 -24.498 36.498 -24.498 60.498c0 24.667 8.16699 45.334 24.5 62.001s36.5 25 60.5 25c25.333 0 46.166 -8.16699 62.499 -24.5s24.5 -37.166 24.5 -62.499c0 -24 -8.33301 -44.167 -25 -60.5
s-37.334 -24.5 -62.001 -24.5c-24 0 -44.167 8.16699 -60.5 24.5zM410.502 791.498c-16.333 16.333 -24.498 36.498 -24.498 60.498c0 24.667 8.16699 45.334 24.5 62.001s36.5 25 60.5 25c25.333 0 46.166 -8.16699 62.499 -24.5s24.5 -37.166 24.5 -62.499
c0 -24 -8.33301 -44.167 -25 -60.5s-37.334 -24.5 -62.001 -24.5c-24 0 -44.167 8.16699 -60.5 24.5z" />
    <glyph glyph-name="Yacute" unicode="&#xdd;" horiz-adv-x="730" 
d="M730 708l-254 -493v-215h-222v215l-254 493h254l113 -251l113 251h250zM494 843l-259 -94v148l259 110v-164z" />
    <glyph glyph-name="Thorn" unicode="&#xde;" horiz-adv-x="649" 
d="M598 238.5c-20.667 -35 -51.168 -62.667 -91.501 -83s-89.166 -30.5 -146.499 -30.5h-88v-125h-222v708h220v-120h90c86.667 0 153.167 -21.167 199.5 -63.5s69.5 -98.833 69.5 -169.5c0 -42.667 -10.333 -81.5 -31 -116.5zM403.999 355c0 43.333 -23 65 -69 65h-63v-130
h63c46 0 69 21.667 69 65z" />
    <glyph glyph-name="germandbls" unicode="&#xdf;" horiz-adv-x="815" 
d="M85.5 644.5c27.667 38.333 65.335 67.6689 113.002 88.002s101.5 30.5 161.5 30.5c51.333 0 97.833 -8.33301 139.5 -25s74.5 -39.5 98.5 -68.5s36 -61.5 36 -97.5c0 -26.667 -5.66699 -49.834 -17 -69.501s-26.333 -40.5 -45 -62.5
c-6.66699 -8 -12.667 -15.833 -18 -23.5s-8 -13.834 -8 -18.501c0 -7.33301 4.66699 -14.333 14 -21s31.333 -17 66 -31c52.667 -21.333 90 -44.5 112 -69.5s33 -57.5 33 -97.5c0 -37.333 -9.83301 -70.333 -29.5 -99s-46.834 -50.834 -81.501 -66.501
s-74.667 -23.5 -120 -23.5c-71.333 0 -128.5 16.833 -171.5 50.5s-70.5 82.834 -82.5 147.501h194c4 -13.333 11 -24.166 21 -32.499s21 -12.5 33 -12.5c9.33301 0 16.666 2.33301 21.999 7s8 11 8 19c0 9.33301 -4.83301 17.666 -14.5 24.999s-30.167 17 -61.5 29
c-60 22.667 -102 43.834 -126 63.501s-36 43.5 -36 71.5c0 17.333 4.33301 33.666 13 48.999s21.334 34 38.001 56c12.667 14.667 22.167 27.334 28.5 38.001s9.5 20.667 9.5 30c0 14.667 -6.33301 26.5 -19 35.5s-29.334 13.5 -50.001 13.5
c-24.667 0 -44.5 -7.33301 -59.5 -22s-22.5 -34.334 -22.5 -59.001v-499h-220v509c0 52 13.833 97.167 41.5 135.5z" />
    <glyph glyph-name="agrave" unicode="&#xe0;" horiz-adv-x="680" 
d="M50.5 436.5c20.333 43.667 48.166 77 83.499 100s75 34.5 119 34.5c36.667 0 68.334 -7.5 95.001 -22.5s47 -35.5 61 -61.5v77h221v-564h-221v77c-14 -26 -34.333 -46.5 -61 -61.5s-58.334 -22.5 -95.001 -22.5c-44 0 -83.667 11.5 -119 34.5s-63.166 56.333 -83.499 100
s-30.5 95.167 -30.5 154.5s10.167 110.833 30.5 154.5zM386 352c-15.333 16.667 -35 25 -59 25s-43.667 -8.33301 -59 -25s-23 -40 -23 -70s7.66699 -53.333 23 -70s35 -25 59 -25s43.667 8.33301 59 25s23 40 23 70s-7.66699 53.333 -23 70zM475 750v-148l-259 94v164z" />
    <glyph glyph-name="aacute" unicode="&#xe1;" horiz-adv-x="680" 
d="M50.5 436.5c20.333 43.667 48.166 77 83.499 100s75 34.5 119 34.5c36.667 0 68.334 -7.5 95.001 -22.5s47 -35.5 61 -61.5v77h221v-564h-221v77c-14 -26 -34.333 -46.5 -61 -61.5s-58.334 -22.5 -95.001 -22.5c-44 0 -83.667 11.5 -119 34.5s-63.166 56.333 -83.499 100
s-30.5 95.167 -30.5 154.5s10.167 110.833 30.5 154.5zM386 352c-15.333 16.667 -35 25 -59 25s-43.667 -8.33301 -59 -25s-23 -40 -23 -70s7.66699 -53.333 23 -70s35 -25 59 -25s43.667 8.33301 59 25s23 40 23 70s-7.66699 53.333 -23 70zM475 696l-259 -94v148l259 110
v-164z" />
    <glyph glyph-name="acircumflex" unicode="&#xe2;" horiz-adv-x="680" 
d="M50.5 436.5c20.333 43.667 48.166 77 83.499 100s75 34.5 119 34.5c36.667 0 68.334 -7.5 95.001 -22.5s47 -35.5 61 -61.5v77h221v-564h-221v77c-14 -26 -34.333 -46.5 -61 -61.5s-58.334 -22.5 -95.001 -22.5c-44 0 -83.667 11.5 -119 34.5s-63.166 56.333 -83.499 100
s-30.5 95.167 -30.5 154.5s10.167 110.833 30.5 154.5zM386 352c-15.333 16.667 -35 25 -59 25s-43.667 -8.33301 -59 -25s-23 -40 -23 -70s7.66699 -53.333 23 -70s35 -25 59 -25s43.667 8.33301 59 25s23 40 23 70s-7.66699 53.333 -23 70zM347 680l-166 -78v144l166 75
l165 -75v-144z" />
    <glyph glyph-name="atilde" unicode="&#xe3;" horiz-adv-x="680" 
d="M50.5 436.5c20.333 43.667 48.166 77 83.499 100s75 34.5 119 34.5c36.667 0 68.334 -7.5 95.001 -22.5s47 -35.5 61 -61.5v77h221v-564h-221v77c-14 -26 -34.333 -46.5 -61 -61.5s-58.334 -22.5 -95.001 -22.5c-44 0 -83.667 11.5 -119 34.5s-63.166 56.333 -83.499 100
s-30.5 95.167 -30.5 154.5s10.167 110.833 30.5 154.5zM386 352c-15.333 16.667 -35 25 -59 25s-43.667 -8.33301 -59 -25s-23 -40 -23 -70s7.66699 -53.333 23 -70s35 -25 59 -25s43.667 8.33301 59 25s23 40 23 70s-7.66699 53.333 -23 70zM169.5 736.5
c27 27.667 61.8301 41.499 104.497 41.499c16 0 31 -2.33301 45 -7s29 -11.334 45 -20.001c12.667 -6.66699 22.834 -11.5 30.501 -14.5s15.5 -4.5 23.5 -4.5c24.667 0 39.334 15.667 44.001 47h109c-10.667 -62 -29.5 -106.667 -56.5 -134s-61.833 -41 -104.5 -41
c-16 0 -31 2.33301 -45 7s-29 11.334 -45 20.001c-9.33301 4.66699 -18.666 8.83398 -27.999 12.501s-18 5.5 -26 5.5c-24 0 -39 -15.667 -45 -47h-108c10.667 62 29.5 106.833 56.5 134.5z" />
    <glyph glyph-name="adieresis" unicode="&#xe4;" horiz-adv-x="680" 
d="M50.5 436.5c20.333 43.667 48.166 77 83.499 100s75 34.5 119 34.5c36.667 0 68.334 -7.5 95.001 -22.5s47 -35.5 61 -61.5v77h221v-564h-221v77c-14 -26 -34.333 -46.5 -61 -61.5s-58.334 -22.5 -95.001 -22.5c-44 0 -83.667 11.5 -119 34.5s-63.166 56.333 -83.499 100
s-30.5 95.167 -30.5 154.5s10.167 110.833 30.5 154.5zM386 352c-15.333 16.667 -35 25 -59 25s-43.667 -8.33301 -59 -25s-23 -40 -23 -70s7.66699 -53.333 23 -70s35 -25 59 -25s43.667 8.33301 59 25s23 40 23 70s-7.66699 53.333 -23 70zM172.5 644.5
c-16.333 16.333 -24.498 36.498 -24.498 60.498c0 24.667 8.16699 45.334 24.5 62.001s36.5 25 60.5 25c25.333 0 46.166 -8.16699 62.499 -24.5s24.5 -37.166 24.5 -62.499c0 -24 -8.33301 -44.167 -25 -60.5s-37.334 -24.5 -62.001 -24.5
c-24 0 -44.167 8.16699 -60.5 24.5zM397.502 644.498c-16.333 16.333 -24.498 36.498 -24.498 60.498c0 24.667 8.16699 45.334 24.5 62.001s36.5 25 60.5 25c25.333 0 46.166 -8.16699 62.499 -24.5s24.5 -37.166 24.5 -62.499c0 -24 -8.33301 -44.167 -25 -60.5
s-37.334 -24.5 -62.001 -24.5c-24 0 -44.167 8.16699 -60.5 24.5z" />
    <glyph glyph-name="aring" unicode="&#xe5;" horiz-adv-x="680" 
d="M50.5 436.5c20.333 43.667 48.166 77 83.499 100s75 34.5 119 34.5c36.667 0 68.334 -7.5 95.001 -22.5s47 -35.5 61 -61.5v77h221v-564h-221v77c-14 -26 -34.333 -46.5 -61 -61.5s-58.334 -22.5 -95.001 -22.5c-44 0 -83.667 11.5 -119 34.5s-63.166 56.333 -83.499 100
s-30.5 95.167 -30.5 154.5s10.167 110.833 30.5 154.5zM386 352c-15.333 16.667 -35 25 -59 25s-43.667 -8.33301 -59 -25s-23 -40 -23 -70s7.66699 -53.333 23 -70s35 -25 59 -25s43.667 8.33301 59 25s23 40 23 70s-7.66699 53.333 -23 70zM441 629
c-25.333 -24 -56.666 -36 -93.999 -36s-68.666 12 -93.999 36s-38 56 -38 96s12.667 72 38 96s56.666 36 93.999 36s68.666 -12 93.999 -36s38 -56 38 -96s-12.667 -72 -38 -96zM380 759c-8.66699 8.66699 -19.667 13 -33 13s-24.333 -4.33301 -33 -13s-13 -20 -13 -34
s4.33301 -25.333 13 -34s19.667 -13 33 -13s24.333 4.33301 33 13s13 20 13 34s-4.33301 25.333 -13 34z" />
    <glyph glyph-name="ae" unicode="&#xe6;" horiz-adv-x="1054" 
d="M1029 243l-391.001 -0.00292969c3.33301 -28 11.833 -47.667 25.5 -59s31.5 -17 53.5 -17c36 0 59.333 12 70 36h235c-12 -61.333 -38.333 -111.666 -79 -150.999s-89.667 -59 -147 -59c-40 0 -74.167 7.33301 -102.5 22s-49.5 35.334 -63.5 62.001v-77h-221v77
c-14 -26 -34.333 -46.5 -61 -61.5s-58.334 -22.5 -95.001 -22.5c-44 0 -83.667 11.5 -119 34.5s-63.166 56.333 -83.499 100s-30.5 95.167 -30.5 154.5s10.167 110.833 30.5 154.5s48.166 77 83.499 100s75 34.5 119 34.5c36.667 0 68.334 -7.5 95.001 -22.5
s47 -35.5 61 -61.5v77h221v-77c13.333 26.667 34.333 47.334 63 62.001s63 22 103 22c46.667 0 87.834 -11.5 123.501 -34.5s63.667 -55.833 84 -98.5s30.5 -93 30.5 -151c0 -14 -1.66699 -28.667 -5 -44zM808.999 333.997c0 20.667 -8 36.333 -24 47s-36.333 16 -61 16
c-48 0 -76.333 -21 -85 -63h170zM385.999 211.996c15.333 16.667 23 40 23 70s-7.66699 53.333 -23 70s-35 25 -59 25s-43.667 -8.33301 -59 -25s-23 -40 -23 -70s7.66699 -53.333 23 -70s35 -25 59 -25s43.667 8.33301 59 25z" />
    <glyph glyph-name="ccedilla" unicode="&#xe7;" horiz-adv-x="609" 
d="M354 227l235.003 -0.00195312c-11.333 -62 -36 -112.667 -74 -152s-85.333 -64.666 -142 -75.999v-33c18.667 0 38 -3.83301 58 -11.5s37 -20.667 51 -39s21 -42.166 21 -71.499c0 -43.333 -15 -74.5 -45 -93.5s-65 -28.5 -105 -28.5h-173v113h150c8 0 14.333 1.5 19 4.5
s7 6.83301 7 11.5c0 10 -8.66699 15 -26 15h-85v132c-68.667 12 -123.334 43 -164.001 93s-61 113.667 -61 191c0 58.667 12.167 109.834 36.5 153.501s58.333 77.167 102 100.5s93.5 35 149.5 35c73.333 0 135.166 -20.667 185.499 -62s82.166 -98.666 95.499 -171.999
h-235c-8.66699 29.333 -25.667 44 -51 44c-18 0 -32.167 -8.33301 -42.5 -25s-15.5 -41.334 -15.5 -74.001s5.16699 -57.334 15.5 -74.001s24.5 -25 42.5 -25c25.333 0 42.333 14.667 51 44z" />
    <glyph glyph-name="egrave" unicode="&#xe8;" horiz-adv-x="616" 
d="M593 243l-356.999 -0.00195312c3.33301 -48.667 23.666 -73 60.999 -73c24 0 41.333 11 52 33h235c-8 -40 -24.833 -75.833 -50.5 -107.5s-58 -56.667 -97 -75s-81.833 -27.5 -128.5 -27.5c-56 0 -105.833 11.667 -149.5 35s-77.667 56.833 -102 100.5
s-36.5 94.834 -36.5 153.501s12.167 109.834 36.5 153.501s58.333 77.167 102 100.5s93.5 35 149.5 35s105.833 -11.5 149.5 -34.5s77.667 -55.833 102 -98.5s36.5 -93 36.5 -151c0 -15.333 -1 -30 -3 -44zM371.001 339.998c0 18.667 -6 32.833 -18 42.5s-27 14.5 -45 14.5
c-39.333 0 -62.333 -19 -69 -57h132zM436.001 756.997v-148l-259 94v164z" />
    <glyph glyph-name="eacute" unicode="&#xe9;" horiz-adv-x="616" 
d="M593 243l-356.999 -0.00195312c3.33301 -48.667 23.666 -73 60.999 -73c24 0 41.333 11 52 33h235c-8 -40 -24.833 -75.833 -50.5 -107.5s-58 -56.667 -97 -75s-81.833 -27.5 -128.5 -27.5c-56 0 -105.833 11.667 -149.5 35s-77.667 56.833 -102 100.5
s-36.5 94.834 -36.5 153.501s12.167 109.834 36.5 153.501s58.333 77.167 102 100.5s93.5 35 149.5 35s105.833 -11.5 149.5 -34.5s77.667 -55.833 102 -98.5s36.5 -93 36.5 -151c0 -15.333 -1 -30 -3 -44zM371.001 339.998c0 18.667 -6 32.833 -18 42.5s-27 14.5 -45 14.5
c-39.333 0 -62.333 -19 -69 -57h132zM436.001 702.997l-259 -94v148l259 110v-164z" />
    <glyph glyph-name="ecircumflex" unicode="&#xea;" horiz-adv-x="616" 
d="M593 243l-356.999 -0.00195312c3.33301 -48.667 23.666 -73 60.999 -73c24 0 41.333 11 52 33h235c-8 -40 -24.833 -75.833 -50.5 -107.5s-58 -56.667 -97 -75s-81.833 -27.5 -128.5 -27.5c-56 0 -105.833 11.667 -149.5 35s-77.667 56.833 -102 100.5
s-36.5 94.834 -36.5 153.501s12.167 109.834 36.5 153.501s58.333 77.167 102 100.5s93.5 35 149.5 35s105.833 -11.5 149.5 -34.5s77.667 -55.833 102 -98.5s36.5 -93 36.5 -151c0 -15.333 -1 -30 -3 -44zM371.001 339.998c0 18.667 -6 32.833 -18 42.5s-27 14.5 -45 14.5
c-39.333 0 -62.333 -19 -69 -57h132zM308.001 686.997l-166 -78v144l166 75l165 -75v-144z" />
    <glyph glyph-name="edieresis" unicode="&#xeb;" horiz-adv-x="616" 
d="M593 243l-356.999 -0.00195312c3.33301 -48.667 23.666 -73 60.999 -73c24 0 41.333 11 52 33h235c-8 -40 -24.833 -75.833 -50.5 -107.5s-58 -56.667 -97 -75s-81.833 -27.5 -128.5 -27.5c-56 0 -105.833 11.667 -149.5 35s-77.667 56.833 -102 100.5
s-36.5 94.834 -36.5 153.501s12.167 109.834 36.5 153.501s58.333 77.167 102 100.5s93.5 35 149.5 35s105.833 -11.5 149.5 -34.5s77.667 -55.833 102 -98.5s36.5 -93 36.5 -151c0 -15.333 -1 -30 -3 -44zM371.001 339.998c0 18.667 -6 32.833 -18 42.5s-27 14.5 -45 14.5
c-39.333 0 -62.333 -19 -69 -57h132zM133.501 651.497c-16.333 16.333 -24.498 36.498 -24.498 60.498c0 24.667 8.16699 45.334 24.5 62.001s36.5 25 60.5 25c25.333 0 46.166 -8.16699 62.499 -24.5s24.5 -37.166 24.5 -62.499c0 -24 -8.33301 -44.167 -25 -60.5
s-37.334 -24.5 -62.001 -24.5c-24 0 -44.167 8.16699 -60.5 24.5zM358.503 651.495c-16.333 16.333 -24.498 36.498 -24.498 60.498c0 24.667 8.16699 45.334 24.5 62.001s36.5 25 60.5 25c25.333 0 46.166 -8.16699 62.499 -24.5s24.5 -37.166 24.5 -62.499
c0 -24 -8.33301 -44.167 -25 -60.5s-37.334 -24.5 -62.001 -24.5c-24 0 -44.167 8.16699 -60.5 24.5z" />
    <glyph glyph-name="igrave" unicode="&#xec;" horiz-adv-x="372" 
d="M297 564v-564h-222v564h222zM315 750v-148l-259 94v164z" />
    <glyph glyph-name="iacute" unicode="&#xed;" horiz-adv-x="372" 
d="M297 564v-564h-222v564h222zM315 696l-259 -94v148l259 110v-164z" />
    <glyph glyph-name="icircumflex" unicode="&#xee;" horiz-adv-x="372" 
d="M297 564v-564h-222v564h222zM187 680l-166 -78v144l166 75l165 -75v-144z" />
    <glyph glyph-name="idieresis" unicode="&#xef;" horiz-adv-x="372" 
d="M297 564v-564h-222v564h222zM12.5 644.5c-16.333 16.333 -24.498 36.498 -24.498 60.498c0 24.667 8.16699 45.334 24.5 62.001s36.5 25 60.5 25c25.333 0 46.166 -8.16699 62.499 -24.5s24.5 -37.166 24.5 -62.499c0 -24 -8.33301 -44.167 -25 -60.5
s-37.334 -24.5 -62.001 -24.5c-24 0 -44.167 8.16699 -60.5 24.5zM237.502 644.498c-16.333 16.333 -24.498 36.498 -24.498 60.498c0 24.667 8.16699 45.334 24.5 62.001s36.5 25 60.5 25c25.333 0 46.166 -8.16699 62.499 -24.5s24.5 -37.166 24.5 -62.499
c0 -24 -8.33301 -44.167 -25 -60.5s-37.334 -24.5 -62.001 -24.5c-24 0 -44.167 8.16699 -60.5 24.5z" />
    <glyph glyph-name="eth" unicode="&#xf0;" horiz-adv-x="643" 
d="M592 492.5c20.667 -59 30.998 -117.499 30.998 -175.499c0 -68 -13.167 -126.333 -39.5 -175s-61.833 -85.5 -106.5 -110.5s-94.334 -37.5 -149.001 -37.5c-55.333 0 -106.5 11.833 -153.5 35.5s-84.5 57.5 -112.5 101.5s-42 95 -42 153s12.333 108.333 37 151
s58.334 75.5 101.001 98.5s90.334 34.5 143.001 34.5c22 0 48.333 -2.66699 79 -8c-6.66699 14 -16.667 31.333 -30 52l-86 -24v72l44 13c-21.333 27.333 -41.666 49.666 -60.999 66.999h193l22 -24l67 19v-72l-21 -6c35.333 -50.667 63.333 -105.5 84 -164.5z
M376.998 209.001c13.333 15.333 20.002 39.668 20.002 73.001c0 32.667 -7.5 56.667 -22.5 72s-31.833 23 -50.5 23c-20.667 0 -38.834 -7.66699 -54.501 -23s-23.5 -39.333 -23.5 -72s8.66699 -56.834 26 -72.501s36 -23.5 56 -23.5c19.333 0 35.666 7.66699 48.999 23z
" />
    <glyph glyph-name="ntilde" unicode="&#xf1;" horiz-adv-x="697" 
d="M596.5 503c36.333 -43.333 54.5 -102.001 54.5 -176.001v-327h-221v299c0 26.667 -7.16699 47.834 -21.5 63.501s-33.5 23.5 -57.5 23.5c-24.667 0 -44 -7.83301 -58 -23.5s-21 -36.834 -21 -63.501v-299h-222v564h222v-86c17.333 26.667 40.5 48.334 69.5 65.001
s63.5 25 103.5 25c64.667 0 115.167 -21.667 151.5 -65zM206.5 736.499c27 27.667 61.8301 41.499 104.497 41.499c16 0 31 -2.33301 45 -7s29 -11.334 45 -20.001c12.667 -6.66699 22.834 -11.5 30.501 -14.5s15.5 -4.5 23.5 -4.5c24.667 0 39.334 15.667 44.001 47h109
c-10.667 -62 -29.5 -106.667 -56.5 -134s-61.833 -41 -104.5 -41c-16 0 -31 2.33301 -45 7s-29 11.334 -45 20.001c-9.33301 4.66699 -18.666 8.83398 -27.999 12.501s-18 5.5 -26 5.5c-24 0 -39 -15.667 -45 -47h-108c10.667 62 29.5 106.833 56.5 134.5z" />
    <glyph glyph-name="ograve" unicode="&#xf2;" horiz-adv-x="636" 
d="M165 28c-45.333 23.333 -80.833 56.833 -106.5 100.5s-38.5 94.834 -38.5 153.501s12.833 109.834 38.5 153.501s61.167 77.167 106.5 100.5s96.333 35 153 35s107.667 -11.667 153 -35s80.833 -56.833 106.5 -100.5s38.5 -94.834 38.5 -153.501
s-12.833 -109.834 -38.5 -153.501s-61.167 -77.167 -106.5 -100.5s-96.333 -35 -153 -35s-107.667 11.667 -153 35zM370 209.5c14 16.333 21 40.5 21 72.5s-7 56.167 -21 72.5s-31.333 24.5 -52 24.5s-38 -8.16699 -52 -24.5s-21 -40.5 -21 -72.5
s6.83301 -56.167 20.5 -72.5s31.167 -24.5 52.5 -24.5c20.667 0 38 8.16699 52 24.5zM471 750v-148l-259 94v164z" />
    <glyph glyph-name="oacute" unicode="&#xf3;" horiz-adv-x="636" 
d="M165 28c-45.333 23.333 -80.833 56.833 -106.5 100.5s-38.5 94.834 -38.5 153.501s12.833 109.834 38.5 153.501s61.167 77.167 106.5 100.5s96.333 35 153 35s107.667 -11.667 153 -35s80.833 -56.833 106.5 -100.5s38.5 -94.834 38.5 -153.501
s-12.833 -109.834 -38.5 -153.501s-61.167 -77.167 -106.5 -100.5s-96.333 -35 -153 -35s-107.667 11.667 -153 35zM370 209.5c14 16.333 21 40.5 21 72.5s-7 56.167 -21 72.5s-31.333 24.5 -52 24.5s-38 -8.16699 -52 -24.5s-21 -40.5 -21 -72.5
s6.83301 -56.167 20.5 -72.5s31.167 -24.5 52.5 -24.5c20.667 0 38 8.16699 52 24.5zM471 696l-259 -94v148l259 110v-164z" />
    <glyph glyph-name="ocircumflex" unicode="&#xf4;" horiz-adv-x="636" 
d="M165 28c-45.333 23.333 -80.833 56.833 -106.5 100.5s-38.5 94.834 -38.5 153.501s12.833 109.834 38.5 153.501s61.167 77.167 106.5 100.5s96.333 35 153 35s107.667 -11.667 153 -35s80.833 -56.833 106.5 -100.5s38.5 -94.834 38.5 -153.501
s-12.833 -109.834 -38.5 -153.501s-61.167 -77.167 -106.5 -100.5s-96.333 -35 -153 -35s-107.667 11.667 -153 35zM370 209.5c14 16.333 21 40.5 21 72.5s-7 56.167 -21 72.5s-31.333 24.5 -52 24.5s-38 -8.16699 -52 -24.5s-21 -40.5 -21 -72.5
s6.83301 -56.167 20.5 -72.5s31.167 -24.5 52.5 -24.5c20.667 0 38 8.16699 52 24.5zM343 680l-166 -78v144l166 75l165 -75v-144z" />
    <glyph glyph-name="otilde" unicode="&#xf5;" horiz-adv-x="636" 
d="M165 28c-45.333 23.333 -80.833 56.833 -106.5 100.5s-38.5 94.834 -38.5 153.501s12.833 109.834 38.5 153.501s61.167 77.167 106.5 100.5s96.333 35 153 35s107.667 -11.667 153 -35s80.833 -56.833 106.5 -100.5s38.5 -94.834 38.5 -153.501
s-12.833 -109.834 -38.5 -153.501s-61.167 -77.167 -106.5 -100.5s-96.333 -35 -153 -35s-107.667 11.667 -153 35zM370 209.5c14 16.333 21 40.5 21 72.5s-7 56.167 -21 72.5s-31.333 24.5 -52 24.5s-38 -8.16699 -52 -24.5s-21 -40.5 -21 -72.5
s6.83301 -56.167 20.5 -72.5s31.167 -24.5 52.5 -24.5c20.667 0 38 8.16699 52 24.5zM165.5 736.5c27 27.667 61.8301 41.499 104.497 41.499c16 0 31 -2.33301 45 -7s29 -11.334 45 -20.001c12.667 -6.66699 22.834 -11.5 30.501 -14.5s15.5 -4.5 23.5 -4.5
c24.667 0 39.334 15.667 44.001 47h109c-10.667 -62 -29.5 -106.667 -56.5 -134s-61.833 -41 -104.5 -41c-16 0 -31 2.33301 -45 7s-29 11.334 -45 20.001c-9.33301 4.66699 -18.666 8.83398 -27.999 12.501s-18 5.5 -26 5.5c-24 0 -39 -15.667 -45 -47h-108
c10.667 62 29.5 106.833 56.5 134.5z" />
    <glyph glyph-name="odieresis" unicode="&#xf6;" horiz-adv-x="636" 
d="M165 28c-45.333 23.333 -80.833 56.833 -106.5 100.5s-38.5 94.834 -38.5 153.501s12.833 109.834 38.5 153.501s61.167 77.167 106.5 100.5s96.333 35 153 35s107.667 -11.667 153 -35s80.833 -56.833 106.5 -100.5s38.5 -94.834 38.5 -153.501
s-12.833 -109.834 -38.5 -153.501s-61.167 -77.167 -106.5 -100.5s-96.333 -35 -153 -35s-107.667 11.667 -153 35zM370 209.5c14 16.333 21 40.5 21 72.5s-7 56.167 -21 72.5s-31.333 24.5 -52 24.5s-38 -8.16699 -52 -24.5s-21 -40.5 -21 -72.5
s6.83301 -56.167 20.5 -72.5s31.167 -24.5 52.5 -24.5c20.667 0 38 8.16699 52 24.5zM168.5 644.5c-16.333 16.333 -24.498 36.498 -24.498 60.498c0 24.667 8.16699 45.334 24.5 62.001s36.5 25 60.5 25c25.333 0 46.166 -8.16699 62.499 -24.5s24.5 -37.166 24.5 -62.499
c0 -24 -8.33301 -44.167 -25 -60.5s-37.334 -24.5 -62.001 -24.5c-24 0 -44.167 8.16699 -60.5 24.5zM393.502 644.498c-16.333 16.333 -24.498 36.498 -24.498 60.498c0 24.667 8.16699 45.334 24.5 62.001s36.5 25 60.5 25c25.333 0 46.166 -8.16699 62.499 -24.5
s24.5 -37.166 24.5 -62.499c0 -24 -8.33301 -44.167 -25 -60.5s-37.334 -24.5 -62.001 -24.5c-24 0 -44.167 8.16699 -60.5 24.5z" />
    <glyph glyph-name="divide" unicode="&#xf7;" horiz-adv-x="551" 
d="M187 498c-23.333 20.667 -35 46.667 -35 78c0 32 11.667 58.5 35 79.5s54.333 31.5 93 31.5c38 0 68.667 -10.5 92 -31.5s35 -47.5 35 -79.5c0 -31.333 -11.667 -57.333 -35 -78s-54 -31 -92 -31c-38.667 0 -69.667 10.333 -93 31zM531 441v-201h-511v201h511zM187 23
c-23.333 20.667 -35 46.667 -35 78c0 32 11.667 58.5 35 79.5s54.333 31.5 93 31.5c38 0 68.667 -10.5 92 -31.5s35 -47.5 35 -79.5c0 -31.333 -11.667 -57.333 -35 -78s-54 -31 -92 -31c-38.667 0 -69.667 10.333 -93 31z" />
    <glyph glyph-name="oslash" unicode="&#xf8;" horiz-adv-x="621" 
d="M540 476c45.333 -51.333 68 -116 68 -194c0 -58.667 -12.833 -109.834 -38.5 -153.501s-61.167 -77.167 -106.5 -100.5s-96.333 -35 -153 -35c-65.333 0 -122.666 15.333 -171.999 46l-35 -39h-103l80 87c-45.333 51.333 -68 116.333 -68 195
c0 58.667 12.833 109.834 38.5 153.501s61.167 77.167 106.5 100.5s96.333 35 153 35c65.333 0 122.666 -15.333 171.999 -46l36 39h103zM238 260l103 112c-8.66699 4.66699 -19 7 -31 7c-20.667 0 -38 -8.16699 -52 -24.5s-21 -40.5 -21 -72.5
c0 -10 0.333008 -17.333 1 -22zM382 303l-102.999 -111c9.33301 -4.66699 19.666 -7 30.999 -7c20.667 0 38 8.16699 52 24.5s21 40.5 21 72.5c0 10 -0.333008 17 -1 21z" />
    <glyph glyph-name="ugrave" unicode="&#xf9;" horiz-adv-x="697" 
d="M647 564v-563.999h-222v86c-17.333 -26.667 -40.5 -48.334 -69.5 -65.001s-63.5 -25 -103.5 -25c-64.667 0 -115.167 21.667 -151.5 65s-54.5 102 -54.5 176v327h221v-299c0 -26.667 7.16699 -47.834 21.5 -63.501s33.5 -23.5 57.5 -23.5c24.667 0 44 7.83301 58 23.5
s21 36.834 21 63.501v299h222zM477 750.001v-148l-259 94v164z" />
    <glyph glyph-name="uacute" unicode="&#xfa;" horiz-adv-x="697" 
d="M647 564v-563.999h-222v86c-17.333 -26.667 -40.5 -48.334 -69.5 -65.001s-63.5 -25 -103.5 -25c-64.667 0 -115.167 21.667 -151.5 65s-54.5 102 -54.5 176v327h221v-299c0 -26.667 7.16699 -47.834 21.5 -63.501s33.5 -23.5 57.5 -23.5c24.667 0 44 7.83301 58 23.5
s21 36.834 21 63.501v299h222zM477 696.001l-259 -94v148l259 110v-164z" />
    <glyph glyph-name="ucircumflex" unicode="&#xfb;" horiz-adv-x="697" 
d="M647 564v-563.999h-222v86c-17.333 -26.667 -40.5 -48.334 -69.5 -65.001s-63.5 -25 -103.5 -25c-64.667 0 -115.167 21.667 -151.5 65s-54.5 102 -54.5 176v327h221v-299c0 -26.667 7.16699 -47.834 21.5 -63.501s33.5 -23.5 57.5 -23.5c24.667 0 44 7.83301 58 23.5
s21 36.834 21 63.501v299h222zM349 680.001l-166 -78v144l166 75l165 -75v-144z" />
    <glyph glyph-name="udieresis" unicode="&#xfc;" horiz-adv-x="697" 
d="M647 564v-563.999h-222v86c-17.333 -26.667 -40.5 -48.334 -69.5 -65.001s-63.5 -25 -103.5 -25c-64.667 0 -115.167 21.667 -151.5 65s-54.5 102 -54.5 176v327h221v-299c0 -26.667 7.16699 -47.834 21.5 -63.501s33.5 -23.5 57.5 -23.5c24.667 0 44 7.83301 58 23.5
s21 36.834 21 63.501v299h222zM174.5 644.501c-16.333 16.333 -24.498 36.498 -24.498 60.498c0 24.667 8.16699 45.334 24.5 62.001s36.5 25 60.5 25c25.333 0 46.166 -8.16699 62.499 -24.5s24.5 -37.166 24.5 -62.499c0 -24 -8.33301 -44.167 -25 -60.5
s-37.334 -24.5 -62.001 -24.5c-24 0 -44.167 8.16699 -60.5 24.5zM399.502 644.499c-16.333 16.333 -24.498 36.498 -24.498 60.498c0 24.667 8.16699 45.334 24.5 62.001s36.5 25 60.5 25c25.333 0 46.166 -8.16699 62.499 -24.5s24.5 -37.166 24.5 -62.499
c0 -24 -8.33301 -44.167 -25 -60.5s-37.334 -24.5 -62.001 -24.5c-24 0 -44.167 8.16699 -60.5 24.5z" />
    <glyph glyph-name="yacute" unicode="&#xfd;" horiz-adv-x="677" 
d="M687 564l-361 -834h-243l142 298l-235 536h247l106 -286l99 286h245zM467 696l-259 -94v148l259 110v-164z" />
    <glyph glyph-name="thorn" unicode="&#xfe;" horiz-adv-x="680" 
d="M332 555.5c22 8.33301 48.333 12.501 79 12.501c44.667 0 86 -12.5 124 -37.5s68.333 -59.5 91 -103.5s34 -93.667 34 -149s-11.333 -104.5 -34 -147.5s-53 -76.5 -91 -100.5s-79.333 -36 -124 -36c-29.333 0 -55 5.5 -77 16.5s-42.667 28.167 -62 51.5v-332h-222v1010
h222v-226c18 19.333 38 33.166 60 41.499zM409.5 351.501c-17 16.333 -35.501 24.5 -55.501 24.5c-20.667 0 -39.5 -7.5 -56.5 -22.5s-25.5 -38.833 -25.5 -71.5s8.5 -56.667 25.5 -72s35.833 -23 56.5 -23s39.334 7 56.001 21s25 37.333 25 70s-8.5 57.167 -25.5 73.5z" />
    <glyph glyph-name="ydieresis" unicode="&#xff;" horiz-adv-x="677" 
d="M687 564l-361 -834h-243l142 298l-235 536h247l106 -286l99 286h245zM164.5 644.5c-16.333 16.333 -24.498 36.498 -24.498 60.498c0 24.667 8.16699 45.334 24.5 62.001s36.5 25 60.5 25c25.333 0 46.166 -8.16699 62.499 -24.5s24.5 -37.166 24.5 -62.499
c0 -24 -8.33301 -44.167 -25 -60.5s-37.334 -24.5 -62.001 -24.5c-24 0 -44.167 8.16699 -60.5 24.5zM389.502 644.498c-16.333 16.333 -24.498 36.498 -24.498 60.498c0 24.667 8.16699 45.334 24.5 62.001s36.5 25 60.5 25c25.333 0 46.166 -8.16699 62.499 -24.5
s24.5 -37.166 24.5 -62.499c0 -24 -8.33301 -44.167 -25 -60.5s-37.334 -24.5 -62.001 -24.5c-24 0 -44.167 8.16699 -60.5 24.5z" />
    <glyph glyph-name="Amacron" unicode="&#x100;" horiz-adv-x="773" 
d="M504 107h-236l-35 -107h-233l259 708h256l258 -708h-234zM450 274l-64 197l-64 -197h128zM603 916v-147h-431v147h431z" />
    <glyph glyph-name="amacron" unicode="&#x101;" horiz-adv-x="680" 
d="M50.5 436.5c20.333 43.667 48.166 77 83.499 100s75 34.5 119 34.5c36.667 0 68.334 -7.5 95.001 -22.5s47 -35.5 61 -61.5v77h221v-564h-221v77c-14 -26 -34.333 -46.5 -61 -61.5s-58.334 -22.5 -95.001 -22.5c-44 0 -83.667 11.5 -119 34.5s-63.166 56.333 -83.499 100
s-30.5 95.167 -30.5 154.5s10.167 110.833 30.5 154.5zM386 352c-15.333 16.667 -35 25 -59 25s-43.667 -8.33301 -59 -25s-23 -40 -23 -70s7.66699 -53.333 23 -70s35 -25 59 -25s43.667 8.33301 59 25s23 40 23 70s-7.66699 53.333 -23 70zM563 769v-147h-431v147h431z
" />
    <glyph glyph-name="Abreve" unicode="&#x102;" horiz-adv-x="773" 
d="M504 107h-236l-35 -107h-233l259 708h256l258 -708h-234zM450 274l-64 197l-64 -197h128zM522.5 799c-35 -34.667 -80.167 -52 -135.5 -52s-100.5 17.333 -135.5 52s-52.5 85 -52.5 151v17h103c0 -20.667 6.33301 -36.167 19 -46.5s34.667 -15.5 66 -15.5
s53.333 5.16699 66 15.5s19 25.833 19 46.5h103v-17c0 -66 -17.5 -116.333 -52.5 -151z" />
    <glyph glyph-name="abreve" unicode="&#x103;" horiz-adv-x="680" 
d="M50.5 436.5c20.333 43.667 48.166 77 83.499 100s75 34.5 119 34.5c36.667 0 68.334 -7.5 95.001 -22.5s47 -35.5 61 -61.5v77h221v-564h-221v77c-14 -26 -34.333 -46.5 -61 -61.5s-58.334 -22.5 -95.001 -22.5c-44 0 -83.667 11.5 -119 34.5s-63.166 56.333 -83.499 100
s-30.5 95.167 -30.5 154.5s10.167 110.833 30.5 154.5zM386 352c-15.333 16.667 -35 25 -59 25s-43.667 -8.33301 -59 -25s-23 -40 -23 -70s7.66699 -53.333 23 -70s35 -25 59 -25s43.667 8.33301 59 25s23 40 23 70s-7.66699 53.333 -23 70zM482.5 652
c-35 -34.667 -80.167 -52 -135.5 -52s-100.5 17.333 -135.5 52s-52.5 85 -52.5 151v17h103c0 -20.667 6.33301 -36.167 19 -46.5s34.667 -15.5 66 -15.5s53.333 5.16699 66 15.5s19 25.833 19 46.5h103v-17c0 -66 -17.5 -116.333 -52.5 -151z" />
    <glyph glyph-name="Aogonek" unicode="&#x104;" horiz-adv-x="773" 
d="M691 -107c22.667 0 50.001 5.33105 82.001 15.998v-116c-35.333 -10.667 -73.333 -16 -114 -16c-50 0 -89.167 11 -117.5 33s-42.5 53 -42.5 93c0 18.667 3 35.834 9 51.501s16.333 30.834 31 45.501l-35 107h-236l-35 -107h-233l259 708h256l258 -708l-44 -19
c-28.667 -12.667 -48.334 -24 -59.001 -34s-16 -19.667 -16 -29c0 -16.667 12.333 -25 37 -25zM450.001 273.998l-64 197l-64 -197h128z" />
    <glyph glyph-name="aogonek" unicode="&#x105;" horiz-adv-x="680" 
d="M528.5 -56c-11.667 -10 -17.5 -20 -17.5 -30c0 -6 3 -11 9 -15s14.333 -6 25 -6c24.667 0 53 5.33301 85 16v-116c-35.333 -10.667 -73 -16 -113 -16c-50 0 -89.333 10.667 -118 32s-43 50.666 -43 87.999c0 20 4 38.333 12 55s21.667 33.334 41 50.001v75
c-14 -26 -34.333 -46.5 -61 -61.5s-58.334 -22.5 -95.001 -22.5c-44 0 -83.667 11.5 -119 34.5s-63.166 56.333 -83.499 100s-30.5 95.167 -30.5 154.5s10.167 110.833 30.5 154.5s48.166 77 83.499 100s75 34.5 119 34.5c36.667 0 68.334 -7.5 95.001 -22.5
s47 -35.5 61 -61.5v77h221v-564l-43 -21c-27.333 -13.333 -46.833 -25 -58.5 -35zM386 212c15.333 16.667 23 40 23 70s-7.66699 53.333 -23 70s-35 25 -59 25s-43.667 -8.33301 -59 -25s-23 -40 -23 -70s7.66699 -53.333 23 -70s35 -25 59 -25s43.667 8.33301 59 25z" />
    <glyph glyph-name="Cacute" unicode="&#x106;" horiz-adv-x="753" 
d="M72.5 542c28.333 54.667 68.833 97.167 121.5 127.5s114.667 45.5 186 45.5c61.333 0 116.166 -11.5 164.499 -34.5s87.666 -55.5 117.999 -97.5s50.5 -91 60.5 -147h-234c-10.667 23.333 -25.834 41.5 -45.501 54.5s-42.167 19.5 -67.5 19.5
c-37.333 0 -66.833 -14 -88.5 -42s-32.5 -65.667 -32.5 -113s10.833 -85 32.5 -113s51.167 -42 88.5 -42c25.333 0 47.833 6.5 67.5 19.5s34.834 31.167 45.501 54.5h234c-10 -56 -30.167 -105 -60.5 -147s-69.666 -74.5 -117.999 -97.5s-103.166 -34.5 -164.499 -34.5
c-71.333 0 -133.333 15.167 -186 45.5s-93.167 72.833 -121.5 127.5s-42.5 117 -42.5 187s14.167 132.333 42.5 187zM505 843l-259 -94v148l259 110v-164z" />
    <glyph glyph-name="cacute" unicode="&#x107;" horiz-adv-x="609" 
d="M56.5 435.5c24.333 43.667 58.333 77.165 102 100.498s93.5 35 149.5 35c73.333 0 135.166 -20.667 185.499 -62s82.166 -98.666 95.499 -171.999h-235c-8.66699 29.333 -25.667 44 -51 44c-18 0 -32.167 -8.33301 -42.5 -25s-15.5 -41.334 -15.5 -74.001
s5.16699 -57.334 15.5 -74.001s24.5 -25 42.5 -25c25.333 0 42.333 14.667 51 44h235c-13.333 -73.333 -45.166 -130.666 -95.499 -171.999s-112.166 -62 -185.499 -62c-56 0 -105.833 11.667 -149.5 35s-77.667 56.833 -102 100.5s-36.5 94.834 -36.5 153.501
s12.167 109.834 36.5 153.501zM427 695.998l-259 -94v148l259 110v-164z" />
    <glyph glyph-name="Cdotaccent" unicode="&#x10a;" horiz-adv-x="753" 
d="M72.5 542c28.333 54.667 68.833 97.167 121.5 127.5s114.667 45.5 186 45.5c61.333 0 116.166 -11.5 164.499 -34.5s87.666 -55.5 117.999 -97.5s50.5 -91 60.5 -147h-234c-10.667 23.333 -25.834 41.5 -45.501 54.5s-42.167 19.5 -67.5 19.5
c-37.333 0 -66.833 -14 -88.5 -42s-32.5 -65.667 -32.5 -113s10.833 -85 32.5 -113s51.167 -42 88.5 -42c25.333 0 47.833 6.5 67.5 19.5s34.834 31.167 45.501 54.5h234c-10 -56 -30.167 -105 -60.5 -147s-69.666 -74.5 -117.999 -97.5s-103.166 -34.5 -164.499 -34.5
c-71.333 0 -133.333 15.167 -186 45.5s-93.167 72.833 -121.5 127.5s-42.5 117 -42.5 187s14.167 132.333 42.5 187zM314.5 791.5c-16.333 16.333 -24.498 36.498 -24.498 60.498c0 24.667 8.16699 45.334 24.5 62.001s36.5 25 60.5 25
c25.333 0 46.166 -8.16699 62.499 -24.5s24.5 -37.166 24.5 -62.499c0 -24 -8.33301 -44.167 -25 -60.5s-37.334 -24.5 -62.001 -24.5c-24 0 -44.167 8.16699 -60.5 24.5z" />
    <glyph glyph-name="cdotaccent" unicode="&#x10b;" horiz-adv-x="609" 
d="M56.5 435.5c24.333 43.667 58.333 77.165 102 100.498s93.5 35 149.5 35c73.333 0 135.166 -20.667 185.499 -62s82.166 -98.666 95.499 -171.999h-235c-8.66699 29.333 -25.667 44 -51 44c-18 0 -32.167 -8.33301 -42.5 -25s-15.5 -41.334 -15.5 -74.001
s5.16699 -57.334 15.5 -74.001s24.5 -25 42.5 -25c25.333 0 42.333 14.667 51 44h235c-13.333 -73.333 -45.166 -130.666 -95.499 -171.999s-112.166 -62 -185.499 -62c-56 0 -105.833 11.667 -149.5 35s-77.667 56.833 -102 100.5s-36.5 94.834 -36.5 153.501
s12.167 109.834 36.5 153.501zM236.5 644.498c-16.333 16.333 -24.498 36.498 -24.498 60.498c0 24.667 8.16699 45.334 24.5 62.001s36.5 25 60.5 25c25.333 0 46.166 -8.16699 62.499 -24.5s24.5 -37.166 24.5 -62.499c0 -24 -8.33301 -44.167 -25 -60.5
s-37.334 -24.5 -62.001 -24.5c-24 0 -44.167 8.16699 -60.5 24.5z" />
    <glyph glyph-name="Ccaron" unicode="&#x10c;" horiz-adv-x="753" 
d="M72.5 542c28.333 54.667 68.833 97.167 121.5 127.5s114.667 45.5 186 45.5c61.333 0 116.166 -11.5 164.499 -34.5s87.666 -55.5 117.999 -97.5s50.5 -91 60.5 -147h-234c-10.667 23.333 -25.834 41.5 -45.501 54.5s-42.167 19.5 -67.5 19.5
c-37.333 0 -66.833 -14 -88.5 -42s-32.5 -65.667 -32.5 -113s10.833 -85 32.5 -113s51.167 -42 88.5 -42c25.333 0 47.833 6.5 67.5 19.5s34.834 31.167 45.501 54.5h234c-10 -56 -30.167 -105 -60.5 -147s-69.666 -74.5 -117.999 -97.5s-103.166 -34.5 -164.499 -34.5
c-71.333 0 -133.333 15.167 -186 45.5s-93.167 72.833 -121.5 127.5s-42.5 117 -42.5 187s14.167 132.333 42.5 187zM542 824l-165 -75l-166 75v144l166 -88l165 88v-144z" />
    <glyph glyph-name="ccaron" unicode="&#x10d;" horiz-adv-x="609" 
d="M56.5 435.5c24.333 43.667 58.333 77.165 102 100.498s93.5 35 149.5 35c73.333 0 135.166 -20.667 185.499 -62s82.166 -98.666 95.499 -171.999h-235c-8.66699 29.333 -25.667 44 -51 44c-18 0 -32.167 -8.33301 -42.5 -25s-15.5 -41.334 -15.5 -74.001
s5.16699 -57.334 15.5 -74.001s24.5 -25 42.5 -25c25.333 0 42.333 14.667 51 44h235c-13.333 -73.333 -45.166 -130.666 -95.499 -171.999s-112.166 -62 -185.499 -62c-56 0 -105.833 11.667 -149.5 35s-77.667 56.833 -102 100.5s-36.5 94.834 -36.5 153.501
s12.167 109.834 36.5 153.501zM464 676.998l-165 -75l-166 75v144l166 -88l165 88v-144z" />
    <glyph glyph-name="Dcaron" unicode="&#x10e;" horiz-adv-x="743" 
d="M539.5 663c55.667 -30 98.5 -71.667 128.5 -125s45 -114 45 -182c0 -67.333 -15 -128 -45 -182s-72.833 -96.5 -128.5 -127.5s-120.5 -46.5 -194.5 -46.5h-295v708h295c74 0 138.833 -15 194.5 -45zM444 239c29.333 27.333 44 66.333 44 117s-14.667 89.667 -44 117
s-69 41 -119 41h-53v-316h53c50 0 89.667 13.667 119 41zM524 824l-165 -75l-166 75v144l166 -88l165 88v-144z" />
    <glyph glyph-name="dcaron" unicode="&#x10f;" horiz-adv-x="882" 
d="M50.5 436.5c20.333 43.667 48.166 77 83.499 100s75 34.5 119 34.5c36.667 0 68.167 -7.5 94.5 -22.5s46.5 -35.5 60.5 -61.5v253h222v-740h-222v77c-14 -26 -34.167 -46.5 -60.5 -61.5s-57.833 -22.5 -94.5 -22.5c-44 0 -83.667 11.5 -119 34.5
s-63.166 56.333 -83.499 100s-30.5 95.167 -30.5 154.5s10.167 110.833 30.5 154.5zM872 606c0 -52 -14 -94.5 -42 -127.5s-69 -49.5 -123 -49.5v79c36.667 0 55 24.667 55 74v12h-72v146h156c17.333 -44 26 -88.667 26 -134zM386 352c-15.333 16.667 -35 25 -59 25
s-43.667 -8.33301 -59 -25s-23 -40 -23 -70s7.66699 -53.333 23 -70s35 -25 59 -25s43.667 8.33301 59 25s23 40 23 70s-7.66699 53.333 -23 70z" />
    <glyph glyph-name="Dcroat" unicode="&#x110;" horiz-adv-x="743" 
d="M539.5 663c55.667 -30 98.5 -71.667 128.5 -125s45 -114 45 -182c0 -67.333 -15 -128 -45 -182s-72.833 -96.5 -128.5 -127.5s-120.5 -46.5 -194.5 -46.5h-295v268h-50v176h50v264h295c74 0 138.833 -15 194.5 -45zM444 239c29.333 27.333 44 66.333 44 117
s-14.667 89.667 -44 117s-69 41 -119 41h-53v-70h130v-176h-130v-70h53c50 0 89.667 13.667 119 41z" />
    <glyph glyph-name="dcroat" unicode="&#x111;" horiz-adv-x="704" 
d="M694 592h-64v-592h-222v77c-14 -26 -34.167 -46.5 -60.5 -61.5s-57.833 -22.5 -94.5 -22.5c-44 0 -83.667 11.5 -119 34.5s-63.166 56.333 -83.499 100s-30.5 95.167 -30.5 154.5s10.167 110.833 30.5 154.5s48.166 77 83.499 100s75 34.5 119 34.5
c36.667 0 68.167 -7.5 94.5 -22.5s46.5 -35.5 60.5 -61.5v105h-59v96h59v52h222v-52h64v-96zM386 212c15.333 16.667 23 40 23 70s-7.66699 53.333 -23 70s-35 25 -59 25s-43.667 -8.33301 -59 -25s-23 -40 -23 -70s7.66699 -53.333 23 -70s35 -25 59 -25
s43.667 8.33301 59 25z" />
    <glyph glyph-name="Emacron" unicode="&#x112;" horiz-adv-x="556" 
d="M272 531v-87h220v-167h-220v-100h250v-177h-472v708h472v-177h-250zM498 916v-147h-431v147h431z" />
    <glyph glyph-name="emacron" unicode="&#x113;" horiz-adv-x="616" 
d="M593 243l-356.999 -0.00195312c3.33301 -48.667 23.666 -73 60.999 -73c24 0 41.333 11 52 33h235c-8 -40 -24.833 -75.833 -50.5 -107.5s-58 -56.667 -97 -75s-81.833 -27.5 -128.5 -27.5c-56 0 -105.833 11.667 -149.5 35s-77.667 56.833 -102 100.5
s-36.5 94.834 -36.5 153.501s12.167 109.834 36.5 153.501s58.333 77.167 102 100.5s93.5 35 149.5 35s105.833 -11.5 149.5 -34.5s77.667 -55.833 102 -98.5s36.5 -93 36.5 -151c0 -15.333 -1 -30 -3 -44zM371.001 339.998c0 18.667 -6 32.833 -18 42.5s-27 14.5 -45 14.5
c-39.333 0 -62.333 -19 -69 -57h132zM524.001 775.997v-147h-431v147h431z" />
    <glyph glyph-name="Ebreve" unicode="&#x114;" horiz-adv-x="556" 
d="M272 531v-87h220v-167h-220v-100h250v-177h-472v708h472v-177h-250zM417.5 799c-35 -34.667 -80.167 -52 -135.5 -52s-100.5 17.333 -135.5 52s-52.5 85 -52.5 151v17h103c0 -20.667 6.33301 -36.167 19 -46.5s34.667 -15.5 66 -15.5s53.333 5.16699 66 15.5
s19 25.833 19 46.5h103v-17c0 -66 -17.5 -116.333 -52.5 -151z" />
    <glyph glyph-name="ebreve" unicode="&#x115;" horiz-adv-x="616" 
d="M593 243l-356.999 -0.00195312c3.33301 -48.667 23.666 -73 60.999 -73c24 0 41.333 11 52 33h235c-8 -40 -24.833 -75.833 -50.5 -107.5s-58 -56.667 -97 -75s-81.833 -27.5 -128.5 -27.5c-56 0 -105.833 11.667 -149.5 35s-77.667 56.833 -102 100.5
s-36.5 94.834 -36.5 153.501s12.167 109.834 36.5 153.501s58.333 77.167 102 100.5s93.5 35 149.5 35s105.833 -11.5 149.5 -34.5s77.667 -55.833 102 -98.5s36.5 -93 36.5 -151c0 -15.333 -1 -30 -3 -44zM371.001 339.998c0 18.667 -6 32.833 -18 42.5s-27 14.5 -45 14.5
c-39.333 0 -62.333 -19 -69 -57h132zM443.501 658.997c-35 -34.667 -80.167 -52 -135.5 -52s-100.5 17.333 -135.5 52s-52.5 85 -52.5 151v17h103c0 -20.667 6.33301 -36.167 19 -46.5s34.667 -15.5 66 -15.5s53.333 5.16699 66 15.5s19 25.833 19 46.5h103v-17
c0 -66 -17.5 -116.333 -52.5 -151z" />
    <glyph glyph-name="Edotaccent" unicode="&#x116;" horiz-adv-x="556" 
d="M272 531v-87h220v-167h-220v-100h250v-177h-472v708h472v-177h-250zM219.5 791.5c-16.333 16.333 -24.498 36.498 -24.498 60.498c0 24.667 8.16699 45.334 24.5 62.001s36.5 25 60.5 25c25.333 0 46.166 -8.16699 62.499 -24.5s24.5 -37.166 24.5 -62.499
c0 -24 -8.33301 -44.167 -25 -60.5s-37.334 -24.5 -62.001 -24.5c-24 0 -44.167 8.16699 -60.5 24.5z" />
    <glyph glyph-name="edotaccent" unicode="&#x117;" horiz-adv-x="616" 
d="M593 243l-356.999 -0.00195312c3.33301 -48.667 23.666 -73 60.999 -73c24 0 41.333 11 52 33h235c-8 -40 -24.833 -75.833 -50.5 -107.5s-58 -56.667 -97 -75s-81.833 -27.5 -128.5 -27.5c-56 0 -105.833 11.667 -149.5 35s-77.667 56.833 -102 100.5
s-36.5 94.834 -36.5 153.501s12.167 109.834 36.5 153.501s58.333 77.167 102 100.5s93.5 35 149.5 35s105.833 -11.5 149.5 -34.5s77.667 -55.833 102 -98.5s36.5 -93 36.5 -151c0 -15.333 -1 -30 -3 -44zM371.001 339.998c0 18.667 -6 32.833 -18 42.5s-27 14.5 -45 14.5
c-39.333 0 -62.333 -19 -69 -57h132zM245.501 651.497c-16.333 16.333 -24.498 36.498 -24.498 60.498c0 24.667 8.16699 45.334 24.5 62.001s36.5 25 60.5 25c25.333 0 46.166 -8.16699 62.499 -24.5s24.5 -37.166 24.5 -62.499c0 -24 -8.33301 -44.167 -25 -60.5
s-37.334 -24.5 -62.001 -24.5c-24 0 -44.167 8.16699 -60.5 24.5z" />
    <glyph glyph-name="Eogonek" unicode="&#x118;" horiz-adv-x="556" 
d="M272 531l-0.000976562 -86.999h220v-167h-220v-100h250v-177l-43 -21c-27.333 -13.333 -46.833 -25 -58.5 -35s-17.5 -20 -17.5 -30c0 -6 3 -11 9 -15s14.333 -6 25 -6c24.667 0 53 5.33301 85 16v-116c-35.333 -10.667 -73 -16 -113 -16c-50 0 -89.333 10.667 -118 32
s-43 50.666 -43 87.999c0 20 3.83301 38.167 11.5 54.5s20.834 32.5 39.501 48.5h-249v708h472v-177h-250z" />
    <glyph glyph-name="eogonek" unicode="&#x119;" horiz-adv-x="616" 
d="M593 243l-356.998 -0.000976562c3.33301 -48.667 23.666 -73 60.999 -73c24 0 41.333 11 52 33h235c-9.33301 -46.667 -30.333 -87.5 -63 -122.5s-73 -59.833 -121 -74.5l-40 -19c-27.333 -13.333 -46.833 -25 -58.5 -35s-17.5 -20 -17.5 -30c0 -6 3 -11 9 -15
s14.333 -6 25 -6c24.667 0 53 5.33301 85 16v-116c-35.333 -10.667 -73 -16 -113 -16c-50 0 -89.333 10.667 -118 32s-43 50.666 -43 87.999c0 20.667 4.5 39.834 13.5 57.501s24.167 34.834 45.5 51.501c-52.667 20.667 -93.834 54.167 -123.501 100.5
s-44.5 102.166 -44.5 167.499c0 58.667 12.167 109.834 36.5 153.501s58.333 77.167 102 100.5s93.5 35 149.5 35s105.833 -11.5 149.5 -34.5s77.667 -55.833 102 -98.5s36.5 -93 36.5 -151c0 -15.333 -1 -30 -3 -44zM371.002 339.999c0 18.667 -6 32.833 -18 42.5
s-27 14.5 -45 14.5c-39.333 0 -62.333 -19 -69 -57h132z" />
    <glyph glyph-name="Ecaron" unicode="&#x11a;" horiz-adv-x="556" 
d="M272 531v-87h220v-167h-220v-100h250v-177h-472v708h472v-177h-250zM447 824l-165 -75l-166 75v144l166 -88l165 88v-144z" />
    <glyph glyph-name="ecaron" unicode="&#x11b;" horiz-adv-x="616" 
d="M593 243l-356.999 -0.00195312c3.33301 -48.667 23.666 -73 60.999 -73c24 0 41.333 11 52 33h235c-8 -40 -24.833 -75.833 -50.5 -107.5s-58 -56.667 -97 -75s-81.833 -27.5 -128.5 -27.5c-56 0 -105.833 11.667 -149.5 35s-77.667 56.833 -102 100.5
s-36.5 94.834 -36.5 153.501s12.167 109.834 36.5 153.501s58.333 77.167 102 100.5s93.5 35 149.5 35s105.833 -11.5 149.5 -34.5s77.667 -55.833 102 -98.5s36.5 -93 36.5 -151c0 -15.333 -1 -30 -3 -44zM371.001 339.998c0 18.667 -6 32.833 -18 42.5s-27 14.5 -45 14.5
c-39.333 0 -62.333 -19 -69 -57h132zM473.001 683.997l-165 -75l-166 75v144l166 -88l165 88v-144z" />
    <glyph glyph-name="Gbreve" unicode="&#x11e;" horiz-adv-x="752" 
d="M484 466c-8.66699 14 -21 24.834 -37 32.501s-35.333 11.5 -58 11.5c-42.667 0 -75.667 -13.833 -99 -41.5s-35 -65.5 -35 -113.5c0 -55.333 13 -96.666 39 -123.999s66 -41 120 -41c51.333 0 92.666 20.667 123.999 62h-177v157h361v-222
c-30.667 -52.667 -73 -97.834 -127 -135.501s-122.333 -56.5 -205 -56.5c-73.333 0 -137.166 15.167 -191.499 45.5s-96 72.833 -125 127.5s-43.5 117 -43.5 187s14.5 132.333 43.5 187s70.5 97.167 124.5 127.5s117.333 45.5 190 45.5c92.667 0 168.167 -22.333 226.5 -67
s92.833 -105.334 103.5 -182.001h-234zM512.5 799.001c-35 -34.667 -80.167 -52 -135.5 -52s-100.5 17.333 -135.5 52s-52.5 85 -52.5 151v17h103c0 -20.667 6.33301 -36.167 19 -46.5s34.667 -15.5 66 -15.5s53.333 5.16699 66 15.5s19 25.833 19 46.5h103v-17
c0 -66 -17.5 -116.333 -52.5 -151z" />
    <glyph glyph-name="gbreve" unicode="&#x11f;" horiz-adv-x="680" 
d="M348 548.5c26.667 -15 47 -35.5 61 -61.5v77h221v-554c0 -52.667 -9.66699 -100.667 -29 -144s-50.5 -78 -93.5 -104s-98.167 -39 -165.5 -39c-90.667 0 -162.5 21.167 -215.5 63.5s-83.167 99.833 -90.5 172.5h218c6 -29.333 30 -44 72 -44c26 0 46.333 6.66699 61 20
s22 38.333 22 75v67c-14 -26 -34.333 -46.5 -61 -61.5s-58.334 -22.5 -95.001 -22.5c-44 0 -83.667 11.5 -119 34.5s-63.166 56.333 -83.499 100s-30.5 95.167 -30.5 154.5s10.167 110.833 30.5 154.5s48.166 77 83.499 100s75 34.5 119 34.5
c36.667 0 68.334 -7.5 95.001 -22.5zM386 352c-15.333 16.667 -35 25 -59 25s-43.667 -8.33301 -59 -25s-23 -40 -23 -70s7.66699 -53.333 23 -70s35 -25 59 -25s43.667 8.33301 59 25s23 40 23 70s-7.66699 53.333 -23 70zM482.5 652c-35 -34.667 -80.167 -52 -135.5 -52
s-100.5 17.333 -135.5 52s-52.5 85 -52.5 151v17h103c0 -20.667 6.33301 -36.167 19 -46.5s34.667 -15.5 66 -15.5s53.333 5.16699 66 15.5s19 25.833 19 46.5h103v-17c0 -66 -17.5 -116.333 -52.5 -151z" />
    <glyph glyph-name="Gdotaccent" unicode="&#x120;" horiz-adv-x="752" 
d="M484 466c-8.66699 14 -21 24.834 -37 32.501s-35.333 11.5 -58 11.5c-42.667 0 -75.667 -13.833 -99 -41.5s-35 -65.5 -35 -113.5c0 -55.333 13 -96.666 39 -123.999s66 -41 120 -41c51.333 0 92.666 20.667 123.999 62h-177v157h361v-222
c-30.667 -52.667 -73 -97.834 -127 -135.501s-122.333 -56.5 -205 -56.5c-73.333 0 -137.166 15.167 -191.499 45.5s-96 72.833 -125 127.5s-43.5 117 -43.5 187s14.5 132.333 43.5 187s70.5 97.167 124.5 127.5s117.333 45.5 190 45.5c92.667 0 168.167 -22.333 226.5 -67
s92.833 -105.334 103.5 -182.001h-234zM314.5 791.501c-16.333 16.333 -24.498 36.498 -24.498 60.498c0 24.667 8.16699 45.334 24.5 62.001s36.5 25 60.5 25c25.333 0 46.166 -8.16699 62.499 -24.5s24.5 -37.166 24.5 -62.499c0 -24 -8.33301 -44.167 -25 -60.5
s-37.334 -24.5 -62.001 -24.5c-24 0 -44.167 8.16699 -60.5 24.5z" />
    <glyph glyph-name="gdotaccent" unicode="&#x121;" horiz-adv-x="680" 
d="M348 548.5c26.667 -15 47 -35.5 61 -61.5v77h221v-554c0 -52.667 -9.66699 -100.667 -29 -144s-50.5 -78 -93.5 -104s-98.167 -39 -165.5 -39c-90.667 0 -162.5 21.167 -215.5 63.5s-83.167 99.833 -90.5 172.5h218c6 -29.333 30 -44 72 -44c26 0 46.333 6.66699 61 20
s22 38.333 22 75v67c-14 -26 -34.333 -46.5 -61 -61.5s-58.334 -22.5 -95.001 -22.5c-44 0 -83.667 11.5 -119 34.5s-63.166 56.333 -83.499 100s-30.5 95.167 -30.5 154.5s10.167 110.833 30.5 154.5s48.166 77 83.499 100s75 34.5 119 34.5
c36.667 0 68.334 -7.5 95.001 -22.5zM386 352c-15.333 16.667 -35 25 -59 25s-43.667 -8.33301 -59 -25s-23 -40 -23 -70s7.66699 -53.333 23 -70s35 -25 59 -25s43.667 8.33301 59 25s23 40 23 70s-7.66699 53.333 -23 70zM284.5 644.5
c-16.333 16.333 -24.498 36.498 -24.498 60.498c0 24.667 8.16699 45.334 24.5 62.001s36.5 25 60.5 25c25.333 0 46.166 -8.16699 62.499 -24.5s24.5 -37.166 24.5 -62.499c0 -24 -8.33301 -44.167 -25 -60.5s-37.334 -24.5 -62.001 -24.5
c-24 0 -44.167 8.16699 -60.5 24.5z" />
    <glyph glyph-name="uni0122" unicode="&#x122;" horiz-adv-x="756" 
d="M484 466c-8.66699 14 -21 24.834 -37 32.501s-35.333 11.5 -58 11.5c-42.667 0 -75.667 -13.833 -99 -41.5s-35 -65.5 -35 -113.5c0 -55.333 13 -96.666 39 -123.999s66 -41 120 -41c51.333 0 92.666 20.667 123.999 62h-177v157h361v-222
c-30.667 -52.667 -73 -97.834 -127 -135.501s-122.333 -56.5 -205 -56.5c-73.333 0 -137.166 15.167 -191.499 45.5s-96 72.833 -125 127.5s-43.5 117 -43.5 187s14.5 132.333 43.5 187s70.5 97.167 124.5 127.5s117.333 45.5 190 45.5c92.667 0 168.167 -22.333 226.5 -67
s92.833 -105.334 103.5 -182.001h-234zM480 -169.999c0 -51.333 -14 -93.5 -42 -126.5s-69 -49.5 -123 -49.5v78c36.667 0 55 25 55 75v11h-72v147h156c17.333 -45.333 26 -90.333 26 -135z" />
    <glyph glyph-name="uni0123" unicode="&#x123;" horiz-adv-x="680" 
d="M257 734c0 51.333 13.833 93.5 41.5 126.5s68.5 49.5 122.5 49.5v-78c-36.667 0 -55 -25 -55 -75v-11h72v-147h-156c-16.667 43.333 -25 88.333 -25 135zM348 548.5c26.667 -15 47 -35.5 61 -61.5v77h221v-554c0 -52.667 -9.66699 -100.667 -29 -144
s-50.5 -78 -93.5 -104s-98.167 -39 -165.5 -39c-90.667 0 -162.5 21.167 -215.5 63.5s-83.167 99.833 -90.5 172.5h218c6 -29.333 30 -44 72 -44c26 0 46.333 6.66699 61 20s22 38.333 22 75v67c-14 -26 -34.333 -46.5 -61 -61.5s-58.334 -22.5 -95.001 -22.5
c-44 0 -83.667 11.5 -119 34.5s-63.166 56.333 -83.499 100s-30.5 95.167 -30.5 154.5s10.167 110.833 30.5 154.5s48.166 77 83.499 100s75 34.5 119 34.5c36.667 0 68.334 -7.5 95.001 -22.5zM386 352c-15.333 16.667 -35 25 -59 25s-43.667 -8.33301 -59 -25
s-23 -40 -23 -70s7.66699 -53.333 23 -70s35 -25 59 -25s43.667 8.33301 59 25s23 40 23 70s-7.66699 53.333 -23 70z" />
    <glyph glyph-name="Itilde" unicode="&#x128;" horiz-adv-x="322" 
d="M272 708v-708h-222v708h222zM-15.5 883.5c27 27.667 61.8301 41.499 104.497 41.499c16 0 31 -2.33301 45 -7s29 -11.334 45 -20.001c12.667 -6.66699 22.834 -11.5 30.501 -14.5s15.5 -4.5 23.5 -4.5c24.667 0 39.334 15.667 44.001 47h109
c-10.667 -62 -29.5 -106.667 -56.5 -134s-61.833 -41 -104.5 -41c-16 0 -31 2.33301 -45 7s-29 11.334 -45 20.001c-9.33301 4.66699 -18.666 8.83398 -27.999 12.501s-18 5.5 -26 5.5c-24 0 -39 -15.667 -45 -47h-108c10.667 62 29.5 106.833 56.5 134.5z" />
    <glyph glyph-name="itilde" unicode="&#x129;" horiz-adv-x="372" 
d="M297 564v-564h-222v564h222zM9.5 736.5c27 27.667 61.8301 41.499 104.497 41.499c16 0 31 -2.33301 45 -7s29 -11.334 45 -20.001c12.667 -6.66699 22.834 -11.5 30.501 -14.5s15.5 -4.5 23.5 -4.5c24.667 0 39.334 15.667 44.001 47h109
c-10.667 -62 -29.5 -106.667 -56.5 -134s-61.833 -41 -104.5 -41c-16 0 -31 2.33301 -45 7s-29 11.334 -45 20.001c-9.33301 4.66699 -18.666 8.83398 -27.999 12.501s-18 5.5 -26 5.5c-24 0 -39 -15.667 -45 -47h-108c10.667 62 29.5 106.833 56.5 134.5z" />
    <glyph glyph-name="Imacron" unicode="&#x12a;" horiz-adv-x="322" 
d="M272 708v-708h-222v708h222zM378 916v-147h-431v147h431z" />
    <glyph glyph-name="imacron" unicode="&#x12b;" horiz-adv-x="372" 
d="M297 564v-564h-222v564h222zM403 769v-147h-431v147h431z" />
    <glyph glyph-name="uni012C" unicode="&#x12c;" horiz-adv-x="322" 
d="M272 708v-708h-222v708h222zM297.5 799c-35 -34.667 -80.167 -52 -135.5 -52s-100.5 17.333 -135.5 52s-52.5 85 -52.5 151v17h103c0 -20.667 6.33301 -36.167 19 -46.5s34.667 -15.5 66 -15.5s53.333 5.16699 66 15.5s19 25.833 19 46.5h103v-17
c0 -66 -17.5 -116.333 -52.5 -151z" />
    <glyph glyph-name="uni012D" unicode="&#x12d;" horiz-adv-x="372" 
d="M297 564v-564h-222v564h222zM322.5 652c-35 -34.667 -80.167 -52 -135.5 -52s-100.5 17.333 -135.5 52s-52.5 85 -52.5 151v17h103c0 -20.667 6.33301 -36.167 19 -46.5s34.667 -15.5 66 -15.5s53.333 5.16699 66 15.5s19 25.833 19 46.5h103v-17
c0 -66 -17.5 -116.333 -52.5 -151z" />
    <glyph glyph-name="Iogonek" unicode="&#x12e;" horiz-adv-x="322" 
d="M170.5 -56c-11.667 -10 -17.5 -19.999 -17.5 -29.999c0 -6 3 -11 9 -15s14.333 -6 25 -6c24.667 0 53 5.33301 85 16v-116c-35.333 -10.667 -73 -16 -113 -16c-50 0 -89.333 10.667 -118 32s-43 50.666 -43 87.999c0 19.333 4 37.5 12 54.5s21.333 33.5 40 49.5v707h222
v-708l-43 -21c-27.333 -13.333 -46.833 -25 -58.5 -35z" />
    <glyph glyph-name="iogonek" unicode="&#x12f;" horiz-adv-x="322" 
d="M69 640c-23.333 20.667 -35 46.667 -35 78c0 32 11.667 58.5 35 79.5s54.333 31.5 93 31.5c38 0 68.667 -10.5 92 -31.5s35 -47.5 35 -79.5c0 -31.333 -11.667 -57.333 -35 -78s-54 -31 -92 -31c-38.667 0 -69.667 10.333 -93 31zM50 564l222 0.000976562v-565l-43 -21
c-27.333 -13.333 -46.833 -25 -58.5 -35s-17.5 -20 -17.5 -30c0 -6 3 -11 9 -15s14.333 -6 25 -6c24.667 0 53 5.33301 85 16v-116c-35.333 -10.667 -73 -16 -113 -16c-50 0 -89.333 10.667 -118 32s-43 50.666 -43 87.999c0 19.333 4 37.5 12 54.5s21.333 33.5 40 49.5v564
z" />
    <glyph glyph-name="Idotaccent" unicode="&#x130;" horiz-adv-x="322" 
d="M272 708v-708h-222v708h222zM99.5 791.5c-16.333 16.333 -24.498 36.498 -24.498 60.498c0 24.667 8.16699 45.334 24.5 62.001s36.5 25 60.5 25c25.333 0 46.166 -8.16699 62.499 -24.5s24.5 -37.166 24.5 -62.499c0 -24 -8.33301 -44.167 -25 -60.5
s-37.334 -24.5 -62.001 -24.5c-24 0 -44.167 8.16699 -60.5 24.5z" />
    <glyph glyph-name="dotlessi" unicode="&#x131;" horiz-adv-x="372" 
d="M297 564v-564h-222v564h222z" />
    <glyph glyph-name="uni0136" unicode="&#x136;" horiz-adv-x="798" 
d="M272 307v-307h-222v708h222v-298l203 298h251l-244 -339l260 -369h-264zM475 -35c16.667 -43.333 25 -88.333 25 -135c0 -51.333 -13.833 -93.5 -41.5 -126.5s-68.5 -49.5 -122.5 -49.5v78c36.667 0 55 25 55 75v11h-72v147h156z" />
    <glyph glyph-name="uni0137" unicode="&#x137;" horiz-adv-x="676" 
d="M272 0h-222v740h222v-387l141 211h258l-211 -284l216 -280h-265l-139 225v-225zM418 -35c16.667 -43.333 25 -88.333 25 -135c0 -51.333 -13.833 -93.5 -41.5 -126.5s-68.5 -49.5 -122.5 -49.5v78c36.667 0 55 25 55 75v11h-72v147h156z" />
    <glyph glyph-name="Lacute" unicode="&#x139;" horiz-adv-x="506" 
d="M272 168h214v-168h-436v708h222v-540zM359 843l-259 -94v148l259 110v-164z" />
    <glyph glyph-name="lacute" unicode="&#x13a;" horiz-adv-x="322" 
d="M272 740v-740h-222v740h222zM290 872l-259 -94v148l259 110v-164z" />
    <glyph glyph-name="uni013B" unicode="&#x13b;" horiz-adv-x="511" 
d="M272 168h214v-168h-436v708h222v-540zM392 -170c0 -51.333 -14 -93.5 -42 -126.5s-69 -49.5 -123 -49.5v78c36.667 0 55 25 55 75v11h-72v147h156c17.333 -45.333 26 -90.333 26 -135z" />
    <glyph glyph-name="uni013C" unicode="&#x13c;" horiz-adv-x="322" 
d="M272 740v-740h-222v740h222zM268 -170c0 -51.333 -13.833 -93.5 -41.5 -126.5s-68.5 -49.5 -122.5 -49.5v78c36.667 0 55 25 55 75v11h-72v147h156c16.667 -43.333 25 -88.333 25 -135z" />
    <glyph glyph-name="Lcaron" unicode="&#x13d;" horiz-adv-x="577" 
d="M272 168h214v-168h-436v708h222v-540zM550 574c0 -52 -13.833 -94.499 -41.5 -127.499s-68.5 -49.5 -122.5 -49.5v79c17.333 0 30.833 6.16699 40.5 18.5s14.5 30.833 14.5 55.5v12h-72v146h156c16.667 -42.667 25 -87.334 25 -134.001z" />
    <glyph glyph-name="lcaron" unicode="&#x13e;" horiz-adv-x="516" 
d="M272 740v-740h-222v740h222zM506 606c0 -52 -13.833 -94.499 -41.5 -127.499s-68.5 -49.5 -122.5 -49.5v79c17.333 0 30.833 6.16699 40.5 18.5s14.5 30.833 14.5 55.5v12h-72v146h156c16.667 -42.667 25 -87.334 25 -134.001z" />
    <glyph glyph-name="Ldot" unicode="&#x13f;" horiz-adv-x="506" 
d="M50 708h222v-540h214v-168h-436v708zM353.5 351.5c-16.333 16.333 -24.498 36.498 -24.498 60.498c0 24.667 8.16699 45.334 24.5 62.001s36.5 25 60.5 25c25.333 0 46.166 -8.16699 62.499 -24.5s24.5 -37.166 24.5 -62.499c0 -24 -8.33301 -44.167 -25 -60.5
s-37.334 -24.5 -62.001 -24.5c-24 0 -44.167 8.16699 -60.5 24.5z" />
    <glyph glyph-name="ldot" unicode="&#x140;" horiz-adv-x="440" 
d="M50 740h222v-740h-222v740zM319.5 301.5c-16.333 16.333 -24.498 36.498 -24.498 60.498c0 24.667 8.16699 45.334 24.5 62.001s36.5 25 60.5 25c25.333 0 46.166 -8.16699 62.499 -24.5s24.5 -37.166 24.5 -62.499c0 -24 -8.33301 -44.167 -25 -60.5
s-37.334 -24.5 -62.001 -24.5c-24 0 -44.167 8.16699 -60.5 24.5z" />
    <glyph glyph-name="Lslash" unicode="&#x141;" horiz-adv-x="521" 
d="M501 168v-168h-436v256l-55 -15v196l55 15v256h222v-195l75 21v-196l-75 -21v-149h214z" />
    <glyph glyph-name="lslash" unicode="&#x142;" horiz-adv-x="372" 
d="M362 338l-65 -18v-320h-222v259l-65 -18v196l65 18v285h222v-224l65 18v-196z" />
    <glyph glyph-name="Nacute" unicode="&#x143;" horiz-adv-x="779" 
d="M729 0h-222l-235 356v-356h-222v708h222l235 -362v362h222v-708zM517 843l-259 -94v148l259 110v-164z" />
    <glyph glyph-name="nacute" unicode="&#x144;" horiz-adv-x="697" 
d="M596.5 503c36.333 -43.333 54.5 -102.001 54.5 -176.001v-327h-221v299c0 26.667 -7.16699 47.834 -21.5 63.501s-33.5 23.5 -57.5 23.5c-24.667 0 -44 -7.83301 -58 -23.5s-21 -36.834 -21 -63.501v-299h-222v564h222v-86c17.333 26.667 40.5 48.334 69.5 65.001
s63.5 25 103.5 25c64.667 0 115.167 -21.667 151.5 -65zM512 695.999l-259 -94v148l259 110v-164z" />
    <glyph glyph-name="uni0145" unicode="&#x145;" horiz-adv-x="829" 
d="M729 0h-222l-235 356v-356h-222v708h222l235 -362v362h222v-708zM516 -170c0 -51.333 -14 -93.5 -42 -126.5s-69 -49.5 -123 -49.5v78c36.667 0 55 25 55 75v11h-72v147h156c17.333 -45.333 26 -90.333 26 -135z" />
    <glyph glyph-name="uni0146" unicode="&#x146;" horiz-adv-x="697" 
d="M596.5 503c36.333 -43.333 54.5 -102.001 54.5 -176.001v-327h-221v299c0 26.667 -7.16699 47.834 -21.5 63.501s-33.5 23.5 -57.5 23.5c-24.667 0 -44 -7.83301 -58 -23.5s-21 -36.834 -21 -63.501v-299h-222v564h222v-86c17.333 26.667 40.5 48.334 69.5 65.001
s63.5 25 103.5 25c64.667 0 115.167 -21.667 151.5 -65zM449 -35.001c16.667 -43.333 25 -88.333 25 -135c0 -51.333 -13.833 -93.5 -41.5 -126.5s-68.5 -49.5 -122.5 -49.5v78c36.667 0 55 25 55 75v11h-72v147h156z" />
    <glyph glyph-name="Ncaron" unicode="&#x147;" horiz-adv-x="779" 
d="M729 0h-222l-235 356v-356h-222v708h222l235 -362v362h222v-708zM554 824l-165 -75l-166 75v144l166 -88l165 88v-144z" />
    <glyph glyph-name="ncaron" unicode="&#x148;" horiz-adv-x="697" 
d="M596.5 503c36.333 -43.333 54.5 -102.001 54.5 -176.001v-327h-221v299c0 26.667 -7.16699 47.834 -21.5 63.501s-33.5 23.5 -57.5 23.5c-24.667 0 -44 -7.83301 -58 -23.5s-21 -36.834 -21 -63.501v-299h-222v564h222v-86c17.333 26.667 40.5 48.334 69.5 65.001
s63.5 25 103.5 25c64.667 0 115.167 -21.667 151.5 -65zM549 676.999l-165 -75l-166 75v144l166 -88l165 88v-144z" />
    <glyph glyph-name="Omacron" unicode="&#x14c;" horiz-adv-x="788" 
d="M211.5 40c-55.667 31.333 -99.833 74.666 -132.5 129.999s-49 117.666 -49 186.999s16.333 131.666 49 186.999s76.834 98.5 132.501 129.5s116.834 46.5 183.501 46.5s127.667 -15.5 183 -46.5s99.166 -74.167 131.499 -129.5s48.5 -117.666 48.5 -186.999
s-16.167 -131.666 -48.5 -186.999s-76.333 -98.666 -132 -129.999s-116.5 -47 -182.5 -47c-66.667 0 -127.834 15.667 -183.501 47zM497.001 242.5c24 28.333 36 66.5 36 114.5c0 48.667 -12 87.167 -36 115.5s-58 42.5 -102 42.5c-44.667 0 -79 -14.167 -103 -42.5
s-36 -66.833 -36 -115.5c0 -48 12 -86.167 36 -114.5s58.333 -42.5 103 -42.5c44 0 78 14.167 102 42.5zM611.001 916v-147h-431v147h431z" />
    <glyph glyph-name="omacron" unicode="&#x14d;" horiz-adv-x="636" 
d="M165 28c-45.333 23.333 -80.833 56.833 -106.5 100.5s-38.5 94.834 -38.5 153.501s12.833 109.834 38.5 153.501s61.167 77.167 106.5 100.5s96.333 35 153 35s107.667 -11.667 153 -35s80.833 -56.833 106.5 -100.5s38.5 -94.834 38.5 -153.501
s-12.833 -109.834 -38.5 -153.501s-61.167 -77.167 -106.5 -100.5s-96.333 -35 -153 -35s-107.667 11.667 -153 35zM370 209.5c14 16.333 21 40.5 21 72.5s-7 56.167 -21 72.5s-31.333 24.5 -52 24.5s-38 -8.16699 -52 -24.5s-21 -40.5 -21 -72.5
s6.83301 -56.167 20.5 -72.5s31.167 -24.5 52.5 -24.5c20.667 0 38 8.16699 52 24.5zM559 769v-147h-431v147h431z" />
    <glyph glyph-name="uni014E" unicode="&#x14e;" horiz-adv-x="788" 
d="M211.5 40c-55.667 31.333 -99.833 74.666 -132.5 129.999s-49 117.666 -49 186.999s16.333 131.666 49 186.999s76.834 98.5 132.501 129.5s116.834 46.5 183.501 46.5s127.667 -15.5 183 -46.5s99.166 -74.167 131.499 -129.5s48.5 -117.666 48.5 -186.999
s-16.167 -131.666 -48.5 -186.999s-76.333 -98.666 -132 -129.999s-116.5 -47 -182.5 -47c-66.667 0 -127.834 15.667 -183.501 47zM497.001 242.5c24 28.333 36 66.5 36 114.5c0 48.667 -12 87.167 -36 115.5s-58 42.5 -102 42.5c-44.667 0 -79 -14.167 -103 -42.5
s-36 -66.833 -36 -115.5c0 -48 12 -86.167 36 -114.5s58.333 -42.5 103 -42.5c44 0 78 14.167 102 42.5zM530.501 799c-35 -34.667 -80.167 -52 -135.5 -52s-100.5 17.333 -135.5 52s-52.5 85 -52.5 151v17h103c0 -20.667 6.33301 -36.167 19 -46.5s34.667 -15.5 66 -15.5
s53.333 5.16699 66 15.5s19 25.833 19 46.5h103v-17c0 -66 -17.5 -116.333 -52.5 -151z" />
    <glyph glyph-name="uni014F" unicode="&#x14f;" horiz-adv-x="636" 
d="M165 28c-45.333 23.333 -80.833 56.833 -106.5 100.5s-38.5 94.834 -38.5 153.501s12.833 109.834 38.5 153.501s61.167 77.167 106.5 100.5s96.333 35 153 35s107.667 -11.667 153 -35s80.833 -56.833 106.5 -100.5s38.5 -94.834 38.5 -153.501
s-12.833 -109.834 -38.5 -153.501s-61.167 -77.167 -106.5 -100.5s-96.333 -35 -153 -35s-107.667 11.667 -153 35zM370 209.5c14 16.333 21 40.5 21 72.5s-7 56.167 -21 72.5s-31.333 24.5 -52 24.5s-38 -8.16699 -52 -24.5s-21 -40.5 -21 -72.5
s6.83301 -56.167 20.5 -72.5s31.167 -24.5 52.5 -24.5c20.667 0 38 8.16699 52 24.5zM478.5 652c-35 -34.667 -80.167 -52 -135.5 -52s-100.5 17.333 -135.5 52s-52.5 85 -52.5 151v17h103c0 -20.667 6.33301 -36.167 19 -46.5s34.667 -15.5 66 -15.5
s53.333 5.16699 66 15.5s19 25.833 19 46.5h103v-17c0 -66 -17.5 -116.333 -52.5 -151z" />
    <glyph glyph-name="Ohungarumlaut" unicode="&#x150;" horiz-adv-x="788" 
d="M211.5 40c-55.667 31.333 -99.833 74.666 -132.5 129.999s-49 117.666 -49 186.999s16.333 131.666 49 186.999s76.834 98.5 132.501 129.5s116.834 46.5 183.501 46.5s127.667 -15.5 183 -46.5s99.166 -74.167 131.499 -129.5s48.5 -117.666 48.5 -186.999
s-16.167 -131.666 -48.5 -186.999s-76.333 -98.666 -132 -129.999s-116.5 -47 -182.5 -47c-66.667 0 -127.834 15.667 -183.501 47zM497.001 242.5c24 28.333 36 66.5 36 114.5c0 48.667 -12 87.167 -36 115.5s-58 42.5 -102 42.5c-44.667 0 -79 -14.167 -103 -42.5
s-36 -66.833 -36 -115.5c0 -48 12 -86.167 36 -114.5s58.333 -42.5 103 -42.5c44 0 78 14.167 102 42.5zM336.001 748h-133l80 244h168zM559.001 748h-133l103 244h168z" />
    <glyph glyph-name="ohungarumlaut" unicode="&#x151;" horiz-adv-x="636" 
d="M165 28c-45.333 23.333 -80.833 56.833 -106.5 100.5s-38.5 94.834 -38.5 153.501s12.833 109.834 38.5 153.501s61.167 77.167 106.5 100.5s96.333 35 153 35s107.667 -11.667 153 -35s80.833 -56.833 106.5 -100.5s38.5 -94.834 38.5 -153.501
s-12.833 -109.834 -38.5 -153.501s-61.167 -77.167 -106.5 -100.5s-96.333 -35 -153 -35s-107.667 11.667 -153 35zM370 209.5c14 16.333 21 40.5 21 72.5s-7 56.167 -21 72.5s-31.333 24.5 -52 24.5s-38 -8.16699 -52 -24.5s-21 -40.5 -21 -72.5
s6.83301 -56.167 20.5 -72.5s31.167 -24.5 52.5 -24.5c20.667 0 38 8.16699 52 24.5zM284 601h-133l80 244h168zM507 601h-133l103 244h168z" />
    <glyph glyph-name="OE" unicode="&#x152;" horiz-adv-x="1049" 
d="M765 444l220 -0.00292969v-167h-220v-100h250v-177h-472v37c-38.667 -29.333 -93.667 -45.666 -165 -48.999c-66.667 0 -126.5 15.5 -179.5 46.5s-94.333 74.333 -124 130s-44.5 118.834 -44.5 189.501s14.833 133.834 44.5 189.501s71 99 124 130
s112.833 46.5 179.5 46.5c30.667 0 60.5 -4.16699 89.5 -12.5s54.167 -20.5 75.5 -36.5v37h472v-176h-250v-88zM292 235.997c24 -28.667 58.333 -43 103 -43c44 0 78 14.333 102 43s36 68 36 118s-12 89.333 -36 118s-58 43 -102 43c-44.667 0 -79 -14.333 -103 -43
s-36 -68 -36 -118s12 -89.333 36 -118z" />
    <glyph glyph-name="oe" unicode="&#x153;" horiz-adv-x="1022" 
d="M971 243l-355 -0.00195312c2 -28 8.33301 -47.167 19 -57.5s24.667 -15.5 42 -15.5c24 0 41.333 11 52 33h235c-8 -40 -24.833 -75.833 -50.5 -107.5s-58 -56.667 -97 -75s-81.833 -27.5 -128.5 -27.5c-71.333 0 -132.333 18.667 -183 56
c-25.333 -18 -53.833 -31.833 -85.5 -41.5s-65.5 -14.5 -101.5 -14.5c-56.667 0 -107.667 11.667 -153 35s-80.833 56.833 -106.5 100.5s-38.5 94.834 -38.5 153.501s12.833 109.834 38.5 153.501s61.167 77.167 106.5 100.5s96.333 35 153 35
c36 0 69.833 -4.83301 101.5 -14.5s60.167 -23.5 85.5 -41.5c50.667 37.333 111.667 56 183 56c56 0 105.833 -11.5 149.5 -34.5s77.667 -55.833 102 -98.5s36.5 -93 36.5 -151c0 -14 -1.66699 -28.667 -5 -44zM751 333.998c0 21.333 -6 37.167 -18 47.5s-27 15.5 -45 15.5
c-40.667 0 -64 -21 -70 -63h133zM370 209.499c14 16.333 21 40.5 21 72.5s-7 56.167 -21 72.5s-31.333 24.5 -52 24.5s-38 -8.16699 -52 -24.5s-21 -40.5 -21 -72.5s6.83301 -56.167 20.5 -72.5s31.167 -24.5 52.5 -24.5c20.667 0 38 8.16699 52 24.5z" />
    <glyph glyph-name="Racute" unicode="&#x154;" horiz-adv-x="670" 
d="M406 0l-133.001 254h-1v-254h-222v708h330c57.333 0 106.333 -10.167 147 -30.5s71.167 -48 91.5 -83s30.5 -74.5 30.5 -118.5c0 -47.333 -13.167 -89.333 -39.5 -126s-64.166 -63 -113.499 -79l154 -271h-244zM271.999 402l88 -0.00195312
c21.333 0 37.333 4.83301 48 14.5s16 24.834 16 45.501c0 18.667 -5.5 33.334 -16.5 44.001s-26.833 16 -47.5 16h-88v-120zM452.999 842.998l-259 -94v148l259 110v-164z" />
    <glyph glyph-name="racute" unicode="&#x155;" horiz-adv-x="467" 
d="M355 538.5c32.667 19.667 66.666 29.499 101.999 29.499v-237h-63c-42 0 -72.833 -7.33301 -92.5 -22s-29.5 -40.667 -29.5 -78v-231h-222v564h222v-104c22.667 32.667 50.334 58.834 83.001 78.501zM402.999 695.999l-259 -94v148l259 110v-164z" />
    <glyph glyph-name="uni0156" unicode="&#x156;" horiz-adv-x="701" 
d="M272 0h-222.001v708h330c57.333 0 106.333 -10.167 147 -30.5s71.167 -48 91.5 -83s30.5 -74.5 30.5 -118.5c0 -47.333 -13.167 -89.333 -39.5 -126s-64.166 -63 -113.499 -79l154 -271h-244l-133 254h-1v-254zM271.999 402l88 -0.00195312
c21.333 0 37.333 4.83301 48 14.5s16 24.834 16 45.501c0 18.667 -5.5 33.334 -16.5 44.001s-26.833 16 -47.5 16h-88v-120zM425.999 -35.002c17.333 -45.333 26 -90.333 26 -135c0 -51.333 -14 -93.5 -42 -126.5s-69 -49.5 -123 -49.5v78c36.667 0 55 25 55 75v11h-72v147
h156z" />
    <glyph glyph-name="uni0157" unicode="&#x157;" horiz-adv-x="467" 
d="M355 538.5c32.667 19.667 66.666 29.499 101.999 29.499v-237h-63c-42 0 -72.833 -7.33301 -92.5 -22s-29.5 -40.667 -29.5 -78v-231h-222v564h222v-104c22.667 32.667 50.334 58.834 83.001 78.501zM235.999 -35.001c16.667 -43.333 25 -88.333 25 -135
c0 -51.333 -13.833 -93.5 -41.5 -126.5s-68.5 -49.5 -122.5 -49.5v78c36.667 0 55 25 55 75v11h-72v147h156z" />
    <glyph glyph-name="Rcaron" unicode="&#x158;" horiz-adv-x="670" 
d="M406 0l-133.001 254h-1v-254h-222v708h330c57.333 0 106.333 -10.167 147 -30.5s71.167 -48 91.5 -83s30.5 -74.5 30.5 -118.5c0 -47.333 -13.167 -89.333 -39.5 -126s-64.166 -63 -113.499 -79l154 -271h-244zM271.999 402l88 -0.00195312
c21.333 0 37.333 4.83301 48 14.5s16 24.834 16 45.501c0 18.667 -5.5 33.334 -16.5 44.001s-26.833 16 -47.5 16h-88v-120zM489.999 823.998l-165 -75l-166 75v144l166 -88l165 88v-144z" />
    <glyph glyph-name="rcaron" unicode="&#x159;" horiz-adv-x="467" 
d="M355 538.5c32.667 19.667 66.666 29.499 101.999 29.499v-237h-63c-42 0 -72.833 -7.33301 -92.5 -22s-29.5 -40.667 -29.5 -78v-231h-222v564h222v-104c22.667 32.667 50.334 58.834 83.001 78.501zM439.999 676.999l-165 -75l-166 75v144l166 -88l165 88v-144z" />
    <glyph glyph-name="Sacute" unicode="&#x15a;" horiz-adv-x="625" 
d="M117.5 52.5c-55 39.667 -84.8359 97.8301 -89.5029 174.497h236c3.33301 -40.667 21.333 -61 54 -61c12 0 22.167 2.83301 30.5 8.5s12.5 14.5 12.5 26.5c0 16.667 -9 30.167 -27 40.5s-46 22.166 -84 35.499c-45.333 16 -82.833 31.667 -112.5 47
s-55.167 37.666 -76.5 66.999s-31.666 67 -30.999 113c0 46 11.833 85.167 35.5 117.5s56 56.833 97 73.5s87.167 25 138.5 25c86.667 0 155.5 -20 206.5 -60s77.833 -96.333 80.5 -169h-239c-0.666992 20 -5.66699 34.333 -15 43s-20.666 13 -33.999 13
c-9.33301 0 -17 -3.16699 -23 -9.5s-9 -15.166 -9 -26.499c0 -16 8.83301 -29.167 26.5 -39.5s45.834 -22.833 84.501 -37.5c44.667 -16.667 81.5 -32.667 110.5 -48s54.167 -36.666 75.5 -63.999s32 -61.666 32 -102.999c0 -43.333 -10.667 -82.166 -32 -116.499
s-52.333 -61.166 -93 -80.499s-89 -29 -145 -29c-84.667 0 -154.5 19.833 -209.5 59.5zM440.997 842.996l-259 -94v148l259 110v-164z" />
    <glyph glyph-name="sacute" unicode="&#x15b;" horiz-adv-x="579" 
d="M159.5 19c-41 17.333 -73.502 41.334 -97.502 72.001s-37.667 65.334 -41 104.001h213c2.66699 -16.667 9.83398 -29 21.501 -37s26.5 -12 44.5 -12c11.333 0 20.333 2.5 27 7.5s10 11.167 10 18.5c0 12.667 -7 21.667 -21 27s-37.667 11.333 -71 18
c-40.667 8 -74.167 16.667 -100.5 26s-49.333 25.333 -69 48s-29.5 54 -29.5 94c0 34.667 9.16699 66.167 27.5 94.5s45.5 50.666 81.5 66.999s79.667 24.5 131 24.5c76 0 135.5 -18.667 178.5 -56s68.833 -86 77.5 -146h-197c-3.33301 15.333 -10.333 27.166 -21 35.499
s-25 12.5 -43 12.5c-11.333 0 -20 -2.16699 -26 -6.5s-9 -10.833 -9 -19.5c0 -11.333 7 -19.833 21 -25.5s36.333 -11.5 67 -17.5c40.667 -8 75 -17 103 -27s52.333 -27.167 73 -51.5s31 -57.833 31 -100.5c0 -33.333 -9.66699 -63.333 -29 -90s-47.166 -47.667 -83.499 -63
s-78.833 -23 -127.5 -23c-53.333 0 -100.5 8.66699 -141.5 26zM429.998 696.001l-259 -94v148l259 110v-164z" />
    <glyph glyph-name="uni015E" unicode="&#x15e;" horiz-adv-x="625" 
d="M541.5 72c-37 -40 -88.5029 -65.002 -154.503 -75.002v-31c18.667 0 38 -3.83301 58 -11.5s37 -20.667 51 -39s21 -42.166 21 -71.499c0 -43.333 -15 -74.5 -45 -93.5s-65 -28.5 -105 -28.5h-173v113h150c8 0 14.333 1.5 19 4.5s7 6.83301 7 11.5
c0 10 -8.66699 15 -26 15h-85v132c-66.667 10 -120.667 34.333 -162 73s-64.333 90.667 -69 156h236c3.33301 -40.667 21.333 -61 54 -61c12 0 22.167 2.83301 30.5 8.5s12.5 14.5 12.5 26.5c0 16.667 -9 30.167 -27 40.5s-46 22.166 -84 35.499
c-45.333 16 -82.833 31.667 -112.5 47s-55.167 37.666 -76.5 66.999s-31.666 67 -30.999 113c0 46 11.833 85.167 35.5 117.5s56 56.833 97 73.5s87.167 25 138.5 25c86.667 0 155.5 -20 206.5 -60s77.833 -96.333 80.5 -169h-239c-0.666992 20 -5.66699 34.333 -15 43
s-20.666 13 -33.999 13c-9.33301 0 -17 -3.16699 -23 -9.5s-9 -15.166 -9 -26.499c0 -16 8.83301 -29.167 26.5 -39.5s45.834 -22.833 84.501 -37.5c44.667 -16.667 81.5 -32.667 110.5 -48s54.167 -36.666 75.5 -63.999s32 -61.666 32 -102.999
c0 -58 -18.5 -107 -55.5 -147z" />
    <glyph glyph-name="uni015F" unicode="&#x15f;" horiz-adv-x="579" 
d="M497 61.5c-29.333 -30.333 -69.667 -50.833 -121 -61.5v-34c18.667 0 38 -3.83301 58 -11.5s37 -20.667 51 -39s21 -42.166 21 -71.499c0 -43.333 -15 -74.5 -45 -93.5s-65 -28.5 -105 -28.5h-173v113h150c8 0 14.333 1.5 19 4.5s7 6.83301 7 11.5
c0 10 -8.66699 15 -26 15h-85v130c-65.333 8.66699 -118.333 31 -159 67s-63.334 80 -68.001 132h213c2.66699 -16.667 9.83398 -29 21.501 -37s26.5 -12 44.5 -12c11.333 0 20.333 2.5 27 7.5s10 11.167 10 18.5c0 12.667 -7 21.667 -21 27s-37.667 11.333 -71 18
c-40.667 8 -74.167 16.667 -100.5 26s-49.333 25.333 -69 48s-29.5 54 -29.5 94c0 34.667 9.16699 66.167 27.5 94.5s45.5 50.666 81.5 66.999s79.667 24.5 131 24.5c76 0 135.5 -18.667 178.5 -56s68.833 -86 77.5 -146h-197c-3.33301 15.333 -10.333 27.166 -21 35.499
s-25 12.5 -43 12.5c-11.333 0 -20 -2.16699 -26 -6.5s-9 -10.833 -9 -19.5c0 -11.333 7 -19.833 21 -25.5s36.333 -11.5 67 -17.5c40.667 -8 75 -17 103 -27s52.333 -27.167 73 -51.5s31 -57.833 31 -100.5c0 -41.333 -14.667 -77.166 -44 -107.499z" />
    <glyph glyph-name="Scaron" unicode="&#x160;" horiz-adv-x="625" 
d="M117.5 52.5c-55 39.667 -84.8359 97.8301 -89.5029 174.497h236c3.33301 -40.667 21.333 -61 54 -61c12 0 22.167 2.83301 30.5 8.5s12.5 14.5 12.5 26.5c0 16.667 -9 30.167 -27 40.5s-46 22.166 -84 35.499c-45.333 16 -82.833 31.667 -112.5 47
s-55.167 37.666 -76.5 66.999s-31.666 67 -30.999 113c0 46 11.833 85.167 35.5 117.5s56 56.833 97 73.5s87.167 25 138.5 25c86.667 0 155.5 -20 206.5 -60s77.833 -96.333 80.5 -169h-239c-0.666992 20 -5.66699 34.333 -15 43s-20.666 13 -33.999 13
c-9.33301 0 -17 -3.16699 -23 -9.5s-9 -15.166 -9 -26.499c0 -16 8.83301 -29.167 26.5 -39.5s45.834 -22.833 84.501 -37.5c44.667 -16.667 81.5 -32.667 110.5 -48s54.167 -36.666 75.5 -63.999s32 -61.666 32 -102.999c0 -43.333 -10.667 -82.166 -32 -116.499
s-52.333 -61.166 -93 -80.499s-89 -29 -145 -29c-84.667 0 -154.5 19.833 -209.5 59.5zM477.997 823.996l-165 -75l-166 75v144l166 -88l165 88v-144z" />
    <glyph glyph-name="scaron" unicode="&#x161;" horiz-adv-x="579" 
d="M159.5 19c-41 17.333 -73.502 41.334 -97.502 72.001s-37.667 65.334 -41 104.001h213c2.66699 -16.667 9.83398 -29 21.501 -37s26.5 -12 44.5 -12c11.333 0 20.333 2.5 27 7.5s10 11.167 10 18.5c0 12.667 -7 21.667 -21 27s-37.667 11.333 -71 18
c-40.667 8 -74.167 16.667 -100.5 26s-49.333 25.333 -69 48s-29.5 54 -29.5 94c0 34.667 9.16699 66.167 27.5 94.5s45.5 50.666 81.5 66.999s79.667 24.5 131 24.5c76 0 135.5 -18.667 178.5 -56s68.833 -86 77.5 -146h-197c-3.33301 15.333 -10.333 27.166 -21 35.499
s-25 12.5 -43 12.5c-11.333 0 -20 -2.16699 -26 -6.5s-9 -10.833 -9 -19.5c0 -11.333 7 -19.833 21 -25.5s36.333 -11.5 67 -17.5c40.667 -8 75 -17 103 -27s52.333 -27.167 73 -51.5s31 -57.833 31 -100.5c0 -33.333 -9.66699 -63.333 -29 -90s-47.166 -47.667 -83.499 -63
s-78.833 -23 -127.5 -23c-53.333 0 -100.5 8.66699 -141.5 26zM466.998 677.001l-165 -75l-166 75v144l166 -88l165 88v-144z" />
    <glyph glyph-name="uni0162" unicode="&#x162;" horiz-adv-x="616" 
d="M606 708v-176h-188v-532h-222v532h-186v176h596zM435 -45.5c20 -7.66699 37 -20.668 51 -39.001s21 -42.166 21 -71.499c0 -43.333 -15 -74.5 -45 -93.5s-65 -28.5 -105 -28.5h-173v113h150c8 0 14.333 1.5 19 4.5s7 6.83301 7 11.5c0 10 -8.66699 15 -26 15h-85v134h128
v-34c18.667 0 38 -3.83301 58 -11.5z" />
    <glyph glyph-name="uni0163" unicode="&#x163;" horiz-adv-x="436" 
d="M370 -38.5c20 -7.66699 37 -20.6689 51 -39.002s21 -42.166 21 -71.499c0 -43.333 -15 -74.5 -45 -93.5s-65 -28.5 -105 -28.5h-173v113h150c8 0 14.333 1.5 19 4.5s7 6.83301 7 11.5c0 10 -8.66699 15 -26 15h-85v155c-66 34.667 -99 102.334 -99 203.001v148h-70v185
h70v136h222v-136h92v-185h-92v-152c0 -13.333 3.16699 -23 9.5 -29s16.833 -9 31.5 -9h53v-189h-84h-5v-27c18.667 0 38 -3.83301 58 -11.5z" />
    <glyph glyph-name="Tcaron" unicode="&#x164;" horiz-adv-x="616" 
d="M606 708v-176h-188v-532h-222v532h-186v176h596zM468 824l-165 -75l-166 75v144l166 -88l165 88v-144z" />
    <glyph glyph-name="tcaron" unicode="&#x165;" horiz-adv-x="436" 
d="M514 826c4 -19.333 6.00098 -39.334 6.00098 -60.001c0 -46.667 -13.833 -84.5 -41.5 -113.5s-68.834 -43.5 -123.501 -43.5v79c36.667 0 55 13 55 39v17h-72v146h156c9.33301 -23.333 16 -44.666 20 -63.999zM316.501 197.999c6.33301 -6 16.833 -9 31.5 -9h53v-189h-84
c-154.667 0 -232 77 -232 231v148h-70v185h70v136h222v-136h92v-185h-92v-152c0 -13.333 3.16699 -23 9.5 -29z" />
    <glyph glyph-name="Utilde" unicode="&#x168;" horiz-adv-x="719" 
d="M267 708v-399c0 -32.667 7.16699 -58.5 21.5 -77.5s37.5 -28.5 69.5 -28.5s55.667 9.5 71 28.5s23 44.833 23 77.5v399h221v-399c0 -67.333 -14 -124.833 -42 -172.5s-66.333 -83.5 -115 -107.5s-103 -36 -163 -36s-113.167 12 -159.5 36s-82.5 59.667 -108.5 107
s-39 105 -39 173v399h221zM182.5 883.5c27 27.667 61.8301 41.499 104.497 41.499c16 0 31 -2.33301 45 -7s29 -11.334 45 -20.001c12.667 -6.66699 22.834 -11.5 30.501 -14.5s15.5 -4.5 23.5 -4.5c24.667 0 39.334 15.667 44.001 47h109
c-10.667 -62 -29.5 -106.667 -56.5 -134s-61.833 -41 -104.5 -41c-16 0 -31 2.33301 -45 7s-29 11.334 -45 20.001c-9.33301 4.66699 -18.666 8.83398 -27.999 12.501s-18 5.5 -26 5.5c-24 0 -39 -15.667 -45 -47h-108c10.667 62 29.5 106.833 56.5 134.5z" />
    <glyph glyph-name="utilde" unicode="&#x169;" horiz-adv-x="697" 
d="M647 564v-563.999h-222v86c-17.333 -26.667 -40.5 -48.334 -69.5 -65.001s-63.5 -25 -103.5 -25c-64.667 0 -115.167 21.667 -151.5 65s-54.5 102 -54.5 176v327h221v-299c0 -26.667 7.16699 -47.834 21.5 -63.501s33.5 -23.5 57.5 -23.5c24.667 0 44 7.83301 58 23.5
s21 36.834 21 63.501v299h222zM171.5 736.501c27 27.667 61.8301 41.499 104.497 41.499c16 0 31 -2.33301 45 -7s29 -11.334 45 -20.001c12.667 -6.66699 22.834 -11.5 30.501 -14.5s15.5 -4.5 23.5 -4.5c24.667 0 39.334 15.667 44.001 47h109
c-10.667 -62 -29.5 -106.667 -56.5 -134s-61.833 -41 -104.5 -41c-16 0 -31 2.33301 -45 7s-29 11.334 -45 20.001c-9.33301 4.66699 -18.666 8.83398 -27.999 12.501s-18 5.5 -26 5.5c-24 0 -39 -15.667 -45 -47h-108c10.667 62 29.5 106.833 56.5 134.5z" />
    <glyph glyph-name="Umacron" unicode="&#x16a;" horiz-adv-x="719" 
d="M267 708v-399c0 -32.667 7.16699 -58.5 21.5 -77.5s37.5 -28.5 69.5 -28.5s55.667 9.5 71 28.5s23 44.833 23 77.5v399h221v-399c0 -67.333 -14 -124.833 -42 -172.5s-66.333 -83.5 -115 -107.5s-103 -36 -163 -36s-113.167 12 -159.5 36s-82.5 59.667 -108.5 107
s-39 105 -39 173v399h221zM576 916v-147h-431v147h431z" />
    <glyph glyph-name="umacron" unicode="&#x16b;" horiz-adv-x="697" 
d="M647 564v-563.999h-222v86c-17.333 -26.667 -40.5 -48.334 -69.5 -65.001s-63.5 -25 -103.5 -25c-64.667 0 -115.167 21.667 -151.5 65s-54.5 102 -54.5 176v327h221v-299c0 -26.667 7.16699 -47.834 21.5 -63.501s33.5 -23.5 57.5 -23.5c24.667 0 44 7.83301 58 23.5
s21 36.834 21 63.501v299h222zM565 769.001v-147h-431v147h431z" />
    <glyph glyph-name="Ubreve" unicode="&#x16c;" horiz-adv-x="719" 
d="M267 708v-399c0 -32.667 7.16699 -58.5 21.5 -77.5s37.5 -28.5 69.5 -28.5s55.667 9.5 71 28.5s23 44.833 23 77.5v399h221v-399c0 -67.333 -14 -124.833 -42 -172.5s-66.333 -83.5 -115 -107.5s-103 -36 -163 -36s-113.167 12 -159.5 36s-82.5 59.667 -108.5 107
s-39 105 -39 173v399h221zM495.5 799c-35 -34.667 -80.167 -52 -135.5 -52s-100.5 17.333 -135.5 52s-52.5 85 -52.5 151v17h103c0 -20.667 6.33301 -36.167 19 -46.5s34.667 -15.5 66 -15.5s53.333 5.16699 66 15.5s19 25.833 19 46.5h103v-17
c0 -66 -17.5 -116.333 -52.5 -151z" />
    <glyph glyph-name="ubreve" unicode="&#x16d;" horiz-adv-x="697" 
d="M647 564v-563.999h-222v86c-17.333 -26.667 -40.5 -48.334 -69.5 -65.001s-63.5 -25 -103.5 -25c-64.667 0 -115.167 21.667 -151.5 65s-54.5 102 -54.5 176v327h221v-299c0 -26.667 7.16699 -47.834 21.5 -63.501s33.5 -23.5 57.5 -23.5c24.667 0 44 7.83301 58 23.5
s21 36.834 21 63.501v299h222zM484.5 652.001c-35 -34.667 -80.167 -52 -135.5 -52s-100.5 17.333 -135.5 52s-52.5 85 -52.5 151v17h103c0 -20.667 6.33301 -36.167 19 -46.5s34.667 -15.5 66 -15.5s53.333 5.16699 66 15.5s19 25.833 19 46.5h103v-17
c0 -66 -17.5 -116.333 -52.5 -151z" />
    <glyph glyph-name="Uring" unicode="&#x16e;" horiz-adv-x="719" 
d="M267 708v-399c0 -32.667 7.16699 -58.5 21.5 -77.5s37.5 -28.5 69.5 -28.5s55.667 9.5 71 28.5s23 44.833 23 77.5v399h221v-399c0 -67.333 -14 -124.833 -42 -172.5s-66.333 -83.5 -115 -107.5s-103 -36 -163 -36s-113.167 12 -159.5 36s-82.5 59.667 -108.5 107
s-39 105 -39 173v399h221zM454 776c-25.333 -24 -56.666 -36 -93.999 -36s-68.666 12 -93.999 36s-38 56 -38 96s12.667 72 38 96s56.666 36 93.999 36s68.666 -12 93.999 -36s38 -56 38 -96s-12.667 -72 -38 -96zM393 906c-8.66699 8.66699 -19.667 13 -33 13
s-24.333 -4.33301 -33 -13s-13 -20 -13 -34s4.33301 -25.333 13 -34s19.667 -13 33 -13s24.333 4.33301 33 13s13 20 13 34s-4.33301 25.333 -13 34z" />
    <glyph glyph-name="uring" unicode="&#x16f;" horiz-adv-x="697" 
d="M647 564v-563.999h-222v86c-17.333 -26.667 -40.5 -48.334 -69.5 -65.001s-63.5 -25 -103.5 -25c-64.667 0 -115.167 21.667 -151.5 65s-54.5 102 -54.5 176v327h221v-299c0 -26.667 7.16699 -47.834 21.5 -63.501s33.5 -23.5 57.5 -23.5c24.667 0 44 7.83301 58 23.5
s21 36.834 21 63.501v299h222zM443 629.001c-25.333 -24 -56.666 -36 -93.999 -36s-68.666 12 -93.999 36s-38 56 -38 96s12.667 72 38 96s56.666 36 93.999 36s68.666 -12 93.999 -36s38 -56 38 -96s-12.667 -72 -38 -96zM382 759.001c-8.66699 8.66699 -19.667 13 -33 13
s-24.333 -4.33301 -33 -13s-13 -20 -13 -34s4.33301 -25.333 13 -34s19.667 -13 33 -13s24.333 4.33301 33 13s13 20 13 34s-4.33301 25.333 -13 34z" />
    <glyph glyph-name="Uhungarumlaut" unicode="&#x170;" horiz-adv-x="719" 
d="M267 708v-399c0 -32.667 7.16699 -58.5 21.5 -77.5s37.5 -28.5 69.5 -28.5s55.667 9.5 71 28.5s23 44.833 23 77.5v399h221v-399c0 -67.333 -14 -124.833 -42 -172.5s-66.333 -83.5 -115 -107.5s-103 -36 -163 -36s-113.167 12 -159.5 36s-82.5 59.667 -108.5 107
s-39 105 -39 173v399h221zM301 748h-133l80 244h168zM524 748h-133l103 244h168z" />
    <glyph glyph-name="uhungarumlaut" unicode="&#x171;" horiz-adv-x="697" 
d="M647 564v-563.999h-222v86c-17.333 -26.667 -40.5 -48.334 -69.5 -65.001s-63.5 -25 -103.5 -25c-64.667 0 -115.167 21.667 -151.5 65s-54.5 102 -54.5 176v327h221v-299c0 -26.667 7.16699 -47.834 21.5 -63.501s33.5 -23.5 57.5 -23.5c24.667 0 44 7.83301 58 23.5
s21 36.834 21 63.501v299h222zM290 601.001h-133l80 244h168zM513 601.001h-133l103 244h168z" />
    <glyph glyph-name="Uogonek" unicode="&#x172;" horiz-adv-x="719" 
d="M673 708l0.000976562 -398.999c0 -82 -20.333 -149 -61 -201s-95.334 -86.667 -164.001 -104l1 -1l-43 -21c-27.333 -13.333 -46.833 -25 -58.5 -35s-17.5 -20 -17.5 -30c0 -6 3 -11 9 -15s14.333 -6 25 -6c24.667 0 53 5.33301 85 16v-116
c-35.333 -10.667 -73 -16 -113 -16c-50 0 -89.333 10.667 -118 32s-43 50.666 -43 87.999c0 21.333 4.5 40.833 13.5 58.5s24.833 35.167 47.5 52.5c-59.333 20 -105.833 55.333 -139.5 106s-50.5 114.667 -50.5 192v399h221v-399c0 -32.667 7.16699 -58.5 21.5 -77.5
s37.5 -28.5 69.5 -28.5s55.667 9.5 71 28.5s23 44.833 23 77.5v399h221z" />
    <glyph glyph-name="uogonek" unicode="&#x173;" horiz-adv-x="697" 
d="M647 0l-0.999023 0.00195312l1 -3l-43 -21c-27.333 -13.333 -46.833 -25 -58.5 -35s-17.5 -20 -17.5 -30c0 -6 3 -11 9 -15s14.333 -6 25 -6c24.667 0 53 5.33301 85 16v-116c-35.333 -10.667 -73 -16 -113 -16c-50 0 -89.333 10.667 -118 32s-43 50.666 -43 87.999
c0 20 4.16699 38.667 12.5 56s22.166 34 41.499 50h-2v86c-17.333 -26.667 -40.5 -48.334 -69.5 -65.001s-63.5 -25 -103.5 -25c-64.667 0 -115.167 21.667 -151.5 65s-54.5 102 -54.5 176v327h221v-299c0 -26.667 7.16699 -47.834 21.5 -63.501s33.5 -23.5 57.5 -23.5
c24.667 0 44 7.83301 58 23.5s21 36.834 21 63.501v299h222v-564z" />
    <glyph glyph-name="Wcircumflex" unicode="&#x174;" horiz-adv-x="1100" 
d="M1070 708l-162 -708h-276l-82 402l-82 -402h-276l-162 708h239l64 -446l96 446h242l96 -446l64 446h239zM551 824l-166 -78v144l166 75l165 -75v-144z" />
    <glyph glyph-name="wcircumflex" unicode="&#x175;" horiz-adv-x="903" 
d="M906 564l-134 -564h-250l-68 318l-72 -318h-250l-133 564h220l47 -343l73 343h237l77 -347l48 347h205zM453 680l-166 -78v144l166 75l165 -75v-144z" />
    <glyph glyph-name="Ycircumflex" unicode="&#x176;" horiz-adv-x="730" 
d="M730 708l-254 -493v-215h-222v215l-254 493h254l113 -251l113 251h250zM366 827l-166 -78v144l166 75l165 -75v-144z" />
    <glyph glyph-name="ycircumflex" unicode="&#x177;" horiz-adv-x="677" 
d="M687 564l-361 -834h-243l142 298l-235 536h247l106 -286l99 286h245zM339 680l-166 -78v144l166 75l165 -75v-144z" />
    <glyph glyph-name="Ydieresis" unicode="&#x178;" horiz-adv-x="730" 
d="M730 708l-254 -493v-215h-222v215l-254 493h254l113 -251l113 251h250zM191.5 791.5c-16.333 16.333 -24.498 36.498 -24.498 60.498c0 24.667 8.16699 45.334 24.5 62.001s36.5 25 60.5 25c25.333 0 46.166 -8.16699 62.499 -24.5s24.5 -37.166 24.5 -62.499
c0 -24 -8.33301 -44.167 -25 -60.5s-37.334 -24.5 -62.001 -24.5c-24 0 -44.167 8.16699 -60.5 24.5zM416.502 791.498c-16.333 16.333 -24.498 36.498 -24.498 60.498c0 24.667 8.16699 45.334 24.5 62.001s36.5 25 60.5 25c25.333 0 46.166 -8.16699 62.499 -24.5
s24.5 -37.166 24.5 -62.499c0 -24 -8.33301 -44.167 -25 -60.5s-37.334 -24.5 -62.001 -24.5c-24 0 -44.167 8.16699 -60.5 24.5z" />
    <glyph glyph-name="Zacute" unicode="&#x179;" horiz-adv-x="630" 
d="M296 177h284v-177h-530v167l280 365h-280v176h530v-167zM443 843l-259 -94v148l259 110v-164z" />
    <glyph glyph-name="zacute" unicode="&#x17a;" horiz-adv-x="518" 
d="M263 184h235v-184h-478v174l215 206h-212v184h465v-174zM394 696l-259 -94v148l259 110v-164z" />
    <glyph glyph-name="Zdotaccent" unicode="&#x17b;" horiz-adv-x="630" 
d="M296 177h284v-177h-530v167l280 365h-280v176h530v-167zM252.5 791.5c-16.333 16.333 -24.498 36.498 -24.498 60.498c0 24.667 8.16699 45.334 24.5 62.001s36.5 25 60.5 25c25.333 0 46.166 -8.16699 62.499 -24.5s24.5 -37.166 24.5 -62.499
c0 -24 -8.33301 -44.167 -25 -60.5s-37.334 -24.5 -62.001 -24.5c-24 0 -44.167 8.16699 -60.5 24.5z" />
    <glyph glyph-name="zdotaccent" unicode="&#x17c;" horiz-adv-x="518" 
d="M263 184h235v-184h-478v174l215 206h-212v184h465v-174zM203.5 644.5c-16.333 16.333 -24.498 36.498 -24.498 60.498c0 24.667 8.16699 45.334 24.5 62.001s36.5 25 60.5 25c25.333 0 46.166 -8.16699 62.499 -24.5s24.5 -37.166 24.5 -62.499
c0 -24 -8.33301 -44.167 -25 -60.5s-37.334 -24.5 -62.001 -24.5c-24 0 -44.167 8.16699 -60.5 24.5z" />
    <glyph glyph-name="Zcaron" unicode="&#x17d;" horiz-adv-x="630" 
d="M296 177h284v-177h-530v167l280 365h-280v176h530v-167zM480 824l-165 -75l-166 75v144l166 -88l165 88v-144z" />
    <glyph glyph-name="zcaron" unicode="&#x17e;" horiz-adv-x="518" 
d="M263 184h235v-184h-478v174l215 206h-212v184h465v-174zM431 677l-165 -75l-166 75v144l166 -88l165 88v-144z" />
    <glyph glyph-name="uni018F" unicode="&#x18f;" horiz-adv-x="773" 
d="M573 682c54 -30 95.833 -72.666 125.5 -127.999s44.5 -120.333 44.5 -195c0 -74 -14.833 -138.833 -44.5 -194.5s-71.5 -98.5 -125.5 -128.5s-116.667 -45 -188 -45s-133.666 14.667 -186.999 44s-94.666 71.333 -123.999 126s-44 118.667 -44 192
c0 13.333 1.33301 32 4 56h483c-2.66699 39.333 -16.167 69.166 -40.5 89.499s-53.5 30.5 -87.5 30.5c-26.667 0 -50.334 -6.16699 -71.001 -18.5s-34.334 -29.166 -41.001 -50.499h-233c10 50.667 30.5 96.167 61.5 136.5s70.667 72.166 119 95.499s101.833 35 160.5 35
c71.333 0 134 -15 188 -45zM466 220.001c25.333 16 41.333 38.333 48 67h-258c2 -26.667 14.833 -48.5 38.5 -65.5s52.167 -25.5 85.5 -25.5c32 0 60.667 8 86 24z" />
    <glyph glyph-name="florin" unicode="&#x192;" horiz-adv-x="340" 
d="M299 564h63.001l-19 -185h-63l-50 -477c-8.66699 -78.667 -36.5 -133.667 -83.5 -165s-108.167 -47 -183.5 -47h-33l18 190h38c12 0 19.333 7.33301 22 22l51 477h-41l19 185h41l1 5c8.66699 77.333 37.167 134 85.5 170s119.5 54 213.5 54l-19 -189
c-18.667 0 -32.834 -2.5 -42.501 -7.5s-15.167 -14.167 -16.5 -27.5z" />
    <glyph glyph-name="uni01FC" unicode="&#x1fc;" horiz-adv-x="986" 
d="M712 532v-85h210v-167h-210v-103h240v-177h-462v97h-204l-45 -97h-241l339 708h613v-176h-240zM490 264v273l-127 -273h127zM606 840l-259 -94v148l259 110v-164z" />
    <glyph glyph-name="uni01FD" unicode="&#x1fd;" horiz-adv-x="1054" 
d="M1029 243l-391.001 -0.00292969c3.33301 -28 11.833 -47.667 25.5 -59s31.5 -17 53.5 -17c36 0 59.333 12 70 36h235c-12 -61.333 -38.333 -111.666 -79 -150.999s-89.667 -59 -147 -59c-40 0 -74.167 7.33301 -102.5 22s-49.5 35.334 -63.5 62.001v-77h-221v77
c-14 -26 -34.333 -46.5 -61 -61.5s-58.334 -22.5 -95.001 -22.5c-44 0 -83.667 11.5 -119 34.5s-63.166 56.333 -83.499 100s-30.5 95.167 -30.5 154.5s10.167 110.833 30.5 154.5s48.166 77 83.499 100s75 34.5 119 34.5c36.667 0 68.334 -7.5 95.001 -22.5
s47 -35.5 61 -61.5v77h221v-77c13.333 26.667 34.333 47.334 63 62.001s63 22 103 22c46.667 0 87.834 -11.5 123.501 -34.5s63.667 -55.833 84 -98.5s30.5 -93 30.5 -151c0 -14 -1.66699 -28.667 -5 -44zM808.999 333.997c0 20.667 -8 36.333 -24 47s-36.333 16 -61 16
c-48 0 -76.333 -21 -85 -63h170zM385.999 211.996c15.333 16.667 23 40 23 70s-7.66699 53.333 -23 70s-35 25 -59 25s-43.667 -8.33301 -59 -25s-23 -40 -23 -70s7.66699 -53.333 23 -70s35 -25 59 -25s43.667 8.33301 59 25zM656.999 695.996l-259 -94v148l259 110v-164z
" />
    <glyph glyph-name="uni0218" unicode="&#x218;" horiz-adv-x="685" 
d="M117.5 52.5c-55 39.667 -84.8359 97.8301 -89.5029 174.497h236c3.33301 -40.667 21.333 -61 54 -61c12 0 22.167 2.83301 30.5 8.5s12.5 14.5 12.5 26.5c0 16.667 -9 30.167 -27 40.5s-46 22.166 -84 35.499c-45.333 16 -82.833 31.667 -112.5 47
s-55.167 37.666 -76.5 66.999s-31.666 67 -30.999 113c0 46 11.833 85.167 35.5 117.5s56 56.833 97 73.5s87.167 25 138.5 25c86.667 0 155.5 -20 206.5 -60s77.833 -96.333 80.5 -169h-239c-0.666992 20 -5.66699 34.333 -15 43s-20.666 13 -33.999 13
c-9.33301 0 -17 -3.16699 -23 -9.5s-9 -15.166 -9 -26.499c0 -16 8.83301 -29.167 26.5 -39.5s45.834 -22.833 84.501 -37.5c44.667 -16.667 81.5 -32.667 110.5 -48s54.167 -36.666 75.5 -63.999s32 -61.666 32 -102.999c0 -43.333 -10.667 -82.166 -32 -116.499
s-52.333 -61.166 -93 -80.499s-89 -29 -145 -29c-84.667 0 -154.5 19.833 -209.5 59.5zM444.997 -170.004c0 -51.333 -14 -93.5 -42 -126.5s-69 -49.5 -123 -49.5v78c36.667 0 55 25 55 75v11h-72v147h156c17.333 -45.333 26 -90.333 26 -135z" />
    <glyph glyph-name="uni0219" unicode="&#x219;" horiz-adv-x="579" 
d="M159.5 19c-41 17.333 -73.502 41.334 -97.502 72.001s-37.667 65.334 -41 104.001h213c2.66699 -16.667 9.83398 -29 21.501 -37s26.5 -12 44.5 -12c11.333 0 20.333 2.5 27 7.5s10 11.167 10 18.5c0 12.667 -7 21.667 -21 27s-37.667 11.333 -71 18
c-40.667 8 -74.167 16.667 -100.5 26s-49.333 25.333 -69 48s-29.5 54 -29.5 94c0 34.667 9.16699 66.167 27.5 94.5s45.5 50.666 81.5 66.999s79.667 24.5 131 24.5c76 0 135.5 -18.667 178.5 -56s68.833 -86 77.5 -146h-197c-3.33301 15.333 -10.333 27.166 -21 35.499
s-25 12.5 -43 12.5c-11.333 0 -20 -2.16699 -26 -6.5s-9 -10.833 -9 -19.5c0 -11.333 7 -19.833 21 -25.5s36.333 -11.5 67 -17.5c40.667 -8 75 -17 103 -27s52.333 -27.167 73 -51.5s31 -57.833 31 -100.5c0 -33.333 -9.66699 -63.333 -29 -90s-47.166 -47.667 -83.499 -63
s-78.833 -23 -127.5 -23c-53.333 0 -100.5 8.66699 -141.5 26zM388.998 -169.999c0 -51.333 -13.833 -93.5 -41.5 -126.5s-68.5 -49.5 -122.5 -49.5v78c36.667 0 55 25 55 75v11h-72v147h156c16.667 -43.333 25 -88.333 25 -135z" />
    <glyph glyph-name="uni021A" unicode="&#x21a;" horiz-adv-x="616" 
d="M606 708v-176h-188v-532h-222v532h-186v176h596zM410 -170c0 -51.333 -13.833 -93.5 -41.5 -126.5s-68.5 -49.5 -122.5 -49.5v78c36.667 0 55 25 55 75v11h-72v147h156c16.667 -43.333 25 -88.333 25 -135z" />
    <glyph glyph-name="uni021B" unicode="&#x21b;" horiz-adv-x="436" 
d="M401 189v-189h-84c-154.667 0 -232 77 -232 231v148h-70v185h70v136h222v-136h92v-185h-92v-152c0 -13.333 3.16699 -23 9.5 -29s16.833 -9 31.5 -9h53zM303 -35c17.333 -45.333 26 -90.333 26 -135c0 -51.333 -14 -93.5 -42 -126.5s-69 -49.5 -123 -49.5v78
c36.667 0 55 25 55 75v11h-72v147h156z" />
    <glyph glyph-name="uni0259" unicode="&#x259;" horiz-adv-x="616" 
d="M457.5 536c43.667 -23.333 77.666 -56.8311 101.999 -100.498s36.5 -94.834 36.5 -153.501s-12.167 -109.834 -36.5 -153.501s-58.333 -77.167 -102 -100.5s-93.5 -35 -149.5 -35s-105.833 11.5 -149.5 34.5s-77.667 55.833 -102 98.5s-36.5 93 -36.5 151
c0 15.333 1 30 3 44h357c-3.33301 48.667 -23.666 73 -60.999 73c-24 0 -41.333 -11 -52 -33h-235c8 40 24.833 75.833 50.5 107.5s58 56.667 97 75s81.833 27.5 128.5 27.5c56 0 105.833 -11.667 149.5 -35zM376.999 224.002l-132 0.000976562
c0 -18.667 6 -32.834 18 -42.501s27 -14.5 45 -14.5c39.333 0 62.333 19 69 57z" />
    <glyph glyph-name="uni02BC" unicode="&#x2bc;" horiz-adv-x="378" 
d="M108 708h220l-118 -295h-146z" />
    <glyph glyph-name="circumflex" unicode="&#x2c6;" horiz-adv-x="351" 
d="M176 680l-166 -78v144l166 75l165 -75v-144z" />
    <glyph glyph-name="caron" unicode="&#x2c7;" horiz-adv-x="351" 
d="M341 677l-165 -75l-166 75v144l166 -88l165 88v-144z" />
    <glyph glyph-name="uni02C9" unicode="&#x2c9;" horiz-adv-x="451" 
d="M441 769v-147h-431v147h431z" />
    <glyph glyph-name="breve" unicode="&#x2d8;" horiz-adv-x="395" 
d="M333.5 652c-35 -34.667 -80.167 -52 -135.5 -52s-100.5 17.333 -135.5 52s-52.5 85 -52.5 151v17h103c0 -20.667 6.33301 -36.167 19 -46.5s34.667 -15.5 66 -15.5s53.333 5.16699 66 15.5s19 25.833 19 46.5h103v-17c0 -66 -17.5 -116.333 -52.5 -151z" />
    <glyph glyph-name="dotaccent" unicode="&#x2d9;" horiz-adv-x="192" 
d="M34.5 644.5c-16.333 16.333 -24.498 36.498 -24.498 60.498c0 24.667 8.16699 45.334 24.5 62.001s36.5 25 60.5 25c25.333 0 46.166 -8.16699 62.499 -24.5s24.5 -37.166 24.5 -62.499c0 -24 -8.33301 -44.167 -25 -60.5s-37.334 -24.5 -62.001 -24.5
c-24 0 -44.167 8.16699 -60.5 24.5z" />
    <glyph glyph-name="ring" unicode="&#x2da;" horiz-adv-x="283" 
d="M236 629c-25.333 -24 -56.666 -36 -93.999 -36s-68.666 12 -93.999 36s-38 56 -38 96s12.667 72 38 96s56.666 36 93.999 36s68.666 -12 93.999 -36s38 -56 38 -96s-12.667 -72 -38 -96zM175 759c-8.66699 8.66699 -19.667 13 -33 13s-24.333 -4.33301 -33 -13
s-13 -20 -13 -34s4.33301 -25.333 13 -34s19.667 -13 33 -13s24.333 4.33301 33 13s13 20 13 34s-4.33301 25.333 -13 34z" />
    <glyph glyph-name="ogonek" unicode="&#x2db;" horiz-adv-x="302" 
d="M292 0l-43 -20.999c-27.333 -13.333 -46.833 -25 -58.5 -35s-17.5 -20 -17.5 -30c0 -6 3 -11 9 -15s14.333 -6 25 -6c24.667 0 53 5.33301 85 16v-116c-35.333 -10.667 -73 -16 -113 -16c-50 0 -89.333 10.667 -118 32s-43 50.666 -43 87.999c0 35.333 14 67 42 95
s79 57 153 87l37 15z" />
    <glyph glyph-name="tilde" unicode="&#x2dc;" horiz-adv-x="458" 
d="M56.5 736.5c27 27.667 61.8301 41.499 104.497 41.499c16 0 31 -2.33301 45 -7s29 -11.334 45 -20.001c12.667 -6.66699 22.834 -11.5 30.501 -14.5s15.5 -4.5 23.5 -4.5c24.667 0 39.334 15.667 44.001 47h109c-10.667 -62 -29.5 -106.667 -56.5 -134
s-61.833 -41 -104.5 -41c-16 0 -31 2.33301 -45 7s-29 11.334 -45 20.001c-9.33301 4.66699 -18.666 8.83398 -27.999 12.501s-18 5.5 -26 5.5c-24 0 -39 -15.667 -45 -47h-108c10.667 62 29.5 106.833 56.5 134.5z" />
    <glyph glyph-name="hungarumlaut" unicode="&#x2dd;" horiz-adv-x="513" 
d="M143 601h-133l80 244h168zM366 601h-133l103 244h168z" />
    <glyph glyph-name="pi" unicode="&#x3c0;" horiz-adv-x="708" 
d="M703 564v-166h-65v-398h-222v398h-119v-398h-222v398h-65v166h693z" />
    <glyph glyph-name="dvCandrabindu" unicode="&#x901;" horiz-adv-x="0" 
d="M-127 1010c-14 -14 -31.666 -21 -52.999 -21c-20 0 -37 7.16699 -51 21.5s-21 31.5 -21 51.5s7.16699 37.167 21.5 51.5s31.166 21.5 50.499 21.5c21.333 0 39 -7.16699 53 -21.5s21 -31.5 21 -51.5c0 -20.667 -7 -38 -21 -52zM16.501 866.5
c-45 -39.667 -109.834 -59.5 -194.501 -59.5s-149.5 19.833 -194.5 59.5s-67.5 97.5 -67.5 173.5h161c0 -26.667 9.16699 -48.334 27.5 -65.001s42.833 -25 73.5 -25s54.834 8.33301 72.501 25s26.5 38.334 26.5 65.001h163c0 -76 -22.5 -133.833 -67.5 -173.5z" />
    <glyph glyph-name="dvAnusvara" unicode="&#x902;" horiz-adv-x="0" 
d="M-88.5 832c-22.333 -22 -49.5 -33 -81.5 -33c-31.333 0 -58 11 -80 33s-33 48.667 -33 80c0 32 11 59 33 81s48.667 33 80 33c32 0 59.167 -11 81.5 -33s33.5 -49 33.5 -81c0 -31.333 -11.167 -58 -33.5 -80z" />
    <glyph glyph-name="dvVisarga" unicode="&#x903;" horiz-adv-x="310" 
d="M235.5 373c-22.333 -22 -49.166 -33 -80.499 -33s-58.166 11 -80.499 33s-33.5 48.667 -33.5 80s11.167 58.166 33.5 80.499s49.166 33.5 80.499 33.5s58.166 -11.167 80.499 -33.5s33.5 -49.166 33.5 -80.499s-11.167 -58 -33.5 -80zM235.5 92
c-22.333 -22 -49.166 -33 -80.499 -33s-58.166 11 -80.499 33s-33.5 48.333 -33.5 79c0 32 11.167 59 33.5 81s49.166 33 80.499 33s58.166 -11 80.499 -33s33.5 -49 33.5 -81c0 -30.667 -11.167 -57 -33.5 -79z" />
    <glyph glyph-name="dvA" unicode="&#x905;" horiz-adv-x="847" 
d="M857 740l0.000976562 -169.003h-77v-571h-203v222h-74c-8 -49.333 -30.5 -88.166 -67.5 -116.499s-83.833 -42.5 -140.5 -42.5c-49.333 0 -92.333 9 -129 27s-65 43.333 -85 76s-30 70.334 -30 113.001h190c0 -11.333 3.5 -21.166 10.5 -29.499s17.167 -12.5 30.5 -12.5
c12.667 0 22.5 4 29.5 12s10.5 18.333 10.5 31c0 15.333 -5.33301 27.5 -16 36.5s-26.334 13.5 -47.001 13.5h-49v163h49c16.667 0 30.5 3.66699 41.5 11s16.5 18.333 16.5 33c0 12 -3.33301 21.667 -10 29s-15.334 11 -26.001 11c-11.333 0 -20.333 -3.66699 -27 -11
s-10 -16.333 -10 -27h-187c0 40.667 9.16699 77 27.5 109s44.333 56.833 78 74.5s73.167 26.5 118.5 26.5c66.667 0 119.334 -16.667 158.001 -50s58 -78.333 58 -135c0 -34.667 -8.33301 -64.5 -25 -89.5s-40 -43.833 -70 -56.5v-4c19.333 -6 35.333 -14.333 48 -25h127
v351h280z" />
    <glyph glyph-name="dvAA" unicode="&#x906;" horiz-adv-x="1181" 
d="M1192 571l-75.999 -0.00292969v-571h-204v571h-132v-571h-203v222h-74c-8 -49.333 -30.5 -88.166 -67.5 -116.499s-83.833 -42.5 -140.5 -42.5c-49.333 0 -92.333 9 -129 27s-65 43.333 -85 76s-30 70.334 -30 113.001h190c0 -11.333 3.5 -21.166 10.5 -29.499
s17.167 -12.5 30.5 -12.5c12.667 0 22.5 4 29.5 12s10.5 18.333 10.5 31c0 15.333 -5.33301 27.5 -16 36.5s-26.334 13.5 -47.001 13.5h-49v163h49c16.667 0 30.5 3.66699 41.5 11s16.5 18.333 16.5 33c0 12 -3.33301 21.667 -10 29s-15.334 11 -26.001 11
c-11.333 0 -20.333 -3.66699 -27 -11s-10 -16.333 -10 -27h-187c0 40.667 9.16699 77 27.5 109s44.333 56.833 78 74.5s73.167 26.5 118.5 26.5c66.667 0 119.334 -16.667 158.001 -50s58 -78.333 58 -135c0 -34.667 -8.33301 -64.5 -25 -89.5s-40 -43.833 -70 -56.5v-4
c19.333 -6 35.333 -14.333 48 -25h127v351h615v-169z" />
    <glyph glyph-name="dvI" unicode="&#x907;" horiz-adv-x="577" 
d="M259 378c-5.33301 -4 -8.00098 -9.66699 -8.00098 -17c0 -14.667 10.333 -22 31 -22h43c59.333 0 108.666 -14.333 147.999 -43s59 -75.667 59 -141c0 -52 -15.333 -94.333 -46 -127s-72 -49 -124 -49c-19.333 0 -37.5 2.5 -54.5 7.5s-31.167 11.167 -42.5 18.5v-94h-193
v258h183c0.666992 -14 5 -24.333 13 -31s18.667 -10 32 -10c12.667 0 22.334 3 29.001 9s10 14 10 24c0 24 -18 36 -54 36c-27.333 0 -50.333 0.666992 -69 2c-45.333 2.66699 -85 17.5 -119 44.5s-51 66.833 -51 119.5c0 54 16.833 95 50.5 123s78.167 42 133.5 42h45v43
h-287v169h601v-169h-117v-187h-191c-9.33301 0 -16.666 -2 -21.999 -6z" />
    <glyph glyph-name="dvII" unicode="&#x908;" horiz-adv-x="577" 
d="M533 802c1.33301 20 -0.834961 34.999 -6.50195 44.999s-14.167 15 -25.5 15c-13.333 0 -22.5 -4.83301 -27.5 -14.5s-7.5 -25.167 -7.5 -46.5v-61h123v-169h-117v-187h-191c-9.33301 0 -16.666 -2 -21.999 -6s-8 -9.66699 -8 -17c0 -14.667 10.333 -22 31 -22h43
c59.333 0 108.666 -14.333 147.999 -43s59 -75.667 59 -141c0 -52 -15.333 -94.333 -46 -127s-72 -49 -124 -49c-19.333 0 -37.5 2.5 -54.5 7.5s-31.167 11.167 -42.5 18.5v-94h-193v258h183c0.666992 -14 5 -24.333 13 -31s18.667 -10 32 -10c12.667 0 22.334 3 29.001 9
s10 14 10 24c0 24 -18 36 -54 36c-27.333 0 -50.333 0.666992 -69 2c-45.333 2.66699 -85 17.5 -119 44.5s-51 66.833 -51 119.5c0 54 16.833 95 50.5 123s78.167 42 133.5 42h45v43h-287v169h290v58c0 63.333 16.333 117.833 49 163.5s89.334 68.5 170.001 68.5
c72 0 126.667 -20.167 164 -60.5s54 -96.166 50 -167.499h-178z" />
    <glyph glyph-name="dvU" unicode="&#x909;" horiz-adv-x="559" 
d="M482 441c-14.667 -25.333 -34 -41.334 -58 -48.001v-3c30 -10.667 54.5 -31 73.5 -61s28.5 -65.333 28.5 -106c0 -66 -20.833 -118.833 -62.5 -158.5s-98.834 -59.5 -171.501 -59.5c-78 0 -140.667 21.167 -188 63.5s-71 101.166 -71 176.499h194c0 -18 5 -32.333 15 -43
s23.333 -16 40 -16c16 0 28.667 4.83301 38 14.5s14 22.834 14 39.501s-5.16699 30.5 -15.5 41.5s-25.166 16.5 -44.499 16.5h-69v177h39c18 0 33.167 5.5 45.5 16.5s18.5 29.5 18.5 55.5v23h-319v170h581v-170h-66v-32c0 -39.333 -7.33301 -71.666 -22 -96.999z" />
    <glyph glyph-name="dvUU" unicode="&#x90a;" horiz-adv-x="845" 
d="M482 441c-14.667 -25.333 -34 -41.334 -58 -48.001v-3h160c74 0 131.667 -16.5 173 -49.5s62 -81.833 62 -146.5c0 -52 -16.333 -95 -49 -129s-79.334 -51 -140.001 -51c-21.333 0 -43.333 2.33301 -66 7v152h29c10 0 17.667 2.5 23 7.5s8 11.833 8 20.5s-3 15.667 -9 21
s-15.333 8 -28 8h-65c0.666992 -4 1 -10.333 1 -19c0 -39.333 -9.16699 -74.5 -27.5 -105.5s-45 -55.5 -80 -73.5s-76.167 -27 -123.5 -27c-78 0 -140.667 21.167 -188 63.5s-71 101.166 -71 176.499h194c0 -18 5 -32.333 15 -43s23.333 -16 40 -16
c16 0 28.667 4.83301 38 14.5s14 22.834 14 39.501s-5.16699 30.5 -15.5 41.5s-25.166 16.5 -44.499 16.5h-69v177h39c18 0 33.167 5.5 45.5 16.5s18.5 29.5 18.5 55.5v24h-319v169h865v-169h-350v-33c0 -39.333 -7.33301 -71.666 -22 -96.999z" />
    <glyph glyph-name="dvvR" unicode="&#x90b;" horiz-adv-x="1071" 
d="M650 571l-0.00195312 -112h124c15.333 0 27.5 3.33301 36.5 10s13.5 17 13.5 31v23h174v-347h-31c-21.333 0 -37.166 -4.5 -47.499 -13.5s-15.5 -20.833 -15.5 -35.5c0 -16 6.66699 -27.833 20 -35.5s31.333 -11.5 54 -11.5c17.333 0 36.333 2.33301 57 7v-161
c-29.333 -4.66699 -57.666 -7 -84.999 -7c-72 0 -130.167 16.833 -174.5 50.5s-66.5 79.834 -66.5 138.501c0 41.333 10.167 76.166 30.5 104.499s48.5 49.833 84.5 64.5v33c-24.667 -7.33301 -51.667 -11 -81 -11h-93v-299h-187v110l-132 -110h-261v8l385 287
c-8 14 -19.333 24.833 -34 32.5s-31.667 11.5 -51 11.5c-35.333 0 -62.333 -10.333 -81 -31s-28 -47.667 -28 -81h-204c0 55.333 9.66699 104.333 29 147s47.833 76 85.5 100s83.167 36 136.5 36c64 0 115.667 -18.667 155 -56v117h-474v169h1093v-169h-432z" />
    <glyph glyph-name="dvvL" unicode="&#x90c;" horiz-adv-x="909" 
d="M744 571l0.000976562 -74.998c37.333 -18 67.333 -45.833 90 -83.5s34 -84.834 34 -141.501c0 -34.667 -5.33301 -68 -16 -100h-6c-34 0 -57.5 -4.33301 -70.5 -13s-19.5 -21.334 -19.5 -38.001c0 -14 7.33301 -24.833 22 -32.5s33.667 -11.5 57 -11.5
c22.667 0 42 2 58 6v-161c-30.667 -4 -59 -6 -85 -6c-74.667 0 -134.334 17 -179.001 51s-67 82 -67 144c0 34.667 9.66699 65.5 29 92.5s44 47.5 74 61.5v8c0 21.333 -5.16699 38 -15.5 50s-24.5 18 -42.5 18c-22 0 -38 -7.66699 -48 -23s-15 -33.333 -15 -54v-36h-168v36
c0 20.667 -5 38.667 -15 54s-26 23 -48 23c-20 0 -35.667 -6.5 -47 -19.5s-17 -30.5 -17 -52.5c0 -53.333 24.667 -80 74 -80c10.667 0 19.334 0.333008 26.001 1v-176c-10.667 -0.666992 -22.334 -1 -35.001 -1c-86.667 0 -153.667 23 -201 69s-71 109.333 -71 190
c0 56 11.333 102.5 34 139.5s52.167 64.333 88.5 82s75.5 26.5 117.5 26.5c82 0 139.667 -31.667 173 -95h4c18.667 36 48 62 88 78v69h-558v169h931v-169h-176z" />
    <glyph glyph-name="dvEcandra" unicode="&#x90d;" horiz-adv-x="653" 
d="M664 571l-71.002 0.000976562v-56c0 -71.333 -15 -126.166 -45 -164.499s-79 -57.5 -147 -57.5c-17.333 0 -38.666 1.66699 -63.999 5v182c8 -1.33301 14 -2 18 -2c13.333 0 23.333 3.66699 30 11s10 17.666 10 30.999v51h-122v-313c0 -22 5.5 -38.5 16.5 -49.5
s24.167 -16.5 39.5 -16.5s28 4.66699 38 14s15 21.666 15 36.999h199c0 -70.667 -22.667 -125.667 -68 -165s-105.666 -59 -180.999 -59c-84 0 -148.667 22.5 -194 67.5s-68 104.833 -68 179.5l-1 305h-80v169h675v-169zM523.998 869.501c-43.333 -41 -109 -61.5 -197 -61.5
s-153.667 20.5 -197 61.5s-65 98.167 -65 171.5h174c0 -26 7.16699 -46.5 21.5 -61.5s36.5 -22.5 66.5 -22.5s52.167 7.5 66.5 22.5s21.5 35.5 21.5 61.5h174c0 -73.333 -21.667 -130.5 -65 -171.5z" />
    <glyph glyph-name="dvE" unicode="&#x90f;" horiz-adv-x="653" 
d="M664 571l-71.002 0.000976562v-56c0 -71.333 -15 -126.166 -45 -164.499s-79 -57.5 -147 -57.5c-17.333 0 -38.666 1.66699 -63.999 5v182c8 -1.33301 14 -2 18 -2c13.333 0 23.333 3.66699 30 11s10 17.666 10 30.999v51h-122v-313c0 -22 5.5 -38.5 16.5 -49.5
s24.167 -16.5 39.5 -16.5s28 4.66699 38 14s15 21.666 15 36.999h199c0 -70.667 -22.667 -125.667 -68 -165s-105.666 -59 -180.999 -59c-84 0 -148.667 22.5 -194 67.5s-68 104.833 -68 179.5l-1 305h-80v169h675v-169z" />
    <glyph glyph-name="dvAI" unicode="&#x910;" horiz-adv-x="653" 
d="M664 571l-71.001 0.00195312v-56c0 -71.333 -15 -126.166 -45 -164.499s-79 -57.5 -147 -57.5c-17.333 0 -38.666 1.66699 -63.999 5v182c8 -1.33301 14 -2 18 -2c13.333 0 23.333 3.66699 30 11s10 17.666 10 30.999v51h-122v-313c0 -22 5.5 -38.5 16.5 -49.5
s24.167 -16.5 39.5 -16.5s28 4.66699 38 14s15 21.666 15 36.999h199c0 -70.667 -22.667 -125.667 -68 -165s-105.666 -59 -180.999 -59c-84 0 -148.667 22.5 -194 67.5s-68 104.833 -68 179.5l-1 305h-80v169h402c-22 32.667 -39.5 56.167 -52.5 70.5
s-27.333 24.333 -43 30s-37.5 8.5 -65.5 8.5h-59v163h56c60 -0.666992 107.5 -7.16699 142.5 -19.5s68.167 -37.333 99.5 -75s68.666 -96.834 111.999 -177.501h83v-169z" />
    <glyph glyph-name="dvOcandra" unicode="&#x911;" horiz-adv-x="1181" 
d="M1192 571l-75.999 -0.00292969v-571h-204v571h-132v-571h-203v222h-74c-8 -49.333 -30.5 -88.166 -67.5 -116.499s-83.833 -42.5 -140.5 -42.5c-49.333 0 -92.333 9 -129 27s-65 43.333 -85 76s-30 70.334 -30 113.001h190c0 -11.333 3.5 -21.166 10.5 -29.499
s17.167 -12.5 30.5 -12.5c12.667 0 22.5 4 29.5 12s10.5 18.333 10.5 31c0 15.333 -5.33301 27.5 -16 36.5s-26.334 13.5 -47.001 13.5h-49v163h49c16.667 0 30.5 3.66699 41.5 11s16.5 18.333 16.5 33c0 12 -3.33301 21.667 -10 29s-15.334 11 -26.001 11
c-11.333 0 -20.333 -3.66699 -27 -11s-10 -16.333 -10 -27h-187c0 40.667 9.16699 77 27.5 109s44.333 56.833 78 74.5s73.167 26.5 118.5 26.5c66.667 0 119.334 -16.667 158.001 -50s58 -78.333 58 -135c0 -34.667 -8.33301 -64.5 -25 -89.5s-40 -43.833 -70 -56.5v-4
c19.333 -6 35.333 -14.333 48 -25h127v351h615v-169zM1048 869.497c-43.333 -41 -109 -61.5 -197 -61.5s-153.667 20.5 -197 61.5s-65 98.167 -65 171.5h174c0 -26 7.16699 -46.5 21.5 -61.5s36.5 -22.5 66.5 -22.5s52.167 7.5 66.5 22.5s21.5 35.5 21.5 61.5h174
c0 -73.333 -21.667 -130.5 -65 -171.5z" />
    <glyph glyph-name="dvO" unicode="&#x913;" horiz-adv-x="1181" 
d="M1192 740l0.00195312 -169.002h-76v-571h-204v571h-132v-571h-203v222h-74c-8 -49.333 -30.5 -88.166 -67.5 -116.499s-83.833 -42.5 -140.5 -42.5c-49.333 0 -92.333 9 -129 27s-65 43.333 -85 76s-30 70.334 -30 113.001h190c0 -11.333 3.5 -21.166 10.5 -29.499
s17.167 -12.5 30.5 -12.5c12.667 0 22.5 4 29.5 12s10.5 18.333 10.5 31c0 15.333 -5.33301 27.5 -16 36.5s-26.334 13.5 -47.001 13.5h-49v163h49c16.667 0 30.5 3.66699 41.5 11s16.5 18.333 16.5 33c0 12 -3.33301 21.667 -10 29s-15.334 11 -26.001 11
c-11.333 0 -20.333 -3.66699 -27 -11s-10 -16.333 -10 -27h-187c0 40.667 9.16699 77 27.5 109s44.333 56.833 78 74.5s73.167 26.5 118.5 26.5c66.667 0 119.334 -16.667 158.001 -50s58 -78.333 58 -135c0 -34.667 -8.33301 -64.5 -25 -89.5s-40 -43.833 -70 -56.5v-4
c19.333 -6 35.333 -14.333 48 -25h127v351h338c-22 32.667 -39.5 56.167 -52.5 70.5s-27.333 24.333 -43 30s-37.5 8.5 -65.5 8.5h-59v163h56c60 -0.666992 107.5 -7.16699 142.5 -19.5s68.167 -37.333 99.5 -75s68.666 -96.834 111.999 -177.501h87z" />
    <glyph glyph-name="dvAU" unicode="&#x914;" horiz-adv-x="1181" 
d="M1192 740l0.00195312 -169.004h-76v-571h-204v571h-132v-571h-203v222h-74c-8 -49.333 -30.5 -88.166 -67.5 -116.499s-83.833 -42.5 -140.5 -42.5c-49.333 0 -92.333 9 -129 27s-65 43.333 -85 76s-30 70.334 -30 113.001h190c0 -11.333 3.5 -21.166 10.5 -29.499
s17.167 -12.5 30.5 -12.5c12.667 0 22.5 4 29.5 12s10.5 18.333 10.5 31c0 15.333 -5.33301 27.5 -16 36.5s-26.334 13.5 -47.001 13.5h-49v163h49c16.667 0 30.5 3.66699 41.5 11s16.5 18.333 16.5 33c0 12 -3.33301 21.667 -10 29s-15.334 11 -26.001 11
c-11.333 0 -20.333 -3.66699 -27 -11s-10 -16.333 -10 -27h-187c0 40.667 9.16699 77 27.5 109s44.333 56.833 78 74.5s73.167 26.5 118.5 26.5c66.667 0 119.334 -16.667 158.001 -50s58 -78.333 58 -135c0 -34.667 -8.33301 -64.5 -25 -89.5s-40 -43.833 -70 -56.5v-4
c19.333 -6 35.333 -14.333 48 -25h127v351h348l-35 18c-22.667 12 -39 20 -49 24s-21.167 6.5 -33.5 7.5s-35.5 1.5 -69.5 1.5h-61v125h56c34 0 58.667 -0.666992 74 -2s30 -4.66602 44 -9.99902s30 -14.333 48 -27c-18 28 -35.167 48.167 -51.5 60.5s-31.833 20 -46.5 23
s-34.334 4.5 -59.001 4.5h-65v126h60c60.667 0 106 -6.33301 136 -19s60.5 -41.667 91.5 -87s77.167 -127 138.5 -245h89z" />
    <glyph glyph-name="dvKA" unicode="&#x915;" horiz-adv-x="946" 
d="M580 571l-0.00195312 -109.997c29.333 34.667 71.333 52 126 52c42.667 0 78.834 -10.333 108.501 -31s52 -48.5 67 -83.5s22.5 -73.5 22.5 -115.5c0 -46.667 -8.66699 -87.167 -26 -121.5s-41.5 -60.5 -72.5 -78.5s-66.5 -27 -106.5 -27c-24 0 -47.667 3 -71 9v158
c4 -1.33301 9 -2 15 -2c16 0 29 5.16699 39 15.5s15 24.166 15 41.499s-4.83301 32 -14.5 44s-24.167 18 -43.5 18c-18.667 0 -33.167 -6.33301 -43.5 -19s-15.5 -30.667 -15.5 -54v-267h-196v100c-31.333 -38 -78 -57 -140 -57c-42 0 -78.167 10.167 -108.5 30.5
s-53.5 48.166 -69.5 83.499s-24 75.666 -24 120.999c0 70.667 18.333 127.5 55 170.5s88.334 64.5 155.001 64.5c58.667 0 102.667 -17.333 132 -52v110h-395v169h968v-169h-377zM364.498 232.503c13 12.333 19.5 27.834 19.5 46.501c0 18 -6.16699 32.833 -18.5 44.5
s-28.5 17.5 -48.5 17.5s-36.333 -6 -49 -18s-19 -27.333 -19 -46s6 -33.834 18 -45.501s28.333 -17.5 49 -17.5c19.333 0 35.5 6.16699 48.5 18.5z" />
    <glyph glyph-name="dvKHA" unicode="&#x916;" horiz-adv-x="977" 
d="M988 740l-0.00195312 -168.999h-76v-571h-203v125c-23.333 -20 -55.666 -30 -96.999 -30c-8 0 -18 0.666992 -30 2c-25.333 -32.667 -57.166 -58.5 -95.499 -77.5s-81.833 -28.5 -130.5 -28.5c-94 0 -167.833 26.5 -221.5 79.5s-80.5 128.5 -80.5 226.5v109h19
c46.667 0 80 9.66699 100 29s30 48.666 30 87.999v48h-214v169h999zM445.998 198.001c-15.333 32 -23.001 67 -23.001 105c0 38.667 8 73.667 24 105s38.333 56 67 74s61.334 27 98.001 27c40 0 72.333 -10.667 97 -32v94h-301v-77c0 -62 -13.5 -112.667 -40.5 -152
s-64.167 -64 -111.5 -74c1.33301 -30 11 -54.5 29 -73.5s43.333 -28.5 76 -28.5c38 0 66.333 10.667 85 32zM694.997 263.501c9.33301 9.66699 14.002 22.832 14.002 39.499c0 15.333 -4.33301 28 -13 38s-21.334 15 -38.001 15c-16 0 -29 -4.66699 -39 -14
s-15 -22.333 -15 -39c0 -17.333 5 -30.666 15 -39.999s23 -14 39 -14c15.333 0 27.666 4.83301 36.999 14.5z" />
    <glyph glyph-name="dvGA" unicode="&#x917;" horiz-adv-x="859" 
d="M870 740v-168.999h-77v-571h-204v571h-93v-198c0 -72 -19.167 -129.667 -57.5 -173s-95.833 -65 -172.5 -65c-75.333 0 -133.833 19.167 -175.5 57.5s-62.5 95.166 -62.5 170.499c0 14.667 0.333008 25.667 1 33h197v-32c0 -18 2.5 -31.833 7.5 -41.5
s13.833 -14.5 26.5 -14.5s21.167 5.16699 25.5 15.5s6.5 23.833 6.5 40.5v207h-303v169h881z" />
    <glyph glyph-name="dvGHA" unicode="&#x918;" horiz-adv-x="691" 
d="M702 571l-75 0.000976562v-571h-205v143c-38 -37.333 -90 -56 -156 -56c-38.667 0 -74 7 -106 21s-57.5 34.667 -76.5 62s-28.5 60.333 -28.5 99c0 34 8.83301 63.167 26.5 87.5s39.167 41.5 64.5 51.5v4c-25.333 8.66699 -45.333 23.667 -60 45s-22 49.666 -22 84.999
v29h-75v169h713v-169zM422 571.001l-154.001 0.00195312v-19c0 -18.667 4.5 -33 13.5 -43s24.5 -15 46.5 -15h35v-163h-51c-16 0 -28.333 -3.66699 -37 -11s-13 -17 -13 -29c0 -12.667 5 -22.334 15 -29.001s23.333 -10 40 -10c30.667 0 55.834 9.16699 75.501 27.5
s29.5 43.166 29.5 74.499v217z" />
    <glyph glyph-name="dvNGA" unicode="&#x919;" horiz-adv-x="728" 
d="M739 740l0.00195312 -169h-262v-187h-190c-9.33301 0 -16.833 -2 -22.5 -6s-8.5 -9.33301 -8.5 -16c0 -15.333 10 -23 30 -23h44c58.667 0 108 -14.333 148 -43s60 -74 60 -136c0 -57.333 -20.5 -102.333 -61.5 -135s-98.833 -49 -173.5 -49
c-74 0 -135.667 16.667 -185 50s-76 81 -80 143h203c1.33301 -15.333 7.66602 -26 18.999 -32s23.666 -9 36.999 -9c14 0 25.5 2.83301 34.5 8.5s13.5 14.167 13.5 25.5c0 23.333 -17.667 35 -53 35h-32c-52.667 0 -100.5 11.833 -143.5 35.5s-64.5 69.167 -64.5 136.5
c0 50 17 88.667 51 116s78.333 41 133 41h45v45h-292v169h750zM694.502 425.5c19.667 -19.667 29.5 -43.834 29.5 -72.501c0 -27.333 -9.83301 -50.833 -29.5 -70.5s-43.834 -29.5 -72.501 -29.5c-28 0 -51.833 9.83301 -71.5 29.5s-29.5 43.167 -29.5 70.5
c0 28.667 9.83301 52.834 29.5 72.501s43.5 29.5 71.5 29.5c28.667 0 52.834 -9.83301 72.501 -29.5z" />
    <glyph glyph-name="dvCA" unicode="&#x91a;" horiz-adv-x="765" 
d="M776 571h-77.001v-571h-204v134c-18.667 -20.667 -42 -36.167 -70 -46.5s-59 -15.5 -93 -15.5c-58.667 0 -106.667 16.5 -144 49.5s-56 77.5 -56 133.5c0 34.667 9.66699 64.334 29 89.001h-110v159h374v-159h-46c-15.333 0 -28.5 -4.33301 -39.5 -13
s-16.5 -21.334 -16.5 -38.001c0 -17.333 6.33301 -30.5 19 -39.5s29.667 -13.5 51 -13.5c34.667 0 60.334 12 77.001 36s25 58.333 25 103v192h-506v169h787v-169z" />
    <glyph glyph-name="dvCHA" unicode="&#x91b;" horiz-adv-x="828" 
d="M671 571l0.00195312 -56.999c37.333 -15.333 66.166 -40.333 86.499 -75s30.5 -76 30.5 -124c0 -60 -14.667 -112.5 -44 -157.5s-72.833 -79.833 -130.5 -104.5s-127.5 -37 -209.5 -37c-106.667 0 -191.667 18.667 -255 56s-95 93 -95 167
c0 69.333 30.333 118.666 91 147.999v4c-24.667 8 -44.334 22.667 -59.001 44s-22 50 -22 86v50h-75v169h850v-169h-168zM483.002 571.001l-215.001 -0.00195312v-41c0 -38.667 15.667 -58 47 -58h19v-162h-15c-18 0 -32.167 -4.83301 -42.5 -14.5
s-15.5 -21.834 -15.5 -36.501c0 -22 10.833 -39.167 32.5 -51.5s59.167 -18.5 112.5 -18.5c70 0 121.5 11 154.5 33s49.5 56.333 49.5 103c0 16 -2.83301 29.667 -8.5 41s-14.167 17 -25.5 17c-12 0 -21 -5.16699 -27 -15.5s-9 -23.833 -9 -40.5
c0 -21.333 3.33301 -43.666 10 -66.999h-166c-8 25.333 -12 55.333 -12 90c0 42.667 9.83301 77.834 29.5 105.501s46.834 47.834 81.501 60.501v55z" />
    <glyph glyph-name="dvJA" unicode="&#x91c;" horiz-adv-x="872" 
d="M883 571l-76 -0.000976562v-571h-204v308h-68c-2 -44.667 -13 -84.167 -33 -118.5s-48.167 -61.166 -84.5 -80.499s-78.833 -29 -127.5 -29c-82 0 -144.667 21.667 -188 65s-65 101.333 -65 174v162h205v-156c0 -44.667 16 -67 48 -67c30.667 0 46 22.333 46 67v156h267
v90h-614v169h894v-169z" />
    <glyph glyph-name="dvJHA" unicode="&#x91d;" horiz-adv-x="882" 
d="M893 571h-77v-571h-200v187h-96c4 -16.667 6 -35 6 -55c0 -45.333 -14.333 -82 -43 -110s-67.334 -42 -116.001 -42c-20.667 0 -40 2.33301 -58 7s-32.667 10.667 -44 18v-94h-192v257h183c0 -13.333 4 -23.333 12 -30s18.667 -10 32 -10c12.667 0 22.334 3 29.001 9
s10 14 10 24c0 24 -18 36 -54 36c-27.333 0 -50.333 0.666992 -69 2c-45.333 2.66699 -85 17.5 -119 44.5s-51 66.833 -51 119.5c0 54 16.833 95 50.5 123s78.167 42 133.5 42h45v43h-286v169h904v-169zM616 339l-0.000976562 232h-144v-187h-191
c-9.33301 0 -16.666 -2 -21.999 -6s-8 -9.66699 -8 -17c0 -14.667 10.333 -22 31 -22h43h291z" />
    <glyph glyph-name="dvNYA" unicode="&#x91e;" horiz-adv-x="851" 
d="M862 571l-76.001 0.00195312v-571h-204v196h-67c-14 -52.667 -41.667 -93.334 -83 -122.001s-90.666 -43 -147.999 -43c-44 0 -84 8 -120 24s-64.833 39.833 -86.5 71.5s-33.5 69.5 -35.5 113.5h192c4 -14 11 -23.833 21 -29.5s20.333 -8.5 31 -8.5
c17.333 0 31 6.66699 41 20s15 30.666 15 51.999c0 20 -5 36.833 -15 50.5s-23.667 20.5 -41 20.5c-10.667 0 -21 -2.83301 -31 -8.5s-17 -15.167 -21 -28.5h-192c2 44 13.833 81.833 35.5 113.5s50.5 55.667 86.5 72s76 24.5 120 24.5c54.667 0 102.167 -13 142.5 -39
s68.5 -63.333 84.5 -112h71v204h-593v169h873v-169z" />
    <glyph glyph-name="dvTTA" unicode="&#x91f;" horiz-adv-x="643" 
d="M274.5 326c-19 -15.333 -28.501 -36.3311 -28.501 -62.998c0 -24.667 8 -44.5 24 -59.5s38 -22.5 66 -22.5c29.333 0 52.333 8.16699 69 24.5s25 37.833 25 64.5h194c0 -53.333 -11.5 -100 -34.5 -140s-55.833 -70.833 -98.5 -92.5s-92.667 -32.5 -150 -32.5
c-58.667 0 -110.667 10.667 -156 32s-80.5 51.666 -105.5 90.999s-37.5 85 -37.5 137c0 46.667 10.333 88.5 31 125.5s50.834 66.667 90.501 89s87.167 35.166 142.5 38.499v53h-317v169h665v-169h-148v-222h-160c-28.667 0 -52.5 -7.66699 -71.5 -23z" />
    <glyph glyph-name="dvTTHA" unicode="&#x920;" horiz-adv-x="668" 
d="M433 571l-0.000976562 -49.999c57.333 -15.333 104 -43.833 140 -85.5s54 -94.834 54 -159.501c0 -52.667 -12.833 -98.5 -38.5 -137.5s-60.667 -68.667 -105 -89s-94.166 -30.5 -149.499 -30.5s-105 10.167 -149 30.5s-78.833 50 -104.5 89s-38.5 84.833 -38.5 137.5
c0 64 17.5 116.667 52.5 158s80.833 70 137.5 86v51h-243v169h690v-169h-246zM399.999 212.501c16 16.333 24.001 37.5 24.001 63.5s-7.83301 47 -23.5 63s-37.834 24 -66.501 24c-27.333 0 -49 -8 -65 -24s-24 -37 -24 -63s8 -47.167 24 -63.5s37.667 -24.5 65 -24.5
c28 0 50 8.16699 66 24.5z" />
    <glyph glyph-name="dvDDA" unicode="&#x921;" horiz-adv-x="560" 
d="M264.5 378c-5.66699 -4 -8.49805 -9.33301 -8.49805 -16c0 -15.333 10 -23 30 -23h44c58.667 0 108 -14.333 148 -43s60 -74 60 -136c0 -57.333 -20.5 -102.333 -61.5 -135s-98.833 -49 -173.5 -49c-74 0 -135.667 16.667 -185 50s-76 81 -80 143h203
c1.33301 -15.333 7.66602 -26 18.999 -32s23.666 -9 36.999 -9c14 0 25.5 2.83301 34.5 8.5s13.5 14.167 13.5 25.5c0 23.333 -17.667 35 -53 35h-32c-52.667 0 -100.5 11.833 -143.5 35.5s-64.5 69.167 -64.5 136.5c0 50 17 88.667 51 116s78.333 41 133 41h44v45h-291v169
h582v-169h-94v-187h-190c-9.33301 0 -16.833 -2 -22.5 -6z" />
    <glyph glyph-name="dvDDHA" unicode="&#x922;" horiz-adv-x="664" 
d="M283.5 356c-29.667 -24 -44.501 -57.3311 -44.501 -99.998c0 -38.667 11.333 -70 34 -94s58.667 -36 108 -36c31.333 0 56.5 5.16699 75.5 15.5s28.5 26.166 28.5 47.499c0 8.66699 -2.33301 15.5 -7 20.5s-11 7.5 -19 7.5c-7.33301 0 -13.333 -2.33301 -18 -7
s-7 -10.334 -7 -17.001c0 -5.33301 1 -10 3 -14h-143c-3.33301 16.667 -5 31 -5 43c0 44 16.167 78 48.5 102s75.833 36 130.5 36c60 0 106.667 -15.5 140 -46.5s50 -72.5 50 -124.5c0 -66.667 -24 -118 -72 -154s-117.667 -54 -209 -54c-63.333 0 -120.333 11 -171 33
s-90.667 54.333 -120 97s-44 94 -44 154c0 54.667 12.333 102 37 142s58.834 70.5 102.501 91.5s93.167 31.5 148.5 31.5h6v41h-347v169h686v-169h-148v-179h-130c-46 0 -83.833 -12 -113.5 -36z" />
    <glyph glyph-name="dvNNA" unicode="&#x923;" horiz-adv-x="921" 
d="M932 571l-77 -0.000976562v-571h-204v571h-95v-217c0 -69.333 -20.5 -125.666 -61.5 -168.999s-100.5 -65 -178.5 -65c-53.333 0 -98 10.333 -134 31s-62.833 48.667 -80.5 84s-26.5 75 -26.5 119v217h-86v169h943v-169zM356 570.999h-82.001v-236
c0 -13.333 3.83301 -24 11.5 -32s17.834 -12 30.501 -12c13.333 0 23.333 4 30 12s10 18.667 10 32v236z" />
    <glyph glyph-name="dvTA" unicode="&#x924;" horiz-adv-x="717" 
d="M728 571l-76.999 -0.00292969v-571h-204v314h-111c-26 0 -47.167 -7 -63.5 -21s-24.5 -32.333 -24.5 -55c0 -23.333 7.16699 -42.166 21.5 -56.499s36.166 -21.5 65.499 -21.5h16v-159h-49c-74.667 0 -136.667 19.667 -186 59s-74 100.333 -74 183
c0 54.667 12.833 100.334 38.5 137.001s60 63.834 103 81.501s90.5 26.5 142.5 26.5h121v83h-458v169h739v-169z" />
    <glyph glyph-name="dvTHA" unicode="&#x925;" horiz-adv-x="812" 
d="M823 740l0.000976562 -168.998h-77v-571h-204v165c-17.333 -26.667 -44.333 -48.834 -81 -66.501s-79.667 -26.5 -129 -26.5c-57.333 0 -108 11.667 -152 35s-78.333 57 -103 101s-37 96 -37 156c0 32.667 2 60.667 6 84h80c56 0 98.667 7 128 21s44 37.333 44 70
c0 10.667 -2.83301 19.5 -8.5 26.5s-12.834 10.5 -21.501 10.5c-10 0 -18 -3.33301 -24 -10s-9 -16.667 -9 -30c0 -8 1.33301 -18 4 -30h-183c-2.66699 17.333 -4 29 -4 35c0 45.333 10 83.666 30 114.999s46.5 54.666 79.5 69.999s69.167 23 108.5 23
c42.667 0 80.5 -8.66699 113.5 -26s58.833 -42.333 77.5 -75s28 -71 28 -115c0 -63.333 -20.5 -116 -61.5 -158s-103.167 -65.333 -186.5 -70c6.66699 -18 19.667 -33.333 39 -46s47 -19 83 -19c52.667 0 95.667 17.333 129 52s50 85.334 50 152.001v296h281z" />
    <glyph glyph-name="dvDA" unicode="&#x926;" horiz-adv-x="613" 
d="M272 317c-14 -12.667 -21 -29.668 -21 -51.001c0 -19.333 5.33301 -34.5 16 -45.5s25.334 -16.5 44.001 -16.5s33 5.83301 43 17.5s15 26.834 15 45.501h189v-311h-199v123c-25.333 -23.333 -61.333 -35 -108 -35c-36 0 -70 8.16699 -102 24.5s-57.833 41.5 -77.5 75.5
s-29.5 76.333 -29.5 127c0 50 11.167 92.833 33.5 128.5s53.666 63 93.999 82s86.833 28.5 139.5 28.5h15v61h-335v169h635l-1 -169h-94v-235h-198c-25.333 0 -45 -6.33301 -59 -19z" />
    <glyph glyph-name="dvDHA" unicode="&#x927;" horiz-adv-x="744" 
d="M765 571l-71.998 0.000976562v-571h-204v136c-44 -47.333 -109.667 -71 -197 -71c-42.667 0 -81.5 7.16699 -116.5 21.5s-62.833 35.5 -83.5 63.5s-31 61.667 -31 101c0 38.667 11.167 70 33.5 94s48.166 40.333 77.499 49v4c-34 11.333 -62.5 31.166 -85.5 59.499
s-34.5 64.5 -34.5 108.5c0 38 8.5 70.667 25.5 98s40.5 48.333 70.5 63s63.667 22 101 22c60 0 106.5 -16.167 139.5 -48.5s49.5 -74.833 49.5 -127.5c0 -16.667 -0.666992 -31.667 -2 -45h-149l1 18c0 10.667 -3 18.834 -9 24.501s-13.333 8.5 -22 8.5
c-10 0 -18 -3.33301 -24 -10s-9 -15.334 -9 -26.001c0 -23.333 11 -39.5 33 -48.5s47.333 -13.5 76 -13.5h62v-163h-52c-50 0 -75 -14.667 -75 -44c0 -14 6.5 -24.667 19.5 -32s32.167 -11 57.5 -11c45.333 0 80.666 13.833 105.999 41.5s38 65.167 38 112.5v355h276v-169z
" />
    <glyph glyph-name="dvNA" unicode="&#x928;" horiz-adv-x="844" 
d="M855 571h-77.0029v-571h-204v322h-91c10.667 -25.333 16 -53.666 16 -84.999c0 -43.333 -10 -79.833 -30 -109.5s-46.667 -51.834 -80 -66.501s-70 -22 -110 -22c-41.333 0 -80.166 8.83301 -116.499 26.5s-65.666 43.667 -87.999 78s-33.5 74.833 -33.5 121.5
c0 50 11.5 92 34.5 126s53.833 59.167 92.5 75.5s81.334 24.5 128.001 24.5h278v80h-585v169h866v-169zM322.497 225.5c10.333 10.333 15.5 23.833 15.5 40.5c0 16 -5.16699 29.333 -15.5 40s-23.833 16 -40.5 16s-30.5 -5.33301 -41.5 -16s-16.5 -24 -16.5 -40
c0 -16.667 5.33301 -30.167 16 -40.5s24.667 -15.5 42 -15.5c16.667 0 30.167 5.16699 40.5 15.5z" />
    <glyph glyph-name="dvPA" unicode="&#x92a;" horiz-adv-x="691" 
d="M702 571h-75.999v-571h-204v181c-34 -30 -79.333 -45 -136 -45c-48.667 0 -90.334 11.5 -125.001 34.5s-60.667 54.667 -78 95s-26 85.5 -26 135.5v170h-68v169h713v-169zM422.001 571l-161 0.000976562v-170c0 -28 6.66699 -50.667 20 -68s33 -26 59 -26
c26.667 0 47 8.66699 61 26s21 39.666 21 66.999v171z" />
    <glyph glyph-name="dvPHA" unicode="&#x92b;" horiz-adv-x="984" 
d="M610 571l0.000976562 -108.999c32.667 34 78 51 136 51c42 0 77.833 -10.167 107.5 -30.5s52.167 -47.5 67.5 -81.5s23 -71.667 23 -113c0 -48 -8.66699 -89.5 -26 -124.5s-41.5 -61.667 -72.5 -80s-66.5 -27.5 -106.5 -27.5c-28.667 0 -55 4 -79 12v155
c8 -2 15.667 -3 23 -3c17.333 0 30.666 5.5 39.999 16.5s14 24.833 14 41.5c0 17.333 -4.83301 32 -14.5 44s-24.167 18 -43.5 18c-22 0 -39 -8.16699 -51 -24.5s-18 -39.833 -18 -70.5v-245h-204v179c-32 -28.667 -74.667 -43 -128 -43c-46.667 0 -86.667 11.167 -120 33.5
s-58.5 52.666 -75.5 90.999s-25.5 81.5 -25.5 129.5v181h-68v169h1006v-169h-385zM406.001 571.001h-145v-181c0 -24.667 6 -44.667 18 -60s29.667 -23 53 -23c24 0 42.333 7.83301 55 23.5s19 35.5 19 59.5v181z" />
    <glyph glyph-name="dvBA" unicode="&#x92c;" horiz-adv-x="687" 
d="M698 740v-169h-76v-571h-196v85c-31.333 -30.667 -78 -46 -140 -46c-46.667 0 -88.5 10.667 -125.5 32s-66 50.833 -87 88.5s-31.5 80.5 -31.5 128.5c0 45.333 10.5 86 31.5 122s50 64 87 84s78.833 30 125.5 30c55.333 0 102 -11.667 140 -35v82h-437v169h709zM269 378
l166.999 -113c1.33301 9.33301 2 17 2 23c0 31.333 -10.167 57 -30.5 77s-46.166 30 -77.499 30c-22 0 -42.333 -5.66699 -61 -17zM251.499 211.5c21.667 -19.667 47.833 -29.5 78.5 -29.5c22 0 42 5.33301 60 16l-168 114c-2 -8 -3 -16 -3 -24
c0 -31.333 10.833 -56.833 32.5 -76.5z" />
    <glyph glyph-name="dvBHA" unicode="&#x92d;" horiz-adv-x="890" 
d="M901 740l-0.000976562 -169h-78v-571h-204v305h-98v-28c0 -74.667 -20.167 -133.5 -60.5 -176.5s-99.166 -64.5 -176.499 -64.5c-48 0 -90.333 9 -127 27s-65 43.5 -85 76.5s-30 71.5 -30 115.5c0 71.333 23.167 125.166 69.5 161.499s105.166 54.5 176.499 54.5h43v63
c0 28 -10.333 42 -31 42c-10 0 -17.667 -3.66699 -23 -11s-8 -16.666 -8 -27.999c0 -8.66699 1 -18 3 -28h-204c-2.66699 13.333 -4 25.333 -4 36c0 60 19.333 109 58 147s95.334 57 170.001 57c82 0 140.667 -23.167 176 -69.5s53 -107.5 53 -183.5v-25h98v269h282z
M330.999 305h-37c-19.333 0 -34.666 -4.16699 -45.999 -12.5s-17 -20.5 -17 -36.5s4.5 -28 13.5 -36s20.833 -12 35.5 -12c17.333 0 30.166 5.33301 38.499 16s12.5 24.667 12.5 42v39z" />
    <glyph glyph-name="dvMA" unicode="&#x92e;" horiz-adv-x="879" 
d="M890 571l-77 0.000976562v-571h-205v305h-94v-28c0 -74.667 -20.333 -133.5 -61 -176.5s-99.667 -64.5 -177 -64.5c-48 0 -90.167 9 -126.5 27s-64.5 43.5 -84.5 76.5s-30 71.5 -30 115.5c0 71.333 23.167 125.166 69.5 161.499s104.833 54.5 175.5 54.5h44v100h-335v169
h901v-169zM608 571.001h-94v-100h94v100zM324 305.001h-38c-18.667 0 -33.667 -4.16699 -45 -12.5s-17 -20.5 -17 -36.5s4.5 -28 13.5 -36s20.5 -12 34.5 -12c17.333 0 30.333 5.33301 39 16s13 24.667 13 42v39z" />
    <glyph glyph-name="dvYA" unicode="&#x92f;" horiz-adv-x="769" 
d="M780 571l-77 -0.000976562v-571h-204v121c-44 -38.667 -103.333 -58 -178 -58c-86.667 0 -154.167 25.333 -202.5 76s-72.5 119.334 -72.5 206.001c0 19.333 1.66699 42.333 5 69h8c52 0 86.333 11 103 33s25 53 25 93v31h-198v169h791v-169zM499 570.999
l-111 0.000976562v-69c0 -48.667 -10.5 -89.834 -31.5 -123.501s-56.5 -55.167 -106.5 -64.5c2.66699 -23.333 14.167 -42.833 34.5 -58.5s47.5 -23.5 81.5 -23.5c43.333 0 76.333 13.333 99 40s34 61 34 103v196z" />
    <glyph glyph-name="dvRA" unicode="&#x930;" horiz-adv-x="528" 
d="M426.5 355c-33 -48 -91.167 -74.333 -174.5 -79v-77c0 -23.333 9 -35 27 -35c8.66699 0 15.167 3.33301 19.5 10s6.5 15 6.5 25v33h195c0.666992 -8 1 -16.667 1 -26c0 -66 -19.167 -118.333 -57.5 -157s-91.833 -58 -160.5 -58c-49.333 0 -91.5 9.5 -126.5 28.5
s-61.5 45 -79.5 78s-27 70.167 -27 111.5v229h98c48 0 80.667 9.16699 98 27.5s26 44.833 26 79.5v26h-283v169h550v-169h-63v-26c0 -78.667 -16.5 -142 -49.5 -190z" />
    <glyph glyph-name="dvRxA" unicode="&#x931;" horiz-adv-x="528" 
d="M426.5 355c-33 -48 -91.167 -74.333 -174.5 -79v-77c0 -23.333 9 -35 27 -35c8.66699 0 15.167 3.33301 19.5 10s6.5 15 6.5 25v33h195c0.666992 -8 1 -16.667 1 -26c0 -66 -19.167 -118.333 -57.5 -157s-91.833 -58 -160.5 -58c-49.333 0 -91.5 9.5 -126.5 28.5
s-61.5 45 -79.5 78s-27 70.167 -27 111.5v229h98c48 0 80.667 9.16699 98 27.5s26 44.833 26 79.5v26h-283v169h550v-169h-63v-26c0 -78.667 -16.5 -142 -49.5 -190zM185 -213.5c-22 -21.667 -49 -32.5 -81 -32.5c-31.333 0 -58 10.833 -80 32.5s-33 48.167 -33 79.5
c0 32 11 59.167 33 81.5s48.667 33.5 80 33.5c32 0 59 -11.167 81 -33.5s33 -49.5 33 -81.5c0 -31.333 -11 -57.833 -33 -79.5z" />
    <glyph glyph-name="dvLA" unicode="&#x932;" horiz-adv-x="920" 
d="M771 571l0.000976562 -94c32.667 -19.333 58.667 -46.833 78 -82.5s29 -79.167 29 -130.5c0 -50.667 -10.667 -95.5 -32 -134.5s-52.333 -69.5 -93 -91.5s-89.667 -33 -147 -33c-12.667 0 -24.334 0.333008 -35.001 1v177l26 -2c21.333 0 39 6.83301 53 20.5
s21 33.5 21 59.5c0 22 -5.66699 39.5 -17 52.5s-27 19.5 -47 19.5c-22 0 -38 -7.66699 -48 -23s-15 -33.333 -15 -54v-29h-168v29c0 20.667 -5 38.667 -15 54s-26 23 -48 23c-20 0 -35.667 -6.5 -47 -19.5s-17 -30.5 -17 -52.5c0 -26 7 -45.833 21 -59.5
s31.667 -20.5 53 -20.5l26 2v-177c-10.667 -0.666992 -22.334 -1 -35.001 -1c-57.333 0 -106.333 11 -147 33s-71.667 52.5 -93 91.5s-32 83.833 -32 134.5c0 56 11.333 102.5 34 139.5s52.167 64.333 88.5 82s75.5 26.5 117.5 26.5c82 0 140.667 -31.333 176 -94h3
c24.667 44 61.334 72.667 110.001 86v67h-582v169h942v-169h-160z" />
    <glyph glyph-name="dvLLA" unicode="&#x933;" horiz-adv-x="938" 
d="M785 571l0.000976562 -104c34 -20 61 -47.5 81 -82.5s30 -75.5 30 -121.5c0 -48 -10.5 -90 -31.5 -126s-49.167 -63.5 -84.5 -82.5s-74.333 -28.5 -117 -28.5c-40.667 0 -77.834 8.33301 -111.501 25s-60.167 42 -79.5 76h-6c-19.333 -34 -45.833 -59.333 -79.5 -76
s-70.834 -25 -111.501 -25c-42.667 0 -81.667 9.5 -117 28.5s-63.5 46.5 -84.5 82.5s-31.5 78 -31.5 126c0 47.333 10.5 88.833 31.5 124.5s49.167 63.167 84.5 82.5s74.333 29 117 29c38 0 73.333 -7.16699 106 -21.5s61.334 -40.5 86.001 -78.5h4
c29.333 46 68.333 76 117 90v82h-599v169h960v-169h-164zM352.001 216.5c12 11.667 18 27.166 18 46.499c0 18.667 -6.16699 34 -18.5 46s-27.5 18 -45.5 18c-19.333 0 -35 -6 -47 -18s-18 -27.667 -18 -47s6 -34.666 18 -45.999s27.667 -17 47 -17
c18.667 0 34 5.83301 46 17.5zM679.001 215.999c12 11.333 18 26.667 18 46s-6 35 -18 47s-27.667 18 -47 18c-18.667 0 -34 -6 -46 -18s-18 -27.333 -18 -46c0 -19.333 6 -34.833 18 -46.5s27.333 -17.5 46 -17.5c19.333 0 35 5.66699 47 17z" />
    <glyph glyph-name="dvVA" unicode="&#x935;" horiz-adv-x="662" 
d="M673 740v-168.999h-76v-571h-199v95c-32.667 -36 -77.667 -54 -135 -54c-46.667 0 -86.667 10.667 -120 32s-58.5 50.333 -75.5 87s-25.5 78 -25.5 124c0 44 8.5 83.667 25.5 119s42.167 63.166 75.5 83.499s73.333 30.5 120 30.5c56.667 0 101.667 -17.333 135 -52v106
h-409v169h684zM376.5 225.001c14.333 14.667 21.5 33 21.5 55s-7.16699 40 -21.5 54s-32.833 21 -55.5 21c-24 0 -43.167 -7.33301 -57.5 -22s-21.5 -32.667 -21.5 -54s7.16699 -39.333 21.5 -54s33.5 -22 57.5 -22c22.667 0 41.167 7.33301 55.5 22z" />
    <glyph glyph-name="dvSHA" unicode="&#x936;" horiz-adv-x="882" 
d="M258 267l0.00195312 -45.001c0 -36 15.333 -54 46 -54c13.333 0 23.666 4.5 30.999 13.5s11 20.5 11 34.5v17h198l1 -20c0 -69.333 -21.167 -123.166 -63.5 -161.499s-99.833 -57.5 -172.5 -57.5c-79.333 0 -142 21.5 -188 64.5s-69 101.5 -69 175.5v203h135
c47.333 0 85.833 6.5 115.5 19.5s44.5 37.5 44.5 73.5c0 12.667 -2.83301 23 -8.5 31s-14.5 12 -26.5 12c-12.667 0 -22 -4.16699 -28 -12.5s-9 -19.5 -9 -33.5v-27h-203c-1.33301 14.667 -2 26 -2 34c0 41.333 9.83301 78.333 29.5 111s47.667 58.167 84 76.5
s79.166 27.5 128.499 27.5c73.333 0 132 -20.333 176 -61s66 -97.667 66 -171c0 -83.333 -27 -145.833 -81 -187.5s-123.333 -62.5 -208 -62.5h-7zM893.002 739.999v-169h-76v-571h-207v740h283z" />
    <glyph glyph-name="dvSSA" unicode="&#x937;" horiz-adv-x="710" 
d="M721 571l-77.001 0.000976562v-571h-200v169c-34 -32.667 -82.333 -49 -145 -49c-51.333 0 -95.166 12.333 -131.499 37s-63.833 58.167 -82.5 100.5s-28 90.166 -28 143.499v170h-68v169h732v-169zM443.999 571.001h-188l188 -109v109zM398.499 304.501
c15 9 26.5 21.5 34.5 37.5l-179 101v-48c0 -30 7.5 -54.833 22.5 -74.5s37.167 -29.5 66.5 -29.5c22 0 40.5 4.5 55.5 13.5z" />
    <glyph glyph-name="dvSA" unicode="&#x938;" horiz-adv-x="834" 
d="M845 571l-76.999 0.000976562v-571h-204v269h-312v-68c0 -10.667 2.66699 -19.5 8 -26.5s13.333 -10.5 24 -10.5c10 0 17.5 3.33301 22.5 10s7.5 15 7.5 25v13h196c0.666992 -7.33301 1 -15.666 1 -24.999c0 -60 -19.667 -107.667 -59 -143s-94 -53 -164 -53
c-50.667 0 -93.834 9.66699 -129.501 29s-62.667 45.666 -81 78.999s-27.5 70.666 -27.5 111.999v202h63c48 0 80.667 9.16699 98 27.5s26 44.833 26 79.5v51h-248v169h856v-169zM564.001 571.001h-123v-51c0 -32 -3.66699 -60.333 -11 -85h134v136z" />
    <glyph glyph-name="dvHA" unicode="&#x939;" horiz-adv-x="584" 
d="M283.5 381c-6.33301 -4.66699 -9.50293 -11.667 -9.50293 -21c0 -6 2 -11.667 6 -17c6.66699 0.666992 16.334 1 29.001 1c74.667 0 132.167 -17.833 172.5 -53.5s63.5 -84.5 69.5 -146.5h-195c-2 12 -7.66699 21.667 -17 29s-21 11 -35 11
c-14.667 0 -27.667 -5.66699 -39 -17s-17 -27.666 -17 -48.999c0 -22.667 5.66699 -39.667 17 -51s24.333 -17 39 -17c12.667 0 23.834 3.33301 33.501 10s15.834 15.334 18.501 26.001h195c-4 -63.333 -28.667 -113 -74 -149s-103 -54 -173 -54
c-50 0 -94.333 9.5 -133 28.5s-68.667 46.5 -90 82.5s-32 78.333 -32 127c0 37.333 7 70.166 21 98.499s34 52.166 60 71.499c-38.667 26.667 -58 63.667 -58 111c0 38 14.167 69 42.5 93s67.833 36 118.5 36h48v40h-292v169h606v-169h-120v-183h-167
c-10 0 -18.167 -2.33301 -24.5 -7z" />
    <glyph glyph-name="dvNukta" unicode="&#x93c;" horiz-adv-x="0" 
d="M-154 -302.5c-22 -21.667 -49 -32.5 -81 -32.5c-31.333 0 -58 10.833 -80 32.5s-33 48.167 -33 79.5c0 32 11 59.167 33 81.5s48.667 33.5 80 33.5c32 0 59 -11.167 81 -33.5s33 -49.5 33 -81.5c0 -31.333 -11 -57.833 -33 -79.5z" />
    <glyph glyph-name="dvAvagraha" unicode="&#x93d;" horiz-adv-x="610" 
d="M45 37l-0.00292969 170.003h237c11.333 0 19.833 1.83301 25.5 5.5s8.5 9.5 8.5 17.5c0 9.33301 -4.66699 18.5 -14 27.5s-25 21.5 -47 37.5c-29.333 21.333 -53.5 40.833 -72.5 58.5s-35.667 40.167 -50 67.5s-21.5 58.666 -21.5 93.999c0 50 16.333 88.667 49 116
s76.334 41 131.001 41h243v-171h-191c-16 0 -24 -6 -24 -18c0 -8.66699 4.5 -17.167 13.5 -25.5s24.167 -20.5 45.5 -36.5c28.667 -20.667 52.834 -39.834 72.501 -57.501s36.834 -40.334 51.501 -68.001s22 -59.834 22 -96.501c0 -51.333 -17.667 -91.166 -53 -119.499
s-80.333 -42.5 -135 -42.5h-291z" />
    <glyph glyph-name="dvmAA" unicode="&#x93e;" 
d="M66 0v571h-77v169h357v-169h-76v-571h-204z" />
    <glyph glyph-name="dvmI" unicode="&#x93f;" 
d="M742.5 1007.5c66.333 -30.333 116.335 -71.168 150.002 -122.501s50.5 -108.333 50.5 -171v-18h-204v14c0 36.667 -10.167 68.334 -30.5 95.001s-48.333 47.167 -84 61.5s-75.834 21.5 -120.501 21.5c-64 0 -117.667 -13.167 -161 -39.5s-68 -62.5 -74 -108.5h77v-169
h-76v-571h-204v571h-77v169h78c4 58.667 23.333 111.667 58 159s84.167 84.833 148.5 112.5s141.166 41.5 230.499 41.5c92.667 0 172.167 -15.167 238.5 -45.5z" />
    <glyph glyph-name="dvmII" unicode="&#x940;" 
d="M346 740v-169h-76v-571h-204v571h-77v169h83v35c0 29.333 -4.5 54.5 -13.5 75.5s-27.833 31.5 -56.5 31.5c-30.667 0 -50.667 -10.5 -60 -31.5s-14 -46.167 -14 -75.5v-79h-198v69c0 90 21.5 160.5 64.5 211.5s112.167 76.5 207.5 76.5c178.667 0 268 -96 268 -288v-25
h76z" />
    <glyph glyph-name="dvmU" unicode="&#x941;" horiz-adv-x="0" 
d="M-49.5 -309.5c-42.333 -37 -99.166 -55.501 -170.499 -55.501c-48.667 0 -93.834 8.16699 -135.501 24.5s-75.667 42.833 -102 79.5s-39.5 84.334 -39.5 143.001h180c-0.666992 -30.667 7.33301 -53.167 24 -67.5s39.334 -21.5 68.001 -21.5c22 0 38.667 4.33301 50 13
s17 21 17 37s-5.83301 28.667 -17.5 38s-28.834 14 -51.501 14h-43v157h43c79.333 0 139.333 -18.167 180 -54.5s61 -88.5 61 -156.5c0 -63.333 -21.167 -113.5 -63.5 -150.5z" />
    <glyph glyph-name="dvmUU" unicode="&#x942;" horiz-adv-x="0" 
d="M-200 -346c-38 0 -72.667 7.00098 -104 21.001s-56.5 35.5 -75.5 64.5s-28.5 64.5 -28.5 106.5c0 62.667 21.667 111.5 65 146.5s99.666 52.5 168.999 52.5c106 0 179.333 -30.167 220 -90.5s61 -135.166 61 -224.499c0 -16.667 -0.666992 -40.334 -2 -71.001h-165v77
c0 53.333 -9 93.166 -27 119.499s-48.333 39.5 -91 39.5c-18 0 -33.833 -4 -47.5 -12s-20.5 -20.667 -20.5 -38c0 -16 5.83301 -27.833 17.5 -35.5s25.834 -11.5 42.501 -11.5h23v-144h-37z" />
    <glyph glyph-name="dvmvR" unicode="&#x943;" horiz-adv-x="0" 
d="M-136 -352c-41.333 0 -80 6.66699 -116 20s-65.5 35.166 -88.5 65.499s-34.5 69.5 -34.5 117.5c0 60 20.833 107.833 62.5 143.5s99.5 53.5 173.5 53.5c34 0 58.333 -0.666992 73 -2v-136h-55c-18.667 0 -33 -4.66699 -43 -14s-15 -21.666 -15 -36.999
c0 -18 7.16699 -30.833 21.5 -38.5s32.833 -11.5 55.5 -11.5c26 0 55.667 4.66699 89 14v-157c-38.667 -12 -79.667 -18 -123 -18z" />
    <glyph glyph-name="dvmvRR" unicode="&#x944;" horiz-adv-x="0" 
d="M-24 -497.5c-25.333 -3.66699 -49.6689 -5.49609 -73.002 -5.49609c-65.333 0 -120.666 13.667 -165.999 41s-68 70 -68 128c0 31.333 9.66699 58.666 29 81.999s45 38.666 77 45.999v4c-70 16 -105 55.667 -105 119c0 31.333 8.83301 56.833 26.5 76.5
s39.5 33.667 65.5 42s52 12.5 78 12.5h94v-108h-12c-18 0 -32 -2.33301 -42 -7s-15 -13.334 -15 -26.001c0 -22 19 -33 57 -33h64v-149h-51c-22.667 0 -40.167 -2.5 -52.5 -7.5s-18.5 -14.833 -18.5 -29.5c0 -14 6.66699 -23.333 20 -28s30.333 -7 51 -7
c34.667 0 69.334 5 104.001 15v-150c-16.667 -6.66699 -37.667 -11.834 -63 -15.501z" />
    <glyph glyph-name="dvmEcandra" unicode="&#x945;" horiz-adv-x="0" 
d="M19 868.5c-43.333 -41 -109 -61.5 -197 -61.5s-153.667 20.5 -197 61.5s-65 98.167 -65 171.5h174c0 -26 7.16699 -46.5 21.5 -61.5s36.5 -22.5 66.5 -22.5s52.167 7.5 66.5 22.5s21.5 35.5 21.5 61.5h174c0 -73.333 -21.667 -130.5 -65 -171.5z" />
    <glyph glyph-name="dvmE" unicode="&#x947;" horiz-adv-x="0" 
d="M-258 735c-22.667 34.667 -40.667 59.501 -54 74.501s-28 25.333 -44 31s-38 8.5 -66 8.5h-59v163h56c60.667 -0.666992 108.5 -7.33398 143.5 -20.001s68.333 -38 100 -76s69.5 -98.333 113.5 -181h-190z" />
    <glyph glyph-name="dvmAI" unicode="&#x948;" horiz-adv-x="0" 
d="M-301 1072c30 -12.667 60.668 -42.001 92.001 -88.001s78 -128.333 140 -247h-174c-5.33301 2.66699 -19 10 -41 22c-22.667 12 -39 19.833 -49 23.5s-21.167 6 -33.5 7s-35.5 1.5 -69.5 1.5h-61v125h56c34 0 58.667 -0.666992 74 -2s30 -4.66602 44 -9.99902
s30 -14.333 48 -27c-18 28 -35.167 48.167 -51.5 60.5s-31.833 20 -46.5 23s-34.334 4.5 -59.001 4.5h-65v126h60c60.667 0 106 -6.33301 136 -19z" />
    <glyph glyph-name="dvmOcandra" unicode="&#x949;" horiz-adv-x="337" 
d="M67 0v571h-77v169h357v-169h-76v-571h-204zM365 868.5c-43.333 -41 -109 -61.5 -197 -61.5s-153.667 20.5 -197 61.5s-65 98.167 -65 171.5h174c0 -26 7.16699 -46.5 21.5 -61.5s36.5 -22.5 66.5 -22.5s52.167 7.5 66.5 22.5s21.5 35.5 21.5 61.5h174
c0 -73.333 -21.667 -130.5 -65 -171.5z" />
    <glyph glyph-name="dvmO" unicode="&#x94b;" horiz-adv-x="336" 
d="M346 740l0.000976562 -168.999h-76v-571h-204v571h-77v169h86c-22 32.667 -39.5 56.167 -52.5 70.5s-27.333 24.333 -43 30s-37.5 8.5 -65.5 8.5h-59v163h56c60 -0.666992 107.5 -7.16699 142.5 -19.5s68.167 -37.333 99.5 -75s68.666 -96.834 111.999 -177.501h81z" />
    <glyph glyph-name="dvmAU" unicode="&#x94c;" 
d="M346 740l0.000976562 -169.001h-76v-571h-204v571h-77v169h91l-35 18c-22.667 12 -39 20 -49 24s-21.167 6.5 -33.5 7.5s-35.5 1.5 -69.5 1.5h-61v125h56c34 0 58.667 -0.666992 74 -2s30 -4.66602 44 -9.99902s30 -14.333 48 -27c-18 28 -35.167 48.167 -51.5 60.5
s-31.833 20 -46.5 23s-34.334 4.5 -59.001 4.5h-65v126h60c60.667 0 106 -6.33301 136 -19s60.5 -41.667 91.5 -87s77.167 -127 138.5 -245h88z" />
    <glyph glyph-name="dvVirama" unicode="&#x94d;" horiz-adv-x="0" 
d="M-132 -289l-134 238h202l139 -238h-207z" />
    <glyph glyph-name="dvOm" unicode="&#x950;" horiz-adv-x="1082" 
d="M501.5 917.5c-14.333 14.333 -21.5 31.5 -21.5 51.5c0 20.667 7.16699 38.167 21.5 52.5s31.166 21.5 50.499 21.5c20.667 0 38 -7.16699 52 -21.5s21 -31.833 21 -52.5s-7 -38 -21 -52s-31.333 -21 -52 -21c-19.333 0 -36.166 7.16699 -50.499 21.5zM358.5 773.5
c-45 39.667 -67.5 97.5 -67.5 173.5h161c0 -26 9.16699 -47.333 27.5 -64s42.833 -25 73.5 -25s55 8.16699 73 24.5s27 37.833 27 64.5h163c0 -76 -22.667 -133.833 -68 -173.5s-110.333 -59.5 -195 -59.5s-149.5 19.833 -194.5 59.5zM964.5 617.5
c37.667 -41.667 56.5 -103.16 56.5 -184.493v-112c0 -100 -24.833 -176.833 -74.5 -230.5s-118.5 -80.5 -206.5 -80.5c-33.333 0 -68 3.33301 -104 10v168c33.333 -4 55.333 -6 66 -6c45.333 0 76.833 12.5 94.5 37.5s26.5 61.167 26.5 108.5v133c0 31.333 -12 47 -36 47
c-13.333 0 -22.833 -5.16699 -28.5 -15.5s-8.5 -24.833 -8.5 -43.5c0 -58.667 -6.83301 -105 -20.5 -139s-37 -59.333 -70 -76s-79.833 -25.334 -140.5 -26.001v-3c0 -39.333 -9.16699 -73.833 -27.5 -103.5s-43.833 -52.5 -76.5 -68.5s-70 -24 -112 -24
c-49.333 0 -92.333 9 -129 27s-64.667 43.167 -84 75.5s-29 69.833 -29 112.5h190c0 -10.667 3.5 -20.167 10.5 -28.5s16.833 -12.5 29.5 -12.5c13.333 0 23.5 4 30.5 12s10.5 18.333 10.5 31c0 15.333 -5.33301 27.666 -16 36.999s-26.334 14 -47.001 14h-49v171h49
c16.667 0 30.5 3.66699 41.5 11s16.5 18.666 16.5 33.999c0 11.333 -3.33301 20.666 -10 27.999s-15.334 11 -26.001 11c-11.333 0 -20.333 -3.5 -27 -10.5s-10 -16.167 -10 -27.5h-188c0 41.333 9.33301 78 28 110s45.334 56.833 80.001 74.5s75 26.5 121 26.5
c66.667 0 119.334 -16.833 158.001 -50.5s58 -78.834 58 -135.501c0 -34.667 -8.5 -64.834 -25.5 -90.501s-40.5 -44.834 -70.5 -57.501v-4l3 -1h55c22.667 0 40.167 2.33301 52.5 7s21.166 13 26.499 25s8 29.667 8 53c0 76.667 17.5 134 52.5 172s93.167 57 174.5 57
c80.667 0 139.834 -20.833 177.501 -62.5z" />
    <glyph glyph-name="dvKxA" unicode="&#x958;" horiz-adv-x="946" 
d="M580 571l-0.00195312 -109.997c29.333 34.667 71.333 52 126 52c42.667 0 78.834 -10.333 108.501 -31s52 -48.5 67 -83.5s22.5 -73.5 22.5 -115.5c0 -46.667 -8.66699 -87.167 -26 -121.5s-41.5 -60.5 -72.5 -78.5s-66.5 -27 -106.5 -27c-24 0 -47.667 3 -71 9v158
c4 -1.33301 9 -2 15 -2c16 0 29 5.16699 39 15.5s15 24.166 15 41.499s-4.83301 32 -14.5 44s-24.167 18 -43.5 18c-18.667 0 -33.167 -6.33301 -43.5 -19s-15.5 -30.667 -15.5 -54v-267h-196v100c-31.333 -38 -78 -57 -140 -57c-42 0 -78.167 10.167 -108.5 30.5
s-53.5 48.166 -69.5 83.499s-24 75.666 -24 120.999c0 70.667 18.333 127.5 55 170.5s88.334 64.5 155.001 64.5c58.667 0 102.667 -17.333 132 -52v110h-395v169h968v-169h-377zM364.498 232.503c13 12.333 19.5 27.834 19.5 46.501c0 18 -6.16699 32.833 -18.5 44.5
s-28.5 17.5 -48.5 17.5s-36.333 -6 -49 -18s-19 -27.333 -19 -46s6 -33.834 18 -45.501s28.333 -17.5 49 -17.5c19.333 0 35.5 6.16699 48.5 18.5zM297.998 -194.496c-22 -21.667 -49 -32.5 -81 -32.5c-31.333 0 -58 10.833 -80 32.5s-33 48.167 -33 79.5
c0 32 11 59.167 33 81.5s48.667 33.5 80 33.5c32 0 59 -11.167 81 -33.5s33 -49.5 33 -81.5c0 -31.333 -11 -57.833 -33 -79.5z" />
    <glyph glyph-name="dvKHxA" unicode="&#x959;" horiz-adv-x="977" 
d="M988 740l-0.00195312 -168.999h-76v-571h-203v125c-23.333 -20 -55.666 -30 -96.999 -30c-8 0 -18 0.666992 -30 2c-25.333 -32.667 -57.166 -58.5 -95.499 -77.5s-81.833 -28.5 -130.5 -28.5c-94 0 -167.833 26.5 -221.5 79.5s-80.5 128.5 -80.5 226.5v109h19
c46.667 0 80 9.66699 100 29s30 48.666 30 87.999v48h-214v169h999zM445.998 198.001c-15.333 32 -23.001 67 -23.001 105c0 38.667 8 73.667 24 105s38.333 56 67 74s61.334 27 98.001 27c40 0 72.333 -10.667 97 -32v94h-301v-77c0 -62 -13.5 -112.667 -40.5 -152
s-64.167 -64 -111.5 -74c1.33301 -30 11 -54.5 29 -73.5s43.333 -28.5 76 -28.5c38 0 66.333 10.667 85 32zM694.997 263.501c9.33301 9.66699 14.002 22.832 14.002 39.499c0 15.333 -4.33301 28 -13 38s-21.334 15 -38.001 15c-16 0 -29 -4.66699 -39 -14
s-15 -22.333 -15 -39c0 -17.333 5 -30.666 15 -39.999s23 -14 39 -14c15.333 0 27.666 4.83301 36.999 14.5zM410.999 -242.501c-22 -21.667 -49 -32.5 -81 -32.5c-31.333 0 -58 10.833 -80 32.5s-33 48.167 -33 79.5c0 32 11 59.167 33 81.5s48.667 33.5 80 33.5
c32 0 59 -11.167 81 -33.5s33 -49.5 33 -81.5c0 -31.333 -11 -57.833 -33 -79.5z" />
    <glyph glyph-name="dvGxA" unicode="&#x95a;" horiz-adv-x="858" 
d="M870 740v-168.999h-77v-571h-204v571h-93v-198c0 -72 -19.167 -129.667 -57.5 -173s-95.833 -65 -172.5 -65c-75.333 0 -133.833 19.167 -175.5 57.5s-62.5 95.166 -62.5 170.499c0 14.667 0.333008 25.667 1 33h197v-32c0 -18 2.5 -31.833 7.5 -41.5
s13.833 -14.5 26.5 -14.5s21.167 5.16699 25.5 15.5s6.5 23.833 6.5 40.5v207h-303v169h881zM346 -102.499c-22 -21.667 -49 -32.5 -81 -32.5c-31.333 0 -58 10.833 -80 32.5s-33 48.167 -33 79.5c0 32 11 59.167 33 81.5s48.667 33.5 80 33.5c32 0 59 -11.167 81 -33.5
s33 -49.5 33 -81.5c0 -31.333 -11 -57.833 -33 -79.5z" />
    <glyph glyph-name="dvJxA" unicode="&#x95b;" horiz-adv-x="872" 
d="M883 571l-76 -0.000976562v-571h-204v308h-68c-2 -44.667 -13 -84.167 -33 -118.5s-48.167 -61.166 -84.5 -80.499s-78.833 -29 -127.5 -29c-82 0 -144.667 21.667 -188 65s-65 101.333 -65 174v162h205v-156c0 -44.667 16 -67 48 -67c30.667 0 46 22.333 46 67v156h267
v90h-614v169h894v-169zM370 -156.501c-22 -21.667 -49 -32.5 -81 -32.5c-31.333 0 -58 10.833 -80 32.5s-33 48.167 -33 79.5c0 32 11 59.167 33 81.5s48.667 33.5 80 33.5c32 0 59 -11.167 81 -33.5s33 -49.5 33 -81.5c0 -31.333 -11 -57.833 -33 -79.5z" />
    <glyph glyph-name="dvDDxA" unicode="&#x95c;" horiz-adv-x="560" 
d="M264.5 378c-5.66699 -4 -8.49805 -9.33301 -8.49805 -16c0 -15.333 10 -23 30 -23h44c58.667 0 108 -14.333 148 -43s60 -74 60 -136c0 -57.333 -20.5 -102.333 -61.5 -135s-98.833 -49 -173.5 -49c-74 0 -135.667 16.667 -185 50s-76 81 -80 143h203
c1.33301 -15.333 7.66602 -26 18.999 -32s23.666 -9 36.999 -9c14 0 25.5 2.83301 34.5 8.5s13.5 14.167 13.5 25.5c0 23.333 -17.667 35 -53 35h-32c-52.667 0 -100.5 11.833 -143.5 35.5s-64.5 69.167 -64.5 136.5c0 50 17 88.667 51 116s78.333 41 133 41h44v45h-291v169
h582v-169h-94v-187h-190c-9.33301 0 -16.833 -2 -22.5 -6zM384.002 -260.5c-22 -21.667 -49 -32.5 -81 -32.5c-31.333 0 -58 10.833 -80 32.5s-33 48.167 -33 79.5c0 32 11 59.167 33 81.5s48.667 33.5 80 33.5c32 0 59 -11.167 81 -33.5s33 -49.5 33 -81.5
c0 -31.333 -11 -57.833 -33 -79.5z" />
    <glyph glyph-name="dvDDHxA" unicode="&#x95d;" horiz-adv-x="664" 
d="M283.5 356c-29.667 -24 -44.501 -57.3311 -44.501 -99.998c0 -38.667 11.333 -70 34 -94s58.667 -36 108 -36c31.333 0 56.5 5.16699 75.5 15.5s28.5 26.166 28.5 47.499c0 8.66699 -2.33301 15.5 -7 20.5s-11 7.5 -19 7.5c-7.33301 0 -13.333 -2.33301 -18 -7
s-7 -10.334 -7 -17.001c0 -5.33301 1 -10 3 -14h-143c-3.33301 16.667 -5 31 -5 43c0 44 16.167 78 48.5 102s75.833 36 130.5 36c60 0 106.667 -15.5 140 -46.5s50 -72.5 50 -124.5c0 -66.667 -24 -118 -72 -154s-117.667 -54 -209 -54c-63.333 0 -120.333 11 -171 33
s-90.667 54.333 -120 97s-44 94 -44 154c0 54.667 12.333 102 37 142s58.834 70.5 102.501 91.5s93.167 31.5 148.5 31.5h6v41h-347v169h686v-169h-148v-179h-130c-46 0 -83.833 -12 -113.5 -36zM440.999 -254.498c-22 -21.667 -49 -32.5 -81 -32.5
c-31.333 0 -58 10.833 -80 32.5s-33 48.167 -33 79.5c0 32 11 59.167 33 81.5s48.667 33.5 80 33.5c32 0 59 -11.167 81 -33.5s33 -49.5 33 -81.5c0 -31.333 -11 -57.833 -33 -79.5z" />
    <glyph glyph-name="dvPHxA" unicode="&#x95e;" horiz-adv-x="984" 
d="M610 571l0.000976562 -108.999c32.667 34 78 51 136 51c42 0 77.833 -10.167 107.5 -30.5s52.167 -47.5 67.5 -81.5s23 -71.667 23 -113c0 -48 -8.66699 -89.5 -26 -124.5s-41.5 -61.667 -72.5 -80s-66.5 -27.5 -106.5 -27.5c-28.667 0 -55 4 -79 12v155
c8 -2 15.667 -3 23 -3c17.333 0 30.666 5.5 39.999 16.5s14 24.833 14 41.5c0 17.333 -4.83301 32 -14.5 44s-24.167 18 -43.5 18c-22 0 -39 -8.16699 -51 -24.5s-18 -39.833 -18 -70.5v-245h-204v179c-32 -28.667 -74.667 -43 -128 -43c-46.667 0 -86.667 11.167 -120 33.5
s-58.5 52.666 -75.5 90.999s-25.5 81.5 -25.5 129.5v181h-68v169h1006v-169h-385zM406.001 571.001h-145v-181c0 -24.667 6 -44.667 18 -60s29.667 -23 53 -23c24 0 42.333 7.83301 55 23.5s19 35.5 19 59.5v181zM287.001 -94.499c-22 -21.667 -49 -32.5 -81 -32.5
c-31.333 0 -58 10.833 -80 32.5s-33 48.167 -33 79.5c0 32 11 59.167 33 81.5s48.667 33.5 80 33.5c32 0 59 -11.167 81 -33.5s33 -49.5 33 -81.5c0 -31.333 -11 -57.833 -33 -79.5z" />
    <glyph glyph-name="dvvRR" unicode="&#x960;" horiz-adv-x="1071" 
d="M650 571l-0.000976562 -111.995h124c15.333 0 27.5 3.33301 36.5 10s13.5 17 13.5 31v23h174v-352h-33c-18 0 -32 -2.33301 -42 -7s-15 -13.334 -15 -26.001c0 -21.333 19 -32 57 -32h64v-150h-52c-22 0 -39.167 -2.33301 -51.5 -7s-18.5 -14.334 -18.5 -29.001
s6.66699 -24.334 20 -29.001s30.333 -7 51 -7c34.667 0 69.334 5 104.001 15v-149c-16.667 -7.33301 -37.5 -12.833 -62.5 -16.5s-49.5 -5.5 -73.5 -5.5c-64.667 0 -119.834 13.833 -165.501 41.5s-68.5 70.5 -68.5 128.5c0 31.333 9.66699 58.666 29 81.999
s45 38.666 77 45.999v4c-31.333 6.66699 -56.666 19.5 -75.999 38.5s-29 45.833 -29 80.5c0 34 10.5 61.167 31.5 81.5s47.5 34.5 79.5 42.5v37c-24.667 -7.33301 -51.667 -11 -81 -11h-93v-299h-187v110l-132 -110h-261v8l385 287c-8 14 -19.333 24.833 -34 32.5
s-31.667 11.5 -51 11.5c-35.333 0 -62.333 -10.333 -81 -31s-28 -47.667 -28 -81h-204c0 55.333 9.66699 104.333 29 147s47.833 76 85.5 100s83.167 36 136.5 36c64 0 115.667 -18.667 155 -56v117h-474v169h1096v-169h-435z" />
    </font>
</defs>
</svg>
