<?xml version="1.0" standalone="no"?>
<!DOCTYPE svg PUBLIC "-//W3C//DTD SVG 1.1//EN" "http://www.w3.org/Graphics/SVG/1.1/DTD/svg11.dtd" >
<svg xmlns="http://www.w3.org/2000/svg" xmlns:xlink="http://www.w3.org/1999/xlink" version="1.1">
<metadata>
Created by FontForge 20201107 at Sun Jan 19 07:09:39 2020
 By Jimmy Wärting
Copyright (c) 2020 Amorepacific. All rights reserved.
</metadata>
<defs>
<font id="APHQHangeul-Bold" horiz-adv-x="1000" >
  <font-face 
    font-family="APHQ Hangeul"
    font-weight="700"
    font-stretch="normal"
    units-per-em="1000"
    panose-1="2 0 8 0 0 0 0 0 0 0"
    ascent="800"
    descent="-200"
    x-height="430"
    cap-height="709"
    bbox="-680 -261 1079 982"
    underline-thickness="50"
    underline-position="-100"
    unicode-range="U+000D-FFE5"
  />
<missing-glyph horiz-adv-x="940" 
d="M470 -156q-96 0 -176.5 33t-139 91.5t-91.5 139t-33 176.5t33 176.5t91.5 139t139 91t176.5 32.5t176.5 -32.5t139 -91t91.5 -139t33 -176.5t-33 -176.5t-91.5 -139t-139 -91.5t-176.5 -33zM480 185q0 15 1.5 26t5.5 20.5t12 18.5t21 21l43 39q28 26 43.5 55t15.5 61
q0 33 -11.5 60.5t-31.5 47.5t-48 31.5t-61 11.5t-61 -11.5t-48 -31.5t-31.5 -47.5t-11.5 -60.5t14.5 -61.5t38.5 -49.5l33 34q-36 34 -36 77q0 45 28.5 74t73.5 29q44 0 73 -29.5t29 -73.5q0 -43 -40 -80l-44 -37q-17 -15 -28 -28t-18 -27.5t-9.5 -31t-2.5 -37.5v-47h50v47z
M456 -10q16 0 27 11t11 27t-11 27t-27 11q-15 0 -26 -11.5t-11 -26.5q0 -16 11 -27t26 -11z" />
    <glyph glyph-name=".notdef" horiz-adv-x="940" 
d="M470 -156q-96 0 -176.5 33t-139 91.5t-91.5 139t-33 176.5t33 176.5t91.5 139t139 91t176.5 32.5t176.5 -32.5t139 -91t91.5 -139t33 -176.5t-33 -176.5t-91.5 -139t-139 -91.5t-176.5 -33zM480 185q0 15 1.5 26t5.5 20.5t12 18.5t21 21l43 39q28 26 43.5 55t15.5 61
q0 33 -11.5 60.5t-31.5 47.5t-48 31.5t-61 11.5t-61 -11.5t-48 -31.5t-31.5 -47.5t-11.5 -60.5t14.5 -61.5t38.5 -49.5l33 34q-36 34 -36 77q0 45 28.5 74t73.5 29q44 0 73 -29.5t29 -73.5q0 -43 -40 -80l-44 -37q-17 -15 -28 -28t-18 -27.5t-9.5 -31t-2.5 -37.5v-47h50v47z
M456 -10q16 0 27 11t11 27t-11 27t-27 11q-15 0 -26 -11.5t-11 -26.5q0 -16 11 -27t26 -11z" />
    <glyph glyph-name=".null" horiz-adv-x="0" 
 />
    <glyph glyph-name=".null" horiz-adv-x="0" 
 />
    <glyph glyph-name="nonmarkingreturn" unicode="&#xd;" horiz-adv-x="229" 
 />
    <glyph glyph-name="cid1" unicode=" " horiz-adv-x="229" 
 />
    <glyph glyph-name="cid1" unicode="&#xa0;" horiz-adv-x="229" 
 />
    <glyph glyph-name="cid2" unicode="!" horiz-adv-x="258" 
d="M160 173h-62v536h62v-536zM129 -12q-20 0 -33.5 13.5t-13.5 33.5q0 19 14 33t33 14q20 0 33.5 -13.5t13.5 -33.5t-13.5 -33.5t-33.5 -13.5z" />
    <glyph glyph-name="cid3" unicode="&#x22;" horiz-adv-x="280" 
d="M100 509h-60v200h60v-200zM240 509h-60v200h60v-200z" />
    <glyph glyph-name="cid4" unicode="#" horiz-adv-x="658" 
d="M592 256v-62h-125l-28 -194h-63l28 194h-197l-27 -194h-65l28 194h-107v62h116l27 190h-113v62h122l29 201h63l-28 -201h197l29 201h63l-29 -201h110v-62h-119l-27 -190h116zM216 256h197l27 190h-197z" />
    <glyph glyph-name="cid5" unicode="$" horiz-adv-x="507" 
d="M477 207q0 -57 -24 -103q-25 -48 -68.5 -77.5t-98.5 -36.5v-84h-63v83q-94 8 -148.5 65.5t-54.5 150.5h62q0 -64 37.5 -105.5t103.5 -49.5v318l-13 3q-73 19 -109.5 64t-36.5 106q0 34 12 64.5t33 54t50 39t64 20.5v84h63v-84q70 -9 111 -56t41 -122h-61
q-2 46 -25.5 76.5t-65.5 39.5v-242l9 -2q90 -23 136 -77t46 -129zM126 541q0 -79 97 -109v226q-43 -9 -70 -40.5t-27 -76.5zM286 51q28 6 52 20t41 34t26.5 46t9.5 56q0 49 -34 87.5t-95 56.5v-300z" />
    <glyph glyph-name="cid6" unicode="%" horiz-adv-x="732" 
d="M189 389q-45 0 -83 23t-60.5 60.5t-22.5 82.5t23 83t60.5 60.5t82.5 22.5q46 0 83 -22q38 -23 60.5 -61t22.5 -83q0 -46 -22 -83q-23 -38 -61 -60.5t-83 -22.5zM189 451q45 0 74.5 29.5t29.5 74.5t-29.5 74.5t-74.5 29.5t-74.5 -29.5t-29.5 -74.5q0 -21 8 -40t22.5 -33.5
t33.5 -22.5t40 -8zM543 -12q-47 0 -84 22q-38 21 -60 58.5t-22 85.5q0 47 23 85t60.5 59.5t82.5 21.5q46 0 83 -22q38 -23 60.5 -61t22.5 -83q0 -46 -22 -83q-23 -38 -61 -60.5t-83 -22.5zM543 50q22 0 41 8t33 22.5t22 33.5t8 40q0 45 -29.5 74.5t-74.5 29.5t-74.5 -29.5
t-29.5 -74.5q0 -21 8 -40t22.5 -33.5t33.5 -22.5t40 -8zM541 721l56 -33l-418 -700l-57 33z" />
    <glyph glyph-name="cid7" unicode="&#x26;" horiz-adv-x="602" 
d="M461 92l-10 -11q-89 -93 -199 -93q-60 0 -107 25q-48 24 -75.5 66.5t-27.5 96.5q0 34 9 64t24.5 55.5t36 46t42.5 35.5l43 31q-34 42 -54 80.5t-20 84.5q0 41 20 76q20 33 53.5 52.5t75.5 19.5q41 0 76 -18q34 -19 53.5 -51t19.5 -71q0 -87 -102 -160l-34 -25l179 -214
l74 76l40 -44l-75 -78l94 -109l-46 -39zM269 661q-36 0 -60 -25t-24 -63q0 -18 3 -32.5t10.5 -29.5t19.5 -32t30 -38l32 23q79 55 79 117q0 34 -26 57t-64 23zM250 48q86 0 156 73l16 17l-189 226l-42 -31q-42 -30 -64.5 -67t-22.5 -89q0 -37 19 -65q19 -30 52 -47t75 -17z
" />
    <glyph glyph-name="cid8" unicode="'" horiz-adv-x="140" 
d="M100 509h-60v200h60v-200z" />
    <glyph glyph-name="cid9" unicode="(" horiz-adv-x="282" 
d="M221 -185q-96 106 -141 234t-45 276t45.5 273t140.5 237l46 -40q-89 -107 -129.5 -220t-40.5 -250q0 -138 40.5 -254t129.5 -216l-46 -40v0z" />
    <glyph glyph-name="cid10" unicode=")" horiz-adv-x="282" 
d="M15 -145q89 100 129.5 216t40.5 254q0 137 -41 250t-129 220l46 40q95 -112 140.5 -237t45.5 -273t-45 -276t-141 -234l-46 40v0z" />
    <glyph glyph-name="cid11" unicode="*" horiz-adv-x="483" 
d="M34 536l20 58l157 -49v164h62v-164l156 49l20 -59l-156 -51l96 -132l-51 -37l-97 133l-96 -133l-52 37l97 133z" />
    <glyph glyph-name="cid12" unicode="+" horiz-adv-x="600" 
d="M331 285v-228h-62v228h-219v62h219v227h62v-227h219v-62h-219z" />
    <glyph glyph-name="cid13" unicode="," horiz-adv-x="178" 
d="M131 85l-28 -186l-63 10l28 185z" />
    <glyph glyph-name="cid14" unicode="-" horiz-adv-x="470" 
d="M408 285h-346v62h346v-62z" />
    <glyph glyph-name="cid15" unicode="." horiz-adv-x="182" 
d="M91 -32q-19 0 -32 13t-13 32q0 18 13.5 31.5t31.5 13.5q19 0 32 -13t13 -32t-13 -32t-32 -13z" />
    <glyph glyph-name="cid16" unicode="/" horiz-adv-x="536" 
d="M522 700l-456 -803l-52 31l455 802z" />
    <glyph glyph-name="cid17" unicode="0" horiz-adv-x="532" 
d="M266 -11q-48 0 -86 26.5t-65 74.5t-41 115.5t-14 149.5q0 89 16 160t50 122l41 -47q-23 -45 -34 -108.5t-11 -126.5q0 -66 9.5 -122t28 -97t45 -64t61.5 -23q34 0 61 23t45.5 64t28 97t9.5 122t-9.5 122t-28 97t-45.5 64t-61 23q-7 0 -13.5 -1t-8.5 -2l-25 55q11 4 22 6
t25 2q48 0 86 -26.5t65 -74.5t41 -115.5t14 -149.5t-14 -149.5t-41 -115.5t-65 -74.5t-86 -26.5z" />
    <glyph glyph-name="cid18" unicode="1" horiz-adv-x="429" 
d="M329 675l-270 -237l-39 45l269 236zM321 0h-62v520h62v-520z" />
    <glyph glyph-name="cid19" unicode="2" horiz-adv-x="554" 
d="M357 441q20 25 31.5 47.5t11.5 49.5q0 26 -9.5 48.5t-26.5 39t-39.5 26t-49.5 9.5t-49.5 -9t-39 -25t-26 -38t-9.5 -47q0 -35 14.5 -60t37.5 -45l-42 -42q-32 24 -52 62t-20 85q0 38 14 71t39 57t59 37.5t74 13.5t74.5 -14t59.5 -38.5t39 -58t14 -72.5q0 -29 -12.5 -63.5
t-41.5 -69.5l-201 -254l-49 38zM489 0h-412v60h412v-60z" />
    <glyph glyph-name="cid20" unicode="3" horiz-adv-x="570" 
d="M102 709h346v-59h-346v59zM296 452q47 -4 87 -22t69 -47.5t45.5 -68t16.5 -83.5q0 -52 -18 -96t-50 -76.5t-75.5 -50.5t-94.5 -18q-53 0 -96 18t-73 51t-46.5 79.5t-16.5 104.5h62q0 -89 46 -141.5t124 -52.5q38 0 70 14t55.5 38t37 57.5t13.5 72.5q0 35 -13.5 65
t-37.5 51.5t-57 34t-71 12.5q-19 0 -35 -3.5t-35 -9.5v57l116 135l46 -40z" />
    <glyph glyph-name="cid21" unicode="4" horiz-adv-x="580" 
d="M297 719l49 -38l-181 -239l-50 36zM378 0h-62v300h-269v60h269v160h62v-160h171v-60h-171v-300z" />
    <glyph glyph-name="cid22" unicode="5" horiz-adv-x="567" 
d="M166 709h248v-60h-248v60zM288 454q48 0 88.5 -17.5t70.5 -48.5t47 -73.5t17 -91.5q0 -50 -17.5 -93t-48.5 -74.5t-73.5 -49t-92.5 -17.5q-53 0 -96 16.5t-73.5 46.5t-47 72.5t-16.5 95.5h62q0 -78 46.5 -125t124.5 -47q36 0 67.5 13.5t54 36.5t35.5 55t13 70
q0 37 -12 68.5t-34 54.5t-51.5 36t-63.5 13q-36 0 -65 -7.5t-60 -21.5v191h60v-112q13 5 30 7t35 2z" />
    <glyph glyph-name="cid23" unicode="6" horiz-adv-x="580" 
d="M358 685l-159 -218l-50 37l159 217zM296 -12q-48 0 -88.5 17t-70 47t-46.5 71t-17 89q0 47 17 87.5t46.5 70t70 46.5t88.5 17t88.5 -17t70 -46.5t46.5 -70t17 -87.5q0 -48 -17 -89t-46.5 -71t-70 -47t-88.5 -17zM296 47q34 0 63.5 12.5t51 34.5t33.5 52t12 65t-12 65
t-33.5 51.5t-51 34t-63.5 12.5t-63.5 -12.5t-51 -34t-33.5 -51.5t-12 -65t12 -65t33.5 -52t51 -34.5t63.5 -12.5z" />
    <glyph glyph-name="cid24" unicode="7" horiz-adv-x="520" 
d="M464 649h-377v60h377v-60zM415 532l-271 -544l-56 27l271 544z" />
    <glyph glyph-name="cid25" unicode="8" horiz-adv-x="600" 
d="M405 429q58 -29 94 -81.5t36 -126.5q0 -43 -13.5 -81t-37.5 -68.5t-58 -51t-75 -27.5l-5 60q27 6 50 20.5t40 36t27 49.5t10 62q0 37 -13 68.5t-36.5 55t-55 36.5t-68.5 13t-68.5 -13t-55 -36.5t-36.5 -55t-13 -68.5q0 -35 10.5 -63t28.5 -49t42 -35.5t50 -21.5l-4 -60
q-42 7 -76.5 27.5t-59.5 51t-39 69t-14 81.5q0 74 36 126.5t94 81.5q-28 22 -45 54t-17 74q0 28 9 54t25.5 46.5t38.5 35.5t48 22l4 -62q-27 -12 -45.5 -37t-18.5 -59q0 -45 30 -75t76 -30t76 30t30 75q0 35 -18 60t-42 35l3 62q52 -14 85 -57t33 -100q0 -42 -17 -74
t-45 -54z" />
    <glyph glyph-name="cid26" unicode="9" horiz-adv-x="520" 
d="M254 339q-41 0 -76.5 14.5t-61.5 40t-40.5 60.5t-14.5 76t14.5 76t40.5 60.5t61.5 40t76.5 14.5t76.5 -14.5t61.5 -40t40.5 -60.5t14.5 -76t-14.5 -76t-40.5 -60.5t-61.5 -40t-76.5 -14.5zM254 398q28 0 52 10t41.5 28t27.5 42t10 52t-10 52t-27.5 42t-41.5 28t-52 10
t-52 -10t-41.5 -28t-27.5 -42t-10 -52t10 -52t27.5 -42t41.5 -28t52 -10zM383 261l-155 -273l-55 29l156 275z" />
    <glyph glyph-name="cid27" unicode=":" horiz-adv-x="182" 
d="M91 450q-19 0 -32 13t-13 32q0 18 13.5 31.5t31.5 13.5q19 0 32 -13t13 -32t-13 -32t-32 -13zM91 98q-19 0 -32 13t-13 32q0 18 13.5 31.5t31.5 13.5q19 0 32 -13t13 -32t-13 -32t-32 -13z" />
    <glyph glyph-name="cid28" unicode=";" horiz-adv-x="193" 
d="M102 450q-19 0 -32 13t-13 32q0 18 13.5 31.5t31.5 13.5q19 0 32 -13t13 -32t-13 -32t-32 -13zM131 217l-28 -186l-63 10l28 185z" />
    <glyph glyph-name="cid29" unicode="&#x3c;" horiz-adv-x="600" 
d="M481 31l-44 -45l-331 330l330 330l45 -44l-286 -286z" />
    <glyph glyph-name="cid30" unicode="=" horiz-adv-x="600" 
d="M550 429v-62h-500v62h500zM550 265v-62h-500v62h500z" />
    <glyph glyph-name="cid31" unicode="&#x3e;" horiz-adv-x="600" 
d="M163 -14l-44 45l286 285l-286 286l45 44l330 -330z" />
    <glyph glyph-name="cid32" unicode="?" horiz-adv-x="435" 
d="M170 231q0 27 3.5 47.5t11.5 38.5t22.5 34.5t35.5 34.5l54 47q51 45 51 99q0 27 -9.5 51t-27 41t-41 27t-50.5 10q-56 0 -92 -36t-36 -93q0 -27 12 -51t34 -45l-42 -42q-30 26 -48 61.5t-18 76.5t14 75.5t39.5 60t60.5 39.5t76 14t76 -14t60.5 -39.5t39.5 -60t14 -75.5
q0 -40 -19.5 -76t-54.5 -68l-54 -49q-16 -15 -26 -26t-15 -23t-7 -26t-2 -33v-58h-62v58zM203 -12q-20 0 -33.5 13.5t-13.5 33.5q0 19 14 33t33 14q20 0 33.5 -13.5t13.5 -33.5t-13.5 -33.5t-33.5 -13.5z" />
    <glyph glyph-name="cid33" unicode="@" horiz-adv-x="812" 
d="M566 247q-3 -32 10 -52.5t35 -20.5q48 0 75 50t27 144q0 82 -37 149t-101.5 105.5t-145.5 38.5q-89 0 -161 -45q-73 -46 -114 -125.5t-41 -178.5q0 -100 36 -173q35 -75 99.5 -115.5t152.5 -40.5q33 0 60.5 2.5t53 8.5t51 16t53.5 25l28 -54q-31 -16 -60 -27t-58 -18
t-60.5 -10t-67.5 -3q-105 0 -184 48q-80 48 -123 135.5t-43 205.5q0 114 50 209q50 94 135 147t193 53q98 0 177 -46t124 -126.5t45 -180.5q0 -120 -43.5 -187t-119.5 -67q-64 0 -92 57q-23 -27 -56 -42t-68 -15q-75 0 -117 48t-42 133q0 62 24 112q23 51 65 78.5t94 27.5
q29 0 56.5 -10.5t47.5 -30.5l2 31l61 -5zM396 174q21 0 40.5 8.5t35 24t25 36t11.5 44.5l5 54q4 51 -21.5 81.5t-71.5 30.5q-27 0 -49 -12t-38 -33t-25 -50t-9 -63q0 -121 97 -121z" />
    <glyph glyph-name="cid34" unicode="A" horiz-adv-x="606" 
d="M327 347v-60h-148l-107 -297l-57 22l254 708l58 -20l-127 -353h127zM339 540l57 23l195 -552l-57 -23z" />
    <glyph glyph-name="cid35" unicode="B" horiz-adv-x="522" 
d="M333 400q77 -19 115.5 -70.5t38.5 -125.5q0 -47 -16.5 -85t-47.5 -64.5t-75 -40.5t-99 -14h-10v60h10q82 0 129 38.5t47 103.5q0 73 -47 111t-134 38h-100v-351h-62v709h92q49 0 89.5 -12.5t69 -35.5t44 -56.5t15.5 -76.5q0 -44 -17 -77.5t-42 -50.5zM214 411
q55 0 85.5 27t30.5 90q0 58 -42 89.5t-114 31.5h-30v-238h70z" />
    <glyph glyph-name="cid36" unicode="C" horiz-adv-x="694" 
d="M593 530q-30 60 -88 95.5t-132 35.5q-58 0 -105 -22l-30 53q33 16 68 22.5t67 6.5q49 0 94 -13.5t83 -38.5t67 -60.5t45 -78.5h-69zM373 -12q-71 0 -132 27t-105.5 75t-70 113t-25.5 142q0 76 22 141t61 115l42 -46q-30 -38 -46.5 -89t-16.5 -111q0 -66 20.5 -122t57 -97
t86 -64.5t107.5 -23.5q74 0 132 35.5t90 95.5h69q-18 -42 -46.5 -77t-66 -60.5t-83 -39.5t-95.5 -14z" />
    <glyph glyph-name="cid37" unicode="D" horiz-adv-x="585" 
d="M192 709q80 0 145.5 -25.5t111.5 -72t71 -112.5t25 -147q0 -80 -23 -145t-65.5 -111t-103 -71t-134.5 -25h-2v60h2q60 0 108.5 20.5t83 59t53.5 92.5t19 120q0 67 -20.5 122t-58.5 94t-92 60t-120 21h-48v-649h-62v709h110v0z" />
    <glyph glyph-name="cid38" unicode="E" horiz-adv-x="486" 
d="M82 0v709h62v-310h263v-60h-263v-279h289v-60h-351zM232 709h196v-60h-196v60z" />
    <glyph glyph-name="cid39" unicode="F" horiz-adv-x="459" 
d="M387 337h-243v-337h-62v709h62v-312h243v-60zM232 649v60h189v-60h-189z" />
    <glyph glyph-name="cid40" unicode="G" horiz-adv-x="740" 
d="M593 530q-30 60 -88 95.5t-132 35.5q-58 0 -105 -22l-30 53q33 16 68 22.5t67 6.5q49 0 94 -13.5t83 -38.5t67 -60.5t45 -78.5h-69zM373 -12q-71 0 -132 27t-105.5 75t-70 113t-25.5 142q0 76 22 141t61 115l42 -46q-31 -38 -47 -89t-16 -111q0 -66 20.5 -122t57 -97
t86 -64.5t107.5 -23.5q85 0 144 39l32 -50q-36 -24 -81.5 -36.5t-94.5 -12.5zM504 320h-224v60h224v-60zM675 0h-62v380h62v-380z" />
    <glyph glyph-name="cid41" unicode="H" horiz-adv-x="696" 
d="M453 340h-309v-340h-62v709h62v-309h309v-60zM552 0v709h62v-709h-62z" />
    <glyph glyph-name="cid42" unicode="I" horiz-adv-x="226" 
d="M144 0h-62v709h62v-709z" />
    <glyph glyph-name="cid43" unicode="J" horiz-adv-x="467" 
d="M203 -11q-85 0 -134 54t-52 144h62q3 -63 35 -100.5t89 -37.5q58 0 92.5 37t34.5 100v523h62v-519q0 -46 -13.5 -83t-38 -63.5t-59.5 -40.5t-78 -14zM228 649h-166v60h166v-60z" />
    <glyph glyph-name="cid44" unicode="K" horiz-adv-x="520" 
d="M82 0v709h62v-381l305 382l46 -41l-351 -439v-230h-62zM249 220l44 43l207 -224l-44 -43z" />
    <glyph glyph-name="cid45" unicode="L" horiz-adv-x="426" 
d="M144 0h-62v709h62v-709zM396 0h-158v60h158v-60z" />
    <glyph glyph-name="cid46" unicode="M" horiz-adv-x="839" 
d="M403 190l-195 422l-118 -620l-60 12l134 705h66l227 -491zM523 384l-56 23l124 302h65l153 -706l-60 -12l-134 617z" />
    <glyph glyph-name="cid47" unicode="N" horiz-adv-x="683" 
d="M535 0l-453 685l51 34l406 -615v605h62v-709h-66zM149 0h-62v441h62v-441z" />
    <glyph glyph-name="cid48" unicode="O" horiz-adv-x="746" 
d="M373 -12q-71 0 -132 27t-105.5 75t-70 113t-25.5 142q0 76 22 141t61 115l42 -46q-30 -38 -46.5 -89t-16.5 -111q0 -66 20.5 -122t57 -97t86 -64.5t107.5 -23.5t107.5 23.5t86 64.5t57 97t20.5 122t-20.5 122t-57 97t-86 64t-107.5 23t-105 -22l-30 53q33 16 68 22.5
t67 6.5q71 0 132 -27t105.5 -75t70 -113t25.5 -141q0 -81 -25.5 -150t-70 -119.5t-105.5 -79t-132 -28.5z" />
    <glyph glyph-name="cid49" unicode="P" horiz-adv-x="478" 
d="M144 0h-62v709h62v-709zM225 361q73 0 116.5 39t43.5 105t-43 105t-116 39h-5v60h5q50 0 91 -14.5t70 -41t44.5 -64.5t15.5 -84q0 -47 -15.5 -84.5t-44.5 -64t-70 -41t-92 -14.5h-3v60h3z" />
    <glyph glyph-name="cid50" unicode="Q" horiz-adv-x="746" 
d="M373 721q71 0 132 -27t105.5 -75t70 -113t25.5 -141q0 -81 -25.5 -150t-70 -119.5t-105.5 -79t-132 -28.5t-132 27t-105.5 75t-70 113t-25.5 142q0 76 22 141t61 115l42 -46q-30 -38 -46.5 -89t-16.5 -111q0 -66 20.5 -122t57 -97t86 -64.5t107.5 -23.5q46 0 86.5 15
t73.5 41l-107 104l45 45l106 -105q32 41 49.5 93.5t17.5 113.5q0 66 -20.5 122t-57 97t-86 64t-107.5 23t-105 -22l-30 53q33 16 67.5 22.5t67.5 6.5zM650 -12l-39 39l44 46l40 -38z" />
    <glyph glyph-name="cid51" unicode="R" horiz-adv-x="497" 
d="M447 506q0 -46 -15.5 -83.5t-44.5 -64t-70 -41t-92 -14.5h-81v-303h-62v709h62v-347h82q73 0 116 39t43 105t-43 104.5t-116 38.5h-2v60h2q50 0 91 -14.5t70 -41t44.5 -64t15.5 -83.5zM244 191l46 39l175 -193l-43 -42z" />
    <glyph glyph-name="cid52" unicode="S" horiz-adv-x="507" 
d="M377 541q0 55 -33.5 87.5t-90.5 32.5q-34 0 -59 -12l-31 52q37 20 90 20q42 0 76 -13t58.5 -36.5t37.5 -56.5t13 -74h-61zM395 126q10 17 15 36t5 45q0 51 -36 90.5t-103 56.5l-66 17q-76 20 -111 65.5t-35 104.5q0 48 20 85l50 -41q-8 -21 -8 -44q0 -38 24.5 -67.5
t82.5 -44.5l62 -16q91 -23 136.5 -78.5t45.5 -127.5q0 -35 -8.5 -66.5t-26.5 -57.5zM247 -12q-52 0 -94 15.5t-71.5 43.5t-45.5 68t-16 90h62q0 -36 11.5 -65t33.5 -49.5t52 -31.5t68 -11q23 0 43 3.5t41 14.5l33 -52q-26 -14 -53.5 -20t-63.5 -6z" />
    <glyph glyph-name="cid53" unicode="T" horiz-adv-x="439" 
d="M414 649h-389v60h389v-60zM250 0h-62v532h62v-532z" />
    <glyph glyph-name="cid54" unicode="U" horiz-adv-x="533" 
d="M267 -11q-44 0 -79.5 14t-60.5 40.5t-38.5 63.5t-13.5 83v519h62v-519q0 -65 35 -103t95 -38q48 0 81 25.5t44 72.5h63q-11 -73 -60.5 -115.5t-127.5 -42.5zM458 299h-62v410h62v-410z" />
    <glyph glyph-name="cid55" unicode="V" horiz-adv-x="537" 
d="M517 699l-148 -448l-56 21l146 448zM290 7l-58 -19l-212 712l58 19z" />
    <glyph glyph-name="cid56" unicode="W" horiz-adv-x="960" 
d="M266 0h-63l-183 706l61 14l158 -631l112 289l57 -23zM667 0l-233 594l58 20l204 -528l184 634l60 -15l-210 -705h-63z" />
    <glyph glyph-name="cid57" unicode="X" horiz-adv-x="567" 
d="M492 -12l-212 314l-208 -314l-52 35l223 334l-223 330l51 34l212 -314l212 314l52 -34l-226 -336l223 -328z" />
    <glyph glyph-name="cid58" unicode="Y" horiz-adv-x="497" 
d="M71 718l178 -257l177 260l51 -31l-227 -335l-230 331zM279 0h-62v275h62v-275z" />
    <glyph glyph-name="cid59" unicode="Z" horiz-adv-x="477" 
d="M46 709h384v-60h-384v60zM40 0v60l287 502l52 -32l-269 -470h337v-60h-407z" />
    <glyph glyph-name="cid60" unicode="[" horiz-adv-x="344" 
d="M329 753h-185v-856h185v-62h-247v980h247v-62z" />
    <glyph glyph-name="cid61" unicode="\" horiz-adv-x="536" 
d="M522 -72l-52 -31l-456 803l53 30z" />
    <glyph glyph-name="cid62" unicode="]" horiz-adv-x="344" 
d="M200 -103v856h-185v62h247v-980h-247v62h185z" />
    <glyph glyph-name="cid63" unicode="^" horiz-adv-x="335" 
d="M167 588l-80 -73l-37 37l117 105l118 -105l-37 -37z" />
    <glyph glyph-name="cid64" unicode="_" horiz-adv-x="652" 
d="M596 -62h-540v62h540v-62z" />
    <glyph glyph-name="cid65" unicode="`" horiz-adv-x="249" 
d="M99 682l100 -130l-49 -37l-100 131z" />
    <glyph glyph-name="cid66" unicode="a" horiz-adv-x="520" 
d="M400 0v65q-26 -36 -65.5 -56.5t-85.5 -20.5t-85.5 17.5t-68.5 48t-45.5 72t-16.5 90.5q0 48 16.5 89.5t45.5 72t68.5 47.5t85.5 17t86 -20t65 -56v64h60v-430h-60zM249 47q69 0 110 45.5t41 123.5q0 76 -41 121.5t-110 45.5q-33 0 -61.5 -12.5t-49.5 -35t-32.5 -53
t-11.5 -66.5t11.5 -67t32.5 -53.5t49.5 -35.5t61.5 -13z" />
    <glyph glyph-name="cid67" unicode="b" horiz-adv-x="524" 
d="M275 442q46 0 85.5 -17t68.5 -47t45.5 -71.5t16.5 -89.5q0 -49 -16.5 -91t-45.5 -72.5t-68.5 -48t-85.5 -17.5t-86 20.5t-65 55.5v-64h-60v730h60v-365q26 36 65.5 56.5t85.5 20.5zM275 47q33 0 61.5 13t49.5 35.5t32.5 54t11.5 67.5t-11.5 66t-32.5 52.5t-49.5 35
t-61.5 12.5q-69 0 -110 -45.5t-41 -121.5q0 -78 41 -123.5t110 -45.5z" />
    <glyph glyph-name="cid68" unicode="c" horiz-adv-x="471" 
d="M244 -12q-45 0 -84 17.5t-67 48t-44 72.5t-16 91q0 48 16 89.5t44 71.5t67 47t84 17q36 0 68.5 -11t58.5 -30.5t45.5 -48t29.5 -62.5h-65q-20 47 -56 70t-81 23q-32 0 -59.5 -12.5t-47.5 -35t-31.5 -52.5t-11.5 -66t11.5 -67.5t31.5 -54t47.5 -35.5t59.5 -13
q46 0 77.5 20.5t53.5 57.5h66q-25 -63 -76 -100t-121 -37z" />
    <glyph glyph-name="cid69" unicode="d" horiz-adv-x="524" 
d="M400 0v65q-26 -36 -65.5 -56.5t-85.5 -20.5t-85.5 17.5t-68.5 48t-45.5 72.5t-16.5 91q0 48 16.5 89.5t45.5 71.5t68.5 47t85.5 17t86 -20t65 -56v364h60v-730h-60zM249 47q69 0 110 45.5t41 123.5q0 76 -41 121.5t-110 45.5q-33 0 -61.5 -12.5t-49.5 -35t-32.5 -52.5
t-11.5 -66t11.5 -67.5t32.5 -54t49.5 -35.5t61.5 -13z" />
    <glyph glyph-name="cid70" unicode="e" horiz-adv-x="473" 
d="M382 261q-2 27 -13.5 49.5t-30 38.5t-42.5 25t-51 9q-32 0 -60 -11t-48 -32.5t-31.5 -52.5t-11.5 -70q0 -40 11.5 -71.5t31.5 -53.5t47.5 -33.5t59.5 -11.5q37 0 68 16t55 45l45 -35q-17 -25 -42 -43.5t-55 -29.5q-33 -12 -70 -12q-45 0 -84 16t-67.5 45.5t-44.5 72
t-16 95.5q0 52 16 93.5t44.5 71t67.5 45t84 15.5q47 0 86 -16.5t66 -47.5t39.5 -75.5t7.5 -100.5h-235v59h173v0z" />
    <glyph glyph-name="cid71" unicode="f" horiz-adv-x="355" 
d="M201 742q30 0 55.5 -11t44 -30t29 -46t10.5 -58v-73h-61v73q0 38 -21.5 61.5t-56.5 23.5q-36 0 -58 -23.5t-22 -61.5v-101h-61v101q0 31 10.5 58t29 46t44.5 30t57 11zM327 370h-206v-370h-61v430h267v-60z" />
    <glyph glyph-name="cid72" unicode="g" horiz-adv-x="521" 
d="M249 -12q-46 0 -85.5 17.5t-68.5 48t-45.5 72t-16.5 90.5q0 48 16.5 89.5t45.5 72t68.5 47.5t85.5 17t86 -20t65 -56v64h60v-430h-60v65q-26 -36 -65.5 -56.5t-85.5 -20.5zM249 383q-33 0 -61.5 -12.5t-49.5 -35t-32.5 -53t-11.5 -66.5t11.5 -67t32.5 -53.5t49.5 -35.5
t61.5 -13q69 0 110 45.5t41 123.5q0 76 -41 121.5t-110 45.5zM461 -75q-8 -84 -60 -131t-140 -47q-43 0 -77 12.5t-58 35t-38 53.5t-17 67h61q7 -49 41 -79t88 -30q60 0 96 31t43 88h61z" />
    <glyph glyph-name="cid73" unicode="h" horiz-adv-x="479" 
d="M124 0h-60v730h60v-730zM364 283q0 46 -20 73t-55 27q-20 0 -36 -6t-32 -16l-35 45q18 14 43.5 25t59.5 11q62 0 98.5 -43t36.5 -115v-284h-60v283z" />
    <glyph glyph-name="cid74" unicode="i" horiz-adv-x="180" 
d="M90 526q-20 0 -32.5 13t-12.5 32q0 18 12.5 31t32.5 13q18 0 31 -13t13 -31q0 -19 -13 -32t-31 -13zM120 0h-60v430h60v-430z" />
    <glyph glyph-name="cid75" unicode="j" horiz-adv-x="180" 
d="M90 526q-20 0 -32.5 13t-12.5 32q0 18 12.5 31t32.5 13q18 0 31 -13t13 -31q0 -19 -13 -32t-31 -13zM120 -250h-60v680h60v-680z" />
    <glyph glyph-name="cid76" unicode="k" horiz-adv-x="401" 
d="M64 0v730h60v-477l182 180l42 -44l-224 -218v-171h-60zM205 154l43 41l148 -161l-45 -40z" />
    <glyph glyph-name="cid77" unicode="l" horiz-adv-x="188" 
d="M124 0h-60v730h60v-730z" />
    <glyph glyph-name="cid78" unicode="m" horiz-adv-x="739" 
d="M342 283q0 46 -20 73t-55 27q-19 0 -33 -5t-29 -13l-35 45q17 13 41 22.5t56 9.5q62 0 98.5 -43t36.5 -115v-284h-60v283zM624 283q0 46 -20 73t-55 27q-20 0 -36 -6t-32 -16l-35 45q18 14 43.5 25t59.5 11q62 0 98.5 -43t36.5 -115v-284h-60v283zM120 0h-60v430h60v-430
z" />
    <glyph glyph-name="cid79" unicode="n" horiz-adv-x="475" 
d="M360 283q0 46 -20 73t-55 27q-20 0 -36 -6t-32 -16l-35 45q18 14 43.5 25t59.5 11q62 0 98.5 -43t36.5 -115v-284h-60v283zM120 0h-60v430h60v-430z" />
    <glyph glyph-name="cid80" unicode="o" horiz-adv-x="506" 
d="M253 -12q-47 0 -87.5 17.5t-70 48t-46 72.5t-16.5 91q0 48 16.5 89.5t46 71.5t70 47t87.5 17t87.5 -17t70 -47t46 -71.5t16.5 -89.5q0 -49 -16.5 -91t-46 -72.5t-70 -48t-87.5 -17.5zM253 47q34 0 63 13t50.5 35.5t33.5 54t12 67.5t-12 66t-33.5 52.5t-50.5 35t-63 12.5
t-63 -12.5t-50.5 -35t-33.5 -52.5t-12 -66t12 -67.5t33.5 -54t50.5 -35.5t63 -13z" />
    <glyph glyph-name="cid81" unicode="p" horiz-adv-x="520" 
d="M271 442q46 0 85.5 -17t68.5 -47t45.5 -71.5t16.5 -89.5q0 -49 -16.5 -91t-45.5 -72.5t-68.5 -48t-85.5 -17.5q-47 0 -86.5 20t-64.5 55v-313h-60v680h60v-65q26 36 65.5 56.5t85.5 20.5zM271 47q33 0 61.5 13t49.5 35.5t32.5 54t11.5 67.5t-11.5 66t-32.5 52.5t-49.5 35
t-61.5 12.5q-69 0 -110 -45.5t-41 -121.5q0 -78 41 -123.5t110 -45.5z" />
    <glyph glyph-name="cid82" unicode="q" horiz-adv-x="520" 
d="M400 -250v315q-25 -35 -65 -56t-86 -21t-85.5 17.5t-68.5 48t-45.5 72.5t-16.5 91q0 48 16.5 89.5t45.5 71.5t68.5 47t85.5 17t86 -20t65 -56v64h60v-680h-60zM249 47q69 0 110 45.5t41 121.5q0 78 -41 123.5t-110 45.5q-33 0 -61.5 -12.5t-49.5 -35t-32.5 -52.5
t-11.5 -66t11.5 -67.5t32.5 -54t49.5 -35.5t61.5 -13z" />
    <glyph glyph-name="cid83" unicode="r" horiz-adv-x="359" 
d="M225 442q57 0 92 -44.5t35 -118.5h-60q0 46 -21 74.5t-54 28.5q-46 0 -71.5 -43t-25.5 -121v-218h-60v430h54v-59q20 40 49.5 55.5t61.5 15.5z" />
    <glyph glyph-name="cid84" unicode="s" horiz-adv-x="336" 
d="M168 -12q-63 0 -103.5 36t-44.5 94h59q4 -32 28 -51.5t61 -19.5q35 0 56.5 20.5t21.5 54.5q0 29 -17.5 48t-52.5 32l-37 14q-89 34 -89 110q0 51 33 83.5t85 32.5q25 0 46.5 -9t37.5 -24.5t25 -36.5t9 -45h-60q0 24 -16.5 40t-41.5 16q-26 0 -42 -16t-16 -41
q0 -18 11.5 -30.5t37.5 -22.5l40 -15q56 -21 81.5 -53t25.5 -83q0 -29 -10.5 -53.5t-28.5 -42.5t-43.5 -28t-55.5 -10z" />
    <glyph glyph-name="cid85" unicode="t" horiz-adv-x="314" 
d="M15 371v59h85v194h60v-194h144v-59h-289zM160 0h-60v280h60v-280z" />
    <glyph glyph-name="cid86" unicode="u" horiz-adv-x="414" 
d="M207 -12q-36 0 -63.5 11.5t-46 32.5t-28.5 50t-10 63v285h60v-280q0 -50 22.5 -76.5t65.5 -26.5t65.5 26.5t22.5 76.5v280h60v-285q0 -34 -10 -63t-28.5 -50t-46 -32.5t-63.5 -11.5z" />
    <glyph glyph-name="cid87" unicode="v" horiz-adv-x="403" 
d="M240 10l-55 -21l-162 431l55 21zM380 418l-97 -248l-55 22l96 248z" />
    <glyph glyph-name="cid88" unicode="w" horiz-adv-x="655" 
d="M219 0h-56l-140 426l57 16l112 -343l108 292l55 -20zM444 0l-79 198l55 22l48 -121l107 343l57 -16l-132 -426h-56z" />
    <glyph glyph-name="cid89" unicode="x" horiz-adv-x="461" 
d="M20 29l171 193l-163 182l45 38l158 -176l156 176l44 -40l-367 -413zM292 107l42 42l107 -120l-44 -39z" />
    <glyph glyph-name="cid90" unicode="y" horiz-adv-x="431" 
d="M199 207l-51 -29l-133 235l51 29zM408 420l-263 -674l-55 22l262 672z" />
    <glyph glyph-name="cid91" unicode="z" horiz-adv-x="404" 
d="M32 430h331v-59h-331v59zM35 0v59l208 239l43 -39l-174 -200h260v-59h-337z" />
    <glyph glyph-name="cid92" unicode="{" horiz-adv-x="310" 
d="M173 468q0 -103 -61 -144q61 -41 61 -144v-193q0 -93 78 -93h44v-59h-44q-65 0 -101 40t-36 112v193q0 60 -24.5 87t-69.5 27v60q45 0 69.5 27t24.5 87v195q0 72 36 112t101 40h44v-59h-44q-78 0 -78 -93v-195v0z" />
    <glyph glyph-name="cid93" unicode="|" horiz-adv-x="213" 
d="M137 730v-980h-61v980h61z" />
    <glyph glyph-name="cid94" unicode="}" horiz-adv-x="310" 
d="M196 468q0 -60 24.5 -87t69.5 -27v-60q-45 0 -69.5 -27t-24.5 -87v-193q0 -72 -36 -112t-101 -40h-44v59h44q78 0 78 93v193q0 103 61 144q-61 41 -61 144v195q0 93 -78 93h-44v59h44q65 0 101 -40t36 -112v-195v0z" />
    <glyph glyph-name="cid95" unicode="~" horiz-adv-x="600" 
d="M419 180q-23 0 -50.5 10t-70.5 30q-23 10 -39.5 17t-29.5 11.5t-23 6.5t-20 2q-23 0 -37.5 -10.5t-24.5 -33.5l-56 27q21 40 49.5 60t68.5 20q28 0 60.5 -11.5t81.5 -33.5q35 -16 56 -24t35 -8q39 0 57 42l56 -27q-22 -42 -48 -60t-65 -18z" />
    <glyph glyph-name="cid96" unicode="&#x20a9;" horiz-adv-x="928" 
d="M743 310h158v-60h-171l-53 -250h-74l-73 250h-138l-73 -250h-74l-53 250h-165v60h152l-12 60h-140v60h127l-58 273l62 13l61 -286h162l48 169h64l48 -169h162l61 286l62 -13l-58 -273h133v-60h-146zM478 430l-17 59l-17 -59h34zM347 310l17 60h-133l13 -60h103zM496 370
h-70l-17 -60h104zM558 370l17 -60h103l13 60h-133zM257 250l31 -149l42 149h-73zM592 250l42 -149l31 149h-73z" />
    <glyph glyph-name="cid98" unicode="&#xa9;" horiz-adv-x="836" 
d="M418 -12q-105 0 -187 48q-85 48 -132.5 131t-47.5 188q0 103 48 187t131 131.5t188 47.5q104 0 188 -48t131.5 -131.5t47.5 -186.5q0 -105 -48 -187q-48 -85 -131 -132.5t-188 -47.5zM418 48q86 0 156 40t110 110t40 157q0 86 -40 156t-109.5 110t-156.5 40
q-86 0 -156 -40t-110 -109.5t-40 -156.5q0 -86 40 -156q40 -71 109.5 -111t156.5 -40zM425 131q-63 0 -112 30q-51 29 -79.5 80.5t-28.5 114.5q0 62 29 115q29 51 78.5 80.5t112.5 29.5q40 0 78 -13.5t68 -39.5l-38 -45q-48 39 -108 39q-45 0 -81 -21q-36 -22 -56.5 -59.5
t-20.5 -85.5t21 -85q20 -38 56 -59.5t81 -21.5q60 0 108 39l38 -45q-30 -26 -68 -39.5t-78 -13.5z" />
    <glyph glyph-name="cid101" unicode="&#x3000;" 
 />
    <glyph glyph-name="cid101" unicode="&#x3164;" 
 />
    <glyph glyph-name="cid104" unicode="&#xb7;" horiz-adv-x="188" 
d="M94 256q-19 0 -32 13t-13 32q0 18 13.5 31.5t31.5 13.5q19 0 32 -13t13 -32t-13 -32t-32 -13z" />
    <glyph glyph-name="cid104" unicode="&#x30fb;" horiz-adv-x="188" 
d="M94 256q-19 0 -32 13t-13 32q0 18 13.5 31.5t31.5 13.5q19 0 32 -13t13 -32t-13 -32t-32 -13z" />
    <glyph glyph-name="cid106" unicode="&#x2026;" horiz-adv-x="572" 
d="M91 8q-19 0 -32 13t-13 32q0 18 13.5 31.5t31.5 13.5q19 0 32 -13t13 -32t-13 -32t-32 -13zM286 8q-19 0 -32 13t-13 32q0 18 13.5 31.5t31.5 13.5q19 0 32 -13t13 -32t-13 -32t-32 -13zM481 8q-19 0 -32 13t-13 32q0 18 13.5 31.5t31.5 13.5q19 0 32 -13t13 -32t-13 -32
t-32 -13z" />
    <glyph glyph-name="cid106" unicode="&#x22ef;" horiz-adv-x="572" 
d="M91 8q-19 0 -32 13t-13 32q0 18 13.5 31.5t31.5 13.5q19 0 32 -13t13 -32t-13 -32t-32 -13zM286 8q-19 0 -32 13t-13 32q0 18 13.5 31.5t31.5 13.5q19 0 32 -13t13 -32t-13 -32t-32 -13zM481 8q-19 0 -32 13t-13 32q0 18 13.5 31.5t31.5 13.5q19 0 32 -13t13 -32t-13 -32
t-32 -13z" />
    <glyph glyph-name="cid107" unicode="&#xa8;" horiz-adv-x="318" 
d="M94 528q-19 0 -31.5 13t-12.5 32q0 18 12.5 31t31.5 13t32 -13t13 -31q0 -19 -13 -32t-32 -13zM224 528q-19 0 -32 13t-13 32q0 18 13 31t32 13q18 0 31 -13t13 -31q0 -19 -13 -32t-31 -13z" />
    <glyph glyph-name="cid109" unicode="&#x2013;" horiz-adv-x="629" 
d="M567 251h-505v62h505v-62z" />
    <glyph glyph-name="cid110" unicode="&#x2014;" horiz-adv-x="1124" 
d="M1062 251h-1000v60h1000v-60z" />
    <glyph glyph-name="cid114" unicode="&#x2018;" horiz-adv-x="180" 
d="M160 560l-56 -25l-71 175l56 25z" />
    <glyph glyph-name="cid115" unicode="&#x2019;" horiz-adv-x="180" 
d="M147 710l-71 -175l-56 25l71 175z" />
    <glyph glyph-name="cid116" unicode="&#x201c;" horiz-adv-x="334" 
d="M160 560l-56 -25l-71 175l56 25zM314 560l-56 -25l-71 175l56 25z" />
    <glyph glyph-name="cid117" unicode="&#x201d;" horiz-adv-x="334" 
d="M147 710l-71 -175l-56 25l71 175zM301 710l-71 -175l-56 25l71 175z" />
    <glyph glyph-name="cid130" unicode="&#xb1;" horiz-adv-x="600" 
d="M550 311h-217v-201h-64v201h-219v62h219v201h64v-201h217v-62zM550 50v-62h-500v62h500z" />
    <glyph glyph-name="cid131" unicode="&#xd7;" horiz-adv-x="600" 
d="M520 134l-47 -44l-174 180l-184 -179l-44 46l184 179l-176 182l47 43l174 -180l184 179l44 -46l-183 -179z" />
    <glyph glyph-name="cid132" unicode="&#xf7;" horiz-adv-x="600" 
d="M301 435q-19 0 -33 14t-14 33t14 33t33 14q20 0 33.5 -13.5t13.5 -33.5q0 -19 -13.5 -33t-33.5 -14zM300 104q-19 0 -33 14t-14 33t14 33t33 14q20 0 33.5 -13.5t13.5 -33.5q0 -19 -13.5 -33t-33.5 -14zM552 347v-62h-504v62h504z" />
    <glyph glyph-name="cid133" unicode="&#x2260;" horiz-adv-x="600" 
d="M313 265h237v-62h-263l-54 -130l-59 26l44 104h-168v62h193l44 103h-237v62h263l54 130l59 -26l-44 -104h168v-62h-193z" />
    <glyph glyph-name="cid134" unicode="&#x2264;" horiz-adv-x="600" 
d="M54 377l464 266l29 -55l-370 -211l370 -212l-29 -55zM550 -12h-500v62h500v-62z" />
    <glyph glyph-name="cid135" unicode="&#x2265;" horiz-adv-x="600" 
d="M423 377l-370 211l29 55l464 -266l-464 -267l-29 55zM550 -12h-500v62h500v-62z" />
    <glyph glyph-name="cid136" unicode="&#x221e;" horiz-adv-x="812" 
d="M592 397q45 0 83 -21q37 -22 58 -60t21 -86q0 -49 -21 -86q-21 -38 -58 -59.5t-83 -21.5q-37 0 -67 15t-62 48l-57 60l-57 -60q-32 -33 -62 -48t-67 -15q-46 0 -83 22q-37 21 -58 59t-21 86t21 86t58 59.5t83 21.5q37 0 67 -15t62 -48l57 -60l57 60q32 33 62 48t67 15z
M304 294q-23 24 -42 33.5t-42 9.5q-45 0 -73 -29.5t-28 -77.5t28 -77.5t73 -29.5q24 0 43 9.5t41 32.5l61 64zM592 123q45 0 73 29.5t28 77.5t-28 77.5t-73 29.5q-24 0 -43 -9.5t-41 -32.5l-61 -64l61 -65q23 -24 42 -33.5t42 -9.5z" />
    <glyph glyph-name="cid138" unicode="&#xb0;" horiz-adv-x="392" 
d="M195 381q-46 0 -83 22t-58.5 60.5t-21.5 86.5q0 49 22 87q21 39 58 61.5t83 22.5q47 0 84 -22q38 -23 59.5 -62t21.5 -87q0 -49 -21 -86q-22 -39 -60 -61t-84 -22zM196 438q45 0 75 32t30 80q0 24 -8 45t-22 36.5t-33.5 24t-41.5 8.5q-23 0 -42 -8.5t-33 -24t-22 -36.5
t-8 -45q0 -48 30 -80t75 -32z" />
    <glyph glyph-name="cid143" unicode="&#xffe0;" horiz-adv-x="456" 
d="M276 196q58 8 102 62l50 -35q-27 -36 -67 -59t-85 -28v-136h-61v138q-53 9 -94 41q-42 32 -65 79.5t-23 104.5t24 107q23 49 63.5 80.5t94.5 40.5v118h61v-116q46 -5 87 -29t68 -63l-50 -35q-20 28 -47 45.5t-58 21.5v-337zM94 363q0 -63 33.5 -107t87.5 -57v331
q-54 -14 -87.5 -59.5t-33.5 -107.5z" />
    <glyph glyph-name="cid144" unicode="&#xffe1;" horiz-adv-x="594" 
d="M140 470v99q0 33 11 61t30.5 48t46 31.5t58.5 11.5q31 0 58 -11.5t46 -31.5t30 -48t11 -61v-66h-62v66q0 42 -22.5 67t-60.5 25t-61 -25t-23 -67v-99h-62zM564 164q-9 -38 -28 -68t-46 -51.5t-61 -33t-73 -11.5h-329v63h6q106 0 106 103v235h63v-30h209v-63h-209v-142
q0 -64 -33 -106h189q54 0 93 32.5t52 87.5z" />
    <glyph glyph-name="cid145" unicode="&#xffe5;" horiz-adv-x="497" 
d="M421 300v-60h-141v-240h-62v240h-143v60h143v53h-145v60h137l-190 273l51 32l178 -257l177 260l51 -31l-188 -277h130v-60h-139v-53h141z" />
    <glyph glyph-name="cid151" unicode="&#x2202;" horiz-adv-x="527" 
d="M94 719q94 -7 167 -40t123.5 -91t76.5 -139t26 -184q0 -84 -28 -146q-29 -63 -81.5 -97t-121.5 -34q-64 0 -114 31q-51 30 -80 83.5t-29 119.5q0 65 29 120q29 54 80 84t114 30q46 0 87.5 -19.5t72.5 -54.5q-22 125 -105.5 194.5t-221.5 80.5zM256 51q44 0 82 23
q36 23 57 62.5t21 88.5q0 46 -22 84t-58.5 61t-79.5 23q-46 0 -81 -22q-37 -23 -57.5 -62t-20.5 -87t21 -87q20 -39 56.5 -61.5t81.5 -22.5z" />
    <glyph glyph-name="cid155" unicode="&#xa7;" horiz-adv-x="426" 
d="M208 -139q-48 0 -86 20t-64 57l49 35q22 -26 46.5 -38t54.5 -12q45 0 73 28t28 71q0 45 -25.5 70.5t-73.5 30.5q-75 7 -119 52.5t-44 117.5q0 45 18.5 81t53.5 59q-65 44 -65 130q0 45 22 82q21 36 58 56.5t83 20.5q92 0 148 -77l-49 -35q-23 26 -46.5 38t-52.5 12
q-43 0 -71 -27.5t-28 -69.5q0 -88 97 -99q75 -7 119.5 -52.5t44.5 -117.5q0 -45 -18.5 -81t-54.5 -59q67 -45 67 -132q0 -45 -21 -82q-22 -37 -60 -58t-84 -21zM211 189q22 0 41 8t33 21.5t22 32.5t8 42q0 22 -8 41t-21.5 33.5t-32 22.5t-39.5 8q-45 0 -74 -29.5t-29 -74.5
t28.5 -75t71.5 -30z" />
    <glyph glyph-name="cid170" unicode="&#x2192;" horiz-adv-x="821" 
d="M541 85l-43 44l187 186l-189 188l43 44l232 -232zM50 285v62h505v-62h-505z" />
    <glyph glyph-name="cid171" unicode="&#x2190;" horiz-adv-x="821" 
d="M323 129l-43 -44l-230 230l232 232l43 -44l-189 -188zM771 285h-505v62h505v-62z" />
    <glyph glyph-name="cid172" unicode="&#x2191;" horiz-adv-x="562" 
d="M468 446l-188 189l-186 -187l-44 43l230 230l232 -232zM312 505v-505h-62v505h62z" />
    <glyph glyph-name="cid173" unicode="&#x2193;" horiz-adv-x="562" 
d="M250 204v505h62v-505h-62zM282 -12l-232 232l44 43l188 -189l186 187l44 -43z" />
    <glyph glyph-name="cid174" unicode="&#x2194;" horiz-adv-x="857" 
d="M323 129l-43 -44l-230 230l232 232l43 -44l-189 -188zM577 85l-43 44l187 186l-189 188l43 44l232 -232zM266 347h325v-62h-325v62z" />
    <glyph glyph-name="cid178" unicode="&#x221a;" horiz-adv-x="616" 
d="M628 728h-104l-293 -728h-59l-162 415l58 21l132 -358l284 712h144v-62z" />
    <glyph glyph-name="cid182" unicode="&#x222b;" horiz-adv-x="393" 
d="M19 -122q-18 0 -33 5l17 60q10 -2 13 -2q27 0 40 10t17 36l118 649q8 48 40.5 76t77.5 28q65 0 105 -55l-54 -36q-20 27 -51 27q-48 0 -56 -52l-118 -652q-8 -45 -39.5 -69.5t-76.5 -24.5z" />
    <glyph glyph-name="cid199" unicode="&#xb4;" horiz-adv-x="247" 
d="M148 682l49 -37l-99 -130l-48 38z" />
    <glyph glyph-name="cid200" unicode="&#x2dc;" horiz-adv-x="419" 
d="M274 548q-15 0 -29.5 6t-34.5 17t-35 16.5t-29 5.5q-15 0 -32 -9t-29 -22l-35 37q18 22 44 36.5t52 14.5q23 0 41.5 -7.5t42.5 -20.5q11 -7 22.5 -12t19.5 -5q23 0 37 7t27 22l33 -38q-18 -22 -42.5 -35t-52.5 -13z" />
    <glyph glyph-name="cid201" unicode="&#x2c7;" horiz-adv-x="335" 
d="M167 515l-117 105l37 37l80 -73l81 73l37 -37z" />
    <glyph glyph-name="cid202" unicode="&#x2d8;" horiz-adv-x="360" 
d="M180 515q-60 0 -94 37.5t-36 103.5h57q2 -42 20 -64t53 -22t53 22t20 64h57q-2 -66 -36 -103.5t-94 -37.5z" />
    <glyph glyph-name="cid203" unicode="&#x2dd;" horiz-adv-x="396" 
d="M157 680l48 -38l-108 -134l-47 39zM298 680l48 -38l-108 -134l-47 39z" />
    <glyph glyph-name="cid204" unicode="&#x2da;" horiz-adv-x="267" 
d="M133 515q-35 0 -59 24t-24 59t24 59t59 24q36 0 60 -24t24 -59t-24 -59t-60 -24zM134 559q17 0 27.5 10.5t10.5 28.5t-10.5 28.5t-27.5 10.5q-18 0 -28.5 -10.5t-10.5 -28.5t10.5 -28.5t28.5 -10.5z" />
    <glyph glyph-name="cid205" unicode="&#x2d9;" horiz-adv-x="189" 
d="M95 526q-19 0 -32 13t-13 32q0 18 13 31t32 13q18 0 31 -13t13 -31q0 -19 -13 -32t-31 -13z" />
    <glyph glyph-name="cid206" unicode="&#xb8;" horiz-adv-x="217" 
d="M114 -62l53 -26l-65 -133l-52 26z" />
    <glyph glyph-name="cid207" unicode="&#x2db;" horiz-adv-x="272" 
d="M166 -254q-54 0 -85 28.5t-31 86.5q0 63 37.5 110.5t100.5 67.5l17 -39q-45 -15 -70 -52t-25 -82q0 -61 60 -61q20 0 35 4l17 -50q-11 -6 -26.5 -9.5t-29.5 -3.5z" />
    <glyph glyph-name="cid208" unicode="&#xa1;" horiz-adv-x="258" 
d="M129 472q20 0 33.5 -13.5t13.5 -33.5q0 -19 -14 -33t-33 -14q-20 0 -33.5 13.5t-13.5 33.5t13.5 33.5t33.5 13.5zM98 287h62v-536h-62v536z" />
    <glyph glyph-name="cid209" unicode="&#xbf;" horiz-adv-x="435" 
d="M232 472q20 0 33.5 -13.5t13.5 -33.5q0 -19 -14 -33t-33 -14q-20 0 -33.5 13.5t-13.5 33.5t13.5 33.5t33.5 13.5zM265 229q0 -27 -3.5 -47.5t-11.5 -38.5t-22.5 -34.5t-35.5 -34.5l-54 -47q-51 -45 -51 -99q0 -27 9.5 -51t27 -41t41 -27t50.5 -10q56 0 92 36t36 93
q0 27 -12 51t-34 45l42 42q30 -26 48 -61.5t18 -76.5t-14 -75.5t-39.5 -60t-60.5 -39.5t-76 -14t-76 14t-60.5 39.5t-39.5 60t-14 75.5q0 40 19.5 76t54.5 68l54 49q16 15 26 26t15 23t7 25.5t2 33.5v58h62v-58z" />
    <glyph glyph-name="cid212" unicode="&#x2211;" horiz-adv-x="488" 
d="M459 -122h-407v60l195 351l-214 360v60h407v-60h-336l213 -359l-197 -352h339v-60z" />
    <glyph glyph-name="cid213" unicode="&#x220f;" horiz-adv-x="668" 
d="M571 649v-771h-62v771h-350v-771h-62v771h-72v60h618v-60h-72z" />
    <glyph glyph-name="cid214" unicode="&#xa4;" horiz-adv-x="622" 
d="M530 320q0 -71 -41 -130l80 -89l-47 -43l-77 85q-61 -49 -136 -49q-37 0 -71.5 12.5t-62.5 35.5l-75 -84l-47 43l78 87q-42 60 -42 132q0 73 40 134l-76 84l47 43l72 -80q58 49 137 49q39 0 74.5 -13.5t64.5 -38.5l74 83l47 -43l-79 -87q40 -61 40 -131zM309 155
q44 0 81 22q36 22 57.5 60t21.5 83q0 46 -21 85q-22 38 -58 60.5t-81 22.5q-42 0 -79 -23t-58.5 -61.5t-21.5 -83.5q0 -46 22 -83q21 -38 57.5 -60t79.5 -22z" />
    <glyph glyph-name="cid216" unicode="&#x2030;" horiz-adv-x="1102" 
d="M189 389q-45 0 -83 23t-60.5 60.5t-22.5 82.5t23 83t60.5 60.5t82.5 22.5q46 0 83 -22q38 -23 60.5 -61t22.5 -83q0 -46 -22 -83q-23 -38 -61 -60.5t-83 -22.5zM189 451q45 0 74.5 29.5t29.5 74.5t-29.5 74.5t-74.5 29.5t-74.5 -29.5t-29.5 -74.5q0 -21 8 -40t22.5 -33.5
t33.5 -22.5t40 -8zM543 -12q-47 0 -84 22q-38 21 -60 58.5t-22 85.5q0 47 23 85t60.5 59.5t82.5 21.5q46 0 83 -22q38 -23 60.5 -61t22.5 -83q0 -46 -22 -83q-23 -38 -61 -60.5t-83 -22.5zM914 -10q-46 0 -83 22q-38 22 -60 60t-22 83q0 46 22 83q22 38 60 60t83 22
q46 0 83 -22q38 -22 60 -60t22 -83q0 -46 -22 -83q-22 -38 -60 -60t-83 -22zM914 51q21 0 40 8t33.5 22.5t22.5 33.5t8 40q0 45 -29.5 74.5t-74.5 29.5q-21 0 -40 -8t-33.5 -22t-22.5 -33t-8 -41q0 -21 8 -40t22.5 -33.5t33.5 -22.5t40 -8zM543 50q22 0 41 8t33 22.5
t22 33.5t8 40q0 45 -29.5 74.5t-74.5 29.5t-74.5 -29.5t-29.5 -74.5q0 -21 8 -40t22.5 -33.5t33.5 -22.5t40 -8zM541 721l56 -33l-418 -700l-57 33z" />
    <glyph glyph-name="cid244" unicode="&#xb6;" horiz-adv-x="555" 
d="M198 318q-42 0 -75.5 14t-57.5 39.5t-37 61t-13 79.5q0 91 53.5 144t144.5 53h281v-60h-34v-771h-62v771h-138v-771h-62v440v0z" />
    <glyph glyph-name="cid245" unicode="&#x2020;" horiz-adv-x="482" 
d="M272 439v-689h-62v689h-162v60h162v231h62v-231h162v-60h-162z" />
    <glyph glyph-name="cid246" unicode="&#x2021;" horiz-adv-x="482" 
d="M273 43h161v-64h-161v-229h-64v229h-161v64h161v394h-161v64h161v229h64v-229h161v-64h-161v-394z" />
    <glyph glyph-name="cid247" unicode="&#x2195;" horiz-adv-x="562" 
d="M50 497l230 230l232 -232l-44 -43l-188 189l-186 -187zM250 511h62v-325h-62v325zM512 202l-232 -232l-230 230l44 43l186 -187l188 189z" />
    <glyph glyph-name="cid248" unicode="&#x2197;" horiz-adv-x="671" 
d="M581 248h-61v267h-263v61h324v-328zM451 401l-357 -358l-44 44l357 357z" />
    <glyph glyph-name="cid249" unicode="&#x2199;" horiz-adv-x="671" 
d="M220 235l357 358l44 -44l-357 -357zM415 121v-61h-325v328h61v-267h264z" />
    <glyph glyph-name="cid250" unicode="&#x2196;" horiz-adv-x="673" 
d="M151 246h-61v324h328v-61h-267v-263zM579 39l-357 357l43 44l358 -357z" />
    <glyph glyph-name="cid251" unicode="&#x2198;" horiz-adv-x="673" 
d="M50 542l44 44l357 -357l-43 -44zM583 55h-328v61h267v264h61v-325z" />
    <glyph glyph-name="cid260" unicode="&#x2122;" horiz-adv-x="833" 
d="M325 709v-59h-110v-325h-58v325h-113v59h281zM658 602l-73 -169h-54l-75 170l-54 -278l-57 11l73 373h56l84 -193l83 193h55l75 -373l-57 -11z" />
    <glyph glyph-name="cid358" unicode="&#x3131;" horiz-adv-x="879" 
d="M651 170q-17 2 -34 5t-34 5q20 111 31 225.5t7 229.5h-467v57h535q1 -68 0 -133t-5.5 -129t-12.5 -128.5t-20 -131.5z" />
    <glyph glyph-name="cid359" unicode="&#x3132;" horiz-adv-x="879" 
d="M241 179q15 62 25.5 115t16.5 106q7 54 10.5 108t3.5 117h-228v58h294v-80q0 -53 -3 -103t-11 -104q-7 -53 -17.5 -108.5t-24.5 -117.5zM637 179q9 55 16.5 103t12.5 101q6 52 9 110t3 132h-257v58h323v-80q0 -57 -2.5 -107.5t-7.5 -102.5q-5 -53 -12.5 -107t-19.5 -116z
" />
    <glyph glyph-name="cid360" unicode="&#x3133;" horiz-adv-x="879" 
d="M366 221q55 33 96.5 75t70.5 90q29 47 44 95t15 94v112h62v-112q0 -54 -16 -108.5t-46.5 -107t-76 -100t-104.5 -86.5zM353 180q-18 2 -34.5 4.5t-34.5 4.5q21 109 31.5 211t6.5 215h-287v58h356q1 -69 -0.5 -129t-6.5 -119q-4 -59 -12 -118t-19 -127zM692 417
q5 -11 11 -20.5t12 -19.5q60 -92 160 -151l-45 -51q-67 47 -114 97t-71 108z" />
    <glyph glyph-name="cid361" unicode="&#x3134;" horiz-adv-x="879" 
d="M223 228q62 -2 132.5 0.5t140.5 8.5q71 6 132.5 14.5t105.5 18.5l13 -59q-44 -12 -114.5 -20.5t-155.5 -14.5q-84 -5 -169 -7.5t-156 -0.5v528h71v-468v0z" />
    <glyph glyph-name="cid362" unicode="&#x3135;" horiz-adv-x="879" 
d="M656 585q0 -54 -11 -108.5t-36.5 -107t-66 -100t-99.5 -86.5l-45 48q48 29 85 69t61.5 86.5t37 97.5t12.5 101v24h-180v59h420v-59h-178v-24zM139 245q56 -2 111 4t112 17l16 -58q-13 -3 -29 -5.5t-33 -5t-33.5 -4.5t-29.5 -3q-45 -2 -88 -3.5t-96 0.5v480h70v-422z
M694 427q27 -62 64.5 -111.5t89.5 -79.5l-45 -51q-34 24 -58 48.5t-42 50t-31 52t-25 54.5z" />
    <glyph glyph-name="cid363" unicode="&#x3136;" horiz-adv-x="879" 
d="M424 709q33 -11 61.5 -16t58.5 -7q32 -2 83 -2t103 1v-52q-97 -4 -181.5 2t-137.5 23zM378 208q-13 -3 -29 -5.5t-33 -5t-33.5 -4.5t-29.5 -3q-45 -2 -88 -3.5t-96 0.5v480h70v-422q56 -2 111 4t112 17zM338 508v55h493v-55h-493zM496 438q38 8 85 8q57 0 94.5 -10
t60.5 -30q23 -18 33 -44t10 -58t-10 -58t-33 -46q-23 -18 -60.5 -28.5t-94.5 -10.5t-94 10.5t-61 28.5q-21 16 -31 43.5t-10 60.5q0 32 9 58t32 44q11 10 22 15l36 -51l-6 -4q-15 -11 -21.5 -27.5t-6.5 -34.5q0 -19 6.5 -36t21.5 -29t40.5 -19.5t62.5 -7.5q38 0 63 7t40 20
q29 25 29 65q0 18 -7 34.5t-22 27.5q-15 13 -40 20.5t-63 7.5q-28 0 -51 -5z" />
    <glyph glyph-name="cid364" unicode="&#x3137;" horiz-adv-x="879" 
d="M161 683h550v-57h-550v57zM229 234h139t121 2t118 6t129 12l6 -57q-75 -8 -144.5 -12t-140.5 -6q-70 -1 -142 -1h-153v398h67v-342z" />
    <glyph glyph-name="cid365" unicode="&#x3138;" horiz-adv-x="879" 
d="M103 683h297v-57h-297v57zM464 683h302v-57h-302v57zM171 243q23 0 54 2.5t64 6.5q33 5 64.5 11t57.5 12l15 -58q-26 -8 -65.5 -15t-84.5 -12q-44 -5 -89 -7.5t-83 -2.5v396h67v-333zM531 245h247v-59h-313v390h66v-331z" />
    <glyph glyph-name="cid366" unicode="&#x3139;" horiz-adv-x="879" 
d="M629 645h-467v57h532v-186h-65v129zM162 466h533v-60h-533v60zM229 218q63 -2 134 1t142 9q71 5 133 13.5t106 18.5l13 -59q-44 -11 -115 -20t-156 -15q-83 -5 -168 -7.5t-156 -0.5v198h67v-138z" />
    <glyph glyph-name="cid367" unicode="&#x313a;" horiz-adv-x="879" 
d="M65 625v58h347v-270h-62v212h-285zM773 160q-17 2 -33.5 5t-33.5 5q20 111 31 226t7 230h-288v57h356q2 -137 -7 -263t-32 -260zM65 471h240v-58h-240v58zM132 237q44 -1 84 -1t81 2t80.5 7t84.5 15l13 -59q-44 -11 -93.5 -16.5t-103.5 -7.5q-53 -2 -106.5 -1t-106.5 2
v190h67v-131z" />
    <glyph glyph-name="cid368" unicode="&#x313b;" horiz-adv-x="879" 
d="M78 625v58h313v-270h-62v212h-251zM475 187v496h64v-496h-64zM733 626h-149v57h216v-389h-67v332zM78 471h206v-58h-206v58zM145 237q15 0 27.5 -0.5t25 -0.5t27 0.5t34.5 1.5q41 2 78 7t82 15l13 -59q-44 -11 -91 -16.5t-101 -7.5q-26 -1 -45 -1h-36t-36 1t-45 1v190h67
v-131zM800 187h-216v57h216v-57z" />
    <glyph glyph-name="cid369" unicode="&#x313c;" horiz-adv-x="879" 
d="M78 625v58h313v-270h-62v212h-251zM456 187v496h66v-187h161v-58h-161v-251h-66zM733 683h67v-389h-67v389zM78 471h206v-58h-206v58zM145 237q15 0 27.5 -0.5t25 -0.5t27 0.5t34.5 1.5q41 2 78 7t82 15l13 -59q-44 -11 -91 -16.5t-101 -7.5q-26 -1 -45 -1h-36t-36 1
t-45 1v190h67v-131zM801 187h-229v57h229v-57z" />
    <glyph glyph-name="cid370" unicode="&#x313d;" horiz-adv-x="879" 
d="M416 221q48 29 85 69t61.5 86.5t37 97.5t12.5 101v112h62v-112q0 -54 -11 -108.5t-36.5 -107t-66 -100t-99.5 -86.5zM65 625v58h303v-270h-62v212h-241zM65 471h196v-58h-196v58zM712 417q27 -62 64.5 -111.5t89.5 -79.5l-45 -51q-34 24 -58 48.5t-42 50t-31 52t-25 54.5
zM132 237q12 0 22 -0.5t21.5 -0.5t26 0.5t34.5 1.5q41 2 78 7t82 15l13 -59q-44 -11 -91 -16.5t-101 -7.5q-26 -1 -43.5 -1h-32.5t-32.5 1t-43.5 1v190h67v-131z" />
    <glyph glyph-name="cid371" unicode="&#x313e;" horiz-adv-x="879" 
d="M68 625v58h313v-270h-62v212h-251zM451 683h344v-57h-344v57zM657 235q33 1 67.5 4t76.5 10l6 -57q-42 -5 -80.5 -8t-80.5 -5l-194 -1v403h64v-347zM68 471h206v-58h-206v58zM794 459v-56h-233v56h233zM135 237q15 0 27.5 -0.5t25 -0.5t27 0.5t34.5 1.5q41 2 78 7t82 15
l13 -59q-44 -11 -91 -16.5t-101 -7.5q-26 -1 -45 -1h-36t-36 1t-45 1v190h67v-131z" />
    <glyph glyph-name="cid372" unicode="&#x313f;" horiz-adv-x="879" 
d="M58 625v58h308v-270h-62v212h-246zM427 679h392v-56h-392v56zM665 257q6 82 10.5 158t7.5 158h66q-4 -82 -8.5 -158t-11.5 -158h90v-57h-392v57h238zM505 307q-3 69 -6.5 133t-6.5 133h66q2 -69 5 -133t8 -133h-66zM58 471h201v-58h-201v58zM125 237q12 0 22.5 -0.5
t23 -0.5t28 0.5t35.5 1.5q41 2 78 7t82 15l13 -59q-44 -11 -91 -16.5t-101 -7.5q-26 -1 -44 -1h-34.5t-34.5 1t-44 1v190h67v-131z" />
    <glyph glyph-name="cid373" unicode="&#x3140;" horiz-adv-x="879" 
d="M473 699q33 -11 58.5 -16t51.5 -7q27 -2 75.5 -2t101.5 1v-52q-24 -1 -50 -1.5t-53 -0.5q-26 1 -47 1.5t-38 2.5q-62 7 -112 23zM65 625v58h313v-270h-62v212h-251zM396 498v56h455v-56h-455zM65 471h206v-58h-206v58zM526 438q38 8 85 8q57 0 94.5 -10t60.5 -30
q23 -18 33 -44t10 -58t-10 -58t-33 -46q-23 -18 -60.5 -28.5t-94.5 -10.5t-94.5 10.5t-60.5 28.5q-21 16 -31 43.5t-10 60.5q0 32 9 58t32 44q11 10 22 15l36 -51l-6 -4q-15 -11 -21.5 -27.5t-6.5 -34.5q0 -19 6.5 -35.5t21.5 -29.5q15 -12 40.5 -19.5t62.5 -7.5
q38 0 63 7.5t40 19.5q29 25 29 65q0 18 -7 34.5t-22 27.5q-15 13 -40 20.5t-63 7.5q-28 0 -51 -5zM132 237q15 0 27.5 -0.5t25 -0.5t27 0.5t34.5 1.5q41 2 78 7t82 15l13 -59q-44 -11 -91 -16.5t-101 -7.5q-26 -1 -45 -1h-36t-36 1t-45 1v190h67v-131z" />
    <glyph glyph-name="cid374" unicode="&#x3141;" horiz-adv-x="879" 
d="M160 178v505h66v-505h-66zM651 626h-375v57h444v-398h-69v341zM720 178h-444v57h444v-57z" />
    <glyph glyph-name="cid375" unicode="&#x3142;" horiz-adv-x="879" 
d="M181 163v539h66v-206h334v-58h-334v-275h-66zM631 702h66v-432h-66v432zM698 163h-401v57h401v-57z" />
    <glyph glyph-name="cid376" unicode="&#x3143;" horiz-adv-x="879" 
d="M124 163v534h66v-222h102v-58h-102v-254h-66zM337 697h65v-432h-65v432zM476 163v534h66v-222h102v-58h-102v-254h-66zM689 697h65v-432h-65v432zM403 163h-168v57h168v-57zM755 163h-168v57h168v-57z" />
    <glyph glyph-name="cid377" unicode="&#x3144;" horiz-adv-x="879" 
d="M425 221q48 29 85 69t61.5 86.5t37 97.5t12.5 101v112h62v-112q0 -54 -11 -108.5t-36.5 -107t-66 -100t-99.5 -86.5zM66 187v496h66v-187h151v-58h-151v-251h-66zM333 683h67v-389h-67v389zM721 417q27 -62 64.5 -111.5t89.5 -79.5l-45 -51q-34 24 -58 48.5t-42 50
t-31 52t-25 54.5zM401 187h-219v57h219v-57z" />
    <glyph glyph-name="cid378" unicode="&#x3145;" horiz-adv-x="879" 
d="M77 227q100 47 163 100.5t98 107.5t47.5 105t12.5 93v72h64v-72q0 -73 -24.5 -141t-70.5 -127.5t-110.5 -108t-144.5 -81.5zM510 463q14 -26 36 -55.5t55 -60t77 -60.5t102 -56l-34 -56q-51 21 -95 50.5t-80.5 62.5t-64 68t-45.5 68z" />
    <glyph glyph-name="cid379" unicode="&#x3146;" horiz-adv-x="879" 
d="M295 583q0 -35 7 -67.5t24 -65.5t45 -67t71 -70q-9 -11 -21 -21.5t-23 -19.5q-38 35 -66 71t-43 65q-3 6 -9.5 20.5t-8.5 30.5h-22q-3 -16 -8 -29t-8 -21q-21 -51 -63 -105.5t-101 -98.5q-11 11 -22.5 22t-22.5 22q50 33 87 75.5t63 87.5t39.5 89t13.5 82v113h68v-113z
M385 224q51 44 88.5 87.5t63 92t38 105.5t12.5 127v60h64v-60q0 -83 -14 -145t-41.5 -114t-69 -98.5t-95.5 -98.5zM700 408q22 -38 60.5 -82t93.5 -82l-44 -44q-56 42 -93 86t-62 91z" />
    <glyph glyph-name="cid380" unicode="&#x3147;" horiz-adv-x="879" 
d="M263 581q-30 -27 -46 -64t-16 -81q0 -91 62 -147q32 -27 75 -43t101 -16q57 0 101.5 16t74.5 43t46.5 64.5t16.5 82.5q0 44 -16.5 81t-46.5 64q-30 29 -74.5 44.5t-101.5 15.5q-56 0 -102 -16l-43 48q62 25 145 25q78 0 135 -21t95 -57t57 -83t19 -101t-19 -102t-57 -84
q-38 -35 -95 -56t-135 -21t-135 21t-95 56q-38 36 -56.5 84t-18.5 102t18.5 101t56.5 83q12 12 24 20l45 -47z" />
    <glyph glyph-name="cid381" unicode="&#x3148;" horiz-adv-x="879" 
d="M121 220q91 41 148.5 87.5t89 96t42.5 99.5t10 98v22h-262v60h586v-60h-262v-23q0 -150 -83 -256.5t-234 -175.5zM510 425q12 -22 29 -46t45.5 -49.5t70 -51.5t103.5 -50l-35 -54q-54 22 -95.5 47.5t-72.5 53t-53 56.5t-38 58z" />
    <glyph glyph-name="cid382" unicode="&#x3149;" horiz-adv-x="879" 
d="M393 243q58 39 93.5 81t55 84.5t26.5 85.5t7 84v41h-263v-41q0 -32 4.5 -64.5t16 -64.5t31.5 -63t52 -59q-10 -10 -23 -20t-25 -17q-21 22 -36 41t-23 36q-10 21 -14 38.5t-6 25.5h-15q-2 -8 -6 -25.5t-15 -37.5q-18 -34 -50 -77t-96 -90l-46 43q54 35 90 76.5t57.5 85
t31 87.5t9.5 85v41h-153v58h693v-58h-150v-41q0 -109 -47 -206t-154 -172zM682 397q22 -37 54.5 -71t84.5 -63l-43 -47q-48 33 -84 68.5t-58 80.5z" />
    <glyph glyph-name="cid383" unicode="&#x314a;" horiz-adv-x="879" 
d="M262 752q38 -13 75 -19t78 -8q20 -1 45.5 -1.5t55.5 -0.5q30 1 57.5 1t53.5 1v-53q-24 -1 -52.5 -1.5t-60.5 -0.5q-32 1 -59.5 1.5t-50.5 2.5q-46 3 -86 9t-69 17zM131 208q81 25 135 58.5t86 70.5t45 74t13 70v25h-278v58h606v-58h-265v-25q0 -49 -23.5 -98.5t-65 -93
t-97.5 -78.5t-121 -56zM507 369q27 -48 86.5 -88t160.5 -67l-32 -55q-42 11 -82 28.5t-73.5 40.5t-60 51t-42.5 60z" />
    <glyph glyph-name="cid384" unicode="&#x314b;" horiz-adv-x="879" 
d="M154 635v57h535v-80q0 -63 -1 -116t-6 -105q-4 -53 -12 -105.5t-21 -114.5l-65 9q13 61 20.5 114t11.5 105.5t5 109.5t2 126h-469zM548 422q-27 -5 -55.5 -7t-58.5 -4q-60 -4 -128 -5.5t-152 -1.5v55q63 0 123.5 1.5t121.5 3.5q42 2 84.5 5.5t86.5 9.5l-3 -54z" />
    <glyph glyph-name="cid385" unicode="&#x314c;" horiz-adv-x="879" 
d="M161 683h550v-57h-550v57zM227 234h138.5t121.5 2q60 2 119.5 6t129.5 12l6 -57q-75 -8 -144.5 -12t-140.5 -6l-295 -1v398h65v-342zM710 459v-56h-433v56h433z" />
    <glyph glyph-name="cid386" unicode="&#x314d;" horiz-adv-x="879" 
d="M110 659h659v-56h-659v56zM550 322l6 99l5 132h67l-6 -139l-7 -99l-6 -57h160v-58h-659v58h435zM249 553h67l4 -121l8 -124h-67z" />
    <glyph glyph-name="cid387" unicode="&#x314e;" horiz-adv-x="879" 
d="M238 732q38 -12 78.5 -18.5t84.5 -8.5q23 -1 49.5 -1.5t58.5 -0.5q32 1 60 1t54 1v-53q-24 -1 -53 -1.5t-63 -0.5q-33 1 -62 1.5t-54 2.5q-51 3 -93.5 9.5t-71.5 17.5zM104 508v57h659v-57h-659zM325 439q46 8 101 8q256 0 256 -153t-256 -153q-255 0 -255 153
q0 93 94 130l33 -49q-62 -25 -62 -81q0 -53 49.5 -77.5t140.5 -24.5t140.5 24.5t49.5 77.5q0 52 -49.5 76t-140.5 24q-20 0 -37 -1t-33 -3z" />
    <glyph glyph-name="cid388" unicode="&#x314f;" horiz-adv-x="549" 
d="M280 762v-834h-65v834h65zM441 397h-126v56h126v-56z" />
    <glyph glyph-name="cid389" unicode="&#x3150;" horiz-adv-x="625" 
d="M436 -70h-65v461h-182v361h64v-304h118v314h65v-832zM255 351v-411h-66v411h66z" />
    <glyph glyph-name="cid390" unicode="&#x3151;" horiz-adv-x="549" 
d="M279 762v-834h-65v834h65zM441 530h-127v56h127v-56zM441 284h-127v56h127v-56z" />
    <glyph glyph-name="cid391" unicode="&#x3152;" horiz-adv-x="625" 
d="M435 -70h-63v333h-118v-323h-64v556h64v-177h118v217h-182v215h64v-160h118v171h63v-832z" />
    <glyph glyph-name="cid392" unicode="&#x3153;" horiz-adv-x="619" 
d="M339 763h65v-833h-65v833zM304 407h-196v55h196v-55z" />
    <glyph glyph-name="cid393" unicode="&#x3154;" horiz-adv-x="674" 
d="M483 762v-832h-62v832h62zM325 751v-260h-61v260h61zM266 -59v453h-162v57h221v-510h-59z" />
    <glyph glyph-name="cid394" unicode="&#x3155;" horiz-adv-x="619" 
d="M330 762l65 1v-833l-65 -1v833zM295 521h-187v54h187v-54zM295 265h-187v55h187v-55z" />
    <glyph glyph-name="cid395" unicode="&#x3156;" horiz-adv-x="679" 
d="M488 762v-832h-62v832h62zM336 751v-383h-63v160h-169v56h169v167h63zM273 -58v329h-169v57h232v-386h-63z" />
    <glyph glyph-name="cid396" unicode="&#x3157;" horiz-adv-x="880" 
d="M464 646v-306h-65v306h65zM833 232h-787v58h787v-58z" />
    <glyph glyph-name="cid397" unicode="&#x3158;" horiz-adv-x="919" 
d="M700 762v-832h-64v832h64zM871 397h-136v55h136v-55zM271 372h65v-188l-65 -2v190zM586 104q-29 -4 -49 -6.5t-39.5 -5t-42.5 -4.5t-57 -4q-72 -5 -150 -6.5t-159 -1.5h-42v54h43l181 2l65 2l31 2q53 3 113.5 8t105.5 13v-53z" />
    <glyph glyph-name="cid398" unicode="&#x3159;" horiz-adv-x="893" 
d="M521 751h62v-306h103v317h62v-832h-62v459h-165v362zM288 352v-159l-59 -2v161h59zM583 -60h-62v399h62v-399zM471 109q-78 -11 -160 -15.5t-150 -6.5l-114 -1v53h92.5t59.5 0.5t43.5 1t45.5 2.5q28 1 51.5 3t44.5 4t42 4.5t45 5.5v-51z" />
    <glyph glyph-name="cid399" unicode="&#x315a;" horiz-adv-x="853" 
d="M710 762v-832h-64v832h64zM336 373v-188l-66 -2v190h66zM596 105q-14 -2 -29.5 -4t-29.5 -4q-33 -4 -67.5 -7.5t-71.5 -5.5q-72 -4 -150 -6t-159 -2h-42v54h43l181 2l65 2l31 2q38 2 74.5 5t72.5 6q21 2 41.5 5t40.5 6v-53z" />
    <glyph glyph-name="cid400" unicode="&#x315b;" horiz-adv-x="882" 
d="M289 648v-308h-66v308h66zM655 648v-308h-66v308h66zM834 232h-787v58h787v-58z" />
    <glyph glyph-name="cid401" unicode="&#x315c;" horiz-adv-x="879" 
d="M46 540h787v-57h-787v57zM406 105v328h66v-328h-66z" />
    <glyph glyph-name="cid402" unicode="&#x315d;" horiz-adv-x="871" 
d="M664 762h65v-832h-65v832zM47 259v53h10q60 0 127 1t135 4q70 3 138 9.5t131 17.5l11 -53q-57 -10 -118.5 -15.5t-127.5 -9.5l-19 -1q-31 -2 -66.5 -3t-72 -1.5t-72 -1t-66.5 -0.5h-10zM331 218q-7 -66 -20.5 -136t-33.5 -126l-63 13q20 55 34 121t19 126zM416 179h198
v-56h-198v56z" />
    <glyph glyph-name="cid403" unicode="&#x315e;" horiz-adv-x="882" 
d="M739 762v-832h-62v832h62zM584 751v-594h-245v53h183v541h62zM47 338q60 0 113.5 0.5t104.5 2.5q52 2 102.5 6t107.5 10l10 -50q-53 -7 -97 -11t-93 -7q-18 -1 -32 -1.5t-38 -1t-65 -1t-113 -0.5v53zM283 244q-1 -24 -6 -58.5t-12.5 -72t-16.5 -74t-19 -64.5l-62 13
q11 34 19.5 65t14.5 61.5t10.5 61.5t7.5 66zM584 117v-175h-62v175h62z" />
    <glyph glyph-name="cid404" unicode="&#x315f;" horiz-adv-x="843" 
d="M701 762v-832h-65v832h65zM47 313q59 1 101.5 0.5t79.5 1.5q28 1 73 3.5t96 6t101 8.5t88 11v-53q-19 -3 -53 -6.5t-72 -7t-75.5 -6.5t-62.5 -4q-17 -1 -47.5 -2.5t-68 -2.5t-79 -2t-81.5 -1v54zM319 216q-5 -62 -18 -124.5t-32 -125.5l-64 13q8 21 16.5 51t15.5 62.5
t12 64.5t7 57z" />
    <glyph glyph-name="cid405" unicode="&#x3160;" horiz-adv-x="882" 
d="M317 424q-2 -26 -4 -52.5t-6 -55.5q-6 -56 -15.5 -109t-20.5 -91l-65 14q12 38 20.5 89t14.5 103q4 26 6 51.5t4 49.5l3 60h-207v57h787v-57h-514zM563 105v328h67v-328h-67z" />
    <glyph glyph-name="cid406" unicode="&#x3161;" horiz-adv-x="881" 
d="M47 417h787v-58h-787v58z" />
    <glyph glyph-name="cid407" unicode="&#x3162;" horiz-adv-x="854" 
d="M710 762v-832h-64v832h64zM596 106q-10 -2 -36.5 -5.5t-57 -7t-60 -6t-44.5 -3.5q-72 -4 -150 -6t-159 -2h-42v54h43q60 0 131.5 1t145.5 5q27 1 59.5 3.5t64 5.5t59.5 6.5t46 7.5v-53z" />
    <glyph glyph-name="cid408" unicode="&#x3163;" horiz-adv-x="515" 
d="M225 762h65v-832h-65v832z" />
    <glyph glyph-name="cid474" unicode="&#x394;" horiz-adv-x="601" 
d="M273 709h58l255 -709h-571zM300 612l-196 -552h394z" />
    <glyph glyph-name="cid482" unicode="&#x39c;" horiz-adv-x="415" 
d="M356 145q0 -34 -10 -63t-28.5 -50t-46 -32.5t-63.5 -11.5q-55 0 -88 36v-274h-60v680h60v-280q0 -50 23 -76.5t65 -26.5q43 0 65.5 26.5t22.5 76.5v280h60v-285v0z" />
    <glyph glyph-name="cid494" unicode="&#x3a9;" horiz-adv-x="684" 
d="M638 387q0 -106 -41 -192t-109 -135h135v-60h-215v72q37 19 68 50t53 71.5t34.5 89.5t12.5 104q0 60 -17.5 110t-48.5 86.5t-74 57t-94 20.5t-94 -20.5t-74 -57t-48.5 -86.5t-17.5 -110q0 -55 12.5 -104t35 -89.5t53 -71t67.5 -49.5v-73h-215v60h131q-33 25 -59.5 59.5
t-46 77t-30 90.5t-10.5 100q0 73 22 134t61 105.5t93.5 69.5t119.5 25t119.5 -25t93.5 -69.5t61 -105.5t22 -134z" />
    <glyph glyph-name="cid506" unicode="&#x3bc;" horiz-adv-x="415" 
d="M356 145q0 -34 -10 -63t-28.5 -50t-46 -32.5t-63.5 -11.5q-55 0 -88 36v-274h-60v680h60v-280q0 -50 23 -76.5t65 -26.5q43 0 65.5 26.5t22.5 76.5v280h60v-285v0z" />
    <glyph glyph-name="cid510" unicode="&#x3c0;" horiz-adv-x="428" 
d="M341 130q0 -41 13 -57.5t48 -22.5l-8 -56q-54 5 -83.5 33t-29.5 93v250h-154v-370h-60v370h-42v60h358v-60h-42v-240v0z" />
    <glyph glyph-name="cid666" unicode="&#xc6;" horiz-adv-x="856" 
d="M508 2l-114 318h-205l-117 -323l-57 21l251 691h339v-60h-266l98 -269h238v-60h-217l94 -258h282v-60h-326zM211 380h162l-81 224z" />
    <glyph glyph-name="cid667" unicode="&#xd0;" horiz-adv-x="585" 
d="M192 709q80 0 145.5 -25.5t111.5 -72t71 -112.5t25 -147q0 -80 -23 -145t-65.5 -111t-103 -71t-134.5 -25h-2v60h2q60 0 108.5 20.5t83 59t53.5 92.5t19 120q0 67 -20.5 122t-58.5 94t-92 60t-120 21h-48v-270h168v-60h-168v-319h-62v319h-58v60h58v330h110v0z" />
    <glyph glyph-name="cid668" unicode="&#xaa;" horiz-adv-x="426" 
d="M193 381q-35 0 -64 12.5t-51 35t-34 53t-12 66.5t12 67t34 53.5t51 35.5t64 13q24 0 43.5 -6t34 -15.5t25 -20t16.5 -19.5v53h57v-321h-57v51q-17 -21 -47.5 -39.5t-71.5 -18.5zM199 438q48 0 79.5 31t31.5 79q0 24 -8.5 44.5t-23.5 35.5t-35 23.5t-44 8.5
q-23 0 -43 -8.5t-34.5 -23.5t-22.5 -35.5t-8 -44.5q0 -48 30.5 -79t77.5 -31z" />
    <glyph glyph-name="cid669" unicode="&#x126;" horiz-adv-x="696" 
d="M614 0h-62v515h-408v-115h309v-60h-309v-340h-62v515h-44v60h44v134h62v-134h408v134h62v-134h43v-60h-43v-515z" />
    <glyph glyph-name="cid671" unicode="&#x13f;" horiz-adv-x="454" 
d="M144 0h-62v709h62v-709zM342 348q-19 0 -32 13t-13 32q0 18 13.5 31.5t31.5 13.5q19 0 32 -13t13 -32t-13 -32t-32 -13zM396 0h-158v60h158v-60z" />
    <glyph glyph-name="cid672" unicode="&#x141;" horiz-adv-x="426" 
d="M82 0v321l-50 -30l-31 53l81 48v317h62v-281l118 70l31 -53l-149 -88v-357h-62zM238 0v60h158v-60h-158z" />
    <glyph glyph-name="cid673" unicode="&#xd8;" horiz-adv-x="746" 
d="M625 603q38 -47 59.5 -107.5t21.5 -130.5q0 -81 -25.5 -150t-70 -119.5t-105.5 -79t-132 -28.5q-60 0 -112.5 19.5t-95.5 54.5l-62 -74l-45 41l64 76q-38 47 -60 108t-22 132q0 76 22 141t61 115l42 -46q-30 -38 -46.5 -89t-16.5 -111q0 -59 16.5 -109.5t45.5 -91.5
l377 445q-34 29 -76.5 45.5t-91.5 16.5q-58 0 -105 -22l-30 53q33 16 68 22.5t67 6.5q60 0 113 -19.5t96 -54.5l60 71l46 -40zM373 48q58 0 107.5 23.5t86 64.5t57 97t20.5 122q0 58 -16 108.5t-45 90.5l-377 -444q34 -29 76.5 -45.5t90.5 -16.5z" />
    <glyph glyph-name="cid674" unicode="&#x152;" horiz-adv-x="1048" 
d="M644 0v140q-45 -70 -115 -111t-156 -41q-71 0 -132 27t-105.5 75t-70 113t-25.5 142q0 76 22 141t61 115l42 -46q-30 -38 -46.5 -89t-16.5 -111q0 -66 20.5 -122t57 -97t86 -64.5t107.5 -23.5t107.5 23.5t86 64.5t57 97t20.5 122t-20.5 122t-57 97t-86 64t-107.5 23
t-105 -22l-30 53q33 16 68 22.5t67 6.5q86 0 156 -38.5t115 -105.5v132h62v-310h263v-60h-263v-279h289v-60h-351zM794 709h196v-60h-196v60z" />
    <glyph glyph-name="cid675" unicode="&#xba;" horiz-adv-x="392" 
d="M195 381q-35 0 -65 13t-51.5 35.5t-34 53.5t-12.5 67q0 37 12.5 68t34 54t51.5 36t65 13t65.5 -13t52.5 -36t34.5 -54t12.5 -68q0 -36 -12.5 -67t-34.5 -53.5t-52.5 -35.5t-65.5 -13zM196 438q45 0 75 32t30 80q0 24 -8 45t-22 36.5t-33.5 24t-41.5 8.5q-23 0 -42 -8.5
t-33 -24t-22 -36.5t-8 -45q0 -48 30 -80t75 -32z" />
    <glyph glyph-name="cid676" unicode="&#xde;" horiz-adv-x="487" 
d="M229 592q53 0 96 -15t73 -42.5t46.5 -67t16.5 -87.5t-16.5 -87.5t-46.5 -67t-73 -42.5t-96 -15h-83v-168h-64v709h64v-117h83zM229 228q39 0 70 11t53.5 30.5t34.5 47.5t12 63q0 34 -12 62.5t-34.5 48t-53.5 30.5t-70 11h-83v-304h83z" />
    <glyph glyph-name="cid677" unicode="&#x166;" horiz-adv-x="439" 
d="M25 649v60h389v-60h-389zM339 299h-89v-299h-62v299h-89v60h89v173h62v-173h89v-60z" />
    <glyph glyph-name="cid678" unicode="&#x14a;" horiz-adv-x="683" 
d="M601 8q0 -55 -22.5 -101t-64.5 -74l-39 46q28 19 44 49.5t19 66.5l-456 690l51 34l406 -615v605h62v-701zM149 0h-62v441h62v-441z" />
    <glyph glyph-name="cid748" unicode="&#xbd;" horiz-adv-x="839" 
d="M88 31l508 689l51 -37l-510 -691zM11 610l113 99h58v-430h-58v354l-75 -66zM527 0l184 255q14 19 18.5 33t4.5 28q0 29 -18.5 48t-47.5 19t-47.5 -17.5t-18.5 -46.5t24 -52l-39 -39q-43 37 -43 91q0 26 9 48.5t25.5 38.5t39.5 25t50 9q26 0 49 -9.5t39.5 -26t26 -39.5
t9.5 -49q0 -20 -6.5 -42t-22.5 -44l-125 -172h157v-58h-268z" />
    <glyph glyph-name="cid751" unicode="&#xbc;" horiz-adv-x="799" 
d="M88 31l508 689l51 -37l-510 -691zM11 610l113 99h58v-430h-58v354l-75 -66zM698 0h-58v150h-193v56l177 236l48 -32l-156 -204h124v96h58v-96h76v-56h-76v-150z" />
    <glyph glyph-name="cid752" unicode="&#xbe;" horiz-adv-x="923" 
d="M212 31l508 689l51 -37l-510 -691zM339 418q0 -32 -11.5 -59t-31.5 -47t-47.5 -31.5t-59.5 -11.5t-59.5 11.5t-47.5 31.5t-31.5 47t-11.5 59h57q0 -40 26.5 -66.5t66.5 -26.5t66.5 26.5t26.5 66.5q0 36 -26.5 60t-66.5 24q-8 0 -18.5 -0.5t-19.5 -2.5v51l82 103h-154v56
h223v-56l-79 -99q51 -11 83.5 -47.5t32.5 -88.5zM822 0h-58v150h-193v56l177 236l48 -32l-156 -204h124v96h58v-96h76v-56h-76v-150z" />
    <glyph glyph-name="cid757" unicode="&#xe6;" horiz-adv-x="838" 
d="M746 261q-2 27 -13.5 49.5t-30 38.5t-42 25t-50.5 9q-33 0 -60.5 -12.5t-48 -35t-32 -52.5t-11.5 -66t11.5 -67.5t31.5 -54t48 -35.5t60 -13q37 0 68 16t55 45l45 -35q-17 -25 -42 -43.5t-55 -29.5q-33 -12 -70 -12q-48 0 -87 19.5t-65 60.5v-68h-58v69
q-26 -38 -65.5 -59.5t-85.5 -21.5t-85.5 17.5t-68.5 48t-45.5 72t-16.5 90.5q0 48 16.5 89.5t45.5 72t68.5 47.5t85.5 17t86 -21t65 -59v68h58v-68q58 80 152 80q47 0 86 -16.5t66 -47.5t39.5 -75.5t7.5 -100.5h-235v59h172zM249 47q32 0 59.5 13t48 35.5t32 53.5t11.5 67
t-11.5 66.5t-32 53t-48 35t-59.5 12.5q-33 0 -61.5 -12.5t-49.5 -35t-32.5 -53t-11.5 -66.5t11.5 -67t32.5 -53.5t49.5 -35.5t61.5 -13z" />
    <glyph glyph-name="cid758" unicode="&#x111;" horiz-adv-x="524" 
d="M460 0h-60v65q-26 -36 -65.5 -56.5t-85.5 -20.5t-85.5 17.5t-68.5 48t-45.5 72.5t-16.5 91q0 48 16.5 89.5t45.5 71.5t68.5 47t85.5 17t86 -20t65 -56v182h-150v60h150v122h60v-122h30v-60h-30v-548zM249 47q69 0 110 45.5t41 123.5q0 76 -41 121.5t-110 45.5
q-33 0 -61.5 -12.5t-49.5 -35t-32.5 -52.5t-11.5 -66t11.5 -67.5t32.5 -54t49.5 -35.5t61.5 -13z" />
    <glyph glyph-name="cid759" unicode="&#xf0;" horiz-adv-x="527" 
d="M357 617q63 -58 96.5 -146t33.5 -206q0 -63 -16.5 -114t-46.5 -87.5t-73 -56t-95 -19.5q-48 0 -88.5 17.5t-70.5 49t-47 74.5t-17 93t17 93t47 74.5t70.5 49t88.5 17.5q46 0 87.5 -19.5t72.5 -54.5q-24 132 -116 203l-149 -85l-30 51l121 69q-33 15 -71 24.5t-82 12.5
l5 62q124 -9 211 -63l96 54l30 -51zM256 51q34 0 63.5 13.5t51 36.5t33.5 55t12 69q0 34 -13 64.5t-34.5 53.5t-50.5 36.5t-62 13.5q-34 0 -63 -13t-50.5 -36t-33.5 -54t-12 -68t12 -68t33.5 -54t50.5 -36t63 -13z" />
    <glyph glyph-name="cid760" unicode="&#x127;" horiz-adv-x="479" 
d="M64 0v548h-34v60h34v122h60v-122h146v-60h-146v-548h-60zM289 442q62 0 98.5 -43t36.5 -115v-284h-60v283q0 46 -20 73t-55 27q-20 0 -36 -6t-32 -16l-35 45q18 14 43.5 25t59.5 11z" />
    <glyph glyph-name="cid761" unicode="&#x131;" horiz-adv-x="180" 
d="M120 0h-60v430h60v-430z" />
    <glyph glyph-name="cid764" unicode="&#x140;" horiz-adv-x="262" 
d="M124 0h-60v730h60v-730zM224 332q-19 0 -32 13t-13 32q0 18 13.5 31.5t31.5 13.5q19 0 32 -13t13 -32t-13 -32t-32 -13z" />
    <glyph glyph-name="cid765" unicode="&#x142;" horiz-adv-x="218" 
d="M84 0v353l-86 -51l-31 53l117 69v306h60v-271l84 50l31 -53l-115 -68v-388h-60z" />
    <glyph glyph-name="cid766" unicode="&#xf8;" horiz-adv-x="506" 
d="M421 366q25 -29 38.5 -66.5t13.5 -82.5q0 -49 -16.5 -91t-46 -72.5t-70 -48t-87.5 -17.5q-65 0 -118 33l-27 -33l-46 38l28 34q-27 30 -42 70t-15 87q0 48 16.5 89.5t46 71.5t70 47t87.5 17q35 0 65.5 -9t56.5 -26l28 33l47 -38zM94 217q0 -32 9 -59.5t26 -49.5l208 252
q-37 23 -84 23q-34 0 -63 -12.5t-50.5 -35t-33.5 -52.5t-12 -66zM253 47q34 0 63 13t50.5 35.5t33.5 54t12 67.5q0 59 -31 101l-207 -250q17 -10 37 -15.5t42 -5.5z" />
    <glyph glyph-name="cid767" unicode="&#x153;" horiz-adv-x="852" 
d="M761 261q-2 27 -13.5 49.5t-30 38.5t-42.5 25t-51 9q-32 0 -60 -11t-48 -32.5t-31.5 -52.5t-11.5 -70q0 -40 11.5 -71.5t31.5 -53.5t47.5 -33.5t59.5 -11.5q37 0 68 16t55 45l45 -35q-17 -25 -42 -43.5t-55 -29.5q-33 -12 -70 -12q-60 0 -108 27.5t-75 78.5
q-29 -49 -77.5 -77.5t-110.5 -28.5q-47 0 -87.5 17.5t-70 48t-46 72.5t-16.5 91q0 48 16.5 89.5t46 71.5t70 47t87.5 17q62 0 110.5 -28t77.5 -76q27 50 75 77t108 27q47 0 86 -16.5t66 -47.5t39.5 -75.5t7.5 -100.5h-235v59h173zM253 47q34 0 63 13t50.5 35.5t33.5 54
t12 67.5t-12 66t-33.5 52.5t-50.5 35t-63 12.5t-63 -12.5t-50.5 -35t-33.5 -52.5t-12 -66t12 -67.5t33.5 -54t50.5 -35.5t63 -13z" />
    <glyph glyph-name="cid768" unicode="&#xdf;" horiz-adv-x="523" 
d="M334 446q74 -24 115 -80.5t41 -138.5q0 -55 -18.5 -99t-52.5 -75t-82 -48t-108 -17v60q92 0 145.5 46.5t53.5 131.5q0 86 -53.5 134.5t-145.5 48.5v60q53 0 85 32t32 80q0 18 -7.5 34t-21 28t-32 19.5t-40.5 7.5q-43 0 -70 -25t-27 -64v-581h-62v367h-61v63h61v151
q0 33 11.5 60.5t32.5 47t50.5 30.5t64.5 11q36 0 66 -11.5t51.5 -31.5t33.5 -47.5t12 -58.5q0 -44 -19.5 -79t-54.5 -56z" />
    <glyph glyph-name="cid769" unicode="&#xfe;" horiz-adv-x="524" 
d="M275 442q46 0 85.5 -17t68.5 -47t45.5 -71.5t16.5 -89.5q0 -49 -16.5 -91t-45.5 -72.5t-68.5 -48t-85.5 -17.5t-86 20t-65 56v-314h-60v980h60v-365q26 36 65.5 56.5t85.5 20.5zM275 47q33 0 61.5 13t49.5 35.5t32.5 54t11.5 67.5t-11.5 66t-32.5 52.5t-49.5 35
t-61.5 12.5q-69 0 -110 -45.5t-41 -121.5q0 -78 41 -123.5t110 -45.5z" />
    <glyph glyph-name="cid770" unicode="&#x167;" horiz-adv-x="314" 
d="M15 371v59h85v194h60v-194h144v-59h-289zM278 142h-118v-142h-60v142h-62v60h62v78h60v-78h118v-60z" />
    <glyph glyph-name="cid771" unicode="&#x14b;" horiz-adv-x="475" 
d="M301 -121q29 19 44 50.5t15 70.5v283q0 45 -20.5 72.5t-54.5 27.5q-22 0 -36 -5t-29 -19l-38 46q19 17 43.5 27t59.5 10q30 0 54.5 -12t42.5 -33t28 -50t10 -63v-284q0 -51 -22 -95t-61 -72zM120 0h-60v430h60v-430z" />
    <glyph glyph-name="cid842" unicode="&#xb9;" horiz-adv-x="248" 
d="M124 279v354l-75 -66l-38 43l113 99h58v-430h-58z" />
    <glyph glyph-name="cid843" unicode="&#xb2;" horiz-adv-x="352" 
d="M40 279l184 255q14 19 18.5 33t4.5 28q0 29 -18.5 48t-47.5 19t-47.5 -17.5t-18.5 -46.5t24 -52l-39 -39q-43 37 -43 91q0 26 9 48.5t25.5 38.5t39.5 25t50 9q26 0 49 -9.5t39.5 -26t26 -39.5t9.5 -49q0 -20 -6.5 -42t-22.5 -44l-125 -172h157v-58h-268z" />
    <glyph glyph-name="cid844" unicode="&#xb3;" horiz-adv-x="372" 
d="M223 554q51 -11 83.5 -47.5t32.5 -88.5q0 -32 -11.5 -59t-31.5 -47t-47.5 -31.5t-59.5 -11.5t-59.5 11.5t-47.5 31.5t-31.5 47t-11.5 59h57q0 -40 26.5 -66.5t66.5 -26.5t66.5 26.5t26.5 66.5q0 36 -26.5 60t-66.5 24q-8 0 -18.5 -0.5t-19.5 -2.5v51l82 103h-154v56h223
v-56l-79 -99v0z" />
    <glyph glyph-name="cid1086" unicode="&#xac00;" horiz-adv-x="894" 
d="M722 766v-838h-67v838h67zM289 81q25 71 43 153t29 160t16 145.5t5 109.5h-362v58h428q0 -62 -5.5 -142.5t-16.5 -167t-28.5 -172t-41.5 -158.5zM893 391h-136v57h136v-57z" />
    <glyph glyph-name="cid1087" unicode="&#xac01;" horiz-adv-x="898" 
d="M655 766h68v-477h-68v477zM284 330q17 39 31 82t24 87t15.5 87.5t6.5 82.5h-351v58h421q0 -53 -5.5 -108t-16 -109t-25.5 -105t-34 -95zM894 459h-136v58h136v-58zM732 227v-320h-67v262h-530v58h597z" />
    <glyph glyph-name="cid1088" unicode="&#xac04;" horiz-adv-x="889" 
d="M713 766v-672h-68v672h68zM248 239q25 48 44 104.5t32 113.5t20 109.5t8 92.5h-342v58h411q0 -63 -8 -129.5t-22 -131.5t-34 -126.5t-45 -113.5zM884 419h-136v58h136v-58zM747 -30v-58h-607v240h67v-182h540z" />
    <glyph glyph-name="cid1089" unicode="&#xac07;" horiz-adv-x="898" 
d="M732 766v-249h162v-58h-162v-170h-67v477h67zM284 330q17 39 31 82t24 87t15.5 87.5t6.5 82.5h-351v58h421q0 -52 -5.5 -107t-16 -109t-25.5 -105t-34 -96zM732 227v-57h-588v57h588zM751 -35v-58h-606v228h68v-170h538z" />
    <glyph glyph-name="cid1090" unicode="&#xac08;" horiz-adv-x="898" 
d="M894 469h-162v-151h-67v448h67v-240h162v-57zM291 350q35 78 51.5 159t18.5 160h-351v58h421q0 -105 -18 -206.5t-57 -191.5zM662 207h-522v58h592v-118h-70v60zM732 112v-57h-592v57h592zM762 -45v-58h-622v123h70v-65h552z" />
    <glyph glyph-name="cid1091" unicode="&#xac09;" horiz-adv-x="898" 
d="M732 766v-240h162v-57h-162v-151h-67v448h67zM291 350q35 78 51.5 159t18.5 160h-351v58h421q0 -105 -18 -206.5t-57 -191.5zM98 210v55h317v-121h-66v66h-251zM732 -103h-67v312h-210v56h277v-368zM415 109v-54h-317v54h317zM286 -48q21 0 45.5 1t48 4t45 7.5t38.5 10.5
l15 -53q-19 -8 -43 -13t-49.5 -7.5t-51.5 -3.5t-48 -1h-187v123h66v-68h121z" />
    <glyph glyph-name="cid1092" unicode="&#xac0a;" horiz-adv-x="898" 
d="M732 766v-240h162v-57h-162v-151h-67v448h67zM291 350q35 78 51.5 159t18.5 160h-351v58h421q0 -105 -18 -206.5t-57 -191.5zM98 210v55h279v-120h-65v65h-214zM456 265h64v-368h-64v368zM550 210v55h181v-283h-64v228h-117zM377 110v-54h-279v54h279zM240 -48
q19 0 41.5 1t45.5 4t44.5 7.5t38.5 10.5l15 -53q-19 -8 -43 -13t-49 -7.5t-49.5 -3.5t-43.5 -1h-141v124h65v-69h76zM550 -103v55h181v-55h-181z" />
    <glyph glyph-name="cid1093" unicode="&#xac10;" horiz-adv-x="898" 
d="M893 460h-161v-171h-67v477h67v-248h161v-58zM287 330q17 39 31 82t24 87t15.5 87.5t6.5 82.5h-354v58h421q0 -52 -5.5 -107t-16 -109t-25.5 -105t-34 -96zM204 227v-320h-63v320h63zM665 170h-422v57h490v-227h-68v170zM734 -35v-58h-491v58h491z" />
    <glyph glyph-name="cid1094" unicode="&#xac11;" horiz-adv-x="898" 
d="M732 766v-249h162v-58h-162v-150h-67v457h67zM284 330q17 39 31 82t24 87t15.5 87.5t6.5 82.5h-351v58h421q0 -52 -5.5 -107t-16 -109t-25.5 -105t-34 -96zM141 264h66v-130h418v-58h-418v-169h-66v357zM732 264v-264h-67v264h67zM247 -93v58h486v-58h-486z" />
    <glyph glyph-name="cid1095" unicode="&#xac12;" horiz-adv-x="898" 
d="M894 459h-162v-150h-67v457h67v-249h162v-58zM291 350q35 78 51.5 159t18.5 160h-351v58h421q0 -105 -18 -206.5t-57 -191.5zM173 -104h-62v369h62v-137h166v-56h-166v-176zM434 265v-283h-65v283h65zM669 217q0 -47 -11.5 -93.5t-33 -89.5t-54 -80.5t-74.5 -64.5l-48 39
q39 24 68.5 56t50 69.5t30.5 79t10 83.5v49h62v-48zM707 81q20 -38 48.5 -75t84.5 -71l-43 -44q-30 21 -51.5 40t-36.5 37t-25.5 35t-18.5 34l-3 7zM434 -48v-56h-231v56h231z" />
    <glyph glyph-name="cid1096" unicode="&#xac13;" horiz-adv-x="898" 
d="M732 766v-254h162v-58h-162v-233h-67v545h67zM274 310q22 45 38 92.5t26.5 94.5t16 91t6.5 81h-351v58h421q-3 -134 -26 -240t-66 -200zM127 -55q84 24 142.5 57t95.5 69t54 71.5t17 64.5v16h67v-16q0 -49 -25.5 -95.5t-71.5 -87.5t-109.5 -74.5t-138.5 -56.5zM544 105
q33 -40 98 -81t170 -67l-30 -55q-93 28 -167.5 67t-118.5 99z" />
    <glyph glyph-name="cid1097" unicode="&#xac14;" horiz-adv-x="898" 
d="M732 766v-249h162v-58h-162v-170h-67v477h67zM284 330q17 39 31 82t24 87t15.5 87.5t6.5 82.5h-351v58h421q0 -52 -5.5 -107t-16 -109t-25.5 -105t-34 -96zM443 -15q-10 -9 -23.5 -19.5t-26.5 -19.5q-30 23 -50.5 46t-34.5 49q-4 7 -8 18.5t-6 22.5h-14q-1 -11 -5.5 -24
t-9.5 -21q-20 -38 -57.5 -77t-92.5 -74l-44 41q55 33 90.5 71.5t55.5 76.5t28 72t8 58v38h65v-38q0 -23 6 -50.5t20.5 -57t38.5 -58.5t60 -54zM419 -70q49 33 82.5 69t53.5 72t29 69.5t10 61.5l1 41h63v-41q0 -79 -44 -158.5t-146 -157.5zM694 76q19 -34 50.5 -69.5
t90.5 -69.5l-44 -46q-54 35 -86.5 69t-57.5 79z" />
    <glyph glyph-name="cid1098" unicode="&#xac15;" horiz-adv-x="898" 
d="M732 766v-249h162v-58h-162v-189h-67v496h67zM282 320q17 39 31.5 83.5t24.5 90.5t16 91t7 84h-351v58h421q0 -52 -6 -108.5t-16.5 -112.5t-26 -108.5t-34.5 -97.5zM288 219q31 6 68 9.5t82 3.5q159 0 234 -43t75 -122q0 -78 -75 -121.5t-234 -43.5t-233.5 43.5
t-74.5 121.5q0 92 97 133l31 -49q-64 -27 -64 -84q0 -58 64 -83.5t180 -25.5t180.5 25.5t64.5 83.5q0 59 -64.5 84.5t-180.5 25.5q-68 0 -119 -9z" />
    <glyph glyph-name="cid1099" unicode="&#xac16;" horiz-adv-x="898" 
d="M732 766v-249h162v-58h-162v-170h-67v477h67zM284 330q17 39 31 82t24 87t15.5 87.5t6.5 82.5h-351v58h421q0 -52 -5.5 -107t-16 -109t-25.5 -105t-34 -96zM104 -49q78 19 133.5 45.5t91 56.5t52 60t16.5 56h-279v58h624v-58h-279q0 -38 -21.5 -78t-63 -76t-102.5 -66.5
t-140 -50.5zM510 78q32 -34 91.5 -66t157.5 -52l-32 -55q-38 10 -76 23t-72.5 29.5t-64 37.5t-50.5 47z" />
    <glyph glyph-name="cid1100" unicode="&#xac17;" horiz-adv-x="898" 
d="M732 766v-240h162v-57h-162v-170h-67v467h67zM291 350q35 78 51.5 159t18.5 160h-351v58h421q0 -105 -18 -206.5t-57 -191.5zM280 277h316v-56h-316v56zM109 -47q80 10 135.5 28t91 38.5t51.5 41t17 36.5h-276v55h624v-55h-282q1 -36 -29 -68.5t-78 -58.5t-107.5 -44.5
t-117.5 -27.5zM514 38q16 -14 42 -27t59 -23.5t71 -18t80 -11.5l-27 -54q-91 11 -162.5 37.5t-107.5 63.5z" />
    <glyph glyph-name="cid1101" unicode="&#xac19;" horiz-adv-x="898" 
d="M732 766v-240h162v-57h-162v-160h-67v457h67zM288 340q35 78 53 164t20 165h-351v58h421q0 -105 -19.5 -211.5t-57.5 -196.5zM732 245v-58h-592v58h592zM762 -45v-58h-620v250h65v-192h555zM732 103v-58h-489v58h489z" />
    <glyph glyph-name="cid1102" unicode="&#xac1a;" horiz-adv-x="898" 
d="M732 766v-249h162v-58h-162v-170h-67v477h67zM284 330q17 39 31 82t24 87t15.5 87.5t6.5 82.5h-351v58h421q0 -52 -5.5 -107t-16 -109t-25.5 -105t-34 -96zM757 227v-58h-626v58h626zM627 139v-174h144v-58h-655v58h450v174h61zM339 139v-144h-61v144h61z" />
    <glyph glyph-name="cid1103" unicode="&#xac1b;" horiz-adv-x="898" 
d="M732 766v-230h162v-57h-162v-180h-67v467h67zM291 350q35 78 51.5 159t18.5 160h-351v58h421q0 -105 -18 -206.5t-57 -191.5zM271 282h336v-56h-336v56zM769 175v-55h-659v55h659zM307 20q-31 -6 -44 -15t-13 -22q0 -45 189 -45q90 0 139 11t49 34q0 24 -49.5 34
t-141.5 10h-43.5t-37.5 -2l-30 48q24 2 51.5 4t59.5 2q135 0 196.5 -24.5t61.5 -71.5t-61 -71t-194 -24q-68 0 -116.5 6t-79 18t-44.5 29.5t-14 41.5q0 59 93 82z" />
    <glyph glyph-name="cid1104" unicode="&#xac1c;" horiz-adv-x="908" 
d="M801 -72h-66v463h-207v365h66v-308h141v318h66v-838zM403 697q0 -62 -5 -142.5t-16.5 -167t-28.5 -172t-41 -157.5l-67 13q25 71 43 153t28.5 160.5t15.5 146t5 109.5h-317v57h383zM596 351v-409h-68v409h68z" />
    <glyph glyph-name="cid1105" unicode="&#xac1d;" horiz-adv-x="869" 
d="M570 755v-190h127v201h65v-487h-65v228h-191v248h64zM226 322q20 43 35.5 90t26 93t15.5 88.5t5 75.5h-288v58h357q0 -102 -21.5 -214.5t-65.5 -211.5zM506 279v193h64v-193h-64zM154 159v58h605v-310h-68v252h-537z" />
    <glyph glyph-name="cid1106" unicode="&#xac20;" horiz-adv-x="869" 
d="M570 755v-259h127v270h65v-672h-65v344h-191v317h64zM224 256q22 58 36 118t22.5 114.5t12 99t3.5 71.5h-278v58h346q0 -56 -5 -116.5t-15 -121.5t-24.5 -122t-33.5 -118zM506 104v299h64v-299h-64zM781 -30v-58h-617v221h67v-163h550z" />
    <glyph glyph-name="cid1107" unicode="&#xac24;" horiz-adv-x="869" 
d="M506 309v446h64v-200h127v211h65v-457h-65v188h-127v-188h-64zM226 332q20 42 35.5 87.5t26 90t15.5 85.5t5 74h-288v58h357q0 -102 -21.5 -210t-65.5 -206zM687 186h-518v58h589v-106h-71v48zM758 102v-56h-589v56h589zM788 -103h-619v114h71v-56h548v-58z" />
    <glyph glyph-name="cid1108" unicode="&#xac2c;" horiz-adv-x="869" 
d="M570 755v-200h127v211h65v-496h-65v227h-127v-227h-64v485h64zM226 322q20 43 35.5 90t26 93t15.5 88.5t5 75.5h-288v58h357q0 -102 -21.5 -214.5t-65.5 -211.5zM168 207h63v-300h-63v300zM270 150v57h490v-207h-68v150h-422zM761 -35v-58h-491v58h491z" />
    <glyph glyph-name="cid1109" unicode="&#xac2d;" horiz-adv-x="869" 
d="M570 755v-200h127v211h65v-467h-65v198h-127v-198h-64v456h64zM226 322q20 43 35.5 90t26 93t15.5 88.5t5 75.5h-288v58h357q0 -102 -21.5 -214.5t-65.5 -211.5zM170 239h66v-119h416v-58h-416v-155h-66v332zM759 239v-239h-67v239h67zM276 -93v58h484v-58h-484z" />
    <glyph glyph-name="cid1110" unicode="&#xac2f;" horiz-adv-x="869" 
d="M570 755v-220h127v231h65v-565h-65v277h-127v-199h-64v476h64zM226 303q20 42 35.5 92t26 100t15.5 95.5t5 78.5h-288v58h357q0 -51 -5.5 -108.5t-16 -116.5t-26 -115.5t-36.5 -105.5zM107 -55q84 24 142.5 57t95.5 69t54 71.5t17 64.5v16h67v-16q0 -49 -25.5 -95.5
t-71.5 -87.5t-109.5 -74.5t-138.5 -56.5zM524 105q33 -40 98 -81t170 -67l-30 -55q-93 28 -167.5 67t-118.5 99z" />
    <glyph glyph-name="cid1111" unicode="&#xac30;" horiz-adv-x="869" 
d="M570 755v-200h127v211h65v-521h-65v252h-127v-232h-64v490h64zM229 332q20 42 35 87.5t24.5 90t14.5 85.5t5 74h-288v58h357q0 -102 -20 -210t-64 -206zM436 -14q-10 -9 -23 -20t-26 -20q-30 23 -50 44t-35 45q-5 7 -10 18.5t-7 22.5h-13q-1 -11 -5.5 -24t-9.5 -21
q-20 -35 -57.5 -72.5t-92.5 -72.5l-44 41q56 34 91.5 70t55.5 70t27.5 65t7.5 55v27h66v-27q0 -23 6 -48.5t20.5 -51.5t38.5 -51.5t60 -49.5zM411 -70q51 33 84.5 68t54 69t28.5 66t8 59v22h63v-22q0 -39 -10 -77.5t-32.5 -76t-58.5 -75.5t-88 -77zM683 71q17 -30 50.5 -65
t93.5 -69l-44 -46q-53 34 -88 67.5t-57 77.5z" />
    <glyph glyph-name="cid1112" unicode="&#xac31;" horiz-adv-x="869" 
d="M570 755v-210h127v221h65v-536h-65v257h-127v-208h-64v476h64zM226 303q20 42 35.5 92t26 100t15.5 95.5t5 78.5h-288v58h357q0 -51 -5.5 -108.5t-16 -116.5t-26 -115.5t-36.5 -105.5zM282 136q-32 -13 -47.5 -33.5t-15.5 -40.5q0 -54 63 -80t179 -26q115 0 178.5 26
t63.5 80q0 48 -63.5 74t-178.5 26q-69 0 -118 -9l-32 50q32 7 68.5 10.5t81.5 3.5q79 0 137.5 -11.5t96.5 -32t57 -48.5t19 -62q0 -75 -75.5 -118t-234.5 -43q-160 0 -235.5 43t-75.5 117q0 35 24.5 69t75.5 54z" />
    <glyph glyph-name="cid1113" unicode="&#xac38;" horiz-adv-x="908" 
d="M717 766v-838h-67v838h67zM289 81q25 71 43 153t29 160t16 145.5t5 109.5h-362v58h428q0 -62 -5.5 -142.5t-16.5 -167t-28.5 -172t-41.5 -158.5zM894 480h-142v56h142v-56zM894 234h-142v57h142v-57z" />
    <glyph glyph-name="cid1114" unicode="&#xac39;" horiz-adv-x="908" 
d="M655 766h68v-477h-68v477zM284 330q17 39 31 82t24 87t15.5 87.5t6.5 82.5h-351v58h421q0 -53 -5.5 -108t-16 -109t-25.5 -105t-34 -95zM889 566h-131v58h131v-58zM889 429v-58h-131v58h131zM732 227v-320h-67v262h-530v58h597z" />
    <glyph glyph-name="cid1115" unicode="&#xac3c;" horiz-adv-x="898" 
d="M645 766h68v-672h-68v672zM248 239q25 48 44 104.5t32 113.5t20 109.5t8 92.5h-342v58h411q0 -63 -8 -129.5t-22 -131.5t-34 -126.5t-45 -113.5zM879 527h-131v58h131v-58zM879 380v-58h-131v58h131zM747 -30v-58h-607v240h67v-182h540z" />
    <glyph glyph-name="cid1116" unicode="&#xac40;" horiz-adv-x="908" 
d="M732 468h157v-58h-157v-92h-67v448h67v-122h157v-58h-157v-118zM291 350q35 78 51.5 159t18.5 160h-351v58h421q0 -105 -18 -206.5t-57 -191.5zM662 207h-522v58h592v-118h-70v60zM732 112v-57h-592v57h592zM762 -45v-58h-622v123h70v-65h552z" />
    <glyph glyph-name="cid1117" unicode="&#xac4b;" horiz-adv-x="908" 
d="M732 766v-147h157v-57h-157v-128h157v-58h-157v-155h-67v545h67zM274 310q22 45 38 92.5t26.5 94.5t16 91t6.5 81h-351v58h421q-2 -134 -25.5 -240t-66.5 -200zM127 -55q84 24 142.5 57t95.5 69t54 71.5t17 64.5v16h67v-16q0 -49 -25.5 -95.5t-71.5 -87.5t-109.5 -74.5
t-138.5 -56.5zM544 105q33 -40 98 -81t170 -67l-30 -55q-93 28 -167.5 67t-118.5 99z" />
    <glyph glyph-name="cid1118" unicode="&#xac4d;" horiz-adv-x="908" 
d="M732 766v-142h157v-58h-157v-137h157v-58h-157v-101h-67v496h67zM282 320q17 39 31.5 83.5t24.5 90.5t16 91t7 84h-351v58h421q0 -52 -6 -108.5t-16.5 -112.5t-26 -108.5t-34.5 -97.5zM288 219q31 6 68 9.5t82 3.5q159 0 234 -43t75 -122q0 -78 -75 -121.5t-234 -43.5
t-233.5 43.5t-74.5 121.5q0 92 97 133l31 -49q-64 -27 -64 -84q0 -58 64 -83.5t180 -25.5t180.5 25.5t64.5 83.5q0 59 -64.5 84.5t-180.5 25.5q-68 0 -119 -9z" />
    <glyph glyph-name="cid1119" unicode="&#xac54;" horiz-adv-x="908" 
d="M801 -72h-68v315h-137v-301h-68v505h68v-146h137v186h-205v269h68v-211h137v221h68v-838zM403 697q0 -62 -5 -142.5t-16.5 -167t-28.5 -172t-41 -157.5l-67 13q25 71 43 153t28.5 160.5t15.5 146t5 109.5h-317v57h383z" />
    <glyph glyph-name="cid1120" unicode="&#xac58;" horiz-adv-x="869" 
d="M697 379v157h-191v219h64v-161h127v172h65v-672h-65v227h-127v-217h-64v396h64v-121h127zM224 256q22 58 36 118t22.5 114.5t12 99t3.5 71.5h-278v58h346q0 -56 -5 -116.5t-15 -121.5t-24.5 -122t-33.5 -118zM781 -30v-58h-617v221h67v-163h550z" />
    <glyph glyph-name="cid1121" unicode="&#xac5c;" horiz-adv-x="869" 
d="M506 309v446h64v-112h127v123h65v-457h-65v100h-127v-100h-64zM226 332q20 42 35.5 87.5t26 90t15.5 85.5t5 74h-288v58h357q0 -102 -21.5 -210t-65.5 -206zM697 585h-127v-118h127v118zM688 187h-519v58h590v-97h-71v39zM759 102v-56h-590v56h590zM788 -103h-619v102h71
v-44h548v-58z" />
    <glyph glyph-name="cid1122" unicode="&#xac70;" horiz-adv-x="859" 
d="M685 766h67v-838h-67v838zM289 81q25 71 43 153t29 160t16 145.5t5 109.5h-362v58h428q0 -72 -6.5 -157t-18.5 -171.5t-29 -167.5t-38 -144zM650 390h-169v58h169v-58z" />
    <glyph glyph-name="cid1123" unicode="&#xac71;" horiz-adv-x="869" 
d="M762 289h-68v477h68v-477zM284 330q17 39 31 82t24 87t15.5 87.5t6.5 82.5h-351v58h421q0 -49 -5.5 -104t-16 -110.5t-25.5 -108t-34 -94.5zM654 490h-191v58h191v-58zM159 169v58h603v-320h-68v262h-535z" />
    <glyph glyph-name="cid1124" unicode="&#xac74;" horiz-adv-x="859" 
d="M752 94h-67v672h67v-672zM390 451q-14 -64 -34 -124t-44 -111l-64 23q25 48 44 104.5t32 113.5t20 109.5t8 92.5h-342v58h411q0 -51 -5.5 -103t-14.5 -105q-2 -14 -4.5 -29t-6.5 -29zM645 451h-191v58h191v-58zM771 -30v-58h-607v240h67v-182h540z" />
    <glyph glyph-name="cid1125" unicode="&#xac77;" horiz-adv-x="869" 
d="M463 480v58h231v228h68v-477h-68v191h-231zM284 330q17 39 31 82t24 87t15.5 87.5t6.5 82.5h-351v58h421q0 -49 -5.5 -104t-16 -110.5t-25.5 -108t-34 -94.5zM156 170v57h606v-57h-606zM781 -93h-624v228h68v-170h556v-58z" />
    <glyph glyph-name="cid1126" unicode="&#xac78;" horiz-adv-x="869" 
d="M459 486v57h235v223h68v-447h-68v167h-235zM291 350q35 78 51.5 159t18.5 160h-351v58h421q0 -47 -3.5 -93t-10.5 -91l-11 -58q-17 -82 -50 -156zM690 207h-525v58h597v-118h-72v60zM762 112v-57h-597v57h597zM791 -103h-626v123h72v-65h554v-58z" />
    <glyph glyph-name="cid1127" unicode="&#xac7a;" horiz-adv-x="869" 
d="M762 319h-68v167h-235v57h235v223h68v-447zM291 350q35 78 51.5 159t18.5 160h-351v58h421q0 -47 -3.5 -93t-10.5 -91l-11 -58q-17 -82 -50 -156zM342 210h-214v55h279v-120h-65v65zM550 265v-368h-64v368h64zM761 265v-283h-64v228h-117v55h181zM128 56v54h279v-54h-279
zM270 -48q19 0 41.5 1t45.5 4t44.5 7.5t38.5 10.5l15 -53q-19 -8 -43 -13t-49 -7.5t-49.5 -3.5t-43.5 -1h-141v124h65v-69h76zM761 -48v-55h-181v55h181z" />
    <glyph glyph-name="cid1128" unicode="&#xac80;" horiz-adv-x="869" 
d="M762 289h-68v201h-231v58h231v218h68v-477zM284 330q17 39 31 82t24 87t15.5 87.5t6.5 82.5h-351v58h421q0 -49 -5.5 -104t-16 -110.5t-25.5 -108t-34 -94.5zM229 227v-320h-63v320h63zM690 170h-422v57h490v-227h-68v170zM759 -35v-58h-491v58h491z" />
    <glyph glyph-name="cid1129" unicode="&#xac81;" horiz-adv-x="869" 
d="M463 490v58h231v218h68v-457h-68v181h-231zM284 330q17 39 31 82t24 87t15.5 87.5t6.5 82.5h-351v58h421q0 -49 -5.5 -104t-16 -110.5t-25.5 -108t-34 -94.5zM230 76v-169h-66v357h66v-130h425v-58h-425zM695 264h67v-264h-67v264zM763 -93h-493v58h493v-58z" />
    <glyph glyph-name="cid1130" unicode="&#xac83;" horiz-adv-x="869" 
d="M459 476v57h235v233h68v-545h-68v255h-235zM274 310q22 45 38 92.5t26.5 94.5t16 91t6.5 81h-351v58h421q-3 -122 -25 -230.5t-67 -209.5zM526 207q0 -49 -25.5 -95.5t-71.5 -87.5t-109.5 -74.5t-138.5 -56.5l-31 52q83 24 142 57t96 69t54 71.5t17 64.5v16h67v-16z
M567 105q33 -40 98 -81t170 -67l-30 -55q-93 28 -167.5 67t-118.5 99z" />
    <glyph glyph-name="cid1131" unicode="&#xac84;" horiz-adv-x="869" 
d="M459 486v57h235v223h68v-477h-68v197h-235zM284 330q17 39 31 82t24 87t15.5 87.5t6.5 82.5h-351v58h421q0 -109 -21.5 -218.5t-59.5 -198.5zM338 205q0 -23 6 -50.5t20.5 -57t38.5 -58.5t60 -54q-10 -9 -23.5 -19.5t-26.5 -19.5q-30 23 -50.5 46t-34.5 49q-4 7 -8 18.5
t-6 22.5h-14q-1 -11 -5.5 -24t-9.5 -21q-20 -38 -57.5 -77t-92.5 -74l-44 41q55 33 90.5 71.5t55.5 76.5t28 72t8 58v38h65v-38zM678 202q0 -79 -44 -158.5t-146 -157.5l-49 44q49 33 82.5 69t53.5 72t29 69.5t10 61.5l1 41h63v-41zM714 76q19 -34 50.5 -69.5t90.5 -69.5
l-44 -46q-54 35 -86.5 69t-57.5 79z" />
    <glyph glyph-name="cid1132" unicode="&#xac85;" horiz-adv-x="869" 
d="M694 766h68v-496h-68v210h-236v58h236v228zM282 320q17 39 31.5 83.5t24.5 90.5t16 91t7 84h-351v58h421q0 -52 -6 -108.5t-16.5 -112.5t-26 -108.5t-34.5 -97.5zM318 219q31 6 68 9.5t82 3.5q159 0 234 -43t75 -122q0 -78 -75 -121.5t-234 -43.5t-233.5 43.5
t-74.5 121.5q0 92 97 133l31 -49q-64 -27 -64 -84q0 -58 64 -83.5t180 -25.5t180.5 25.5t64.5 83.5q0 59 -64.5 84.5t-180.5 25.5q-68 0 -119 -9z" />
    <glyph glyph-name="cid1133" unicode="&#xac86;" horiz-adv-x="869" 
d="M463 490v58h231v218h68v-477h-68v201h-231zM284 330q17 39 31 82t24 87t15.5 87.5t6.5 82.5h-351v58h421q0 -49 -5.5 -104t-16 -110.5t-25.5 -108t-34 -94.5zM493 169q0 -38 -21.5 -78t-63 -76t-102.5 -66.5t-140 -50.5l-32 53q78 19 133.5 45.5t91 56.5t52 60t16.5 56
h-279v58h624v-58h-279zM540 78q32 -34 91.5 -66t157.5 -52l-32 -55q-38 10 -76 23t-72.5 29.5t-64 37.5t-50.5 47z" />
    <glyph glyph-name="cid1134" unicode="&#xac89;" horiz-adv-x="869" 
d="M694 766h68v-457h-68v176h-236v58h236v223zM288 340q35 78 53 164t20 165h-351v58h421q0 -105 -19.5 -211.5t-57.5 -196.5zM761 245v-58h-598v58h598zM791 -45v-58h-626v250h65v-192h561zM761 103v-58h-495v58h495z" />
    <glyph glyph-name="cid1135" unicode="&#xac8a;" horiz-adv-x="869" 
d="M463 490v58h231v218h68v-477h-68v201h-231zM284 330q17 39 31 82t24 87t15.5 87.5t6.5 82.5h-351v58h421q0 -49 -5.5 -104t-16 -110.5t-25.5 -108t-34 -94.5zM150 169v58h626v-58h-626zM790 -93h-655v58h450v174h61v-174h144v-58zM297 139h61v-144h-61v144z" />
    <glyph glyph-name="cid1136" unicode="&#xac8b;" horiz-adv-x="869" 
d="M459 486v57h235v223h68v-467h-68v187h-235zM291 350q35 78 51.5 159t18.5 160h-351v58h421q0 -47 -3.5 -93t-10.5 -91l-11 -58q-17 -82 -50 -156zM647 282v-56h-336v56h336zM809 120h-659v55h659v-55zM476 79q135 0 196.5 -24.5t61.5 -71.5t-61 -71t-194 -24
q-68 0 -116.5 6t-79 18t-44.5 29.5t-14 41.5q0 59 93 82l29 -45q-31 -6 -44 -15t-13 -22q0 -45 189 -45q90 0 139 11t49 34q0 24 -49.5 34t-141.5 10h-43.5t-37.5 -2l-30 48q24 2 51.5 4t59.5 2z" />
    <glyph glyph-name="cid1137" unicode="&#xac8c;" horiz-adv-x="908" 
d="M801 -72h-68v838h68v-838zM605 756v-265h-67v265h67zM240 71q26 71 43.5 153t28.5 160.5t15.5 146t4.5 109.5h-312v57h378q0 -75 -6.5 -161.5t-18.5 -172.5t-28.5 -165t-36.5 -140zM540 -58v452h-105v57h170v-509h-65z" />
    <glyph glyph-name="cid1138" unicode="&#xac90;" horiz-adv-x="869" 
d="M762 766v-672h-65v672h65zM525 506v249h64v-306h-198v57h134zM224 256q19 50 33 106.5t23 111.5t13 103.5t4 81.5h-278v58h347q-1 -105 -18.5 -227.5t-59.5 -250.5zM524 104v310h65v-310h-65zM781 -30v-58h-617v221h67v-163h550z" />
    <glyph glyph-name="cid1139" unicode="&#xac94;" horiz-adv-x="869" 
d="M697 309v457h65v-457h-65zM403 507v57h122v191h65v-446h-65v198h-122zM216 332q20 42 35.5 87.5t26 90t15.5 85.5t5 74h-278v58h347q-3 -113 -23.5 -213t-63.5 -203zM688 187h-519v58h590v-97h-71v39zM759 102v-56h-590v56h590zM788 -103h-619v102h71v-44h548v-58z" />
    <glyph glyph-name="cid1140" unicode="&#xac9c;" horiz-adv-x="869" 
d="M762 766v-496h-65v496h65zM525 755h65v-485h-65v237h-122v57h122v191zM216 322q20 42 35.5 89t26 93.5t15.5 89t5 75.5h-278v58h347q-3 -114 -23 -218t-64 -208zM169 207h63v-300h-63v300zM271 149v58h488v-208h-68v150h-420zM760 -36v-57h-489v57h489z" />
    <glyph glyph-name="cid1141" unicode="&#xac9d;" horiz-adv-x="869" 
d="M762 766v-467h-65v467h65zM525 755h65v-455h-65v207h-122v57h122v191zM216 322q20 42 35.5 89t26 93.5t15.5 89t5 75.5h-278v58h347q-3 -114 -23 -218t-64 -208zM169 239h66v-119h417v-58h-417v-155h-66v332zM759 239v-239h-67v239h67zM275 -93v58h485v-58h-485z" />
    <glyph glyph-name="cid1142" unicode="&#xac9f;" horiz-adv-x="869" 
d="M762 766v-565h-65v565h65zM525 755h65v-476h-65v228h-122v57h122v191zM216 303q20 42 35.5 92t26 100t15.5 95.5t5 78.5h-278v58h347q-3 -114 -21.5 -228t-62.5 -218zM107 -55q84 24 142.5 57t95.5 69t54 71.5t17 64.5v16h67v-16q0 -49 -26 -95.5t-71.5 -87.5t-109 -74.5
t-138.5 -56.5zM524 105q33 -40 98 -81t170 -67l-30 -55q-93 28 -167.5 67t-118.5 99z" />
    <glyph glyph-name="cid1143" unicode="&#xaca0;" horiz-adv-x="869" 
d="M762 766v-521h-65v521h65zM525 755h65v-490h-65v242h-122v57h122v191zM219 332q20 42 35 87.5t24.5 90t14.5 85.5t5 74h-278v58h347q-2 -113 -20.5 -213t-63.5 -203zM436 -14q-10 -9 -23 -20t-26 -20q-30 23 -50 44t-35 45q-5 7 -10 18.5t-7 22.5h-13q-1 -11 -5.5 -24
t-9.5 -21q-20 -35 -57.5 -72.5t-92.5 -72.5l-44 41q56 34 91.5 70t55.5 70t27.5 65t7.5 55v27h66v-27q0 -23 6 -48.5t20.5 -51.5t38.5 -51.5t60 -49.5zM411 -70q51 33 84.5 68t54 69t28.5 66t8 59v22h63v-22q0 -39 -10 -77.5t-32.5 -76t-58.5 -75.5t-88 -77zM683 71
q17 -30 50.5 -65t93.5 -69l-44 -46q-53 34 -88 67.5t-57 77.5z" />
    <glyph glyph-name="cid1144" unicode="&#xaca1;" horiz-adv-x="879" 
d="M762 766v-536h-65v536h65zM525 755h65v-476h-65v228h-122v57h122v191zM216 303q20 42 35.5 92t26 100t15.5 95.5t5 78.5h-278v58h347q-3 -114 -21.5 -228t-62.5 -218zM282 136q-32 -13 -47.5 -33.5t-15.5 -40.5q0 -54 63 -80t179 -26q115 0 178.5 26t63.5 80
q0 48 -63.5 74t-178.5 26q-69 0 -118 -9l-32 50q32 7 68.5 10.5t81.5 3.5q79 0 137.5 -11.5t96.5 -32t57 -48.5t19 -62q0 -75 -75.5 -118t-234.5 -43q-160 0 -235.5 43t-75.5 117q0 35 24.5 69t75.5 54z" />
    <glyph glyph-name="cid1145" unicode="&#xaca8;" horiz-adv-x="859" 
d="M685 766h67v-838h-67v838zM289 81q25 71 43 153t29 160t16 145.5t5 109.5h-362v58h428q0 -62 -5.5 -142.5t-16.5 -167t-28.5 -172t-41.5 -158.5zM650 498h-165v58h165v-58zM650 264h-165v57h165v-57z" />
    <glyph glyph-name="cid1146" unicode="&#xaca9;" horiz-adv-x="869" 
d="M762 289h-68v477h68v-477zM284 330q17 39 31 82t24 87t15.5 87.5t6.5 82.5h-351v58h421q0 -49 -5.5 -104t-16 -110.5t-25.5 -108t-34 -94.5zM657 559h-191v57h191v-57zM657 393h-191v57h191v-57zM159 169v58h603v-320h-68v262h-535z" />
    <glyph glyph-name="cid1147" unicode="&#xacaa;" horiz-adv-x="869" 
d="M762 289h-68v477h68v-477zM284 330q17 39 31 82t24 87t15.5 87.5t6.5 82.5h-351v58h421q0 -49 -5.5 -104t-16 -110.5t-25.5 -108t-34 -94.5zM657 559h-191v57h191v-57zM657 393h-191v57h191v-57zM371 169h-245v58h312v-320h-67v262zM762 -93h-67v262h-217v58h284v-320z
" />
    <glyph glyph-name="cid1148" unicode="&#xacac;" horiz-adv-x="859" 
d="M752 94h-67v672h67v-672zM248 239q25 48 44 104.5t32 113.5t20 109.5t8 92.5h-342v58h411q0 -63 -8 -129.5t-22 -131.5t-34 -126.5t-45 -113.5zM466 587h179v-58h-179v58zM466 401h179v-57h-179v57zM771 -30v-58h-607v240h67v-182h540z" />
    <glyph glyph-name="cid1149" unicode="&#xacaf;" horiz-adv-x="869" 
d="M466 393v57h228v109h-228v57h228v150h68v-477h-68v104h-228zM284 330q17 39 31 82t24 87t15.5 87.5t6.5 82.5h-351v58h421q0 -52 -5.5 -107t-16 -109t-25.5 -105t-34 -96zM762 227v-57h-594v57h594zM781 -35v-58h-612v228h67v-170h545z" />
    <glyph glyph-name="cid1150" unicode="&#xacb0;" horiz-adv-x="869" 
d="M466 393v57h228v109h-228v57h228v150h68v-447h-68v74h-228zM291 350q35 78 51.5 159t18.5 160h-351v58h421q0 -105 -18 -206.5t-57 -191.5zM690 207h-525v58h597v-118h-72v60zM762 112v-57h-597v57h597zM791 -103h-626v123h72v-65h554v-58z" />
    <glyph glyph-name="cid1151" unicode="&#xacb8;" horiz-adv-x="869" 
d="M466 393v57h228v109h-228v57h228v150h68v-477h-68v104h-228zM284 330q17 39 31 82t24 87t15.5 87.5t6.5 82.5h-351v58h421q0 -52 -5.5 -107t-16 -109t-25.5 -105t-34 -96zM165 227h63v-320h-63v320zM267 170v57h495v-227h-68v170h-427zM763 -35v-58h-496v58h496z" />
    <glyph glyph-name="cid1152" unicode="&#xacb9;" horiz-adv-x="869" 
d="M466 393v57h228v109h-228v57h228v150h68v-457h-68v84h-228zM284 330q17 39 31 82t24 87t15.5 87.5t6.5 82.5h-351v58h421q0 -52 -5.5 -107t-16 -109t-25.5 -105t-34 -96zM164 264h66v-130h425v-58h-425v-169h-66v357zM762 264v-264h-67v264h67zM270 -93v58h493v-58h-493z
" />
    <glyph glyph-name="cid1153" unicode="&#xacbb;" horiz-adv-x="869" 
d="M466 393v57h228v109h-228v57h228v150h68v-545h-68v172h-228zM274 310q22 45 38 92.5t26.5 94.5t16 91t6.5 81h-351v58h421q-3 -134 -26 -240t-66 -200zM150 -55q84 24 142.5 57t95.5 69t54 71.5t17 64.5v16h67v-16q0 -49 -25.5 -95.5t-71.5 -87.5t-109.5 -74.5
t-138.5 -56.5zM567 105q33 -40 98 -81t170 -67l-30 -55q-93 28 -167.5 67t-118.5 99z" />
    <glyph glyph-name="cid1154" unicode="&#xacbc;" horiz-adv-x="869" 
d="M466 393v57h228v109h-228v57h228v150h68v-477h-68v104h-228zM284 330q17 39 31 82t24 87t15.5 87.5t6.5 82.5h-351v58h421q0 -52 -5.5 -107t-16 -109t-25.5 -105t-34 -96zM463 -15q-10 -9 -23.5 -19.5t-26.5 -19.5q-30 23 -50.5 46t-34.5 49q-4 7 -8 18.5t-6 22.5h-14
q-1 -11 -5.5 -24t-9.5 -21q-20 -38 -57.5 -77t-92.5 -74l-44 41q55 33 90.5 71.5t55.5 76.5t28 72t8 58v38h65v-38q0 -23 6 -50.5t20.5 -57t38.5 -58.5t60 -54zM439 -70q49 33 82.5 69t53.5 72t29 69.5t10 61.5l1 41h63v-41q0 -79 -44 -158.5t-146 -157.5zM714 76
q19 -34 50.5 -69.5t90.5 -69.5l-44 -46q-54 35 -86.5 69t-57.5 79z" />
    <glyph glyph-name="cid1155" unicode="&#xacbd;" horiz-adv-x="869" 
d="M466 393v57h228v109h-228v57h228v150h68v-497h-68v124h-228zM282 320q17 39 31.5 83.5t24.5 90.5t16 91t7 84h-351v58h421q0 -52 -6 -108.5t-16.5 -112.5t-26 -108.5t-34.5 -97.5zM467 232q159 0 234 -43t75 -122q0 -78 -75 -121.5t-234 -43.5t-233.5 43.5t-74.5 121.5
q0 92 97 133l31 -49q-64 -27 -64 -84q0 -58 64 -83.5t180 -25.5t180.5 25.5t64.5 83.5q0 59 -64.5 84.5t-180.5 25.5q-68 0 -119 -9l-31 51q31 6 68 9.5t82 3.5z" />
    <glyph glyph-name="cid1156" unicode="&#xacc1;" horiz-adv-x="869" 
d="M466 393v57h228v109h-228v57h228v150h68v-457h-68v84h-228zM288 340q35 78 53 164t20 165h-351v58h421q0 -105 -19.5 -211.5t-57.5 -196.5zM761 245v-58h-598v58h598zM791 -45v-58h-626v250h65v-192h561zM761 103v-58h-495v58h495z" />
    <glyph glyph-name="cid1157" unicode="&#xacc4;" horiz-adv-x="908" 
d="M801 -72h-67v838h67v-838zM623 756v-388h-66v119h-139v56h139v213h66zM389 697q0 -62 -5.5 -142.5t-16.5 -167t-28 -172t-41 -157.5l-68 13q26 71 43.5 153t28.5 160.5t15.5 146t4.5 109.5h-302v57h369zM557 -58v329h-139v57h205v-386h-66z" />
    <glyph glyph-name="cid1158" unicode="&#xacc8;" horiz-adv-x="869" 
d="M762 766v-672h-65v672h65zM393 531v58h133v166h64v-317h-64v93h-133zM224 256q22 58 36 118t22.5 114.5t12 99t3.5 71.5h-278v58h346q0 -56 -5 -116.5t-15 -121.5t-24.5 -122t-33.5 -118zM526 104v242h-133v57h197v-299h-64zM781 -30v-58h-617v221h67v-163h550z" />
    <glyph glyph-name="cid1159" unicode="&#xaccc;" horiz-adv-x="869" 
d="M697 309v457h65v-457h-65zM393 414v58h139v108h-139v58h139v117h65v-446h-65v105h-139zM216 332q21 42 36 87.5t25.5 90t15.5 85.5t5 74h-278v58h347q0 -102 -21.5 -210t-65.5 -206zM688 187h-519v58h590v-97h-71v39zM759 102v-56h-590v56h590zM788 -103h-619v102h71v-44
h548v-58z" />
    <glyph glyph-name="cid1160" unicode="&#xacd5;" horiz-adv-x="869" 
d="M762 766v-467h-65v467h65zM393 580v58h139v117h65v-456h-65v115h-139v58h139v108h-139zM216 322q21 43 36 90t25.5 93t15.5 88.5t5 75.5h-278v58h347q0 -102 -21.5 -214.5t-65.5 -211.5zM169 239h66v-119h417v-58h-417v-155h-66v332zM759 239v-239h-67v239h67zM275 -93
v58h485v-58h-485z" />
    <glyph glyph-name="cid1161" unicode="&#xacd7;" horiz-adv-x="869" 
d="M762 766v-565h-65v565h65zM393 580v58h139v117h65v-476h-65v135h-139v58h139v108h-139zM216 303q21 42 36 92t25.5 100t15.5 95.5t5 78.5h-278v58h347q0 -51 -5.5 -108.5t-16 -116.5t-26 -115.5t-36.5 -105.5zM107 -55q84 24 142.5 57t95.5 69t54 71.5t17 64.5v16h67v-16
q0 -49 -25.5 -95.5t-71.5 -87.5t-109.5 -74.5t-138.5 -56.5zM524 105q33 -40 98 -81t170 -67l-30 -55q-93 28 -167.5 67t-118.5 99z" />
    <glyph glyph-name="cid1162" unicode="&#xace0;" horiz-adv-x="898" 
d="M656 219q18 109 27 209.5t9 210.5h-560v58h627v-40q0 -30 -1.5 -79t-6 -109t-11.5 -127t-18 -132zM424 394v-278h-65v278h65zM859 76v-58h-820v58h820z" />
    <glyph glyph-name="cid1163" unicode="&#xace1;" horiz-adv-x="908" 
d="M682 417q8 38 13 77.5t7.5 75t3.5 64t1 45.5h-567v57h635q0 -27 -0.5 -65t-3.5 -82t-9 -91t-16 -92zM448 539v-143h-67v143h67zM39 302v59h830v-59h-830zM137 197h625v-300h-68v243h-557v57z" />
    <glyph glyph-name="cid1164" unicode="&#xace4;" horiz-adv-x="908" 
d="M675 379q21 84 26.5 160.5t5.5 129.5h-567v58h635q2 -78 -5 -172t-29 -186zM448 520v-169h-67v169h67zM39 253v59h830v-59h-830zM794 -35v-58h-649v260h67v-202h582z" />
    <glyph glyph-name="cid1165" unicode="&#xace7;" horiz-adv-x="908" 
d="M682 417q8 38 13 77.5t7.5 75t3.5 64t1 45.5h-567v57h635q0 -27 -0.5 -65t-3.5 -82t-9 -91t-16 -92zM381 361v178h67v-178h421v-59h-830v59h342zM764 197v-58h-619v58h619zM773 -45v-58h-627v207h66v-149h561z" />
    <glyph glyph-name="cid1166" unicode="&#xace8;" horiz-adv-x="908" 
d="M682 456q17 76 21 133t4 90h-567v57h635q0 -54 -5 -131t-24 -160zM381 407v161h67v-161h421v-59h-830v59h342zM145 198v57h620v-118h-75l1 61h-546zM765 107v-58h-620v58h620zM784 -45v-58h-639v122h73l-1 -64h567z" />
    <glyph glyph-name="cid1167" unicode="&#xacea;" horiz-adv-x="908" 
d="M682 456q17 76 21 133t4 90h-567v57h635q0 -54 -5 -131t-24 -160zM381 417v151h67v-151h421v-60h-830v60h342zM131 210v55h286v-121h-65v66h-221zM496 265h64v-368h-64v368zM594 210v55h184v-282h-64v227h-120zM417 109v-54h-286v54h286zM282 -48q18 0 40 1t44.5 4
t44 7.5t38.5 10.5l15 -53q-19 -8 -43 -13t-48.5 -7.5t-48.5 -3.5t-42 -1h-150v123h65v-68h85zM594 -103v55h184v-55h-184z" />
    <glyph glyph-name="cid1168" unicode="&#xacec;" horiz-adv-x="908" 
d="M682 456q17 76 21 133t4 90h-567v57h635q0 -54 -5 -131t-24 -160zM381 417v151h67v-151h421v-60h-830v60h342zM449 -60q36 21 65.5 51t50 65t32 75.5t11.5 82.5v52h64v-51q0 -94 -45.5 -178t-133.5 -143zM129 210v55h285v-120h-65v65h-220zM414 110v-54h-285v54h285z
M704 87q8 -17 18.5 -34.5t25.5 -36.5t36 -38.5t50 -38.5l-43 -44q-32 22 -53.5 43t-36 39.5t-24 34.5t-16.5 30l-3 7zM275 -48q16 0 35.5 1t40 4t40 7.5t36.5 10.5l15 -53q-19 -8 -41 -13t-44.5 -7.5t-44 -3.5t-37.5 -1h-145v124h65v-69h80z" />
    <glyph glyph-name="cid1169" unicode="&#xacef;" horiz-adv-x="908" 
d="M682 456q17 76 21 133t4 90h-567v57h635q0 -54 -5 -131t-24 -160zM381 417v151h67v-151h421v-60h-830v60h342zM739 279v-53h-229v53h229zM130 209v56h265v-121h-65v65h-200zM808 166v-54h-367v54h367zM396 109v-54h-266v54h266zM551 64q33 6 77 6q87 0 129 -24t42 -65
q0 -44 -43 -67t-128 -23q-31 0 -61.5 3.5t-55 13t-39.5 27t-15 46.5q0 49 53 72l26 -42q-21 -11 -21 -30q0 -25 31 -33t82 -8t81.5 8t30.5 33t-30.5 33.5t-81.5 8.5q-14 0 -26.5 -0.5t-23.5 -1.5zM260 -48q14 0 34 1t42 4t43 7.5t38 10.5l15 -53q-19 -8 -42.5 -13
t-47.5 -7.5t-45.5 -3.5t-36.5 -1h-129v123h63v-68h66z" />
    <glyph glyph-name="cid1170" unicode="&#xacf0;" horiz-adv-x="908" 
d="M682 417q8 38 13 77.5t7.5 75t3.5 64t1 45.5h-567v57h635q0 -27 -0.5 -65t-3.5 -82t-9 -91t-16 -92zM381 361v178h67v-178h421v-59h-830v59h342zM145 197h66v-300h-66v300zM251 139v58h514v-207h-68v149h-446zM251 -103v58h514v-58h-514z" />
    <glyph glyph-name="cid1171" unicode="&#xacf1;" horiz-adv-x="908" 
d="M682 417q8 38 13 77.5t7.5 75t3.5 64t1 45.5h-567v57h635q0 -27 -0.5 -65t-3.5 -82t-9 -91t-16 -92zM381 361v178h67v-178h421v-59h-830v59h342zM145 244h66v-127h447v-58h-447v-162h-66v347zM765 244v-254h-67v254h67zM251 -103v58h515v-58h-515z" />
    <glyph glyph-name="cid1172" unicode="&#xacf3;" horiz-adv-x="908" 
d="M682 417q8 38 13 77.5t7.5 75t3.5 64t1 45.5h-567v57h635q0 -27 -0.5 -65t-3.5 -82t-9 -91t-16 -92zM381 352v187h67v-187h421v-59h-830v59h342zM106 -55q86 24 146 57.5t97.5 69.5t54 69t16.5 56v26h66v-29q0 -42 -25.5 -85.5t-71 -84t-110 -75t-142.5 -56.5zM530 102
q34 -40 100.5 -78.5t170.5 -66.5l-30 -55q-45 13 -87 29t-79 36t-68.5 44.5t-53.5 54.5z" />
    <glyph glyph-name="cid1173" unicode="&#xacf5;" horiz-adv-x="908" 
d="M682 417q8 38 13 77.5t7.5 75t3.5 64t1 45.5h-567v57h635q0 -27 -0.5 -65t-3.5 -82t-9 -91t-16 -92zM859 303h-820v58h342v178h67v-178h411v-58zM454 215q162 0 243 -42.5t81 -123.5t-81 -123.5t-243 -42.5q-165 0 -244.5 42.5t-79.5 123.5q0 96 113 138l35 -50
q-38 -14 -59 -35.5t-21 -52.5q0 -58 69 -85t187 -27q58 0 105.5 6.5t81 20.5t51.5 35t18 50t-18 50t-51.5 34.5t-81 20t-105.5 6.5q-70 0 -122 -9l-34 51q32 6 71 9.5t85 3.5z" />
    <glyph glyph-name="cid1174" unicode="&#xacf6;" horiz-adv-x="908" 
d="M682 417q8 38 13 77.5t7.5 75t3.5 64t1 45.5h-567v57h635q0 -27 -0.5 -65t-3.5 -82t-9 -91t-16 -92zM869 312h-830v59h342v168h67v-168h421v-59zM489 150q-1 -45 -28.5 -85.5t-74.5 -74t-111 -58.5t-137 -40l-31 52q79 15 137.5 39.5t97.5 52.5t58.5 58t20.5 56h-281v57
h630v-57h-281zM530 69q35 -36 103 -66.5t168 -45.5l-30 -54q-44 7 -86 19t-79.5 28t-69.5 36.5t-54 46.5z" />
    <glyph glyph-name="cid1175" unicode="&#xacfc;" horiz-adv-x="937" 
d="M766 -72h-67v838h67v-838zM454 272q11 49 18.5 100.5t12 100.5t6 94t0.5 82h-379v58h446q2 -96 -5.5 -209t-32.5 -237zM937 371h-136v57h136v-57zM245 412h66v-245h-66v245zM312 132q88 0 176.5 4t165.5 18v-58q-77 -13 -172.5 -17.5t-199.5 -4.5h-243v58h273z" />
    <glyph glyph-name="cid1176" unicode="&#xacfd;" horiz-adv-x="933" 
d="M694 766h67v-526h-67v526zM474 417q8 38 13 76t7.5 71.5t3.5 60.5t1 44h-392v58h460q0 -27 -0.5 -64t-3.5 -79t-9 -87.5t-16 -90.5zM329 544v-163h-65v163h65zM928 430h-132v57h132v-57zM341 351q85 0 161.5 3t151.5 14v-57q-72 -11 -148.5 -14t-170.5 -3h-296v57h302z
M164 130v57h607v-280h-67v223h-540z" />
    <glyph glyph-name="cid1177" unicode="&#xad00;" horiz-adv-x="933" 
d="M704 766h67v-682h-67v682zM476 388q8 37 13 78t7.5 77.5t3.5 66.5t1 46h-394v61h460q0 -27 -0.5 -66.5t-3.5 -85.5t-9 -94.5t-16 -93.5zM329 495v-163h-65v163h65zM928 381h-122v57h122v-57zM341 302q85 0 166.5 3t156.5 14v-56q-72 -10 -153.5 -14t-175.5 -4h-296v57
h302zM796 -30v-58h-627v231h67v-173h560z" />
    <glyph glyph-name="cid1178" unicode="&#xad04;" horiz-adv-x="933" 
d="M928 449h-157v-161h-67v478h67v-259h157v-58zM476 446q17 76 21 138t4 95h-392v57h460q0 -54 -4.5 -132t-24.5 -168zM264 562h65v-147h-65v147zM664 340q-75 -10 -159 -13.5t-178 -3.5h-286v57h291q38 -1 81.5 0t88 3.5t86 6t76.5 7.5v-57zM701 177h-532v58h602v-103h-70
v45zM771 97v-57h-602v57h602zM801 -45v-58h-632v108h70v-50h562z" />
    <glyph glyph-name="cid1179" unicode="&#xad06;" horiz-adv-x="933" 
d="M771 766v-269h157v-58h-157v-151h-67v478h67zM476 446q17 76 21 138t4 95h-392v57h460q0 -54 -4.5 -132t-24.5 -168zM329 562v-147h-65v147h65zM664 340q-75 -10 -159 -13.5t-178 -3.5h-286v57h291q38 -1 81.5 0t88 3.5t86 6t76.5 7.5v-57zM133 181v55h282v-107h-65v52
h-217zM494 236h64v-339h-64v339zM589 181v55h182v-254h-64v199h-118zM415 94v-54h-282v54h282zM278 -48q19 0 41.5 1t45.5 4t44.5 7.5t38.5 10.5l15 -53q-19 -8 -43 -13t-49 -7.5t-49.5 -3.5t-43.5 -1h-144v108h65v-53h79zM589 -103v55h182v-55h-182z" />
    <glyph glyph-name="cid1180" unicode="&#xad0c;" horiz-adv-x="933" 
d="M928 430h-167v-190h-67v526h67v-279h167v-57zM474 417q8 38 13 76t7.5 71.5t3.5 60.5t1 44h-392v58h460q0 -27 -0.5 -64t-3.5 -79t-9 -87.5t-16 -90.5zM264 544h65v-163h-65v163zM654 311q-72 -11 -148.5 -14t-170.5 -3h-296v57h302q85 0 161.5 3t151.5 14v-57zM232 187
v-280h-63v280h63zM704 130h-433v57h501v-187h-68v130zM773 -35v-58h-502v58h502z" />
    <glyph glyph-name="cid1181" unicode="&#xad0d;" horiz-adv-x="933" 
d="M928 430h-167v-170h-67v506h67v-279h167v-57zM474 417q8 38 13 76t7.5 71.5t3.5 60.5t1 44h-392v58h460q0 -27 -0.5 -64t-3.5 -79t-9 -87.5t-16 -90.5zM264 544h65v-163h-65v163zM654 311q-72 -11 -148.5 -14t-170.5 -3h-296v57h302q85 0 161.5 3t151.5 14v-57zM236 -93
h-67v315h67v-101h428v-58h-428v-156zM771 222v-222h-67v222h67zM771 -35v-58h-495v58h495z" />
    <glyph glyph-name="cid1182" unicode="&#xad0f;" horiz-adv-x="933" 
d="M928 430h-167v-229h-67v565h67v-279h167v-57zM474 417q8 38 13 76t7.5 71.5t3.5 60.5t1 44h-392v58h460q0 -27 -0.5 -64t-3.5 -79t-9 -87.5t-16 -90.5zM264 534h65v-163h-65v163zM654 301q-72 -11 -148.5 -14t-170.5 -3h-296v57h302q85 0 161.5 3t151.5 14v-57zM507 187
q0 -48 -25.5 -93t-72 -84t-110.5 -69t-141 -48l-31 52q85 19 144.5 48.5t96.5 63.5t54 68t17 62v16h68v-16zM548 89q33 -40 98.5 -74.5t173.5 -57.5l-30 -55q-48 12 -91 26t-80 31.5t-67 40t-52 52.5z" />
    <glyph glyph-name="cid1183" unicode="&#xad11;" horiz-adv-x="933" 
d="M928 430h-167v-210h-67v546h67v-279h167v-57zM474 417q8 38 13 76t7.5 71.5t3.5 60.5t1 44h-392v58h460q0 -27 -0.5 -64t-3.5 -79t-9 -87.5t-16 -90.5zM264 544h65v-163h-65v163zM654 311q-72 -11 -148.5 -14t-170.5 -3h-296v57h302q85 0 161.5 3t151.5 14v-57zM472 193
q165 0 239.5 -38.5t74.5 -112.5q0 -75 -75.5 -112t-238.5 -37q-313 0 -313 149q0 44 26 75.5t85 50.5l34 -49q-40 -11 -58 -30.5t-18 -46.5q0 -26 17.5 -44t49 -29.5t76.5 -16.5t101 -5q118 0 182 21.5t64 73.5q0 51 -62.5 74t-183.5 23q-27 0 -56.5 -1t-55.5 -6l-34 51
q33 6 70.5 8t75.5 2z" />
    <glyph glyph-name="cid1184" unicode="&#xad18;" horiz-adv-x="928" 
d="M645 756v-327h108v337h67v-838h-67v443h-176v385h68zM371 243q11 49 18.5 100t12 100.5t6 94.5t0.5 82h-320v58h387q2 -96 -5.5 -209t-32.5 -238zM266 402v-225h-62v225h62zM645 -58h-68v389h68v-389zM266 142q90 0 158.5 5t117.5 13v-58q-74 -11 -161 -14.5t-183 -3.5
h-159v58h227z" />
    <glyph glyph-name="cid1185" unicode="&#xad1c;" horiz-adv-x="918" 
d="M634 756v-289h112v299h65l1 -702h-65l-1 345h-177l-1 347h66zM382 378q9 38 14.5 77.5t8.5 76t4 67t1 50.5h-307v58h376q0 -69 -5.5 -157t-25.5 -183zM277 505v-183h-63v183h63zM569 74v300h65l1 -300h-66zM277 287q25 0 60 1.5t71 4t69.5 5.5t56.5 6v-56
q-72 -11 -155 -14.5t-176 -3.5h-164v57h238zM830 -30v-58h-632v236h68v-178h564z" />
    <glyph glyph-name="cid1186" unicode="&#xad20;" horiz-adv-x="918" 
d="M569 756h65v-222h112v232h65l1 -487h-65l-1 197h-112l1 -197h-65zM385 437q17 75 21 137t4 95h-307v58h376q0 -54 -4.5 -132.5t-25.5 -168.5zM214 538h63v-124h-63v124zM534 337q-72 -11 -155 -14.5t-176 -3.5h-164v57h238q25 0 60 1.5t71 4t69.5 5.5t56.5 6v-56z
M741 177h-542v58h612v-103h-70v45zM811 97v-57h-612v57h612zM841 -103h-642v108h70v-50h572v-58z" />
    <glyph glyph-name="cid1187" unicode="&#xad29;" horiz-adv-x="918" 
d="M569 756h65v-240h112v250h65l1 -505h-65l-1 197h-112l1 -187h-65zM385 407q8 38 13 76t7.5 71.5t3.5 60.5t1 44h-307v58h376q0 -27 -1 -63.5t-4 -78.5t-9 -88t-16 -91zM214 515h63v-136h-63v136zM534 302q-72 -11 -155 -14.5t-176 -3.5h-164v57h238q25 0 60 1.5t71 4
t69.5 5.5t56.5 6v-56zM266 -93h-67v315h67v-101h434v-58h-434v-156zM807 222v-222h-67v222h67zM807 -35v-58h-501v58h501z" />
    <glyph glyph-name="cid1188" unicode="&#xad2c;" horiz-adv-x="918" 
d="M634 516h112v250h65v-545h-65v237h-112v-207h-65v505h65v-240zM385 407q8 38 13 76t7.5 71.5t3.5 60.5t1 44h-307v58h376q0 -27 -1 -63.5t-4 -78.5t-9 -88t-16 -91zM277 515v-136h-63v136h63zM534 302q-72 -11 -155 -14.5t-176 -3.5h-164v57h238q25 0 60 1.5t71 4
t69.5 5.5t56.5 6v-56zM475 -14q-10 -9 -23 -20t-26 -20q-29 23 -49 40.5t-35 40.5q-5 7 -10 19t-7 22h-13q-1 -10 -5.5 -23.5t-9.5 -21.5q-20 -35 -56 -69.5t-95 -67.5l-43 41q53 28 88 60t55.5 64t29 62.5t8.5 54.5v37h66v-37q0 -23 6.5 -46.5t21 -46.5t38.5 -45.5
t59 -43.5zM451 -70q51 30 84.5 62.5t54 63.5t28.5 58.5t8 47.5v42h63v-42q0 -64 -42.5 -135t-146.5 -141zM724 56q17 -28 50 -59t92 -60l-44 -46q-51 31 -88 61t-55 68z" />
    <glyph glyph-name="cid1189" unicode="&#xad2d;" horiz-adv-x="918" 
d="M634 516h112v250h65v-550h-65v242h-112v-207h-65v505h65v-240zM385 407q8 38 13 76t7.5 71.5t3.5 60.5t1 44h-307v58h376q0 -27 -1 -63.5t-4 -78.5t-9 -88t-16 -91zM277 515v-136h-63v136h63zM534 302q-72 -11 -155 -14.5t-176 -3.5h-164v57h238q25 0 60 1.5t71 4
t69.5 5.5t56.5 6v-56zM352 183q33 6 70.5 8t75.5 2q165 0 241.5 -38.5t76.5 -112.5q0 -75 -77.5 -112t-240.5 -37q-313 0 -313 149q0 44 26 75.5t85 50.5l34 -49q-40 -11 -58 -30.5t-18 -46.5q0 -26 17.5 -44t49 -29.5t76.5 -16.5t101 -5q117 0 183.5 21.5t66.5 73.5
q0 51 -64.5 74t-185.5 23q-27 0 -56.5 -1t-55.5 -6z" />
    <glyph glyph-name="cid1190" unicode="&#xad34;" horiz-adv-x="879" 
d="M771 -72h-67v838h67v-838zM449 272q11 49 18.5 100.5t12 100.5t6 94t0.5 82h-379v58h446q2 -96 -5.5 -209t-32.5 -237zM306 412v-240h-66v240h66zM307 132q43 0 92 1t96.5 4t90 7.5t73.5 11.5v-58q-81 -14 -175.5 -19t-204.5 -5h-240v58h268z" />
    <glyph glyph-name="cid1191" unicode="&#xad35;" horiz-adv-x="884" 
d="M776 241h-67v525h67v-525zM474 417q8 38 13 76t7.5 71.5t3.5 60.5t1 44h-392v58h460q0 -27 -0.5 -64t-3.5 -79t-9 -87.5t-16 -90.5zM330 543v-162h-65v162h65zM330 351q40 -1 85 0t90 3.5t87.5 6t76.5 8.5v-57q-76 -11 -161 -14.5t-183 -3.5h-286v57h291zM164 130v57h612
v-280h-67v223h-545z" />
    <glyph glyph-name="cid1192" unicode="&#xad38;" horiz-adv-x="884" 
d="M776 84h-67v682h67v-682zM474 388q8 37 13 78t7.5 78.5t3.5 67.5t1 47h-392v58h460q0 -27 -0.5 -66.5t-3.5 -85.5t-9 -94.5t-16 -93.5zM330 493v-162h-65v162h65zM330 301q40 -1 85 0t90 3.5t87.5 6.5t76.5 9v-57q-76 -11 -161 -15t-183 -4h-286v57h291zM796 -30v-58
h-627v231h67v-173h560z" />
    <glyph glyph-name="cid1193" unicode="&#xad3c;" horiz-adv-x="884" 
d="M711 290v476h67v-476h-67zM476 446q17 76 21 138t4 95h-392v57h460q0 -54 -4.5 -132t-24.5 -168zM267 562h65v-147h-65v147zM671 342q-76 -11 -161 -15t-183 -4h-286v57h291q40 -1 85 0t90 3.5t87.5 6.5t76.5 9v-57zM708 177h-537v58h607v-103h-70v45zM778 97v-57h-607
v57h607zM808 -103h-637v108h70v-50h567v-58z" />
    <glyph glyph-name="cid1194" unicode="&#xad44;" horiz-adv-x="884" 
d="M776 241h-67v525h67v-525zM474 417q8 38 13 76t7.5 71.5t3.5 60.5t1 44h-392v58h460q0 -27 -0.5 -64t-3.5 -79t-9 -87.5t-16 -90.5zM330 543v-162h-65v162h65zM330 351q40 -1 85 0t90 3.5t87.5 6t76.5 8.5v-57q-76 -11 -161 -14.5t-183 -3.5h-286v57h291zM169 187h63
v-280h-63v280zM271 130v57h505v-187h-68v130h-437zM777 -35v-58h-506v58h506z" />
    <glyph glyph-name="cid1195" unicode="&#xad45;" horiz-adv-x="884" 
d="M776 261h-67v505h67v-505zM474 417q8 38 13 76t7.5 71.5t3.5 60.5t1 44h-392v58h460q0 -27 -0.5 -64t-3.5 -79t-9 -87.5t-16 -90.5zM265 543h65v-162h-65v162zM669 312q-76 -11 -161 -14.5t-183 -3.5h-286v57h291q40 -1 85 0t90 3.5t87.5 6t76.5 8.5v-57zM236 -93h-67
v315h67v-101h433v-58h-433v-156zM776 222v-222h-67v222h67zM776 -35v-58h-500v58h500z" />
    <glyph glyph-name="cid1196" unicode="&#xad47;" horiz-adv-x="884" 
d="M776 201h-67v565h67v-565zM474 417q8 38 13 76t7.5 71.5t3.5 60.5t1 44h-392v58h460q0 -27 -0.5 -64t-3.5 -79t-9 -87.5t-16 -90.5zM330 544v-178h-65v178h65zM330 336q40 -1 85 0t90 3.5t87.5 6t76.5 8.5v-57q-76 -11 -161 -14.5t-183 -3.5h-286v57h291zM127 -55
q85 19 144.5 48.5t96.5 63.5t54 68t17 62v16h68v-16q0 -48 -25.5 -93t-72 -84t-110.5 -69t-141 -48zM548 89q33 -40 98.5 -74.5t173.5 -57.5l-30 -55q-48 12 -91 26t-80 31.5t-67 40t-52 52.5z" />
    <glyph glyph-name="cid1197" unicode="&#xad49;" horiz-adv-x="884" 
d="M776 221h-67v545h67v-545zM474 417q8 38 13 76t7.5 71.5t3.5 60.5t1 44h-392v58h460q0 -27 -0.5 -64t-3.5 -79t-9 -87.5t-16 -90.5zM330 543v-162h-65v162h65zM330 351q40 -1 85 0t90 3.5t87.5 6t76.5 8.5v-57q-76 -11 -161 -14.5t-183 -3.5h-286v57h291zM327 183
q33 6 70.5 8t75.5 2q165 0 241.5 -38.5t76.5 -112.5q0 -75 -77.5 -112t-240.5 -37q-313 0 -313 149q0 44 26 75.5t85 50.5l34 -49q-40 -11 -58 -30.5t-18 -46.5q0 -26 17.5 -44t49 -29.5t76.5 -16.5t101 -5q117 0 183.5 21.5t66.5 73.5q0 51 -64.5 74t-185.5 23
q-27 0 -56.5 -1t-55.5 -6z" />
    <glyph glyph-name="cid1198" unicode="&#xad50;" horiz-adv-x="898" 
d="M656 219q18 109 27 209.5t9 210.5h-560v58h627v-40q0 -30 -1.5 -79t-6 -109t-11.5 -127t-18 -132zM318 403v-287h-66v287h66zM543 403v-287h-66v287h66zM859 76v-58h-820v58h820z" />
    <glyph glyph-name="cid1199" unicode="&#xad54;" horiz-adv-x="908" 
d="M675 379q21 84 26.5 160.5t5.5 129.5h-567v58h635q2 -78 -5 -172t-29 -186zM327 521v-183h-64v183h64zM562 521v-183h-65v183h65zM39 243v60h830v-60h-830zM794 -35v-58h-649v260h67v-202h582z" />
    <glyph glyph-name="cid1200" unicode="&#xad58;" horiz-adv-x="908" 
d="M682 456q17 76 21 133t4 90h-567v57h635q0 -54 -5 -131t-24 -160zM263 402v163h64v-163h151v163h64v-163h327v-59h-830v59h224zM145 198v57h620v-113h-73l1 56h-548zM765 107v-58h-620v58h620zM784 -45v-58h-639v117h73l-1 -59h567z" />
    <glyph glyph-name="cid1201" unicode="&#xad61;" horiz-adv-x="908" 
d="M682 417q8 38 13 77.5t7.5 75t3.5 64t1 45.5h-567v57h635q0 -27 -0.5 -65t-3.5 -82t-9 -91t-16 -92zM263 356v183h64v-183h151v183h64v-183h327v-59h-830v59h224zM145 238h66v-121h447v-58h-447v-162h-66v341zM765 238v-248h-67v248h67zM251 -103v58h515v-58h-515z" />
    <glyph glyph-name="cid1202" unicode="&#xad63;" horiz-adv-x="908" 
d="M682 417q8 38 13 77.5t7.5 75t3.5 64t1 45.5h-567v57h635q0 -27 -0.5 -65t-3.5 -82t-9 -91t-16 -92zM263 347v192h64v-192h151v192h64v-192h327v-58h-830v58h224zM106 -55q86 24 146 57.5t97.5 69.5t54 69t16.5 56v26h66v-29q0 -42 -25.5 -85.5t-71 -84t-110 -75
t-142.5 -56.5zM530 102q34 -40 100.5 -78.5t170.5 -66.5l-30 -55q-45 13 -87 29t-79 36t-68.5 44.5t-53.5 54.5z" />
    <glyph glyph-name="cid1203" unicode="&#xad6c;" horiz-adv-x="889" 
d="M680 387q11 76 15.5 146t4.5 135h-568v59h637q0 -26 -1.5 -64.5t-3.5 -84t-6.5 -95t-10.5 -97.5zM850 346v-59h-811v59h811zM411 -82v329h68v-329h-68z" />
    <glyph glyph-name="cid1204" unicode="&#xad6d;" horiz-adv-x="908" 
d="M690 455q11 68 14 120.5t3 103.5h-567v57h634q1 -36 0 -69t-3 -66.5t-6 -69.5t-10 -77zM39 360v60h830v-60h-382v-128h-67v128h-381zM694 -103v243h-557v57h625v-300h-68z" />
    <glyph glyph-name="cid1205" unicode="&#xad70;" horiz-adv-x="908" 
d="M683 416q13 72 18 138.5t5 114.5h-566v58h634q1 -70 -5 -150t-20 -161h-66zM869 381v-60h-830v60h830zM425 99v187h67v-187h-67zM794 -35v-58h-649v260h67v-202h582z" />
    <glyph glyph-name="cid1206" unicode="&#xad73;" horiz-adv-x="908" 
d="M690 455q11 68 14 120.5t3 103.5h-567v57h634q1 -36 0 -69t-3 -66.5t-6 -69.5t-10 -77zM39 360v60h830v-60h-382v-128h-67v128h-381zM764 197v-58h-619v58h619zM773 -45v-58h-627v207h66v-149h561z" />
    <glyph glyph-name="cid1207" unicode="&#xad74;" horiz-adv-x="908" 
d="M690 462q6 34 9 66.5t5 61t2.5 51.5t0.5 38h-567v57h635q0 -24 -0.5 -54.5t-2.5 -66t-5.5 -75t-10.5 -79.5zM869 367h-382v-112h278v-114h-75l1 56h-546v58h275v112h-381v60h830v-60zM145 49v57h620v-57h-620zM784 -45v-58h-639v117h73l-1 -59h567z" />
    <glyph glyph-name="cid1208" unicode="&#xad75;" horiz-adv-x="908" 
d="M692 472q10 66 12.5 121.5t2.5 85.5h-567v57h635q0 -48 -2.5 -117t-14.5 -148zM487 265h-40v-121h-66v66h-251v55h290v112h-381v60h830v-60h-382v-112zM487 265h291v-368h-67v312h-224v56zM130 55v54h317v-54h-317zM308 -48q21 0 45.5 1t48 4t45 7.5t38.5 10.5l15 -53
q-19 -8 -43 -13t-49.5 -7.5t-51.5 -3.5t-48 -1h-177v123h66v-68h111z" />
    <glyph glyph-name="cid1209" unicode="&#xad76;" horiz-adv-x="908" 
d="M692 472q10 66 12.5 121.5t2.5 85.5h-567v57h635q0 -48 -2.5 -117t-14.5 -148zM39 377v60h830v-60h-382v-103h-67v103h-381zM131 210v55h286v-121h-65v66h-221zM496 265h64v-368h-64v368zM594 210v55h184v-282h-64v227h-120zM417 109v-54h-286v54h286zM282 -48q18 0 40 1
t44.5 4t44 7.5t38.5 10.5l15 -53q-19 -8 -43 -13t-48.5 -7.5t-48.5 -3.5t-42 -1h-150v123h65v-68h85zM594 -103v55h184v-55h-184z" />
    <glyph glyph-name="cid1210" unicode="&#xad7b;" horiz-adv-x="908" 
d="M692 472q10 66 12.5 121.5t2.5 85.5h-567v57h635q0 -48 -2.5 -117t-14.5 -148zM39 377v60h830v-60h-382v-103h-67v103h-381zM739 279v-53h-229v53h229zM130 209v56h265v-121h-65v65h-200zM808 166v-54h-367v54h367zM396 109v-54h-266v54h266zM551 64q33 6 77 6
q87 0 129 -24t42 -65q0 -44 -43 -67t-128 -23q-31 0 -61.5 3.5t-55 13t-39.5 27t-15 46.5q0 49 53 72l26 -42q-21 -11 -21 -30q0 -25 31 -33t82 -8t81.5 8t30.5 33t-30.5 33.5t-81.5 8.5q-14 0 -26.5 -0.5t-23.5 -1.5zM260 -48q14 0 34 1t42 4t43 7.5t38 10.5l15 -53
q-19 -8 -42.5 -13t-47.5 -7.5t-45.5 -3.5t-36.5 -1h-129v118h63v-63h66z" />
    <glyph glyph-name="cid1211" unicode="&#xad7c;" horiz-adv-x="908" 
d="M690 451q11 68 14 122.5t3 105.5h-567v57h634q1 -36 0 -69.5t-3 -68t-6 -71t-10 -77.5zM487 197h278v-207h-68v150h-446v57h169v158h-381v60h830v-60h-382v-158zM211 197v-300h-66v300h66zM765 -45v-58h-514v58h514z" />
    <glyph glyph-name="cid1212" unicode="&#xad7d;" horiz-adv-x="908" 
d="M690 456q11 68 14 120t3 103h-567v57h634q1 -36 0 -69t-3 -66.5t-6 -69t-10 -76.5zM39 360v60h830v-60h-382v-158h-67v158h-381zM145 244h66v-127h447v-58h-447v-162h-66v347zM765 244v-254h-67v254h67zM251 -103v58h515v-58h-515z" />
    <glyph glyph-name="cid1213" unicode="&#xad7f;" horiz-adv-x="908" 
d="M690 456q11 68 14 120t3 103h-567v57h634q1 -36 0 -69t-3 -66.5t-6 -69t-10 -76.5zM39 360v60h830v-60h-382v-120h-67v120h-381zM106 -55q86 18 146 49t97.5 65t54 67t16.5 56v11h67v-14q0 -42 -25.5 -85.5t-71.5 -82.5t-110.5 -70t-142.5 -48zM530 87q29 -35 96 -71.5
t175 -58.5l-30 -55q-44 10 -87 24t-80.5 32t-69 41t-52.5 51z" />
    <glyph glyph-name="cid1214" unicode="&#xad81;" horiz-adv-x="908" 
d="M690 456q11 68 14 120t3 103h-567v57h634q1 -36 0 -69t-3 -66.5t-6 -69t-10 -76.5zM487 215q146 -5 218.5 -47.5t72.5 -118.5q0 -81 -81 -123.5t-243 -42.5q-165 0 -244.5 42.5t-79.5 123.5q0 96 113 138l35 -50q-38 -14 -59 -35.5t-21 -52.5q0 -58 69 -85t187 -27
q58 0 105.5 6.5t81 20.5t51.5 35t18 50t-18 50t-51.5 34.5t-81 20t-105.5 6.5q-70 0 -122 -9l-34 51q26 5 56.5 8t65.5 4v146h-381v60h830v-60h-382v-145z" />
    <glyph glyph-name="cid1215" unicode="&#xad82;" horiz-adv-x="908" 
d="M690 456q11 68 14 120t3 103h-567v57h634q1 -36 0 -69t-3 -66.5t-6 -69t-10 -76.5zM869 360h-382v-120h-67v120h-381v60h830v-60zM489 141q-1 -44 -29 -83t-75 -71t-110.5 -56t-136.5 -39l-31 52q79 15 137.5 38t97.5 49.5t58.5 55t20.5 54.5h-281v57h630v-57h-281z
M527 65q35 -36 104.5 -64.5t169.5 -43.5l-30 -54q-44 7 -86 18.5t-80.5 27t-70.5 35.5t-54 46z" />
    <glyph glyph-name="cid1216" unicode="&#xad88;" horiz-adv-x="879" 
d="M771 -72h-67v838h67v-838zM458 401q6 34 10 72t7 73.5t4 64.5t0 47h-363v58h428q1 -73 -4 -154.5t-16 -156.5q-17 -2 -33 -3t-33 -1zM351 362q29 0 74 1t93 5q32 3 62.5 7.5t56.5 11.5l9 -56q-60 -14 -132 -19.5t-169 -5.5h-306v56h312zM335 221q0 -84 -7 -153.5
t-29 -127.5l-66 17q23 57 29 125.5t6 138.5v50h67v-50zM448 187h221v-57h-221v57z" />
    <glyph glyph-name="cid1217" unicode="&#xad89;" horiz-adv-x="884" 
d="M776 221h-67v545h67v-545zM474 474q10 60 13 113t3 82h-383v58h452q0 -45 -3 -110.5t-15 -136.5zM646 402q-65 -12 -141 -17.5t-161 -7.5v-62q0 -23 -1 -44t-4 -44l-68 4q2 21 3.5 41t1.5 43v62h-237v56h224q51 0 105 1.5t99 3.5q43 2 89.5 7.5t80.5 12.5zM463 317h211
v-57h-211v57zM169 120v58h607v-271h-67v213h-540z" />
    <glyph glyph-name="cid1218" unicode="&#xad8c;" horiz-adv-x="884" 
d="M776 64h-67v702h67v-702zM464 426q7 34 12 69.5t8 67t4.5 56.5t1.5 40h-383v58h452q0 -23 -1 -55.5t-4 -70t-8.5 -78t-13.5 -80.5zM646 363q-63 -11 -136.5 -16.5t-155.5 -7.5v-76q0 -24 -1 -45t-4 -43l-69 4q6 40 6 84v75h-247v57h224q24 0 53.5 0.5t56.5 1t48 1t30 0.5
q13 1 35 2.5t47.5 4t52.5 6t51 8.5zM473 269h201v-58h-201v58zM796 -30v-58h-622v216h67v-158h555z" />
    <glyph glyph-name="cid1219" unicode="&#xad90;" horiz-adv-x="884" 
d="M709 357v409h67v-496h-67v30h-246v57h246zM476 504q11 60 12.5 103t1.5 72h-383v58h452q0 -45 -2 -100.5t-14 -126.5zM39 463h224q51 0 105 1.5t99 3.5q43 2 89.5 7.5t80.5 12.5l9 -56q-65 -12 -141 -17.5t-161 -7.5v-42q0 -23 -1 -44t-4 -44l-68 4q2 21 3.5 41t1.5 43
v42h-237v56zM706 168h-532v58h602v-98h-70v40zM776 93v-57h-602v57h602zM806 -103h-632v104h70v-46h562v-58z" />
    <glyph glyph-name="cid1220" unicode="&#xad9c;" horiz-adv-x="884" 
d="M463 279v58h246v429h67v-540h-67v53h-246zM476 494q11 60 12.5 103t1.5 72h-383v58h452q0 -45 -2 -100.5t-14 -126.5zM646 422q-65 -12 -141 -17.5t-161 -7.5v-42q0 -23 -1 -44t-4 -44l-68 4q2 21 3.5 41t1.5 43v42h-237v56h224q51 0 105 1.5t99 3.5q43 2 89.5 7.5
t80.5 12.5zM463 -14q-10 -9 -23 -20t-26 -20q-15 13 -31.5 28t-31 31.5t-25 34.5t-14.5 36h-12q-5 -37 -43 -86t-122 -104l-44 41q55 33 90.5 69t55.5 71t28 66.5t8 55.5v15h65v-15q0 -23 6 -48.5t20 -51.5t38.5 -52.5t60.5 -50.5zM439 -70q49 33 82.5 67.5t54 67.5t29 64
t8.5 57v18h65v-18q0 -79 -44.5 -150.5t-145.5 -149.5zM714 67q20 -32 53 -66t88 -64l-44 -46q-53 34 -87 65.5t-57 73.5z" />
    <glyph glyph-name="cid1221" unicode="&#xad9d;" horiz-adv-x="884" 
d="M463 270v57h246v439h67v-555h-67v59h-246zM474 484q11 60 13.5 108t2.5 77h-383v58h452q0 -45 -3 -105.5t-15 -131.5zM646 412q-65 -12 -141 -17.5t-161 -7.5v-62q0 -23 -1 -44t-4 -44l-68 4q2 21 3.5 41t1.5 43v62h-237v56h224q51 0 105 1.5t99 3.5q43 2 89.5 7.5
t80.5 12.5zM327 183q33 6 70.5 8t75.5 2q165 0 241.5 -38.5t76.5 -112.5q0 -75 -77.5 -112t-240.5 -37q-313 0 -313 149q0 44 26 75.5t85 50.5l34 -49q-40 -11 -58 -30.5t-18 -46.5q0 -26 17.5 -44t49 -29.5t76.5 -16.5t101 -5q117 0 183.5 21.5t66.5 73.5q0 51 -64.5 74
t-185.5 23q-27 0 -56.5 -1t-55.5 -6z" />
    <glyph glyph-name="cid1222" unicode="&#xada4;" horiz-adv-x="928" 
d="M820 -72h-67v838h67v-838zM654 756v-574h-240v58h173v516h67zM384 414q5 33 8.5 68.5t6 67.5t3 58t-0.5 41h-290v58h355q1 -72 -3 -143t-14 -146zM537 338q-44 -9 -97.5 -13.5t-119.5 -6.5v-78q0 -83 -7 -153t-29 -127l-65 17q23 57 28.5 125t5.5 138v78h-214v58h199h72
t68 2q7 0 16.5 0.5t19.5 1.5t18 1.5t12 0.5q45 4 85 12zM654 147v-205h-67v205h67z" />
    <glyph glyph-name="cid1223" unicode="&#xadb7;" horiz-adv-x="918" 
d="M811 766v-605h-65v605h65zM430 270v54h159v432h64v-555h-64v69h-159zM386 474q8 53 11.5 103t3.5 82h-295v58h363q0 -48 -4 -111.5t-13 -127.5zM548 402q-56 -10 -112 -15.5t-122 -7.5v-73q0 -24 -1 -45t-3 -43l-69 4q6 40 6 84v71h-208v57h155q51 0 96 1t89 3q32 2 55 4
t40.5 4.5t32.5 5.5t32 6zM141 -55q85 16 144.5 44t96.5 60t54 63.5t17 55.5v16h68v-16q0 -44 -25.5 -86.5t-72 -79.5t-110.5 -65.5t-141 -43.5zM563 80q33 -36 98 -70t173 -53l-30 -55q-96 20 -170.5 52.5t-118.5 88.5z" />
    <glyph glyph-name="cid1224" unicode="&#xadc0;" horiz-adv-x="879" 
d="M771 -72h-67v838h67v-838zM459 387q6 34 10 74.5t6.5 79t3.5 70t0 47.5h-363v58h428q1 -77 -4.5 -161.5t-15.5 -165.5zM331 351h60t60 1q22 0 50.5 1t58 3.5t58 5.5t51.5 7v-57q-70 -10 -148 -13.5t-167 -4.5h-315v57h292zM354 221q0 -84 -6.5 -153.5t-29.5 -127.5
l-65 17q23 57 28.5 125.5t5.5 138.5v38h67v-38z" />
    <glyph glyph-name="cid1225" unicode="&#xadc1;" horiz-adv-x="884" 
d="M776 221h-67v545h67v-545zM476 455q6 33 9.5 65.5t6 60.5t3 50.5t0.5 37.5h-383v58h451q0 -48 -3 -119t-17 -149zM674 385q-70 -10 -151 -14t-169 -4v-52q0 -23 -1 -44t-4 -43l-69 3q3 21 4.5 41t1.5 43v52h-247v57h302h69.5t69.5 1q20 0 48.5 2t57 4.5t52.5 5t36 4.5
v-56zM169 120v58h607v-271h-67v213h-540z" />
    <glyph glyph-name="cid1226" unicode="&#xadc4;" horiz-adv-x="884" 
d="M776 64h-67v702h67v-702zM469 425q7 36 12 71.5t8 66.5t4.5 56t1.5 40h-383v58h451q0 -24 -1 -56.5t-4 -70t-8 -79t-13 -82.5zM674 356q-70 -10 -146 -14t-164 -4v-76q0 -23 -1 -44t-4 -43l-69 3q3 21 4.5 41t1.5 43v76h-257v57h302h69.5t69.5 1q20 0 48.5 2t56.5 4
t52.5 5t36.5 5v-56zM796 -30v-58h-622v216h67v-158h555z" />
    <glyph glyph-name="cid1227" unicode="&#xadc8;" horiz-adv-x="884" 
d="M709 279v487h67v-487h-67zM481 495q9 62 11.5 108.5t2.5 75.5h-383v58h451q0 -48 -2 -106.5t-13 -131.5zM39 406v57h302h69.5t69.5 1q20 0 48.5 2t57 4.5t52.5 5t36 4.5v-56q-70 -10 -151 -14t-169 -4v-42q0 -23 -1 -44t-4 -43l-69 3q3 21 4.5 41t1.5 43v42h-247z
M706 177h-532v58h602v-103h-70v45zM776 97v-57h-602v57h602zM806 -103h-632v108h70v-50h562v-58z" />
    <glyph glyph-name="cid1228" unicode="&#xadd0;" horiz-adv-x="884" 
d="M776 231h-67v535h67v-535zM476 455q6 33 9.5 65.5t6 60.5t3 50.5t0.5 37.5h-383v58h451q0 -48 -3 -119t-17 -149zM674 385q-70 -10 -151 -14t-169 -4v-42q0 -23 -1 -44t-4 -43l-69 3q3 21 4.5 41t1.5 43v42h-247v57h302h69.5t69.5 1q20 0 48.5 2t57 4.5t52.5 5t36 4.5
v-56zM173 187h63v-280h-63v280zM275 130v57h501v-187h-68v130h-433zM777 -35v-58h-502v58h502z" />
    <glyph glyph-name="cid1229" unicode="&#xadd1;" horiz-adv-x="884" 
d="M776 261h-67v505h67v-505zM476 455q6 33 9.5 65.5t6 60.5t3 50.5t0.5 37.5h-383v58h451q0 -48 -3 -119t-17 -149zM39 367v57h302h69.5t69.5 1q20 0 48.5 2t57 4.5t52.5 5t36 4.5v-56q-70 -10 -146 -14t-164 -4v-42q0 -23 -1 -44t-4 -43l-69 3q3 21 4.5 41t1.5 43v42h-257
zM241 -93h-67v315h67v-101h428v-58h-428v-156zM776 222v-222h-67v222h67zM776 -35v-58h-495v58h495z" />
    <glyph glyph-name="cid1230" unicode="&#xadd3;" horiz-adv-x="884" 
d="M776 190h-67v576h67v-576zM476 449q6 33 9.5 66t6 62.5t3 53t0.5 38.5h-383v58h451q0 -24 -0.5 -55t-2.5 -66.5t-6 -74.5t-11 -78zM674 379q-70 -10 -156 -14t-174 -4v-62q0 -23 -1 -44t-4 -43l-69 4q3 21 4.5 40.5t1.5 42.5v62h-237v57h302h69.5t69.5 1q20 0 48.5 2
t57 4.5t52.5 5t36 4.5v-56zM137 -55q85 19 144.5 48.5t96.5 63.5t54 68t17 62v16h68v-16q0 -48 -25.5 -93t-72 -84t-110.5 -69t-141 -48zM558 89q33 -40 98.5 -74.5t173.5 -57.5l-30 -55q-48 12 -91 26t-80 31.5t-67 40t-52 52.5z" />
    <glyph glyph-name="cid1231" unicode="&#xaddc;" horiz-adv-x="889" 
d="M681 396q4 34 8 70t6 71.5t3.5 68.5t1.5 62h-568v59h637q0 -23 -1.5 -61t-4 -83t-6 -93.5t-9.5 -93.5h-67zM327 287q0 -54 -1.5 -101.5t-7 -92t-16 -87.5t-28.5 -88l-66 19q18 42 28.5 81.5t16 81t7 87.5t1.5 100h-222v59h811v-59h-523zM588 -87l-10 324h66l10 -324h-66z
" />
    <glyph glyph-name="cid1232" unicode="&#xade0;" horiz-adv-x="908" 
d="M683 417q14 74 18.5 138.5t4.5 113.5h-566v58h634q1 -72 -5 -150.5t-20 -160.5zM869 381v-60h-830v60h830zM321 113v173h65v-173h-65zM565 113v173h65v-173h-65zM794 -35v-58h-649v260h67v-202h582z" />
    <glyph glyph-name="cid1233" unicode="&#xade4;" horiz-adv-x="908" 
d="M690 462q6 34 9 66.5t5 61t2.5 51.5t0.5 38h-567v57h635q0 -24 -0.5 -54.5t-2.5 -66t-5.5 -75t-10.5 -79.5zM869 367h-231v-112h127v-114h-73l1 56h-548v58h135v112h-241v60h830v-60zM573 367h-228v-112h228v112zM145 49v57h620v-57h-620zM784 -45v-58h-639v117h73
l-1 -59h567z" />
    <glyph glyph-name="cid1234" unicode="&#xadf8;" horiz-adv-x="898" 
d="M656 116q10 59 16.5 126t10.5 135t5.5 132.5t1.5 119.5h-558v58h625v-100q0 -38 -2 -94t-5.5 -120t-10 -131t-15.5 -126h-68zM39 18v58h820v-58h-820z" />
    <glyph glyph-name="cid1235" unicode="&#xadf9;" horiz-adv-x="908" 
d="M681 421q14 75 19.5 141t5.5 117h-566v57h634q2 -72 -4.5 -152t-21.5 -163h-67zM39 326v60h830v-60h-830zM137 207h625v-310h-68v252h-557v58z" />
    <glyph glyph-name="cid1236" unicode="&#xadfc;" horiz-adv-x="908" 
d="M678 387q17 82 23 156.5t6 125.5h-567v58h635q2 -72 -5.5 -160.5t-24.5 -179.5h-67zM869 352v-60h-830v60h830zM794 -35v-58h-649v270h67v-212h582z" />
    <glyph glyph-name="cid1237" unicode="&#xadff;" horiz-adv-x="908" 
d="M681 421q14 75 19.5 141t5.5 117h-566v57h634q2 -72 -4.5 -152t-21.5 -163h-67zM39 326v60h830v-60h-830zM764 206v-58h-619v58h619zM773 -45v-58h-627v216h66v-158h561z" />
    <glyph glyph-name="cid1238" unicode="&#xae00;" horiz-adv-x="908" 
d="M685 452q5 34 9 68.5t7 65.5t4.5 55.5t1.5 37.5h-567v57h634q0 -22 -1 -54t-3.5 -70t-7 -79t-10.5 -81h-67zM39 357v60h830v-60h-830zM145 207v58h620v-119h-75l1 61h-546zM765 111v-57h-620v57h620zM784 -45v-58h-639v122h73l-1 -64h567z" />
    <glyph glyph-name="cid1239" unicode="&#xae01;" horiz-adv-x="908" 
d="M687 462q5 34 9 67t6.5 62t3.5 52t1 36h-567v57h634q0 -22 -0.5 -52.5t-3 -66.5t-6.5 -75.5t-10 -79.5h-67zM39 367v60h830v-60h-830zM130 210v55h317v-121h-66v66h-251zM778 -103h-67v312h-224v56h291v-368zM447 109v-54h-317v54h317zM308 -48q21 0 45.5 1t48 4t45 7.5
t38.5 10.5l15 -53q-19 -8 -43 -13t-49.5 -7.5t-51.5 -3.5t-48 -1h-177v123h66v-68h111z" />
    <glyph glyph-name="cid1240" unicode="&#xae08;" horiz-adv-x="908" 
d="M681 421q14 75 19.5 141t5.5 117h-566v57h634q2 -72 -4.5 -152t-21.5 -163h-67zM39 326v60h830v-60h-830zM145 207h66v-310h-66v310zM251 149v58h514v-217h-68v159h-446zM251 -103v58h514v-58h-514z" />
    <glyph glyph-name="cid1241" unicode="&#xae09;" horiz-adv-x="908" 
d="M681 425q14 75 19.5 139t5.5 115h-566v57h634q2 -72 -4.5 -150t-21.5 -161h-67zM39 330v60h830v-60h-830zM145 262h66v-135h447v-58h-447v-172h-66v365zM765 262v-272h-67v272h67zM251 -103v58h515v-58h-515z" />
    <glyph glyph-name="cid1242" unicode="&#xae0b;" horiz-adv-x="908" 
d="M677 396q17 81 23 155t6 128h-566v57h634q2 -77 -5.5 -165t-24.5 -176zM39 302v59h830v-59h-830zM106 -55q86 24 146 57.5t97.5 69.5t54 69t16.5 56v26h66v-29q0 -42 -25.5 -85.5t-71 -84t-110 -75t-142.5 -56.5zM535 97q14 -15 36.5 -34t55.5 -38t76 -37t98 -31l-30 -55
q-91 25 -166.5 65.5t-117.5 92.5z" />
    <glyph glyph-name="cid1243" unicode="&#xae0d;" horiz-adv-x="908" 
d="M681 421q14 73 19.5 140.5t5.5 117.5h-566v57h634q2 -72 -5 -153.5t-21 -162.5zM39 326v60h830v-60h-830zM278 137q-38 -14 -59 -35.5t-21 -52.5q0 -58 69 -85t187 -27q58 0 105.5 6.5t81 20.5t51.5 35t18 50t-18 50t-51.5 34.5t-81 20t-105.5 6.5q-70 0 -122 -9l-34 51
q32 6 71 9.5t85 3.5q162 0 243 -42.5t81 -123.5t-81 -123.5t-243 -42.5q-165 0 -244.5 42.5t-79.5 123.5q0 96 113 138z" />
    <glyph glyph-name="cid1244" unicode="&#xae14;" horiz-adv-x="879" 
d="M771 -72h-67v838h67v-838zM449 268q11 49 18.5 100.5t12 102t6 96t0.5 82.5h-379v58h446q2 -96 -5.5 -211.5t-32.5 -239.5zM307 142q43 0 93.5 1t100 4t93.5 8t75 12v-58q-78 -14 -178.5 -19.5t-211.5 -5.5h-240v58h268z" />
    <glyph glyph-name="cid1245" unicode="&#xae30;" horiz-adv-x="850" 
d="M742 766v-838h-67v838h67zM289 81q25 71 43 153t29 160t16 145.5t5 109.5h-362v58h428q0 -62 -5.5 -142.5t-16.5 -167t-28.5 -172t-41.5 -158.5z" />
    <glyph glyph-name="cid1246" unicode="&#xae31;" horiz-adv-x="869" 
d="M762 766v-477h-68v477h68zM284 330q17 39 31 82t24 87t15.5 87.5t6.5 82.5h-351v58h421q0 -52 -5.5 -107t-16 -109t-25.5 -105t-34 -96zM159 169v58h603v-320h-68v262h-535z" />
    <glyph glyph-name="cid1247" unicode="&#xae34;" horiz-adv-x="859" 
d="M752 766v-672h-67v672h67zM248 239q25 48 44 104.5t32 113.5t20 109.5t8 92.5h-342v58h411q0 -63 -8 -129.5t-22 -131.5t-34 -126.5t-45 -113.5zM771 -30v-58h-607v240h67v-182h540z" />
    <glyph glyph-name="cid1248" unicode="&#xae37;" horiz-adv-x="869" 
d="M762 766v-477h-68v477h68zM284 330q17 39 31 82t24 87t15.5 87.5t6.5 82.5h-351v58h421q0 -52 -5.5 -107t-16 -109t-25.5 -105t-34 -96zM762 227v-57h-594v57h594zM781 -35v-58h-612v228h68v-170h544z" />
    <glyph glyph-name="cid1249" unicode="&#xae38;" horiz-adv-x="869" 
d="M694 318v448h68v-448h-68zM291 350q35 78 51.5 159t18.5 160h-351v58h421q0 -105 -18 -206.5t-57 -191.5zM690 207h-526v58h598v-118h-72v60zM762 112v-57h-598v57h598zM791 -103h-627v123h72v-65h555v-58z" />
    <glyph glyph-name="cid1250" unicode="&#xae3a;" horiz-adv-x="869" 
d="M762 766v-448h-68v448h68zM291 350q35 78 51.5 159t18.5 160h-351v58h421q0 -105 -18 -206.5t-57 -191.5zM128 210v55h279v-120h-65v65h-214zM486 265h64v-368h-64v368zM580 210v55h181v-283h-64v228h-117zM407 110v-54h-279v54h279zM270 -48q19 0 41.5 1t45.5 4
t44.5 7.5t38.5 10.5l15 -53q-19 -8 -43 -13t-49 -7.5t-49.5 -3.5t-43.5 -1h-141v124h65v-69h76zM580 -103v55h181v-55h-181z" />
    <glyph glyph-name="cid1251" unicode="&#xae40;" horiz-adv-x="869" 
d="M762 766v-477h-68v477h68zM284 330q17 39 31 82t24 87t15.5 87.5t6.5 82.5h-351v58h421q0 -52 -5.5 -107t-16 -109t-25.5 -105t-34 -96zM164 227h63v-320h-63v320zM266 170v57h496v-227h-68v170h-428zM763 -35v-58h-497v58h497z" />
    <glyph glyph-name="cid1252" unicode="&#xae41;" horiz-adv-x="869" 
d="M762 766v-457h-68v457h68zM284 330q17 39 31 82t24 87t15.5 87.5t6.5 82.5h-351v58h421q0 -52 -5.5 -107t-16 -109t-25.5 -105t-34 -96zM165 264h66v-130h424v-58h-424v-169h-66v357zM762 264v-264h-67v264h67zM271 -93v58h492v-58h-492z" />
    <glyph glyph-name="cid1253" unicode="&#xae43;" horiz-adv-x="869" 
d="M762 766v-545h-68v545h68zM274 310q22 45 38 92.5t26.5 94.5t16 91t6.5 81h-351v58h421q-3 -134 -26 -240t-66 -200zM140 -55q84 24 142.5 57t95.5 69t54 71.5t17 64.5v16h67v-16q0 -49 -26 -95.5t-71.5 -87.5t-109 -74.5t-138.5 -56.5zM557 105q33 -40 98 -81t170 -67
l-30 -55q-93 28 -167.5 67t-118.5 99z" />
    <glyph glyph-name="cid1254" unicode="&#xae45;" horiz-adv-x="869" 
d="M762 766v-496h-68v496h68zM282 320q17 39 31.5 83.5t24.5 90.5t16 91t7 84h-351v58h421q0 -52 -6 -108.5t-16.5 -112.5t-26 -108.5t-34.5 -97.5zM318 219q31 6 68 9.5t82 3.5q159 0 234 -43t75 -122q0 -78 -75 -121.5t-234 -43.5t-233.5 43.5t-74.5 121.5q0 92 97 133
l31 -49q-64 -27 -64 -84q0 -58 64 -83.5t180 -25.5t180.5 25.5t64.5 83.5q0 59 -64.5 84.5t-180.5 25.5q-68 0 -119 -9z" />
    <glyph glyph-name="cid1255" unicode="&#xae46;" horiz-adv-x="869" 
d="M762 766v-477h-68v477h68zM284 330q17 39 31 82t24 87t15.5 87.5t6.5 82.5h-351v58h421q0 -52 -5.5 -107t-16 -109t-25.5 -105t-34 -96zM134 -49q78 19 133.5 45.5t91 56.5t52 60t16.5 56h-279v58h624v-58h-279q0 -38 -21.5 -78t-63 -76t-102.5 -66.5t-140 -50.5zM540 78
q32 -34 91.5 -66t157.5 -52l-32 -55q-38 10 -76 23t-72.5 29.5t-64 37.5t-50.5 47z" />
    <glyph glyph-name="cid1256" unicode="&#xae4a;" horiz-adv-x="869" 
d="M762 766v-477h-68v477h68zM284 330q17 39 31 82t24 87t15.5 87.5t6.5 82.5h-351v58h421q0 -52 -5.5 -107t-16 -109t-25.5 -105t-34 -96zM776 227v-58h-626v58h626zM646 139v-174h144v-58h-655v58h451v174h60zM358 139v-144h-60v144h60z" />
    <glyph glyph-name="cid1257" unicode="&#xae4c;" horiz-adv-x="913" 
d="M741 766v-838h-67v838h67zM280 673q0 -72 -6 -147.5t-18 -151.5t-29 -148.5t-39 -138.5l-64 12q25 71 43 145.5t29.5 146t16.5 138t4 121.5h-178v57h241v-34zM402 80q19 78 31.5 160t19 158.5t8.5 142t1 109.5h-147v57h212q2 -76 -1.5 -158.5t-11 -165.5t-19 -163
t-26.5 -152zM912 371h-136v57h136v-57z" />
    <glyph glyph-name="cid1258" unicode="&#xae4d;" horiz-adv-x="918" 
d="M674 766h68v-487h-68v487zM164 325q15 42 26.5 91t19 96t11.5 88.5t4 68.5h-186v58h254v-34q-3 -103 -21.5 -199.5t-44.5 -184.5zM430 303q14 42 23.5 94.5t15 104t8 96t2.5 71.5h-151v58h220q0 -56 -4 -114.5t-11 -115t-17 -109.5t-22 -99zM913 459h-136v58h136v-58z
M752 217v-310h-67v252h-540v58h607z" />
    <glyph glyph-name="cid1259" unicode="&#xae4e;" horiz-adv-x="918" 
d="M742 766v-487h-68v487h68zM293 693q-3 -103 -21.5 -199.5t-44.5 -184.5l-63 16q15 42 26.5 91t19 96t11.5 88.5t4 68.5h-186v58h254v-34zM548 727q0 -56 -4 -114.5t-11 -115t-17 -109.5t-22 -99l-64 14q14 42 23.5 94.5t15 104t8 96t2.5 71.5h-151v58h220zM913 459h-136
v58h136v-58zM361 159h-245v58h312v-310h-67v252zM752 -93h-67v252h-217v58h284v-310z" />
    <glyph glyph-name="cid1260" unicode="&#xae50;" horiz-adv-x="918" 
d="M742 766v-672h-68v672h68zM293 684q-1 -53 -6.5 -109t-14.5 -111.5t-21.5 -110t-28.5 -103.5l-64 17q20 59 33 117.5t20.5 110.5t10.5 94.5t3 69.5h-186v58h254v-33zM548 717q0 -56 -3 -119t-9.5 -127t-17 -125.5t-24.5 -115.5l-64 14q17 66 26.5 129.5t14.5 118
t6.5 97.5t1.5 70h-151v58h220zM913 419h-136v58h136v-58zM776 -30v-58h-612v240h67v-182h545z" />
    <glyph glyph-name="cid1261" unicode="&#xae54;" horiz-adv-x="918" 
d="M913 469h-162v-151h-67v448h67v-240h162v-57zM172 351q13 42 23 86.5t17 87t10 80t3 64.5h-186v58h254v-34q-2 -51 -6.5 -97t-12 -88.5t-17 -84.5t-21.5 -85zM436 341q14 42 22.5 88.5t13 91t6 83t1.5 65.5h-151v58h220q0 -113 -12 -210t-36 -190zM682 207h-523v58h593
v-118h-70v60zM752 112v-57h-593v57h593zM781 -45v-58h-622v123h70v-65h552z" />
    <glyph glyph-name="cid1262" unicode="&#xae56;" horiz-adv-x="918" 
d="M751 766v-240h162v-57h-162v-161h-67v458h67zM293 693q-2 -51 -6.5 -97t-12 -88.5t-17 -84.5t-21.5 -85l-64 13q13 42 23 86.5t17 87t10 80t3 64.5h-186v58h254v-34zM548 727q0 -113 -12 -210t-36 -190l-64 14q14 42 22.5 88.5t13 91t6 83t1.5 65.5h-151v58h220zM118 210
v55h279v-120h-65v65h-214zM476 265h64v-368h-64v368zM570 210v55h181v-283h-64v228h-117zM397 110v-54h-279v54h279zM260 -48q19 0 41.5 1t45.5 4t44.5 7.5t38.5 10.5l15 -53q-19 -8 -43 -13t-49 -7.5t-49.5 -3.5t-43.5 -1h-141v124h65v-69h76zM570 -103v55h181v-55h-181z
" />
    <glyph glyph-name="cid1263" unicode="&#xae5c;" horiz-adv-x="918" 
d="M752 766v-249h161v-58h-161v-180h-67v487h67zM293 693q-3 -103 -21.5 -199.5t-44.5 -184.5l-63 16q15 42 26.5 91t19 96t11.5 88.5t4 68.5h-186v58h254v-34zM548 727q0 -56 -4 -114.5t-11 -115t-17 -109.5t-22 -99l-64 14q14 42 23.5 94.5t15 104t8 96t2.5 71.5h-151v58
h220zM160 217h63v-310h-63v310zM262 160v57h490v-217h-68v160h-422zM753 -35v-58h-491v58h491z" />
    <glyph glyph-name="cid1264" unicode="&#xae5d;" horiz-adv-x="918" 
d="M752 766v-249h161v-58h-161v-150h-67v457h67zM293 693q-3 -103 -21.5 -199.5t-44.5 -184.5l-63 16q15 42 26.5 91t19 96t11.5 88.5t4 68.5h-186v58h254v-34zM548 727q0 -56 -4 -114.5t-11 -115t-17 -109.5t-22 -99l-64 14q14 42 23.5 94.5t15 104t8 96t2.5 71.5h-151v58
h220zM159 264h67v-129h419v-58h-419v-170h-67v357zM752 264v-264h-67v264h67zM266 -93v58h487v-58h-487z" />
    <glyph glyph-name="cid1265" unicode="&#xae5f;" horiz-adv-x="918" 
d="M752 766v-259h161v-58h-161v-228h-67v545h67zM293 693q-3 -103 -23 -204.5t-46 -189.5l-63 16q15 42 27 92.5t20 99.5t12.5 92t4.5 70h-186v58h254v-34zM548 727q0 -56 -4.5 -116t-12 -118.5t-18 -113t-22.5 -100.5l-64 14q14 42 24 96t16 107.5t9 99.5t3 73h-151v58h220
zM140 -55q84 24 142.5 57t95.5 69t54 71.5t17 64.5v16h67v-16q0 -49 -25.5 -95.5t-71.5 -87.5t-109.5 -74.5t-138.5 -56.5zM557 105q33 -40 98 -81t170 -67l-30 -55q-93 28 -167.5 67t-118.5 99z" />
    <glyph glyph-name="cid1266" unicode="&#xae60;" horiz-adv-x="918" 
d="M752 766v-249h161v-58h-161v-170h-67v477h67zM293 693q-3 -103 -21.5 -199.5t-44.5 -184.5l-63 16q15 42 26.5 91t19 96t11.5 88.5t4 68.5h-186v58h254v-34zM548 727q0 -56 -4 -114.5t-11 -115t-17 -109.5t-22 -99l-64 14q14 42 23.5 94.5t15 104t8 96t2.5 71.5h-151v58
h220zM457 -15q-10 -9 -23.5 -19.5t-26.5 -19.5q-30 23 -50.5 46t-34.5 49q-4 7 -7.5 18.5t-5.5 22.5h-14q-1 -11 -6 -24t-10 -21q-20 -38 -57.5 -77t-92.5 -74l-44 41q55 33 90.5 71.5t56 76.5t28.5 72t8 58v38h65v-38q0 -23 6 -50.5t20 -57t38 -58.5t60 -54zM433 -70
q49 32 83 69t54 74.5t29 72t9 62.5v35h64v-41q0 -79 -44 -160t-146 -156zM707 77q20 -33 52 -70t90 -70l-44 -46q-53 36 -86.5 70t-58.5 79z" />
    <glyph glyph-name="cid1267" unicode="&#xae61;" horiz-adv-x="918" 
d="M752 766v-249h161v-58h-161v-189h-67v496h67zM293 693q-3 -103 -21.5 -199.5t-44.5 -184.5l-63 16q15 42 26.5 91t19 96t11.5 88.5t4 68.5h-186v58h254v-34zM548 727q0 -56 -4 -114.5t-11 -115t-17 -109.5t-22 -99l-64 14q14 42 23.5 94.5t15 104t8 96t2.5 71.5h-151v58
h220zM308 219q31 6 68 9.5t82 3.5q159 0 234 -43t75 -122q0 -78 -75 -121.5t-234 -43.5t-233.5 43.5t-74.5 121.5q0 92 97 133l31 -49q-64 -27 -64 -84q0 -58 64 -83.5t180 -25.5t180.5 25.5t64.5 83.5q0 59 -64.5 84.5t-180.5 25.5q-68 0 -119 -9z" />
    <glyph glyph-name="cid1268" unicode="&#xae65;" horiz-adv-x="918" 
d="M752 766v-240h161v-57h-161v-160h-67v457h67zM293 693q-3 -103 -18.5 -190.5t-48.5 -175.5l-64 16q16 42 28 88t20 90t11.5 82.5t3.5 65.5h-186v58h254v-34zM548 727q0 -226 -48 -410l-68 14q14 42 23 90.5t14.5 94.5t7.5 86t2 67h-151v58h220zM752 245v-58h-594v58h594z
M782 -45v-58h-622v250h65v-192h557zM752 103v-58h-491v58h491z" />
    <glyph glyph-name="cid1269" unicode="&#xae68;" horiz-adv-x="928" 
d="M820 -72h-66v463h-182v365h66v-308h116v318h66v-838zM260 697v-34q0 -144 -23.5 -289t-68.5 -277l-64 12q25 71 43 142.5t29.5 139.5t16.5 131t4 118h-158v57h221zM477 697q2 -76 -1.5 -155t-11 -158.5t-19 -156.5t-26.5 -149l-67 12q19 78 31.5 157t19 151.5t8.5 135
t1 106.5h-117v57h182zM640 351v-409h-68v409h68z" />
    <glyph glyph-name="cid1270" unicode="&#xae69;" horiz-adv-x="889" 
d="M604 755v-195h113v206h64v-496h-64v232h-177v253h64zM247 694q-2 -52 -6.5 -99t-12.5 -93t-19.5 -93.5t-26.5 -99.5l-64 16q12 33 23 78t19.5 93t14 93.5t5.5 79.5h-141v58h208v-33zM455 727q0 -115 -13.5 -222.5t-39.5 -215.5l-65 14q11 33 20.5 80.5t16 98.5t10 100.5
t3.5 86.5h-105v58h173zM540 270v202h64v-202h-64zM174 149v58h604v-300h-67v242h-537z" />
    <glyph glyph-name="cid1271" unicode="&#xae6c;" horiz-adv-x="889" 
d="M604 755v-259h113v270h64v-672h-64v344h-177v317h64zM244 684q-3 -107 -22.5 -223t-54.5 -222l-65 17q22 58 36.5 118t23 114.5t12 99t3.5 71.5h-138v58h205v-33zM452 717q0 -56 -3 -119t-9.5 -127t-16.5 -125.5t-25 -115.5l-64 14q17 66 27 129.5t15 118t6.5 97.5
t1.5 70h-105v58h173zM540 104v299h64v-299h-64zM801 -30v-58h-632v231h67v-173h565z" />
    <glyph glyph-name="cid1272" unicode="&#xae70;" horiz-adv-x="889" 
d="M540 299v456h64v-199h113v210h64v-467h-64v199h-113v-199h-64zM115 345q15 42 26.5 87.5t19.5 89t12 82t4 65.5h-138v58h205v-34q-3 -101 -21 -189t-45 -176zM337 322q14 43 23.5 92.5t15.5 97t8.5 89t2.5 68.5h-108v58h176q0 -113 -14.5 -219t-39.5 -199zM707 177h-538
v58h609v-102h-71v44zM778 97v-56h-609v56h609zM808 -103h-639v109h71v-51h568v-58z" />
    <glyph glyph-name="cid1273" unicode="&#xae78;" horiz-adv-x="889" 
d="M604 755v-195h113v206h64v-496h-64v232h-177v253h64zM247 694q-2 -52 -6.5 -99t-12.5 -93t-19.5 -93.5t-26.5 -99.5l-64 16q12 33 23 78t19.5 93t14 93.5t5.5 79.5h-141v58h208v-33zM455 727q0 -115 -13.5 -222.5t-39.5 -215.5l-65 14q11 33 20.5 80.5t16 98.5t10 100.5
t3.5 86.5h-105v58h173zM540 270v202h64v-202h-64zM179 207h63v-300h-63v300zM281 150v57h497v-207h-68v150h-429zM779 -35v-58h-498v58h498z" />
    <glyph glyph-name="cid1274" unicode="&#xae79;" horiz-adv-x="889" 
d="M604 755v-195h113v206h64v-466h-64v202h-177v253h64zM247 694q-2 -52 -6.5 -99t-12.5 -93t-19.5 -93.5t-26.5 -99.5l-64 16q12 33 23 78t19.5 93t14 93.5t5.5 79.5h-141v58h208v-33zM455 727q0 -115 -13.5 -222.5t-39.5 -215.5l-65 14q11 33 20.5 80.5t16 98.5t10 100.5
t3.5 86.5h-105v58h173zM540 300v172h64v-172h-64zM180 239h66v-119h425v-58h-425v-155h-66v332zM778 239v-239h-67v239h67zM286 -93v58h493v-58h-493z" />
    <glyph glyph-name="cid1275" unicode="&#xae7b;" horiz-adv-x="889" 
d="M604 755v-205h113v216h64v-566h-64v292h-177v263h64zM247 694q-2 -56 -6.5 -104.5t-12.5 -96t-19.5 -95t-26.5 -99.5l-64 16q12 33 23 78t19.5 94t14 96.5t5.5 85.5h-141v58h208v-33zM455 727q0 -122 -13.5 -231t-39.5 -217l-65 14q11 33 20.5 80.5t16 99.5t10 103.5
t3.5 92.5h-105v58h173zM540 279v183h64v-183h-64zM126 -55q84 24 142.5 57t95.5 69t54 71.5t17 64.5v16h67v-16q0 -49 -25.5 -95.5t-71.5 -87.5t-109.5 -74.5t-138.5 -56.5zM543 105q33 -40 98 -81t170 -67l-30 -55q-93 28 -167.5 67t-118.5 99z" />
    <glyph glyph-name="cid1276" unicode="&#xae7c;" horiz-adv-x="889" 
d="M604 755v-195h113v206h64v-522h-64v258h-177v253h64zM246 694q-2 -52 -6.5 -99t-12.5 -93t-19.5 -93.5t-26.5 -99.5l-64 16q12 33 23 78t19.5 93t14 93.5t5.5 79.5h-140v58h207v-33zM455 727q0 -115 -13.5 -222.5t-39.5 -215.5l-65 14q11 33 20.5 80.5t16 98.5t10 100.5
t3.5 86.5h-106v58h174zM540 264v208h64v-208h-64zM456 -14q-10 -9 -23 -20t-26 -20q-30 23 -49.5 44.5t-35.5 44.5q-5 7 -10 18.5t-7 22.5h-13q-1 -11 -5.5 -24t-9.5 -21q-20 -35 -57.5 -72.5t-92.5 -72.5l-44 41q56 34 91.5 70t55.5 70t27.5 65t7.5 55v27h66v-27
q0 -23 6 -48.5t20.5 -51.5t38.5 -51.5t60 -49.5zM431 -70q51 33 84.5 68t54 69t28.5 66t8 59v22h63v-22q0 -39 -10 -77.5t-32.5 -76t-58.5 -75.5t-88 -77zM703 71q17 -30 50.5 -65t93.5 -69l-44 -46q-53 34 -88 67.5t-57 77.5z" />
    <glyph glyph-name="cid1277" unicode="&#xae7d;" horiz-adv-x="889" 
d="M604 755v-195h113v206h64v-536h-64v272h-177v253h64zM249 694q-2 -52 -6.5 -99t-12.5 -93t-19.5 -93.5t-26.5 -99.5l-64 16q12 33 23 78t19.5 93t14 93.5t5.5 79.5h-143v58h210v-33zM455 727q0 -115 -13.5 -222.5t-39.5 -215.5l-65 14q11 33 20.5 80.5t16 98.5t10 100.5
t3.5 86.5h-102v58h170zM540 279v193h64v-193h-64zM302 136q-32 -13 -47.5 -33.5t-15.5 -40.5q0 -54 63 -80t179 -26q115 0 178.5 26t63.5 80q0 48 -63.5 74t-178.5 26q-69 0 -118 -9l-32 50q32 7 68.5 10.5t81.5 3.5q79 0 137.5 -11.5t96.5 -32t57 -48.5t19 -62
q0 -75 -75.5 -118t-234.5 -43q-160 0 -235.5 43t-75.5 117q0 35 24.5 69t75.5 54z" />
    <glyph glyph-name="cid1278" unicode="&#xae84;" horiz-adv-x="928" 
d="M736 766v-838h-67v838h67zM275 673q0 -72 -6 -147.5t-18 -151.5t-29 -148.5t-39 -138.5l-64 12q25 71 43 145.5t29.5 146t16.5 138t4 121.5h-173v57h236v-34zM402 80q19 78 31.5 160t19 158.5t8.5 142t1 109.5h-147v57h212q2 -76 -1.5 -158.5t-11 -165.5t-19 -163
t-26.5 -152zM913 479h-142v57h142v-57zM913 234h-142v57h142v-57z" />
    <glyph glyph-name="cid1279" unicode="&#xae85;" horiz-adv-x="928" 
d="M674 766h68v-487h-68v487zM164 325q15 42 26.5 91t19 96t11.5 88.5t4 68.5h-186v58h254v-34q-3 -103 -21.5 -199.5t-44.5 -184.5zM430 303q14 42 23.5 94.5t15 104t8 96t2.5 71.5h-151v58h220q0 -56 -4 -114.5t-11 -115t-17 -109.5t-22 -99zM908 566h-131v58h131v-58z
M908 429v-58h-131v58h131zM752 217v-310h-67v252h-540v58h607z" />
    <glyph glyph-name="cid1280" unicode="&#xae8c;" horiz-adv-x="928" 
d="M752 468h156v-58h-156v-92h-67v448h67v-122h156v-58h-156v-118zM172 351q13 42 23 86.5t17 87t10 80t3 64.5h-186v58h254v-34q-2 -51 -6.5 -97t-12 -88.5t-17 -84.5t-21.5 -85zM436 341q14 42 22.5 88.5t13 91t6 83t1.5 65.5h-151v58h220q0 -113 -12 -210t-36 -190z
M682 207h-523v58h593v-118h-70v60zM752 112v-57h-593v57h593zM781 -45v-58h-622v123h70v-65h552z" />
    <glyph glyph-name="cid1281" unicode="&#xaebc;" horiz-adv-x="879" 
d="M771 -72h-67v463h-142v57h142v318h67v-838zM275 707v-34q0 -72 -6 -147.5t-18 -151.5t-29 -148.5t-39 -138.5l-64 12q25 71 43 145.5t29.5 146t16.5 138t4 121.5h-173v57h236zM527 707q2 -76 -1.5 -158.5t-11 -165.5t-19 -163t-26.5 -152l-67 12q19 78 31.5 160t19 158.5
t8.5 142t1 109.5h-147v57h212z" />
    <glyph glyph-name="cid1282" unicode="&#xaebd;" horiz-adv-x="889" 
d="M714 766h67v-487h-67v211h-143v58h143v218zM273 693q-3 -103 -21.5 -199.5t-44.5 -184.5l-63 16q15 42 26.5 91t19 96t11.5 88.5t4 68.5h-166v58h234v-34zM538 727q0 -56 -4 -114.5t-11 -115t-17 -109.5t-22 -99l-64 14q14 42 23.5 94.5t15 104t8 96t2.5 71.5h-161v58
h230zM169 159v58h612v-310h-67v252h-545z" />
    <glyph glyph-name="cid1283" unicode="&#xaebe;" horiz-adv-x="889" 
d="M714 766h67v-487h-67v211h-143v58h143v218zM273 693q-3 -103 -21.5 -199.5t-44.5 -184.5l-63 16q15 42 26.5 91t19 96t11.5 88.5t4 68.5h-166v58h234v-34zM538 727q0 -56 -4 -114.5t-11 -115t-17 -109.5t-22 -99l-64 14q14 42 23.5 94.5t15 104t8 96t2.5 71.5h-161v58
h230zM390 159h-245v58h312v-310h-67v252zM781 -93h-67v252h-217v58h284v-310z" />
    <glyph glyph-name="cid1284" unicode="&#xaec0;" horiz-adv-x="889" 
d="M714 766h67v-672h-67v347h-143v58h143v267zM273 683q-2 -69 -7.5 -129t-14 -113t-20 -100t-24.5 -91l-63 16q14 42 25.5 92t19.5 101.5t12.5 103t4.5 96.5h-167v58h234v-34zM538 717q0 -149 -15 -271.5t-39 -215.5l-64 14q13 42 22.5 95.5t15.5 109.5t9 110.5t3 99.5
h-162v58h230zM801 -30v-58h-613v240h68v-182h545z" />
    <glyph glyph-name="cid1285" unicode="&#xaec4;" horiz-adv-x="889" 
d="M576 496v58h138v212h67v-447h-67v177h-138zM162 351q14 42 25 92t17.5 95.5t9.5 81t1 49.5h-176v58h244v-34q0 -38 -4 -82t-11.5 -90t-18.5 -93t-23 -91zM426 341q15 42 24 93.5t13.5 98.5t6 84.5t0.5 51.5h-152v58h220q1 -44 -1.5 -94.5t-8.5 -103t-15.5 -104.5
t-22.5 -98zM709 207h-525v58h597v-118h-72v60zM781 112v-57h-597v57h597zM810 -103h-626v123h72v-65h554v-58z" />
    <glyph glyph-name="cid1286" unicode="&#xaecc;" horiz-adv-x="889" 
d="M714 766h67v-487h-67v211h-143v58h143v218zM273 693q-3 -103 -21.5 -199.5t-44.5 -184.5l-63 16q15 42 26.5 91t19 96t11.5 88.5t4 68.5h-166v58h234v-34zM538 727q0 -56 -4 -114.5t-11 -115t-17 -109.5t-22 -99l-64 14q14 42 23.5 94.5t15 104t8 96t2.5 71.5h-161v58
h230zM184 217h63v-310h-63v310zM286 160v57h495v-217h-68v160h-427zM782 -35v-58h-496v58h496z" />
    <glyph glyph-name="cid1287" unicode="&#xaecd;" horiz-adv-x="889" 
d="M714 766h67v-457h-67v181h-143v58h143v218zM273 693q-3 -103 -21.5 -199.5t-44.5 -184.5l-63 16q15 42 26.5 91t19 96t11.5 88.5t4 68.5h-166v58h234v-34zM538 727q0 -56 -4 -114.5t-11 -115t-17 -109.5t-22 -99l-64 14q14 42 23.5 94.5t15 104t8 96t2.5 71.5h-161v58
h230zM184 264h66v-130h425v-58h-425v-169h-66v357zM782 264v-264h-67v264h67zM290 -93v58h493v-58h-493z" />
    <glyph glyph-name="cid1288" unicode="&#xaecf;" horiz-adv-x="889" 
d="M714 766h67v-545h-67v265h-143v58h143v222zM273 693q-3 -111 -22.5 -208t-45.5 -185l-63 16q15 42 26.5 91t20 97t12.5 91t4 74h-166v58h234v-34zM538 727q0 -121 -16 -237.5t-40 -209.5l-64 14q14 42 23.5 94.5t15.5 105t9 99t3 76.5h-161v58h230zM155 -55
q84 24 142.5 57t95.5 69t54 71.5t17 64.5v16h67v-16q0 -49 -25.5 -95.5t-71.5 -87.5t-109.5 -74.5t-138.5 -56.5zM572 105q33 -40 98 -81t170 -67l-30 -55q-93 28 -167.5 67t-118.5 99z" />
    <glyph glyph-name="cid1289" unicode="&#xaed0;" horiz-adv-x="889" 
d="M714 766h67v-477h-67v201h-143v58h143v218zM273 693q-3 -103 -21.5 -199.5t-44.5 -184.5l-63 16q15 42 26.5 91t19 96t11.5 88.5t4 68.5h-166v58h234v-34zM538 727q0 -56 -4 -114.5t-11 -115t-17 -109.5t-22 -99l-64 14q14 42 23.5 94.5t15 104t8 96t2.5 71.5h-161v58
h230zM477 -14q-10 -9 -23 -20t-27 -20q-59 45 -85 93q-4 8 -8 20t-6 23h-14q-2 -11 -6.5 -24t-9.5 -21q-18 -37 -56.5 -76.5t-92.5 -74.5l-44 41q56 34 91.5 73t55.5 77t27.5 72t7.5 58v36h65v-36q0 -23 6 -51.5t20.5 -58.5t38.5 -58.5t60 -52.5zM453 -70q49 33 82.5 69
t53.5 72t29 69.5t10 61.5l1 41h63v-41q0 -79 -44 -158.5t-146 -157.5zM728 76q19 -34 50.5 -69.5t90.5 -69.5l-44 -46q-54 35 -86.5 69t-57.5 79z" />
    <glyph glyph-name="cid1290" unicode="&#xaed1;" horiz-adv-x="889" 
d="M714 766h67v-497h-67v221h-143v58h143v218zM273 693q-3 -103 -21.5 -199.5t-44.5 -184.5l-63 16q15 42 26.5 91t19 96t11.5 88.5t4 68.5h-166v58h234v-34zM538 727q0 -56 -4 -114.5t-11 -115t-17 -109.5t-22 -99l-64 14q14 42 23.5 94.5t15 104t8 96t2.5 71.5h-161v58
h230zM338 219q31 6 68 9.5t82 3.5q159 0 234 -43t75 -122q0 -78 -75 -121.5t-234 -43.5t-233.5 43.5t-74.5 121.5q0 92 97 133l31 -49q-64 -27 -64 -84q0 -58 64 -83.5t180 -25.5t180.5 25.5t64.5 83.5q0 59 -64.5 84.5t-180.5 25.5q-68 0 -119 -9z" />
    <glyph glyph-name="cid1291" unicode="&#xaed8;" horiz-adv-x="928" 
d="M820 -72h-67v838h67v-838zM654 756v-362h-149v57h82v305h67zM260 697v-34q0 -144 -23.5 -289t-68.5 -277l-64 12q25 71 43 142.5t29.5 139.5t16.5 131t4 118h-158v57h221zM477 697q2 -76 -1.5 -155t-11 -158.5t-19 -156.5t-26.5 -149l-67 12q19 78 31.5 157t19 151.5
t8.5 135t1 106.5h-117v57h182zM654 354v-412h-67v412h67z" />
    <glyph glyph-name="cid1292" unicode="&#xaed9;" horiz-adv-x="889" 
d="M781 766v-496h-64v496h64zM550 560v195h64v-253h-143v58h79zM249 693q-3 -103 -21 -199.5t-45 -184.5l-63 16q15 42 26.5 91t19.5 96t12 88.5t4 68.5h-143v58h210v-34zM327 303q14 42 23.5 94.5t15.5 104t8.5 96t2.5 71.5h-93l-1 58h162q0 -107 -13.5 -220t-39.5 -218z
M550 270v197h64v-197h-64zM174 149v58h604v-300h-67v242h-537z" />
    <glyph glyph-name="cid1293" unicode="&#xaedc;" horiz-adv-x="889" 
d="M781 766v-672h-64v672h64zM550 496v259h64v-317h-143v58h79zM249 684q-3 -107 -22.5 -223t-54.5 -222l-65 17q22 58 36.5 118t23 114.5t12 99t3.5 71.5h-143v58h210v-33zM324 244q17 66 27 129.5t15 118t6.5 97.5t1.5 70h-90v58h158q0 -58 -3.5 -122t-10 -128t-16.5 -125
t-23 -112zM550 104v299h64v-299h-64zM801 -30v-58h-632v231h67v-173h565z" />
    <glyph glyph-name="cid1294" unicode="&#xaee8;" horiz-adv-x="889" 
d="M781 270h-64v496h64v-496zM471 497v58h79v200h64v-485h-64v227h-79zM249 727v-34q-3 -103 -21 -199.5t-45 -184.5l-63 16q15 42 26.5 91t19.5 96t12 88.5t4 68.5h-143v58h210zM283 727h162q0 -107 -13.5 -220t-39.5 -218l-65 14q14 42 23.5 94.5t15.5 104t8.5 96
t2.5 71.5h-93zM242 207v-300h-63v300h63zM281 149v58h497v-208h-68v150h-429zM779 -36v-57h-498v57h498z" />
    <glyph glyph-name="cid1295" unicode="&#xaeeb;" horiz-adv-x="889" 
d="M781 766v-565h-64v565h64zM550 755h64v-476h-64v199h-80v57h80v220zM249 693q-3 -103 -21 -204.5t-45 -189.5l-63 16q15 42 26.5 92.5t19.5 99.5t12 92t4 70h-143v58h210v-34zM327 293q14 42 23.5 96t15.5 107.5t8.5 99.5t2.5 73h-93l-1 58h162q0 -53 -3.5 -110t-10 -115
t-16.5 -114.5t-23 -108.5zM127 -55q84 24 142.5 57t95.5 69t54 71.5t17 64.5v16h67v-16q0 -49 -26 -95.5t-71.5 -87.5t-109 -74.5t-138.5 -56.5zM544 105q33 -40 98 -81t170 -67l-30 -55q-93 28 -167.5 67t-118.5 99z" />
    <glyph glyph-name="cid1296" unicode="&#xaeed;" horiz-adv-x="898" 
d="M781 766v-536h-64v536h64zM550 755h64v-476h-64v208h-87v58h87v210zM249 693q-3 -103 -21 -199.5t-45 -184.5l-63 16q15 42 26.5 91t19.5 96t12 88.5t4 68.5h-143v58h210v-34zM327 303q14 42 23.5 94.5t15.5 104t8.5 96t2.5 71.5h-92l-1 58h161q0 -107 -13.5 -220
t-39.5 -218zM331 204q31 6 68.5 10t78.5 3q161 -2 237 -43.5t76 -113.5q0 -36 -19 -65t-57.5 -50t-97.5 -32.5t-139 -10.5q-155 2 -231.5 42.5t-76.5 115.5q0 45 26.5 75.5t76.5 51.5l33 -48q-32 -14 -49.5 -32t-17.5 -47q0 -53 63.5 -78.5t175.5 -25.5q119 0 182 26.5
t63 77.5q0 53 -63 77t-182 26q-29 1 -59 -2t-56 -7z" />
    <glyph glyph-name="cid1297" unicode="&#xaef4;" horiz-adv-x="879" 
d="M704 766h67v-838h-67v336h-147v57h147v177h-147v58h147v210zM275 673q0 -72 -6 -147.5t-18 -151.5t-29 -148.5t-39 -138.5l-64 12q25 71 43 145.5t29.5 146t16.5 138t4 121.5h-173v57h236v-34zM397 80q19 78 31.5 160t19 158.5t8.5 142t1 109.5h-147v57h212
q2 -76 -1.5 -158.5t-11 -165.5t-19 -163t-26.5 -152z" />
    <glyph glyph-name="cid1298" unicode="&#xaef8;" horiz-adv-x="889" 
d="M574 354v57h140v128h-140v58h140v169h67v-672h-67v260h-140zM157 267q20 59 33 117.5t20.5 110.5t10.5 94.5t3 69.5h-185v58h253v-33q-1 -53 -6.5 -109t-14.5 -111.5t-21.5 -110t-28.5 -103.5zM410 244q17 66 27 129.5t15 118t6.5 97.5t1.5 70h-133v58h201q0 -56 -3 -119
t-9.5 -127t-16.5 -125.5t-24 -115.5zM801 -88h-613v240h68v-182h545v-58z" />
    <glyph glyph-name="cid1299" unicode="&#xaefc;" horiz-adv-x="889" 
d="M554 393v57h160v109h-160v57h160v150h67v-448h-67v75h-160zM152 351q13 37 23.5 86t17 96t10 84.5t2.5 51.5h-166v58h234v-34q0 -38 -5 -83.5t-13 -93t-18 -94t-21 -85.5zM416 341q13 37 22 88t14.5 100t6.5 88t0 52h-151v58h220q1 -43 -1.5 -95.5t-9 -106.5t-16 -105.5
t-21.5 -92.5zM711 207h-527v58h598v-108h-71v50zM782 111v-56h-598v56h598zM811 -103h-627v111h71v-53h556v-58z" />
    <glyph glyph-name="cid1300" unicode="&#xaf07;" horiz-adv-x="889" 
d="M554 393v57h160v109h-160v57h160v150h67v-545h-67v172h-160zM273 693q-3 -103 -23 -204.5t-46 -189.5l-63 16q15 42 27 92.5t20 99.5t12.5 92t4.5 70h-166v58h234v-34zM538 727q0 -56 -4.5 -116t-12 -118.5t-18 -113t-22.5 -100.5l-64 14q14 42 24 96t16 107.5t9 99.5
t3 73h-161v58h230zM155 -55q84 24 142.5 57t95.5 69t54 71.5t17 64.5v16h67v-16q0 -49 -26 -95.5t-71.5 -87.5t-109 -74.5t-138.5 -56.5zM572 105q33 -40 98 -81t170 -67l-30 -55q-93 28 -167.5 67t-118.5 99z" />
    <glyph glyph-name="cid1301" unicode="&#xaf08;" horiz-adv-x="889" 
d="M554 393v57h160v109h-160v57h160v150h67v-477h-67v104h-160zM273 693q-3 -103 -21.5 -199.5t-44.5 -184.5l-63 16q15 42 26.5 91t19 96t11.5 88.5t4 68.5h-166v58h234v-34zM528 727q0 -56 -4 -114.5t-11 -115t-17 -109.5t-22 -99l-64 14q14 42 23.5 94.5t15 104t8 96
t2.5 71.5h-151v58h220zM477 -14q-10 -9 -23 -20t-27 -20q-59 45 -85 93q-4 8 -8 20t-6 23h-14q-2 -11 -6.5 -24t-9.5 -21q-18 -37 -56.5 -76.5t-92.5 -74.5l-44 41q56 34 91.5 73t55.5 77t27.5 72t7.5 58v36h65v-36q0 -23 6 -51.5t20.5 -58.5t38.5 -58.5t60 -52.5zM453 -70
q49 33 82.5 69t53.5 72t29 69.5t10 61.5l1 41h63v-41q0 -79 -44 -158.5t-146 -157.5zM728 76q19 -34 50.5 -69.5t90.5 -69.5l-44 -46q-54 35 -86.5 69t-57.5 79z" />
    <glyph glyph-name="cid1302" unicode="&#xaf0d;" horiz-adv-x="889" 
d="M554 393v57h160v109h-160v57h160v150h67v-457h-67v84h-160zM283 693q-3 -103 -19 -191t-48 -175l-65 16q17 42 29.5 88t20 90t11 82.5t3.5 65.5h-176v58h244v-34zM528 727q0 -226 -48 -410l-68 14q14 42 23.5 90.5t15 94.5t8 86t2.5 67h-143v58h210zM781 245v-58h-598v58
h598zM811 -45v-58h-626v250h65v-192h561zM781 103v-58h-495v58h495z" />
    <glyph glyph-name="cid1303" unicode="&#xaf10;" horiz-adv-x="928" 
d="M820 -72h-67v838h67v-838zM659 756v-398h-66v129h-92v56h92v213h66zM250 697v-34q0 -144 -23.5 -289t-68.5 -277l-64 12q25 71 43 142.5t29.5 139.5t16.5 131t4 118h-148v57h211zM467 697q2 -76 -1.5 -155t-11 -158.5t-19 -156.5t-26.5 -149l-67 12q19 78 31.5 157
t19 151.5t8.5 135t1 106.5h-117v57h182zM593 -58v319h-92v57h158v-376h-66z" />
    <glyph glyph-name="cid1304" unicode="&#xaf2c;" horiz-adv-x="898" 
d="M402 674q-2 -109 -21.5 -225t-54.5 -230l-65 15q20 57 34.5 114t23.5 110.5t13.5 102t4.5 87.5h-238v59h303v-33zM783 667q0 -30 -1.5 -79t-6 -109t-11.5 -127t-18 -132l-65 9q17 109 26.5 209t9.5 210h-268v59h334v-40zM542 394v-278h-65v278h65zM859 76v-58h-820v58
h820z" />
    <glyph glyph-name="cid1305" unicode="&#xaf2d;" horiz-adv-x="908" 
d="M401 691q0 -25 -3 -60t-9 -74t-15.5 -78.5t-22.5 -73.5l-67 16q16 34 26 70.5t16 71t8 64.5t2 52h-220v57h285v-45zM783 736q0 -27 -0.5 -63.5t-3.5 -80t-9 -91t-16 -95.5l-64 11q9 39 14.5 79t8 75t3.5 63t1 45h-280v57h346zM542 535v-149h-63v149h63zM39 292v59h830
v-59h-830zM142 187h625v-290h-68v233h-557v57z" />
    <glyph glyph-name="cid1306" unicode="&#xaf30;" horiz-adv-x="908" 
d="M401 681q0 -34 -3 -74t-9 -81t-15.5 -81t-22.5 -74l-67 16q15 34 25 71t15.5 73.5t8 71.5t3.5 66h-220v57h285v-45zM783 726q0 -72 -6 -166.5t-26 -191.5l-67 11q10 39 16.5 80t10.5 79t5 71.5t1 59.5h-280v57h346zM542 507v-184h-64v184h64zM39 233v60h830v-60h-830z
M799 -35v-58h-650v250h68v-192h582z" />
    <glyph glyph-name="cid1307" unicode="&#xaf32;" horiz-adv-x="908" 
d="M293 457q14 34 22.5 69t13 65.5t6 53.5t1.5 34h-220v57h285v-45q0 -14 -2 -41t-6.5 -61t-12.5 -71.5t-21 -71.5zM690 457q9 39 14.5 77t8 68.5t3.5 51t1 25.5h-280v57h346q0 -15 -0.5 -44.5t-3.5 -68t-9 -84t-16 -93.5zM869 331h-830v60h439v136h64v-136h327v-60z
M739 212h-229v54h229v-54zM240 -39q21 0 45.5 2t48.5 5t47 8t41 11l16 -52q-20 -7 -47 -12t-56.5 -8.5t-59.5 -5.5t-55 -2h-69v325h63v-271h26zM817 162v-54h-385v54h385zM628 70q92 0 132.5 -24t40.5 -66q0 -41 -41.5 -65t-131.5 -24q-33 0 -64.5 4t-56 13.5t-39 27
t-14.5 44.5q0 50 57 73l27 -44q-23 -11 -23 -29q0 -40 113 -40q53 0 82 10t29 30q0 43 -111 43q-29 0 -50 -3l-27 44q33 6 77 6z" />
    <glyph glyph-name="cid1308" unicode="&#xaf34;" horiz-adv-x="908" 
d="M401 691q0 -14 -2 -41.5t-6.5 -61t-13 -71t-20.5 -71.5l-66 11q13 32 21.5 65.5t13.5 64t6.5 55t1.5 37.5h-220v57h285v-45zM783 736q0 -19 -0.5 -48.5t-3.5 -67t-8.5 -82t-16.5 -93.5l-64 11q10 40 15 76.5t7.5 66t3.5 50.5t1 30h-271v57h337zM478 401v145h64v-145h327
v-59h-830v59h439zM149 197v58h620v-114h-75l1 56h-546zM769 106v-57h-620v57h620zM788 -45v-58h-639v117h73l-1 -59h567z" />
    <glyph glyph-name="cid1309" unicode="&#xaf3c;" horiz-adv-x="908" 
d="M401 691q0 -29 -3 -64.5t-9 -73.5t-15.5 -76t-23.5 -72l-66 16q31 69 41.5 137.5t10.5 120.5h-220v57h285v-45zM783 736q0 -61 -4.5 -147t-24.5 -183l-64 11q9 39 14.5 77.5t8 72.5t3.5 63t1 49h-271v57h337zM542 536v-184h327v-60h-830v60h439v184h64zM149 187h66v-290
h-66v290zM255 130v57h515v-197h-68v140h-447zM255 -103v58h515v-58h-515z" />
    <glyph glyph-name="cid1310" unicode="&#xaf3d;" horiz-adv-x="908" 
d="M401 691q0 -29 -3 -64.5t-9 -73.5t-15.5 -76t-23.5 -72l-66 16q31 69 41.5 137.5t10.5 120.5h-220v57h285v-45zM783 736q0 -61 -4.5 -147t-24.5 -183l-64 11q9 39 14.5 77.5t8 72.5t3.5 63t1 49h-271v57h337zM542 536v-180h327v-60h-830v60h439v180h64zM149 234h66v-114
h448v-58h-448v-165h-66v337zM770 234v-244h-67v244h67zM255 -103v58h516v-58h-516z" />
    <glyph glyph-name="cid1311" unicode="&#xaf3f;" horiz-adv-x="908" 
d="M284 421q31 69 41.5 137.5t10.5 120.5h-220v57h285v-45q0 -29 -3 -64.5t-9 -73.5t-15.5 -76t-23.5 -72zM690 417q9 39 14.5 77.5t8 72.5t3.5 63t1 49h-272v57h338q0 -61 -4.5 -147t-24.5 -183zM869 282h-830v60h439v194h64v-194h327v-60zM491 194q0 -42 -25.5 -85.5
t-71 -84t-110 -75t-142.5 -56.5l-31 52q86 24 146 57.5t97.5 69.5t54 69t16.5 56v26h66v-29zM535 102q34 -40 100.5 -78.5t170.5 -66.5l-30 -55q-45 13 -87 29t-79 36t-68.5 44.5t-53.5 54.5z" />
    <glyph glyph-name="cid1312" unicode="&#xaf41;" horiz-adv-x="908" 
d="M284 421q31 69 41.5 137.5t10.5 120.5h-220v57h285v-45q0 -29 -3 -64.5t-9 -73.5t-15.5 -76t-23.5 -72zM690 417q9 39 14.5 77.5t8 72.5t3.5 63t1 49h-271v57h337q0 -61 -4.5 -147t-24.5 -183zM869 292h-830v60h439v184h64v-184h327v-60zM459 206q162 0 243 -42t81 -120
q0 -161 -324 -161q-165 0 -244.5 40t-79.5 121q0 95 113 134l35 -50q-38 -12 -59 -32t-21 -52q0 -29 18 -49.5t51 -33t80.5 -18.5t106.5 -6q58 0 105.5 6t81 18.5t51.5 33t18 49.5q0 27 -18 47.5t-51.5 33.5t-81 19.5t-105.5 6.5q-70 0 -122 -9l-34 51q32 6 71 9.5t85 3.5z
" />
    <glyph glyph-name="cid1313" unicode="&#xaf42;" horiz-adv-x="908" 
d="M284 421q31 69 41.5 137.5t10.5 120.5h-220v57h285v-45q0 -29 -3 -64.5t-9 -73.5t-15.5 -76t-23.5 -72zM690 417q9 39 14.5 77.5t8 72.5t3.5 63t1 49h-271v57h337q0 -61 -4.5 -147t-24.5 -183zM869 306h-830v60h439v170h64v-170h327v-60zM494 145q-2 -43 -30.5 -82.5
t-75.5 -72.5t-110 -58.5t-135 -39.5l-31 52q77 15 135 38.5t97 51t59 56.5t23 55h-281v57h630v-57h-281zM535 69q35 -36 103 -66.5t168 -45.5l-30 -54q-44 7 -86 19t-79.5 28t-69.5 36.5t-54 46.5z" />
    <glyph glyph-name="cid1314" unicode="&#xaf43;" horiz-adv-x="908" 
d="M293 457q15 34 23.5 69t13 65.5t5.5 53.5t1 34h-220v57h285v-45q0 -14 -1.5 -41t-6 -61t-13 -71.5t-21.5 -71.5zM690 457q9 39 14.5 77t8 68.5t3.5 51t1 25.5h-271v57h337q0 -15 -0.5 -44.5t-3.5 -68t-9 -84t-16 -93.5zM869 332h-830v60h439v154h64v-154h327v-60z
M617 201h-316v59h316v-59zM490 83q3 -38 -24.5 -70.5t-75 -58t-110.5 -42t-131 -23.5l-32 55q84 9 142 26.5t94.5 38t53 40.5t17.5 34h-279v56h628v-56h-283zM539 24q16 -11 38.5 -22.5t54 -21t73 -17.5t96.5 -12l-31 -56q-100 9 -171 33.5t-109 59.5z" />
    <glyph glyph-name="cid1315" unicode="&#xaf48;" horiz-adv-x="937" 
d="M766 -72h-67v838h67v-838zM161 306q29 52 45.5 102.5t24.5 95.5t9.5 82t1.5 63h-155v58h222v-45q0 -30 -3 -73.5t-12 -94.5t-25.5 -106t-43.5 -108zM508 289q7 45 11.5 88t6.5 86t3 89t1 97h-181v58h245q2 -87 -2 -198t-20 -229zM937 371h-136v57h136v-57zM347 157v215
h66v-215h-66zM312 122q88 0 177 4t165 18v-58q-77 -12 -172.5 -17t-199.5 -5h-243v58h273z" />
    <glyph glyph-name="cid1316" unicode="&#xaf49;" horiz-adv-x="933" 
d="M694 766h67v-526h-67v526zM317 693q0 -60 -10 -139.5t-34 -157.5l-64 11q14 42 22.5 82t13 74.5t5.5 61.5t0 44h-167v58h234v-34zM610 727q2 -69 -3.5 -154.5t-25.5 -176.5l-64 11q21 84 25.5 154.5t2.5 107.5h-183v58h248zM428 504v-143h-65v143h65zM928 430h-132v57
h132v-57zM654 291q-71 -10 -148 -13.5t-168 -3.5h-299v57h299q87 0 164.5 3t151.5 14v-57zM164 130v57h607v-280h-67v223h-540z" />
    <glyph glyph-name="cid1317" unicode="&#xaf50;" horiz-adv-x="933" 
d="M928 449h-157v-171h-67v488h67v-259h157v-58zM209 417q14 41 22.5 81t13 74.5t5.5 62t0 44.5h-167v57h234v-33q0 -60 -10 -139.5t-34 -157.5zM517 417q10 41 16 80.5t9 73.5t3.5 62t-0.5 46h-193v57h258q2 -68 -3.5 -154t-25.5 -176zM363 525h65v-124h-65v124zM664 322
q-73 -11 -157.5 -14.5t-181.5 -3.5h-286v56h323l67 1q63 2 121 5.5t114 12.5v-57zM701 168h-532v58h602v-98h-70v40zM771 93v-57h-602v57h602zM801 -45v-58h-632v104h70v-46h562z" />
    <glyph glyph-name="cid1318" unicode="&#xaf5c;" horiz-adv-x="933" 
d="M771 487h157v-57h-157v-185h-67v521h67v-279zM317 693q0 -60 -10 -139.5t-34 -157.5l-64 11q14 42 22.5 82t13 74.5t5.5 61.5t0 44h-167v58h234v-34zM610 727q2 -69 -3.5 -154.5t-25.5 -176.5l-64 11q21 84 25.5 154.5t2.5 107.5h-194v58h259zM428 505v-136h-65v136h65z
M429 332q62 2 120 5.5t115 11.5v-57q-74 -11 -158 -14.5t-181 -3.5h-286v57h323zM463 -14q-10 -9 -22.5 -20t-26.5 -20q-30 23 -49.5 44t-35.5 45q-5 7 -10 18.5t-7 22.5h-12q-2 -11 -6.5 -24t-9.5 -21q-19 -35 -57 -72.5t-92 -72.5l-44 41q55 34 90.5 70t55.5 70t27.5 65
t7.5 55v17h66v-17q0 -23 6 -48.5t20.5 -51.5t38.5 -51.5t60 -49.5zM438 -70q49 32 82.5 65.5t54 66t29.5 63.5t9 58v21h66v-21q0 -77 -49 -154t-143 -143zM719 57q18 -26 48.5 -57.5t86.5 -62.5l-43 -46q-48 29 -82.5 61t-54.5 69z" />
    <glyph glyph-name="cid1319" unicode="&#xaf5d;" horiz-adv-x="933" 
d="M771 487h157v-57h-157v-209h-67v545h67v-279zM317 693q0 -60 -10 -139.5t-34 -157.5l-64 11q14 42 22.5 82t13 74.5t5.5 61.5t0 44h-167v58h234v-34zM610 727q2 -69 -3.5 -154.5t-25.5 -176.5l-64 11q21 84 25.5 154.5t2.5 107.5h-194v58h259zM428 505v-136h-65v136h65z
M664 293q-74 -11 -158 -15t-181 -4h-286v57h323l67 1q63 2 121 6t114 12v-57zM326 183q33 6 70.5 8t75.5 2q165 0 239.5 -38.5t74.5 -112.5q0 -75 -75.5 -112t-238.5 -37q-313 0 -313 149q0 44 26 75.5t85 50.5l34 -49q-40 -11 -58 -30.5t-18 -46.5q0 -26 17.5 -44t49 -29.5
t76.5 -16.5t101 -5q118 0 182 21.5t64 73.5q0 51 -62.5 74t-183.5 23q-27 0 -56.5 -1t-55.5 -6z" />
    <glyph glyph-name="cid1320" unicode="&#xaf64;" horiz-adv-x="928" 
d="M649 756v-327h104v337h67v-838h-67v443h-171v385h67zM276 643q0 -30 -3 -74t-12 -94.5t-25.5 -105.5t-43.5 -108l-63 25q29 52 45.5 103t24.5 96t9.5 82t1.5 63h-136v57h202v-44zM500 687q2 -87 -2 -197.5t-19 -228.5l-65 9q7 45 12 87.5t7 86t3 89t1 97.5h-126v57h189z
M356 362v-189l-63 -1v190h63zM649 -58h-67v389h67v-389zM547 92q-75 -11 -160 -14.5t-184 -3.5h-164v58h252l67 2q51 2 97 5.5t92 10.5v-58z" />
    <glyph glyph-name="cid1321" unicode="&#xaf65;" horiz-adv-x="918" 
d="M639 756v-239h107v249h65l1 -561h-65l-1 254h-172l-1 297h66zM260 685v-22.5t-1 -24.5q-2 -21 -4.5 -40.5t-5.5 -41.5q-6 -45 -17 -86.5t-27 -76.5l-62 16q15 32 26.5 68.5t17.5 72.5t8 64t1 45h-128v58h192v-32zM500 717q1 -32 0 -73t-4 -81q-6 -91 -17 -170l-65 9
q15 76 19 140t4 117h-142v58h205zM350 504v-157h-62v157h62zM574 205v219h65l1 -219h-66zM282 311q25 0 60 1.5t71 4t69.5 6t56.5 6.5v-55q-72 -11 -155 -14t-176 -3h-169v54h243zM193 101v57h615v-251h-68v194h-547z" />
    <glyph glyph-name="cid1322" unicode="&#xaf79;" horiz-adv-x="918" 
d="M639 516h107v250h65v-566h-65v258h-107v-232h-65v530h65v-240zM260 685v-22.5t-1 -24.5q-2 -21 -4.5 -43t-5.5 -44q-6 -45 -17 -86.5t-27 -76.5l-62 16q15 32 26.5 68.5t17.5 72.5t8 66.5t1 47.5h-128v58h192v-32zM500 717q1 -32 0 -73.5t-4 -85.5q-6 -91 -17 -170l-65 9
q15 76 19 142.5t4 119.5h-142v58h205zM350 504v-157h-62v157h62zM282 311q25 0 60 1.5t71 4t69.5 6t56.5 6.5v-56q-72 -11 -155 -14t-176 -3h-169v55h243zM351 168q33 5 70.5 7.5t75.5 2.5q86 0 146.5 -9.5t98.5 -27.5t55.5 -44.5t17.5 -59.5q0 -75 -77.5 -109.5
t-240.5 -34.5q-157 0 -233.5 34.5t-76.5 109.5q0 37 25 69t83 49l34 -49q-39 -10 -56 -29.5t-17 -39.5q0 -51 65 -70.5t176 -19.5q58 0 104.5 4.5t79 15t49.5 27.5t17 43q0 44 -60.5 65.5t-189.5 20.5q-27 0 -56.5 -1t-55.5 -5z" />
    <glyph glyph-name="cid1323" unicode="&#xaf80;" horiz-adv-x="879" 
d="M771 -72h-67v838h67v-838zM299 662q0 -30 -3 -73.5t-12 -94.5t-25.5 -106t-43.5 -108l-64 26q29 52 45.5 102.5t24.5 95.5t9.5 82t1.5 63h-155v58h222v-45zM589 707q2 -87 -2 -198t-20 -229l-64 9q7 45 11.5 88t6.5 86t3 89t1 97h-186v58h250zM407 372v-210h-66v210h66z
M307 122q43 0 92 1t96.5 4t90 8t73.5 12v-58q-81 -14 -175.5 -19.5t-204.5 -5.5h-240v58h268z" />
    <glyph glyph-name="cid1324" unicode="&#xaf84;" horiz-adv-x="884" 
d="M776 84h-67v682h67v-682zM317 683q0 -75 -10 -157t-34 -160l-64 11q14 41 22.5 81.5t13 77t5.5 68t0 55.5h-167v57h234v-33zM610 716q2 -83 -3.5 -171.5t-25.5 -178.5l-64 11q21 83 25.5 156.5t2.5 125.5h-193v57h258zM428 485v-167h-65v167h65zM429 283q63 2 122.5 6.5
t117.5 12.5v-57q-76 -11 -161.5 -15t-182.5 -4h-286v56h323zM796 -30v-58h-627v231h67v-173h560z" />
    <glyph glyph-name="cid1325" unicode="&#xaf88;" horiz-adv-x="884" 
d="M709 278v488h67v-488h-67zM209 417q14 41 22.5 81t13 74.5t5.5 62t0 44.5h-167v57h234v-33q0 -60 -10 -139.5t-34 -157.5zM517 417q10 41 16 80.5t9 73.5t3.5 62t-0.5 46h-193v57h258q2 -68 -3.5 -154t-25.5 -176zM363 515h65v-116h-65v116zM669 322
q-76 -11 -161.5 -14.5t-182.5 -3.5h-286v56h323l67 1q63 2 122.5 6t117.5 12v-57zM705 168h-537v58h607v-99h-70v41zM775 92v-57h-607v57h607zM805 -103h-637v103h70v-45h567v-58z" />
    <glyph glyph-name="cid1326" unicode="&#xaf90;" horiz-adv-x="884" 
d="M776 238h-67v528h67v-528zM317 693q0 -60 -10 -139.5t-34 -157.5l-64 11q14 41 22.5 81t13 74.5t5.5 62t0 44.5h-167v57h234v-33zM610 726q2 -68 -3.5 -154t-25.5 -176l-64 11q10 41 16 80.5t9 73.5t3.5 62t-0.5 46h-193v57h258zM428 505v-126h-65v126h65zM669 292
q-76 -11 -161.5 -14.5t-182.5 -3.5h-286v56h323l67 1q63 2 122.5 6t117.5 12v-57zM169 187h63v-280h-63v280zM271 130v57h505v-187h-68v130h-437zM777 -35v-58h-506v58h506z" />
    <glyph glyph-name="cid1327" unicode="&#xaf91;" horiz-adv-x="884" 
d="M776 259h-67v507h67v-507zM209 407q14 41 22.5 81t13 74.5t5.5 62t0 44.5h-167v57h234v-33q0 -60 -10 -139.5t-34 -157.5zM517 407q10 41 16 80.5t9 73.5t3.5 62t-0.5 46h-193v57h258q2 -68 -3.5 -154t-25.5 -176zM363 515h65v-141h-65v141zM669 292
q-76 -11 -161.5 -14.5t-182.5 -3.5h-286v56h323l67 1q63 2 122.5 6t117.5 12v-57zM236 -93h-67v315h67v-101h433v-58h-433v-156zM776 222v-222h-67v222h67zM776 -35v-58h-500v58h500z" />
    <glyph glyph-name="cid1328" unicode="&#xaf95;" horiz-adv-x="884" 
d="M776 219h-67v547h67v-547zM317 693q0 -60 -10 -139.5t-34 -157.5l-64 11q14 41 22.5 81t13 74.5t5.5 62t0 44.5h-167v57h234v-33zM610 726q2 -68 -3.5 -154t-25.5 -176l-64 11q10 41 16 80.5t9 73.5t3.5 62t-0.5 46h-193v57h258zM428 505v-136h-65v136h65zM669 292
q-76 -11 -161.5 -14.5t-182.5 -3.5h-286v56h323l67 1q63 2 122.5 6t117.5 12v-57zM327 183q33 6 70.5 8t75.5 2q165 0 241.5 -38.5t76.5 -112.5q0 -75 -77.5 -112t-240.5 -37q-313 0 -313 149q0 44 26 75.5t85 50.5l34 -49q-40 -11 -58 -30.5t-18 -46.5q0 -26 17.5 -44
t49 -29.5t76.5 -16.5t101 -5q117 0 183.5 21.5t66.5 73.5q0 51 -64.5 74t-185.5 23q-27 0 -56.5 -1t-55.5 -6z" />
    <glyph glyph-name="cid1329" unicode="&#xaf9c;" horiz-adv-x="898" 
d="M402 674q1 -44 -2.5 -94.5t-12 -105.5t-21.5 -112.5t-30 -113.5l-65 16q19 56 32 112.5t21 107.5t11 93t2 71h-238v59h303v-33zM783 667q0 -19 -1 -62.5t-4 -100.5t-9 -123.5t-16 -130.5l-66 7q17 109 24.5 206t5.5 185h-269v59h335v-40zM359 76v249h67v-249h158v249h66
v-249h209v-58h-820v58h320z" />
    <glyph glyph-name="cid1330" unicode="&#xafb8;" horiz-adv-x="889" 
d="M297 371q23 84 31.5 158t8.5 140h-229v58h294v-46q0 -50 -7 -130t-31 -180h-67zM691 371q4 38 7.5 71.5t5.5 68.5t3 73t1 85h-256v58h321v-41q0 -55 -3.5 -137t-14.5 -178h-64zM850 336v-59h-811v59h811zM411 -82v319h68v-319h-68z" />
    <glyph glyph-name="cid1331" unicode="&#xafb9;" horiz-adv-x="908" 
d="M323 440q8 25 14 56t9.5 63t5.5 63t2 57h-238v57h305v-45q0 -63 -8.5 -126.5t-22.5 -125.5zM696 440q11 62 16 123.5t5 115.5h-248v57h314q1 -32 -0.5 -76.5t-5.5 -94.5q-2 -27 -5.5 -63t-7.5 -62h-68zM39 341v59h830v-59h-382v-109h-67v109h-381zM694 -103v243h-557v57
h625v-300h-68z" />
    <glyph glyph-name="cid1332" unicode="&#xafbc;" horiz-adv-x="908" 
d="M315 406q12 37 20 74t12 71.5t5.5 64.5t1.5 53h-238v58h305v-45q0 -56 -8.5 -127.5t-29.5 -148.5h-68zM691 406q14 70 20 134.5t6 128.5h-248v58h314q2 -79 -4.5 -162.5t-19.5 -158.5h-68zM869 371v-59h-830v59h830zM426 99v178h65v-178h-65zM794 -35v-58h-649v250h67
v-192h582z" />
    <glyph glyph-name="cid1333" unicode="&#xafc0;" horiz-adv-x="908" 
d="M346 560q6 38 7 69t1 50h-238v57h305v-45q0 -26 -2 -60t-8 -75q-4 -23 -9 -49.5t-10 -52.5l-68 1q8 26 13.5 53t8.5 52zM698 455q11 62 15 116t4 108h-248v57h314q1 -32 -0.5 -76.5t-5.5 -94.5q-2 -27 -5.5 -55.5t-7.5 -54.5h-66zM869 361h-382v-106h278v-114h-75l1 56
h-546v58h275v106h-381v60h830v-60zM145 49v57h620v-57h-620zM784 -45v-58h-639v117h73l-1 -59h567z" />
    <glyph glyph-name="cid1334" unicode="&#xafc7;" horiz-adv-x="908" 
d="M329 472q17 64 21 121t4 86h-238v57h305v-45q0 -38 -5.5 -95.5t-20.5 -123.5h-66zM700 472q10 57 13.5 107t3.5 100h-248v57h314q1 -24 0.5 -55t-2.5 -65.5t-5.5 -71.5t-8.5 -72h-67zM487 370v-100h-67v100h-381v60h830v-60h-382zM739 269v-53h-229v53h229zM130 200v54
h265v-116h-65v62h-200zM808 161v-54h-367v54h367zM395 103v-54h-265v54h265zM551 64q33 6 77 6q87 0 129 -24t42 -65q0 -44 -43 -67t-128 -23q-31 0 -61.5 3.5t-55 13t-39.5 27t-15 46.5q0 49 53 72l26 -42q-21 -11 -21 -30q0 -25 31 -33t82 -8t81.5 8t30.5 33t-30.5 33.5
t-81.5 8.5q-14 0 -26.5 -0.5t-23.5 -1.5zM260 -48q14 0 34 1t42 4t43 7.5t38 10.5l15 -53q-19 -8 -42.5 -13t-47.5 -7.5t-45.5 -3.5t-36.5 -1h-129v118h63v-63h66z" />
    <glyph glyph-name="cid1335" unicode="&#xafc8;" horiz-adv-x="908" 
d="M323 440q8 25 14 56t9.5 63t5.5 63t2 57h-238v57h305v-45q0 -63 -8.5 -126.5t-22.5 -125.5zM696 440q11 62 16 123.5t5 115.5h-248v57h314q1 -32 -0.5 -76.5t-5.5 -94.5q-2 -27 -5.5 -63t-7.5 -62h-68zM487 197h278v-207h-68v150h-446v57h169v144h-381v59h830v-59h-382
v-144zM211 197v-300h-66v300h66zM765 -45v-58h-514v58h514z" />
    <glyph glyph-name="cid1336" unicode="&#xafc9;" horiz-adv-x="908" 
d="M323 440q8 25 14 56t9.5 63t5.5 63t2 57h-238v57h305v-45q0 -63 -8.5 -126.5t-22.5 -125.5zM696 440q11 62 16 123.5t5 115.5h-248v57h314q1 -32 -0.5 -76.5t-5.5 -94.5q-2 -27 -5.5 -63t-7.5 -62h-68zM39 350v60h830v-60h-382v-148h-67v148h-381zM145 234h66v-115h447
v-57h-447v-165h-66v337zM765 234v-244h-67v244h67zM251 -103v58h515v-58h-515z" />
    <glyph glyph-name="cid1337" unicode="&#xafcb;" horiz-adv-x="908" 
d="M321 440q8 25 14 56t10.5 63t6.5 63t2 57h-238v57h305v-45q0 -63 -9.5 -126.5t-23.5 -125.5zM696 440q11 62 16 123.5t5 115.5h-248v57h314q1 -32 -0.5 -76.5t-5.5 -94.5q-2 -27 -5.5 -63t-7.5 -62h-68zM39 350v60h830v-60h-382v-109h-67v109h-381zM106 -55q86 18 146 49
t97.5 65t54 67t16.5 56v11h67v-14q0 -42 -25.5 -85.5t-71.5 -82.5t-110.5 -70t-142.5 -48zM530 87q29 -35 96 -71.5t175 -58.5l-30 -55q-44 10 -87 24t-80.5 32t-69 41t-52.5 51z" />
    <glyph glyph-name="cid1338" unicode="&#xafcd;" horiz-adv-x="908" 
d="M321 433q8 25 14 56t10.5 63.5t6.5 65t2 61.5h-238v57h305v-45q0 -68 -9.5 -132.5t-23.5 -126.5zM696 433q11 62 16 124t5 122h-248v57h314q1 -32 -0.5 -80t-5.5 -98q-2 -27 -5.5 -63t-7.5 -62h-68zM487 205q291 -9 291 -161q0 -161 -324 -161q-165 0 -244.5 40
t-79.5 121q0 95 113 135l35 -49q-38 -13 -59 -34t-21 -52q0 -29 18 -49.5t51 -33t80.5 -18.5t106.5 -6q58 0 105.5 6t81 18.5t51.5 33t18 49.5q0 28 -18 48.5t-51.5 33t-81 18.5t-105.5 6q-35 0 -65.5 -1.5t-56.5 -6.5l-34 50q26 5 56.5 8t65.5 4v139h-381v60h830v-60h-382
v-138z" />
    <glyph glyph-name="cid1339" unicode="&#xafce;" horiz-adv-x="908" 
d="M321 440q16 51 24.5 116t8.5 123h-238v57h305v-45q0 -68 -9.5 -129t-23.5 -123zM696 440q11 62 16 120.5t5 118.5h-248v57h314q1 -32 -0.5 -80t-5.5 -98q-2 -27 -5.5 -59.5t-7.5 -58.5h-68zM869 351h-382v-111h-67v111h-381v59h830v-59zM489 141q-1 -44 -29 -83t-75 -71
t-110.5 -56t-136.5 -39l-31 52q79 15 137.5 38t97.5 49.5t58.5 55t20.5 54.5h-281v57h630v-57h-281zM527 65q35 -36 104.5 -64.5t169.5 -43.5l-30 -54q-44 7 -86 18.5t-80.5 27t-70.5 35.5t-54 46z" />
    <glyph glyph-name="cid1340" unicode="&#xafd4;" horiz-adv-x="879" 
d="M771 -72h-67v838h67v-838zM215 386q8 36 13.5 73.5t9.5 73t5.5 67.5t1.5 58h-158v59h225q1 -88 -6.5 -171.5t-24.5 -160.5zM487 389q11 64 17 135t4 134h-157v59h224q1 -91 -4 -172t-16 -151zM351 345q29 0 74 1t93 5q32 3 62.5 7.5t56.5 11.5l9 -56q-60 -14 -132 -19.5
t-169 -5.5h-306v56h312zM335 221q0 -84 -7 -153.5t-29 -127.5l-66 17q23 57 29 125.5t6 138.5v33h67v-33zM448 183h221v-58h-221v58z" />
    <glyph glyph-name="cid1341" unicode="&#xafdc;" horiz-adv-x="884" 
d="M709 766h67v-496h-67v30h-246v57h246v409zM231 498q6 28 10.5 56t7 52.5t4 43.5t1.5 29h-157v57h225q0 -47 -6 -110t-19 -128h-66zM503 506q8 52 11.5 94.5t3.5 78.5h-158v57h226q0 -52 -4 -107.5t-14 -117.5zM39 463h250q52 0 104 1.5t103 5.5q34 3 57 5.5t39 4.5
t26 3.5t19 3.5l9 -55q-63 -12 -140 -17.5t-162 -7.5v-43q0 -23 -1 -44t-4 -44l-68 4q2 21 3.5 41t1.5 43v42h-237v57zM706 168h-532v58h602v-99h-70v41zM776 92v-57h-602v57h602zM806 -103h-632v103h70v-45h562v-58z" />
    <glyph glyph-name="cid1342" unicode="&#xafe8;" horiz-adv-x="884" 
d="M709 766h67v-540h-67v48h-246v57h246v435zM229 478q6 28 10.5 57.5t8 55.5t5 47t1.5 31h-157v57h225q0 -47 -7 -115t-20 -133h-66zM501 486q8 52 12.5 99.5t4.5 83.5h-158v57h226q0 -52 -5 -112.5t-15 -122.5zM39 443h250q52 0 104 1.5t103 5.5q34 3 57 5.5t39 4.5
t26 3.5t19 3.5l9 -55q-63 -12 -140 -17.5t-162 -7.5v-43q0 -23 -1 -44t-4 -44l-68 4q2 21 3.5 41t1.5 43v42h-237v57zM338 187q0 -23 6 -48.5t20.5 -51.5t38.5 -51.5t60 -49.5q-10 -9 -22.5 -20t-26.5 -20q-29 23 -49 44.5t-36 44.5q-5 7 -10 18.5t-7 22.5h-12
q-2 -11 -6.5 -24t-9.5 -21q-19 -35 -57 -72.5t-92 -72.5l-44 41q55 34 90.5 70t55.5 70t27.5 65t7.5 55v17h66v-17zM679 183q0 -77 -49 -154t-143 -143l-49 44q49 32 82.5 65.5t54 66t29.5 63.5t9 58v21h66v-21zM714 67q20 -32 53 -66t88 -64l-44 -46q-53 34 -87 65.5
t-57 73.5z" />
    <glyph glyph-name="cid1343" unicode="&#xafe9;" horiz-adv-x="884" 
d="M709 766h67v-556h-67v54h-246v57h246v445zM229 468q6 28 10.5 59t8 59t5 50.5t1.5 32.5h-157v57h225q0 -23 -2 -54.5t-5.5 -66t-8.5 -70t-11 -67.5h-66zM501 476q8 52 12.5 104.5t4.5 88.5h-158v57h226q0 -52 -5 -117.5t-15 -127.5zM39 433h250q52 0 104 1.5t103 5.5
q34 3 57 5.5t39 4.5t26 3.5t19 3.5l9 -55q-63 -12 -140 -17.5t-162 -7.5v-57q0 -23 -1 -44t-4 -44l-68 4q2 21 3.5 41t1.5 43v56h-237v57zM473 193q165 0 241.5 -38.5t76.5 -112.5q0 -75 -77.5 -112t-240.5 -37q-313 0 -313 149q0 44 26 75.5t85 50.5l34 -49
q-40 -11 -58 -30.5t-18 -46.5q0 -26 17.5 -44t49 -29.5t76.5 -16.5t101 -5q117 0 183.5 21.5t66.5 73.5q0 51 -64.5 74t-185.5 23q-27 0 -56.5 -1t-55.5 -6l-34 51q33 6 70.5 8t75.5 2z" />
    <glyph glyph-name="cid1344" unicode="&#xaff0;" horiz-adv-x="928" 
d="M820 -72h-67v838h67v-838zM664 756v-588h-250v58h183v530h67zM193 397q8 35 14 72.5t10 72t6 62.5t2 45h-128v58h193q0 -23 -2 -59t-6 -78t-10.5 -87t-15.5 -86h-63zM413 400q11 66 16 132t5 117h-110v58h174q0 -23 -1 -57.5t-3.5 -75.5t-6.5 -84.5t-10 -83.5zM542 328
q-44 -9 -98 -13t-124 -6v-79q0 -83 -7 -148t-29 -122l-65 17q23 57 28.5 120t5.5 133v79h-214v57h199h75t71 2q7 0 16.5 0.5t19.5 1.5t18 1.5t12 0.5q23 2 43.5 5t40.5 7zM664 133v-191h-67v191h67z" />
    <glyph glyph-name="cid1345" unicode="&#xaff1;" horiz-adv-x="918" 
d="M811 766v-555h-65v555h65zM653 756v-392h-64v392h64zM191 459q14 60 18.5 111t3.5 89h-133v58h196q2 -54 -3 -121.5t-17 -134.5zM411 468q9 57 11.5 102t2.5 89h-111v58h174q2 -52 -0.5 -116t-10.5 -128zM548 397q-50 -9 -112 -15t-122 -8v-68q0 -24 -1 -45t-3 -43l-69 4
q6 40 6 84v67q-22 -1 -44 -1h-44h-120v57h211q40 1 79 2.5t77 4.5q13 1 32.5 3t38.5 4.5t36 5t26 4.5zM589 211v64h-159v54h223v-118h-64zM193 110v58h615v-261h-68v203h-547z" />
    <glyph glyph-name="cid1346" unicode="&#xaff4;" horiz-adv-x="918" 
d="M811 766v-711h-65v711h65zM589 271v485h64v-539h-224v54h160zM187 411q8 33 13 67t8 65.5t4 58.5t1 47h-133v58h196q1 -28 0.5 -64t-3.5 -75t-8 -79t-12 -76zM408 421q12 65 14.5 124t2.5 104h-111v58h174q1 -27 1 -61t-1.5 -71t-4.5 -75.5t-8 -73.5zM548 349
q-52 -10 -110.5 -15.5t-123.5 -7.5v-59q0 -24 -1 -45t-3 -43l-69 4q6 40 6 84v57q-22 -1 -44 -1h-44h-120v57h206q40 1 79 2.5t77 4.5q16 1 35 3t38 4.5t36 4.5t29 5zM589 64v118h64v-118h-64zM830 -30v-58h-632v216h68v-158h564z" />
    <glyph glyph-name="cid1347" unicode="&#xaff8;" horiz-adv-x="918" 
d="M746 260v506h65v-506h-65zM589 354v402h64v-496h-64v39h-159v55h159zM195 481q11 55 15 104t3 84h-133v58h196q2 -51 -2.5 -116t-15.5 -128zM412 490q8 51 10.5 94.5t2.5 84.5h-111v58h174q2 -50 0 -109.5t-9 -121.5zM247 393q-22 -1 -44 -1h-44h-120v56h213
q76 1 151.5 7.5t135.5 17.5l9 -56q-52 -10 -110.5 -15t-123.5 -7v-41q0 -23 -1 -44t-3 -43l-69 4q6 40 6 83v39zM739 158h-541v58h611v-93h-70v35zM809 88v-57h-611v57h611zM839 -103h-641v99h70v-41h571v-58z" />
    <glyph glyph-name="cid1348" unicode="&#xb000;" horiz-adv-x="918" 
d="M811 766v-555h-65v555h65zM430 275v54h159v427h64v-545h-64v64h-159zM191 459q14 60 18.5 111t3.5 89h-133v58h196q2 -54 -3 -121.5t-17 -134.5zM411 468q9 57 11.5 102t2.5 89h-111v58h174q2 -52 -0.5 -116t-10.5 -128zM548 397q-50 -9 -112 -15t-122 -8v-68
q0 -24 -1 -45t-3 -43l-69 4q6 40 6 84v67q-22 -1 -44 -1h-44h-120v57h211q40 1 79 2.5t77 4.5q13 1 32.5 3t38.5 4.5t36 5t26 4.5zM199 167h63v-260h-63v260zM301 110v57h507v-167h-68v110h-439zM809 -35v-58h-508v58h508z" />
    <glyph glyph-name="cid1349" unicode="&#xb001;" horiz-adv-x="918" 
d="M811 230h-65v536h65v-536zM589 339v417h64v-522h-64v51h-159v54h159zM191 459q14 60 18.5 111t3.5 89h-133v58h196q2 -54 -3 -121.5t-17 -134.5zM411 468q9 57 11.5 102t2.5 89h-111v58h174q2 -52 -0.5 -116t-10.5 -128zM247 373q-22 -1 -44 -1h-44h-120v57h211
q40 1 79 2.5t77 4.5q13 1 32.5 3t38.5 4.5t36 5t26 4.5l9 -56q-50 -9 -112 -15t-122 -8v-48q0 -24 -1 -45t-3 -43l-69 4q6 40 6 84v47zM266 -93h-67v287h67v-94h435v-57h-435v-136zM808 194v-194h-67v194h67zM808 -35v-58h-502v58h502z" />
    <glyph glyph-name="cid1350" unicode="&#xb004;" horiz-adv-x="918" 
d="M811 766v-575h-65v575h65zM430 275v54h159v427h64v-535h-64v54h-159zM191 459q14 60 18.5 111t3.5 89h-133v58h196q2 -54 -3 -121.5t-17 -134.5zM411 468q9 57 11.5 102t2.5 89h-111v58h174q2 -52 -0.5 -116t-10.5 -128zM548 397q-50 -9 -112 -15t-122 -8v-48
q0 -24 -1 -45t-3 -43l-69 4q6 40 6 84v47q-22 -1 -44 -1h-44h-120v57h211q40 1 79 2.5t77 4.5q13 1 32.5 3t38.5 4.5t36 5t26 4.5zM475 -14q-10 -9 -23 -20t-26 -20q-29 23 -49 40.5t-35 40.5q-5 7 -10 19t-7 22h-13q-1 -10 -5.5 -23.5t-9.5 -21.5q-20 -35 -56 -69.5
t-95 -67.5l-43 41q53 28 88 60t55.5 64t29 62.5t8.5 54.5v17h66v-17q0 -23 6.5 -46.5t21 -46.5t38.5 -45.5t59 -43.5zM451 -71q48 29 81 60t54 61.5t30 60t9 56.5v18h64v-18q0 -38 -9.5 -73.5t-32 -70t-59 -68.5t-90.5 -69zM725 54q19 -29 51 -58.5t90 -58.5l-44 -46
q-50 32 -86 59.5t-56 68.5z" />
    <glyph glyph-name="cid1351" unicode="&#xb00c;" horiz-adv-x="879" 
d="M771 -72h-67v838h67v-838zM210 367q9 38 16 78t11.5 78.5t6 73t1.5 61.5h-158v59h225q1 -92 -7 -180.5t-27 -169.5h-68zM486 371q11 67 17.5 144t4.5 143h-157v59h224q1 -98 -4.5 -184.5t-18.5 -159.5zM331 332q98 0 186.5 3.5t151.5 14.5v-57q-69 -10 -147.5 -13.5
t-167.5 -4.5h-315v57h292zM354 201q0 -42 -1.5 -77t-5.5 -66.5t-11 -60t-18 -57.5l-65 17q22 56 28 115t6 129v38h67v-38z" />
    <glyph glyph-name="cid1352" unicode="&#xb010;" horiz-adv-x="884" 
d="M776 64h-67v702h67v-702zM221 416q8 31 15 67.5t12 71t8 62.5t3 42h-157v58h225q0 -28 -3 -65.5t-8.5 -78t-12.5 -81.5t-15 -76h-67zM500 416q6 29 10 62t6.5 65.5t4 62.5t1.5 53h-157v58h226q0 -32 -1.5 -69.5t-4.5 -77t-8 -79t-11 -75.5h-66zM674 336
q-71 -9 -146.5 -13.5t-164.5 -4.5v-67q0 -23 -1 -43.5t-4 -43.5l-68 4q3 21 4.5 40.5t1.5 42.5v67h-257v57h302q43 0 89.5 1t90.5 3t83.5 5.5t69.5 8.5v-57zM796 -30v-58h-622v216h67v-158h555z" />
    <glyph glyph-name="cid1353" unicode="&#xb014;" horiz-adv-x="884" 
d="M709 279v487h67v-487h-67zM233 484q7 30 12 60.5t8 57t4.5 46.5t1.5 31h-157v57h225q0 -51 -7.5 -116.5t-21.5 -135.5h-65zM504 484q11 59 14.5 107t3.5 88h-157v57h226q0 -57 -4.5 -118.5t-16.5 -133.5h-66zM39 387v56h302q42 0 88 1t90.5 3.5t84.5 5.5t70 8v-57
q-71 -9 -151 -13t-169 -4v-23q0 -23 -1 -44t-4 -44l-69 4q3 21 4.5 41t1.5 43v23h-247zM706 177h-532v58h602v-102h-70v44zM776 98v-57h-602v57h602zM806 -103h-632v109h70v-51h562v-58z" />
    <glyph glyph-name="cid1354" unicode="&#xb01c;" horiz-adv-x="884" 
d="M776 230h-67v536h67v-536zM231 464q7 30 12 62t8.5 60.5t5.5 50t2 32.5h-157v58h225q0 -25 -2 -56t-6 -65.5t-10 -70.5t-13 -71h-65zM502 464q11 59 15.5 112t4.5 93h-157v58h226q0 -57 -5 -124t-18 -139h-66zM674 384q-71 -9 -151 -13t-169 -4v-48q0 -23 -1 -43.5
t-4 -43.5l-69 4q3 21 4.5 40.5t1.5 42.5v48h-247v56h302q42 0 88 1t90.5 3.5t84.5 5.5t70 8v-57zM169 187h63v-280h-63v280zM271 130v57h505v-187h-68v130h-437zM777 -35v-58h-506v58h506z" />
    <glyph glyph-name="cid1355" unicode="&#xb01d;" horiz-adv-x="884" 
d="M776 260h-67v506h67v-506zM231 464q7 30 12 62t8.5 60.5t5.5 50t2 32.5h-157v58h225q0 -25 -2 -56t-6 -65.5t-10 -70.5t-13 -71h-65zM502 464q11 59 15.5 112t4.5 93h-157v58h226q0 -57 -5 -124t-18 -139h-66zM39 367v56h302q42 0 88 1t90.5 3.5t84.5 5.5t70 8v-57
q-71 -9 -146 -13t-164 -4v-48q0 -23 -1 -43.5t-4 -43.5l-69 4q3 21 4.5 40.5t1.5 42.5v48h-257zM241 -93h-67v315h67v-101h428v-58h-428v-156zM776 222v-222h-67v222h67zM776 -35v-58h-495v58h495z" />
    <glyph glyph-name="cid1356" unicode="&#xb028;" horiz-adv-x="889" 
d="M298 376q22 81 30.5 155.5t8.5 137.5h-229v58h294v-46q0 -48 -7 -128.5t-30 -177.5zM691 376q4 35 7 68.5t5.5 69t3.5 73.5t1 82h-256v58h321v-41q0 -26 -0.5 -61t-2 -75.5t-4.5 -84.5t-8 -89h-67zM327 277q0 -52 -2 -97t-8 -88t-16 -85.5t-27 -88.5l-66 19
q17 43 27 82.5t15.5 79t7.5 83t3 95.5h-222v59h811v-59h-523zM588 -87l-9 314h66l9 -314h-66z" />
    <glyph glyph-name="cid1357" unicode="&#xb044;" horiz-adv-x="898" 
d="M266 111q12 60 21.5 127.5t16 136.5t9.5 135.5t3 123.5h-217v58h284v-86q0 -46 -3.5 -106.5t-10.5 -127t-16 -134t-21 -127.5h-66zM659 111q8 54 15 118t12 132t8 137.5t3 135.5h-257v58h324v-86q0 -49 -2.5 -110t-7.5 -127t-12 -132t-16 -126h-67zM39 18v58h820v-58
h-820z" />
    <glyph glyph-name="cid1358" unicode="&#xb045;" horiz-adv-x="908" 
d="M318 421q20 69 28.5 131.5t7.5 126.5h-238v57h305v-72q0 -49 -9.5 -114t-26.5 -130zM692 421q16 78 20.5 142t4.5 116h-248v57h314q2 -75 -3.5 -152t-19.5 -163h-68zM869 386v-60h-830v60h830zM137 207h625v-310h-68v252h-557v58z" />
    <glyph glyph-name="cid1359" unicode="&#xb048;" horiz-adv-x="908" 
d="M324 392q20 69 26 141t4 136h-238v58h305v-84q0 -52 -7.5 -117.5t-24.5 -135.5zM688 392q16 78 22 151.5t6 125.5h-247v58h315q2 -75 -6.5 -163t-23.5 -174zM39 282v60h830v-60h-830zM794 -35v-58h-649v260h67v-202h582z" />
    <glyph glyph-name="cid1360" unicode="&#xb04a;" horiz-adv-x="908" 
d="M319 440q12 36 19 72t10.5 67.5t4.5 57.5t1 42h-238v57h305v-45q0 -43 -7 -109.5t-26 -141.5h-69zM694 440q14 66 18.5 124t4.5 115h-248v57h314q1 -27 0 -62t-3.5 -74.5t-6.5 -80.5t-10 -79h-69zM39 346v59h830v-59h-830zM734 266v-54h-229v54h229zM433 -65
q-20 -7 -47 -12t-56.5 -8.5t-59.5 -5.5t-55 -2h-69v325h63v-271h26q21 0 45.5 2t48.5 5t47 8t41 11zM812 162v-54h-385v54h385zM546 64q33 6 77 6q92 0 132.5 -24t40.5 -66t-41.5 -65.5t-131.5 -23.5q-33 0 -64.5 4t-56 13.5t-39 27t-14.5 44.5q0 50 57 73l27 -44
q-23 -11 -23 -29q0 -40 113 -40q53 0 82 10t29 30q0 43 -111 43q-29 0 -50 -3z" />
    <glyph glyph-name="cid1361" unicode="&#xb04c;" horiz-adv-x="908" 
d="M325 455q9 32 14.5 65.5t9 64t4.5 55t1 39.5h-238v57h305v-45q0 -19 -1.5 -46t-5.5 -58.5t-9.5 -65.5t-12.5 -67zM697 455q11 57 15.5 115t4.5 109h-248v57h314q1 -24 0 -57.5t-3.5 -71.5t-6.5 -77.5t-9 -75.5zM869 415v-60h-830v60h830zM145 197v58h620v-114h-75l1 56
h-546zM765 106v-57h-620v57h620zM784 -45v-58h-639v117h73l-1 -59h567z" />
    <glyph glyph-name="cid1362" unicode="&#xb04e;" horiz-adv-x="908" 
d="M328 470q9 32 14 63.5t7.5 59t3.5 49.5t1 37h-238v57h305v-45q0 -38 -6 -97t-20 -125zM700 470q10 57 13.5 107.5t3.5 101.5h-248v57h314q1 -24 0.5 -55.5t-3 -66.5t-6 -72t-7.5 -73zM869 425v-60h-830v60h830zM131 210v55h286v-121h-65v66h-221zM496 265h64v-368h-64
v368zM594 210v55h184v-282h-64v227h-120zM417 109v-54h-286v54h286zM282 -48q18 0 40 1t44.5 4t44 7.5t38.5 10.5l15 -53q-19 -8 -43 -13t-48.5 -7.5t-48.5 -3.5t-42 -1h-150v123h65v-68h85zM594 -103v55h184v-55h-184z" />
    <glyph glyph-name="cid1363" unicode="&#xb053;" horiz-adv-x="908" 
d="M328 470q9 32 14 63.5t7.5 59t3.5 49.5t1 37h-238v57h305v-45q0 -38 -6 -97t-20 -125zM700 470q10 57 13.5 107.5t3.5 101.5h-248v57h314q1 -24 0.5 -55.5t-3 -66.5t-6 -72t-7.5 -73zM869 425v-60h-830v60h830zM739 279v-53h-229v53h229zM130 211v54h265v-121h-65v67
h-200zM808 166v-54h-367v54h367zM396 109v-54h-266v54h266zM551 64q33 6 77 6q87 0 129 -24t42 -65q0 -44 -43 -67t-128 -23q-31 0 -61.5 3.5t-55 13t-39.5 27t-15 46.5q0 49 53 72l26 -42q-21 -11 -21 -30q0 -25 31 -33t82 -8t81.5 8t30.5 33t-30.5 33.5t-81.5 8.5
q-14 0 -26.5 -0.5t-23.5 -1.5zM260 -48q14 0 34 1t42 4t43 7.5t38 10.5l15 -53q-19 -8 -42.5 -13t-47.5 -7.5t-45.5 -3.5t-36.5 -1h-129v123h63v-68h66z" />
    <glyph glyph-name="cid1364" unicode="&#xb054;" horiz-adv-x="908" 
d="M318 421q20 69 28.5 131.5t7.5 126.5h-238v57h305v-72q0 -49 -9.5 -114t-26.5 -130zM692 421q16 78 20.5 142t4.5 116h-248v57h314q2 -75 -3.5 -152t-19.5 -163h-68zM869 391v-60h-830v60h830zM145 207h66v-310h-66v310zM251 149v58h514v-217h-68v159h-446zM251 -103v58
h514v-58h-514z" />
    <glyph glyph-name="cid1365" unicode="&#xb055;" horiz-adv-x="908" 
d="M318 421q20 69 28.5 131.5t7.5 126.5h-238v57h305v-72q0 -49 -9.5 -114t-26.5 -130zM692 421q16 78 20.5 142t4.5 116h-248v57h314q2 -75 -3.5 -152t-19.5 -163h-68zM869 391v-60h-830v60h830zM145 254h66v-124h447v-58h-447v-175h-66v357zM765 254v-264h-67v264h67z
M251 -103v58h515v-58h-515z" />
    <glyph glyph-name="cid1366" unicode="&#xb057;" horiz-adv-x="908" 
d="M324 403q10 35 16 65.5t9 62t4 67t1 81.5h-238v57h305v-72q0 -39 -1.5 -72t-5.5 -64.5t-9.5 -62t-13.5 -63.5zM689 403q7 40 12 73.5t8.5 65.5t5 65t2.5 72h-248v57h314q2 -75 -5.5 -162.5t-22.5 -172.5zM869 352v-60h-830v60h830zM106 -55q86 24 146 57.5t97.5 69.5
t54 69t16.5 56v26h66v-29q0 -42 -25.5 -85.5t-71 -84t-110 -75t-142.5 -56.5zM530 102q14 -17 37.5 -36.5t57 -39.5t77.5 -38t99 -31l-30 -55q-45 12 -88.5 29t-81 38t-68.5 45.5t-50 51.5z" />
    <glyph glyph-name="cid1367" unicode="&#xb059;" horiz-adv-x="908" 
d="M326 411q9 34 14.5 63t8.5 59.5t4 65.5t1 80h-238v57h305v-72q0 -74 -7 -132.5t-21 -121.5zM691 411q6 39 11 71t8 63t4.5 63t2.5 71h-248v57h314q2 -73 -5 -157.5t-21 -168.5zM869 371v-59h-830v59h830zM278 129q-39 -11 -59.5 -33.5t-20.5 -49.5q0 -59 69 -84t187 -25
q58 0 105.5 6t81 18.5t51.5 33t18 49.5t-18 49.5t-51.5 33t-81 18t-105.5 5.5q-35 0 -65.5 -1.5t-56.5 -6.5l-34 50q32 6 71 9.5t85 3.5q324 0 324 -161t-324 -161q-165 0 -244.5 40t-79.5 123q0 92 113 132z" />
    <glyph glyph-name="cid1368" unicode="&#xb05d;" horiz-adv-x="908" 
d="M322 443q11 36 17.5 71t9.5 66.5t4 57t1 41.5h-238v57h305v-45q0 -42 -6.5 -108t-25.5 -140h-67zM696 443q13 66 17 123t4 113h-248v57h314q1 -26 0 -61t-3.5 -74t-6.5 -79.5t-10 -78.5h-67zM869 349h-830v59h830v-59zM145 190v58h620v-58h-620zM784 -45v-58h-639v258h67
v-51h553v-58h-553v-91h572z" />
    <glyph glyph-name="cid1369" unicode="&#xb07c;" horiz-adv-x="869" 
d="M762 766v-838h-68v838h68zM280 673q0 -72 -6 -147.5t-18 -151.5t-29 -148.5t-39 -138.5l-64 12q25 71 43 145.5t29.5 146t16.5 138t4 121.5h-178v57h241v-34zM402 80q19 78 31.5 160t19 158.5t8.5 142t1 109.5h-142v57h207q2 -76 -1.5 -158.5t-11 -165.5t-19 -163
t-26.5 -152z" />
    <glyph glyph-name="cid1370" unicode="&#xb07d;" horiz-adv-x="889" 
d="M781 766v-487h-67v487h67zM288 693q-3 -103 -21.5 -199.5t-44.5 -184.5l-63 16q15 42 26.5 91t19 96t11.5 88.5t4 68.5h-181v58h249v-34zM548 727q0 -56 -4 -114.5t-11 -115t-17 -109.5t-22 -99l-64 14q14 42 23.5 94.5t15 104t8 96t2.5 71.5h-151v58h220zM164 159v58
h617v-310h-67v252h-550z" />
    <glyph glyph-name="cid1371" unicode="&#xb080;" horiz-adv-x="889" 
d="M781 766v-672h-67v672h67zM288 683q-1 -51 -7 -108.5t-16 -115t-22.5 -111t-26.5 -97.5l-63 16q16 42 28.5 98.5t21.5 112.5t13.5 105t3.5 76h-181v58h249v-34zM548 717q1 -56 -3 -122t-11 -131.5t-17.5 -126.5t-23.5 -107l-64 14q15 42 24.5 102.5t15.5 121t8.5 112.5
t1.5 79h-151v58h220zM801 -30v-58h-613v240h68v-182h545z" />
    <glyph glyph-name="cid1372" unicode="&#xb084;" horiz-adv-x="889" 
d="M714 309v457h67v-457h-67zM167 351q13 42 23 87t17 87t10 79.5t3 64.5h-181v58h249v-34q-2 -51 -6.5 -97t-12 -88.5t-17 -84.5t-21.5 -86zM436 341q14 42 22.5 88.5t13 91t6 83t1.5 65.5h-151v58h220q0 -113 -12 -210t-36 -190zM710 207h-526v58h598v-118h-72v60z
M782 112v-57h-598v57h598zM811 -103h-627v123h72v-65h555v-58z" />
    <glyph glyph-name="cid1373" unicode="&#xb08c;" horiz-adv-x="889" 
d="M781 766v-487h-67v487h67zM288 693q-3 -103 -21.5 -199.5t-44.5 -184.5l-63 16q15 42 26.5 91t19 96t11.5 88.5t4 68.5h-181v58h249v-34zM548 727q0 -56 -4 -114.5t-11 -115t-17 -109.5t-22 -99l-64 14q14 42 23.5 94.5t15 104t8 96t2.5 71.5h-151v58h220zM184 217h63
v-310h-63v310zM286 160v57h495v-217h-68v160h-427zM782 -35v-58h-496v58h496z" />
    <glyph glyph-name="cid1374" unicode="&#xb08d;" horiz-adv-x="889" 
d="M781 766v-457h-67v457h67zM288 693q-3 -103 -21.5 -199.5t-44.5 -184.5l-63 16q15 42 26.5 91t19 96t11.5 88.5t4 68.5h-181v58h249v-34zM548 727q0 -56 -4 -114.5t-11 -115t-17 -109.5t-22 -99l-64 14q14 42 23.5 94.5t15 104t8 96t2.5 71.5h-151v58h220zM184 264h67
v-129h424v-58h-424v-170h-67v357zM782 264v-264h-67v264h67zM291 -93v58h492v-58h-492z" />
    <glyph glyph-name="cid1375" unicode="&#xb08f;" horiz-adv-x="889" 
d="M781 766v-545h-67v545h67zM288 693q-3 -103 -23 -204.5t-46 -189.5l-63 16q15 42 27 92.5t20 99.5t12.5 92t4.5 70h-181v58h249v-34zM548 727q0 -56 -4.5 -116t-12 -118.5t-18 -113t-22.5 -100.5l-64 14q14 42 24 96t16 107.5t9 99.5t3 73h-151v58h220zM150 -55
q84 24 142.5 57t95.5 69t54 71.5t17 64.5v16h67v-16q0 -49 -25.5 -95.5t-71.5 -87.5t-109.5 -74.5t-138.5 -56.5zM567 105q33 -40 98 -81t170 -67l-30 -55q-93 28 -167.5 67t-118.5 99z" />
    <glyph glyph-name="cid1376" unicode="&#xb091;" horiz-adv-x="889" 
d="M781 766v-496h-67v496h67zM288 693q-3 -103 -21.5 -199.5t-44.5 -184.5l-63 16q15 42 26.5 91t19 96t11.5 88.5t4 68.5h-181v58h249v-34zM548 727q0 -56 -4 -114.5t-11 -115t-17 -109.5t-22 -99l-64 14q14 42 23.5 94.5t15 104t8 96t2.5 71.5h-151v58h220zM338 219
q31 6 68 9.5t82 3.5q159 0 234 -43t75 -122q0 -78 -75 -121.5t-234 -43.5t-233.5 43.5t-74.5 121.5q0 92 97 133l31 -49q-64 -27 -64 -84q0 -58 64 -83.5t180 -25.5t180.5 25.5t64.5 83.5q0 59 -64.5 84.5t-180.5 25.5q-68 0 -119 -9z" />
    <glyph glyph-name="cid1377" unicode="&#xb098;" horiz-adv-x="942" 
d="M704 766h67v-838h-67v838zM654 140q-63 -13 -147 -20t-187 -8l-213 -1v596h68v-538h146q98 0 182.5 8t150.5 22v-59zM942 371h-136v58h136v-58z" />
    <glyph glyph-name="cid1378" unicode="&#xb099;" horiz-adv-x="962" 
d="M787 766v-487h-68v487h68zM670 355q-63 -14 -149 -18.5t-189 -4.5h-220v399h68v-341h153q100 0 186 4.5t151 18.5v-58zM958 464h-136v57h136v-57zM198 159v58h598v-310h-67v252h-531z" />
    <glyph glyph-name="cid1379" unicode="&#xb09a;" horiz-adv-x="962" 
d="M787 766v-487h-68v487h68zM670 355q-63 -14 -149 -18.5t-189 -4.5h-220v399h68v-341h153q100 0 186 4.5t151 18.5v-58zM958 464h-136v57h136v-57zM405 159h-249v58h316v-310h-67v252zM796 -93h-67v252h-217v58h284v-310z" />
    <glyph glyph-name="cid1380" unicode="&#xb09c;" horiz-adv-x="957" 
d="M714 766h67v-672h-67v672zM664 274q-34 -5 -67.5 -9t-72.5 -6.5t-85.5 -3.5t-106.5 -1h-220v473h68v-415h153q58 0 104.5 1t85.5 3.5t73 7t68 10.5v-60zM952 424h-136v57h136v-57zM815 -30v-58h-612v245h68v-187h544z" />
    <glyph glyph-name="cid1381" unicode="&#xb09f;" horiz-adv-x="962" 
d="M796 766v-245h161v-57h-161v-185h-67v487h67zM670 355q-63 -14 -149 -18.5t-189 -4.5h-220v399h68v-341h153q100 0 186 4.5t151 18.5v-58zM796 217v-57h-593v57h593zM815 -35v-58h-611v218h68v-160h543z" />
    <glyph glyph-name="cid1382" unicode="&#xb0a0;" horiz-adv-x="962" 
d="M957 474h-161v-165h-67v457h67v-235h161v-57zM679 375q-66 -13 -151 -18t-206 -5h-210v384h68v-327h143q117 0 202 5.5t154 19.5v-59zM727 197h-524v58h594v-113h-70v55zM797 107v-57h-594v57h594zM825 -45v-58h-622v118h70v-60h552z" />
    <glyph glyph-name="cid1383" unicode="&#xb0a1;" horiz-adv-x="962" 
d="M796 473v-164h-67v457h67v-236h161v-57h-161zM680 374q-63 -14 -154 -18.5t-194 -4.5h-220v384h68v-326h153q100 0 191 4.5t156 18.5v-58zM413 201h-251v55h317v-117h-66v62zM796 256v-359h-67v303h-210v56h277zM162 50v54h317v-54h-317zM350 -48q21 0 45.5 1t48 4
t45 7.5t38.5 10.5l15 -53q-19 -8 -43 -13t-49.5 -7.5t-51.5 -3.5t-48 -1h-187v118h66v-63h121z" />
    <glyph glyph-name="cid1384" unicode="&#xb0a2;" horiz-adv-x="962" 
d="M796 473v-164h-67v457h67v-236h161v-57h-161zM680 374q-63 -14 -154 -18.5t-194 -4.5h-220v384h68v-326h153q100 0 191 4.5t156 18.5v-58zM376 200h-214v55h279v-116h-65v61zM584 255v-358h-64v358h64zM795 255v-273h-64v218h-117v55h181zM162 50v54h279v-54h-279z
M304 -48q19 0 41.5 1t45.5 4t44.5 7.5t38.5 10.5l15 -53q-19 -8 -43 -13t-49 -7.5t-49.5 -3.5t-43.5 -1h-141v118h65v-63h76zM795 -48v-55h-181v55h181z" />
    <glyph glyph-name="cid1385" unicode="&#xb0a8;" horiz-adv-x="962" 
d="M796 464v-185h-67v487h67v-245h161v-57h-161zM680 355q-63 -14 -154 -18.5t-194 -4.5h-220v399h68v-341h153q100 0 191 4.5t156 18.5v-58zM268 217v-310h-65v310h65zM796 217v-217h-66v159h-422v58h488zM796 -35v-58h-488v58h488z" />
    <glyph glyph-name="cid1386" unicode="&#xb0a9;" horiz-adv-x="962" 
d="M957 464h-161v-155h-67v457h67v-245h161v-57zM680 355q-63 -14 -154 -18.5t-194 -4.5h-220v399h68v-341h153q100 0 191 4.5t156 18.5v-58zM269 76v-169h-66v357h66v-130h420v-58h-420zM729 0v264h67v-264h-67zM797 -35v-58h-488v58h488z" />
    <glyph glyph-name="cid1387" unicode="&#xb0ab;" horiz-adv-x="962" 
d="M957 455h-161v-234h-67v545h67v-254h161v-57zM680 345q-63 -14 -154 -18.5t-194 -4.5h-220v409h68v-351h153q100 0 191 4.5t156 18.5v-58zM541 207q0 -49 -25.5 -95.5t-71.5 -87.5t-109.5 -74.5t-138.5 -56.5l-31 52q84 24 142.5 57t95.5 69t54 71.5t17 64.5v16h67v-16z
M582 105q33 -40 98 -81t170 -67l-30 -55q-93 28 -167.5 67t-118.5 99z" />
    <glyph glyph-name="cid1388" unicode="&#xb0ac;" horiz-adv-x="962" 
d="M957 464h-161v-185h-67v487h67v-245h161v-57zM680 360q-63 -14 -154 -18.5t-194 -4.5h-220v394h68v-336h153q100 0 191 4.5t156 18.5v-58zM367 207q0 -23 6 -51.5t20.5 -58.5t38.5 -58.5t60 -52.5q-10 -9 -23 -20t-27 -20q-59 45 -85 93q-4 8 -8 20t-6 23h-14
q-2 -11 -6.5 -24t-9.5 -21q-18 -37 -56.5 -76.5t-92.5 -74.5l-44 41q56 34 91.5 73t55.5 77t27.5 72t7.5 58v36h65v-36zM707 202q0 -79 -44 -158.5t-146 -157.5l-49 44q49 33 82.5 69t53.5 72t29 69.5t10 61.5l1 41h63v-41zM743 76q19 -34 50.5 -69.5t90.5 -69.5l-44 -46
q-54 35 -86.5 69t-57.5 79z" />
    <glyph glyph-name="cid1389" unicode="&#xb0ad;" horiz-adv-x="962" 
d="M957 464h-161v-199h-67v501h67v-245h161v-57zM680 345q-63 -14 -154 -18.5t-194 -4.5h-220v409h68v-351h153q100 0 191 4.5t156 18.5v-58zM501 227q158 0 234 -44t76 -117q0 -78 -75.5 -121t-234.5 -43t-233.5 43.5t-74.5 121.5q0 39 23.5 72.5t73.5 54.5l31 -50
q-32 -14 -47.5 -34t-15.5 -43q0 -58 63.5 -83.5t179.5 -25.5t180.5 25t64.5 83q0 53 -64.5 79.5t-180.5 26.5q-34 0 -63.5 -2.5t-55.5 -7.5l-31 51q31 6 68 10t82 4z" />
    <glyph glyph-name="cid1390" unicode="&#xb0ae;" horiz-adv-x="962" 
d="M957 460h-161v-181h-67v487h67v-249h161v-57zM680 364q-63 -14 -154 -18.5t-194 -4.5h-220v390h68v-332h153q100 0 191 4.5t156 18.5v-58zM526 159q0 -32 -21.5 -69t-63 -73t-102.5 -67.5t-140 -51.5l-32 53q78 19 133.5 46.5t91 57t52 57.5t16.5 47h-279v58h624v-58
h-279zM573 78q32 -34 91.5 -66t157.5 -52l-32 -55q-38 10 -76 23t-72.5 29.5t-64 37.5t-50.5 47z" />
    <glyph glyph-name="cid1391" unicode="&#xb0af;" horiz-adv-x="962" 
d="M957 474h-161v-195h-67v487h67v-235h161v-57zM680 375q-63 -14 -154 -18.5t-194 -4.5h-220v383h68v-325h153q100 0 191 4.5t156 18.5v-58zM343 277h316v-56h-316v56zM533 97q1 -36 -29 -68.5t-78 -58.5t-107.5 -44.5t-117.5 -27.5l-29 55q80 10 135.5 28t91 38.5t51.5 41
t17 36.5h-276v55h624v-55h-282zM577 38q16 -14 42 -27t59 -23.5t71 -18t80 -11.5l-27 -54q-91 11 -162.5 37.5t-107.5 63.5z" />
    <glyph glyph-name="cid1392" unicode="&#xb0b1;" horiz-adv-x="962" 
d="M796 766v-235h161v-57h-161v-175h-67v467h67zM670 365q-63 -14 -149 -18.5t-189 -4.5h-220v394h68v-337h153q100 0 186 4.5t151 18.5v-57zM795 235v-58h-593v58h593zM825 -45v-58h-621v240h65v-182h556zM795 98v-58h-490v58h490z" />
    <glyph glyph-name="cid1393" unicode="&#xb0b3;" horiz-adv-x="962" 
d="M796 531h161v-57h-161v-175h-67v467h67v-235zM679 385q-66 -13 -151 -18t-206 -5h-210v374h68v-317h143q117 0 202 5.5t154 19.5v-59zM335 282h336v-56h-336v56zM833 175v-55h-659v55h659zM371 20q-31 -6 -44.5 -15t-13.5 -22q0 -45 190 -45q90 0 138.5 11.5t48.5 33.5
q0 23 -49 33.5t-141 10.5h-43.5t-37.5 -2l-30 49q24 2 51.5 3.5t59.5 1.5q135 0 196.5 -24t61.5 -72q0 -47 -61 -71t-194 -24q-68 0 -116.5 6t-79.5 18t-45 30t-14 41q0 60 94 83z" />
    <glyph glyph-name="cid1394" unicode="&#xb0b4;" horiz-adv-x="947" 
d="M840 -72h-67v458h-215v370h68v-313h147v323h67v-838zM261 179q29 0 62 1t65.5 3.5t63 5.5t56.5 7v-57q-50 -8 -114.5 -12t-133.5 -5l-153 -1v576h68v-518h86zM626 346v-404h-68v404h68z" />
    <glyph glyph-name="cid1395" unicode="&#xb0b5;" horiz-adv-x="928" 
d="M624 755v-200h132v211h64v-506h-64v237h-196v258h64zM525 326q-59 -8 -133 -11t-166 -3h-114v415h68v-357h50q89 0 162 3t133 11v-58zM560 260v207h64v-207h-64zM213 140v57h604v-290h-67v233h-537z" />
    <glyph glyph-name="cid1396" unicode="&#xb0b8;" horiz-adv-x="923" 
d="M624 755v-269h126v280h64l1 -672h-64l-1 335h-191v326h65zM525 268q-59 -8 -133 -11t-166 -3h-114v468h68v-410h50q89 0 162 3t133 11v-58zM560 104v295h64v-295h-64zM835 -30v-58h-612v240h67v-182h545z" />
    <glyph glyph-name="cid1397" unicode="&#xb0bc;" horiz-adv-x="928" 
d="M560 299v456h64v-182h132v193h64v-467h-64v216h-132v-216h-64zM525 355q-59 -8 -133 -11t-166 -3h-114v390h68v-332h50q89 0 162 3t133 11v-58zM746 178h-518v57h589v-101h-71v44zM817 98v-57h-589v57h589zM847 -103h-619v109h71v-51h548v-58z" />
    <glyph glyph-name="cid1398" unicode="&#xb0c4;" horiz-adv-x="928" 
d="M820 260h-64v226h-132v-226h-64v495h64v-211h132v222h64v-506zM525 326q-59 -8 -133 -11t-166 -3h-114v415h68v-357h50q89 0 162 3t133 11v-58zM292 197v-290h-63v290h63zM750 140h-419v57h487v-197h-68v140zM819 -35v-58h-488v58h488z" />
    <glyph glyph-name="cid1399" unicode="&#xb0c5;" horiz-adv-x="928" 
d="M820 270h-64v216h-132v-216h-64v485h64v-211h132v222h64v-496zM525 326q-59 -8 -133 -11t-166 -3h-114v415h68v-357h50q89 0 162 3t133 11v-58zM295 58v-151h-67v317h67v-109h415v-57h-415zM817 0h-67v224h67v-224zM818 -35v-58h-483v58h483z" />
    <glyph glyph-name="cid1400" unicode="&#xb0c7;" horiz-adv-x="928" 
d="M560 250v505h64v-231h132v242h64v-565h-64v265h-132v-216h-64zM525 316q-59 -8 -133 -11t-166 -3h-114v425h68v-367h50q89 0 162 3t133 11v-58zM536 187q0 -49 -26 -94.5t-72 -84t-109.5 -68t-138.5 -47.5l-31 52q84 19 142.5 49t96 63.5t54.5 68t17 61.5v16h67v-16z
M576 91q16 -19 40.5 -39t57.5 -38.5t75 -33t95 -23.5l-30 -55q-93 19 -167.5 56.5t-118.5 95.5z" />
    <glyph glyph-name="cid1401" unicode="&#xb0c8;" horiz-adv-x="928" 
d="M560 265v490h64v-209h132v220h64v-522h-64v244h-132v-223h-64zM525 326q-59 -8 -133 -11t-166 -3h-114v415h68v-357h50q89 0 162 3t133 11v-58zM371 187q0 -23 6 -48.5t20.5 -51.5t38.5 -51.5t60 -49.5q-10 -9 -23 -20t-26 -20q-30 23 -49.5 44.5t-35.5 44.5
q-5 7 -10 18.5t-7 22.5h-13q-1 -11 -5.5 -24t-9.5 -21q-20 -35 -57.5 -72.5t-92.5 -72.5l-44 41q56 34 91.5 70t55.5 70t27.5 65t7.5 55v27h66v-27zM709 192q0 -39 -10 -77.5t-32.5 -76t-58.5 -75.5t-88 -77l-49 44q51 33 84.5 68t54 69t28.5 66t8 59v22h63v-22zM743 71
q17 -30 50.5 -65t93.5 -69l-44 -46q-53 34 -88 67.5t-57 77.5z" />
    <glyph glyph-name="cid1402" unicode="&#xb0c9;" horiz-adv-x="928" 
d="M820 211h-64v266h-132v-227h-64v505h64v-220h132v231h64v-555zM525 321q-59 -8 -133 -11t-166 -3h-114v420h68v-362h50q89 0 162 3t133 11v-58zM505 202q79 0 137.5 -11t96.5 -30.5t57 -46.5t19 -58q0 -75 -79 -114.5t-231 -39.5q-156 0 -233.5 39.5t-77.5 114.5
q0 32 24.5 64.5t75.5 49.5l32 -49q-32 -9 -47.5 -28.5t-15.5 -36.5q0 -54 65.5 -77t176.5 -23q54 0 98.5 5.5t76.5 17t49.5 30.5t17.5 46q0 42 -63.5 67t-178.5 25q-69 0 -118 -9l-32 50q32 7 68.5 10.5t81.5 3.5z" />
    <glyph glyph-name="cid1403" unicode="&#xb0d0;" horiz-adv-x="957" 
d="M760 766v-838h-67v838h67zM643 140q-63 -13 -146.5 -20t-186.5 -8l-203 -1v596h68v-538h136q98 0 182 8t150 22v-59zM942 480h-142v56h142v-56zM942 234h-142v57h142v-57z" />
    <glyph glyph-name="cid1404" unicode="&#xb0d1;" horiz-adv-x="972" 
d="M787 766v-487h-68v487h68zM670 355q-63 -14 -149 -18.5t-189 -4.5h-220v399h68v-341h153q100 0 186 4.5t151 18.5v-58zM952 567h-130v57h130v-57zM952 371h-130v57h130v-57zM198 159v58h598v-310h-67v252h-531z" />
    <glyph glyph-name="cid1405" unicode="&#xb0d4;" horiz-adv-x="967" 
d="M714 766h67v-672h-67v672zM664 274q-34 -5 -67.5 -9t-72.5 -6.5t-85.5 -3.5t-106.5 -1h-220v473h68v-415h153q58 0 104.5 1t85.5 3.5t73 7t68 10.5v-60zM947 528h-131v57h131v-57zM947 322h-131v57h131v-57zM815 -30v-58h-612v245h68v-187h544z" />
    <glyph glyph-name="cid1406" unicode="&#xb0d8;" horiz-adv-x="972" 
d="M796 468h156v-58h-156v-101h-67v457h67v-122h156v-58h-156v-118zM679 375q-66 -13 -151 -18t-206 -5h-210v384h68v-327h143q117 0 202 5.5t154 19.5v-59zM727 197h-524v58h594v-113h-70v55zM797 107v-57h-594v57h594zM825 -45v-58h-622v118h70v-60h552z" />
    <glyph glyph-name="cid1407" unicode="&#xb0e0;" horiz-adv-x="972" 
d="M796 766v-142h156v-58h-156v-137h156v-58h-156v-92h-67v487h67zM680 355q-63 -14 -154 -18.5t-194 -4.5h-220v399h68v-341h153q100 0 191 4.5t156 18.5v-58zM203 217h65v-310h-65v310zM308 159v58h488v-217h-66v159h-422zM308 -93v58h488v-58h-488z" />
    <glyph glyph-name="cid1408" unicode="&#xb0e5;" horiz-adv-x="972" 
d="M796 766v-142h156v-58h-156v-137h156v-58h-156v-106h-67v501h67zM680 345q-63 -14 -154 -18.5t-194 -4.5h-220v409h68v-351h153q100 0 191 4.5t156 18.5v-58zM351 213q31 6 68 10t82 4q158 0 234 -44t76 -117q0 -78 -75.5 -121t-234.5 -43t-233.5 43.5t-74.5 121.5
q0 39 23.5 72.5t73.5 54.5l31 -50q-32 -14 -47.5 -34t-15.5 -43q0 -58 63.5 -83.5t179.5 -25.5t180.5 25t64.5 83q0 53 -64.5 79.5t-180.5 26.5q-34 0 -63.5 -2.5t-55.5 -7.5z" />
    <glyph glyph-name="cid1409" unicode="&#xb108;" horiz-adv-x="908" 
d="M791 -72h-68v838h68v-838zM214 159q101 0 194 5.5t178 27.5l14 -53q-75 -21 -174 -29t-213 -8h-106v605h68v-548h39zM683 468v-57h-202v57h202z" />
    <glyph glyph-name="cid1410" unicode="&#xb109;" horiz-adv-x="923" 
d="M815 279h-67v487h67v-487zM591 350q-66 -13 -150.5 -18t-200.5 -5h-128v404h68v-346h65q106 0 187.5 4.5t147.5 16.5zM492 574h221v-57h-221v57zM213 159v58h602v-310h-67v252h-535z" />
    <glyph glyph-name="cid1411" unicode="&#xb10b;" horiz-adv-x="923" 
d="M805 289h-67v477h67v-477zM591 350q-66 -13 -150.5 -18t-200.5 -5h-128v404h68v-346h65q106 0 187.5 4.5t147.5 16.5zM492 574h206v-57h-206v57zM504 -59q81 48 126.5 114.5t45.5 151.5v30h62v-30q0 -94 -50.5 -175.5t-139.5 -134.5zM421 169h-258v58h326v-320h-68v262z
M768 87q18 -33 52 -69.5t93 -68.5l-43 -44q-60 37 -93.5 70.5t-50.5 69.5l-3 7z" />
    <glyph glyph-name="cid1412" unicode="&#xb10c;" horiz-adv-x="918" 
d="M806 94h-68v672h68v-672zM591 271q-66 -12 -150.5 -17t-200.5 -5h-128v478h68v-420h65q106 0 187.5 4.5t147.5 16.5zM698 473h-216v57h216v-57zM825 -30v-58h-607v245h67v-187h540z" />
    <glyph glyph-name="cid1413" unicode="&#xb110;" horiz-adv-x="923" 
d="M492 526v58h251v182h67v-457h-67v217h-251zM591 369q-66 -12 -150.5 -17t-200.5 -5h-128v389h68v-332h65q106 0 187.5 4.5t147.5 17.5zM739 197h-521v58h592v-113h-71v55zM810 107v-57h-592v57h592zM840 -103h-622v118h72v-60h550v-58z" />
    <glyph glyph-name="cid1414" unicode="&#xb112;" horiz-adv-x="923" 
d="M492 526v58h256v182h67v-457h-67v217h-256zM591 369q-66 -12 -150.5 -17t-200.5 -5h-128v389h68v-332h65q106 0 187.5 4.5t147.5 17.5zM182 200v55h279v-116h-65v61h-214zM540 255h64v-358h-64v358zM634 200v55h181v-273h-64v218h-117zM461 104v-54h-279v54h279zM324 -48
q19 0 41.5 1t45.5 4t44.5 7.5t38.5 10.5l15 -53q-19 -8 -43 -13t-49 -7.5t-49.5 -3.5t-43.5 -1h-141v118h65v-63h76zM634 -103v55h181v-55h-181z" />
    </font>
</defs>
</svg>
